<svg xmlns="http://www.w3.org/2000/svg" version="1.1" width="581.7mm" height="492.7mm" viewBox = " 0 0 2061.143427 1745.7888369999998" >
<!-- Front--> 
<g transform="translate(22.500018499999996, 22.500018499999996) " > 
<polygon style="stroke:#000000; fill:none; stroke-width:0.035433099999999995" points="0, 0 18.6023775, 0 18.6023775, 14.17324 37.204755, 14.17324 37.204755, 0 51.377995, 0 51.377995, 14.17324 65.55123499999999, 14.17324 65.55123499999999, 0 79.724475, 0 79.724475, 14.17324 93.897715, 14.17324 93.897715, 0 108.070955, 0 108.070955, 14.17324 122.24419499999999, 14.17324 122.24419499999999, 0 136.417435, 0 136.417435, 14.17324 150.590675, 14.17324 150.590675, 0 164.763915, 0 164.763915, 14.17324 178.937155, 14.17324 178.937155, 0 193.110395, 0 193.110395, 14.17324 207.283635, 14.17324 207.283635, 0 221.456875, 0 221.456875, 14.17324 235.63011500000002, 14.17324 235.63011500000002, 0 249.803355, 0 249.803355, 14.17324 263.976595, 14.17324 263.976595, 0 278.149835, 0 278.149835, 14.17324 292.32307499999996, 14.17324 292.32307499999996, 0 306.496315, 0 306.496315, 14.17324 320.66955499999995, 14.17324 320.66955499999995, 0 334.84279499999997, 0 334.84279499999997, 14.17324 349.016035, 14.17324 349.016035, 0 363.18927499999995, 0 363.18927499999995, 14.17324 377.362515, 14.17324 377.362515, 0 391.535755, 0 391.535755, 14.17324 405.70899499999996, 14.17324 405.70899499999996, 0 419.882235, 0 419.882235, 14.17324 434.055475, 14.17324 434.055475, 0 448.22871499999997, 0 448.22871499999997, 14.17324 462.401955, 14.17324 462.401955, 0 476.57519499999995, 0 476.57519499999995, 14.17324 490.748435, 14.17324 490.748435, 0 504.921675, 0 504.921675, 14.17324 519.094915, 14.17324 519.094915, 0 533.268155, 0 533.268155, 14.17324 547.4413949999999, 14.17324 547.4413949999999, 0 561.614635, 0 561.614635, 14.17324 575.787875, 14.17324 575.787875, 0 589.961115, 0 589.961115, 14.17324 604.1343549999999, 14.17324 604.1343549999999, 0 618.307595, 0 618.307595, 14.17324 632.480835, 14.17324 632.480835, 0 646.6540749999999, 0 646.6540749999999, 14.17324 660.827315, 14.17324 660.827315, 0 675.000555, 0 675.000555, 14.17324 689.1737949999999, 14.17324 689.1737949999999, 0 703.347035, 0 703.347035, 14.17324 717.520275, 14.17324 717.520275, 0 731.6935149999999, 0 731.6935149999999, 14.17324 745.866755, 14.17324 745.866755, 0 760.039995, 0 760.039995, 14.17324 774.2132349999999, 14.17324 774.2132349999999, 0 788.386475, 0 788.386475, 14.17324 802.559715, 14.17324 802.559715, 0 816.732955, 0 816.732955, 14.17324 830.906195, 14.17324 830.906195, 0 845.079435, 0 845.079435, 14.17324 859.252675, 14.17324 859.252675, 0 873.4259149999999, 0 873.4259149999999, 14.17324 887.599155, 14.17324 887.599155, 0 901.772395, 0 901.772395, 14.17324 915.9456349999999, 14.17324 915.9456349999999, 0 930.118875, 0 930.118875, 14.17324 948.7212525, 14.17324 948.7212525, 0 967.32363, 0 967.32363, 17.716549999999998 953.15039, 17.716549999999998 953.15039, 35.433099999999996 967.32363, 35.433099999999996 967.32363, 49.606339999999996 953.15039, 49.606339999999996 953.15039, 63.779579999999996 967.32363, 63.779579999999996 967.32363, 77.95282 953.15039, 77.95282 953.15039, 92.12606 967.32363, 92.12606 967.32363, 106.29929999999999 953.15039, 106.29929999999999 953.15039, 120.47254 967.32363, 120.47254 967.32363, 134.64578 953.15039, 134.64578 953.15039, 148.81902 967.32363, 148.81902 967.32363, 162.99226 953.15039, 162.99226 953.15039, 177.16549999999998 967.32363, 177.16549999999998 967.32363, 191.33874 953.15039, 191.33874 953.15039, 205.51198 967.32363, 205.51198 967.32363, 219.68522 953.15039, 219.68522 953.15039, 233.85846 967.32363, 233.85846 967.32363, 248.0317 953.15039, 248.0317 953.15039, 262.20493999999997 967.32363, 262.20493999999997 967.32363, 276.37818 953.15039, 276.37818 953.15039, 290.55142 967.32363, 290.55142 967.32363, 304.72466 953.15039, 304.72466 953.15039, 318.89789999999994 967.32363, 318.89789999999994 967.32363, 333.07114 953.15039, 333.07114 953.15039, 347.24438 967.32363, 347.24438 967.32363, 361.41761999999994 953.15039, 361.41761999999994 953.15039, 375.59086 967.32363, 375.59086 967.32363, 389.7641 953.15039, 389.7641 953.15039, 403.93733999999995 967.32363, 403.93733999999995 967.32363, 418.11058 953.15039, 418.11058 953.15039, 432.28382 967.32363, 432.28382 967.32363, 446.45705999999996 953.15039, 446.45705999999996 953.15039, 460.63030000000003 967.32363, 460.63030000000003 967.32363, 474.80354 953.15039, 474.80354 953.15039, 488.97677999999996 967.32363, 488.97677999999996 967.32363, 503.15002000000004 953.15039, 503.15002000000004 953.15039, 517.32326 967.32363, 517.32326 967.32363, 531.4965 953.15039, 531.4965 953.15039, 545.6697399999999 967.32363, 545.6697399999999 967.32363, 559.84298 953.15039, 559.84298 953.15039, 574.01622 967.32363, 574.01622 967.32363, 588.1894599999999 953.15039, 588.1894599999999 953.15039, 602.3626999999999 967.32363, 602.3626999999999 967.32363, 616.53594 953.15039, 616.53594 953.15039, 630.70918 967.32363, 630.70918 967.32363, 644.8824199999999 953.15039, 644.8824199999999 953.15039, 659.05566 967.32363, 659.05566 967.32363, 673.2289 953.15039, 673.2289 953.15039, 687.4021399999999 967.32363, 687.4021399999999 967.32363, 701.57538 953.15039, 701.57538 953.15039, 715.74862 967.32363, 715.74862 967.32363, 729.9218599999999 953.15039, 729.9218599999999 953.15039, 744.0951 967.32363, 744.0951 967.32363, 758.26834 953.15039, 758.26834 953.15039, 772.4415799999999 967.32363, 772.4415799999999 967.32363, 786.61482 953.15039, 786.61482 953.15039, 800.78806 967.32363, 800.78806 967.32363, 814.9612999999999 953.15039, 814.9612999999999 953.15039, 832.6778499999999 967.32363, 832.6778499999999 967.32363, 850.3944 948.7212525, 850.3944 948.7212525, 836.22116 930.118875, 836.22116 930.118875, 850.3944 915.9456349999999, 850.3944 915.9456349999999, 836.22116 901.772395, 836.22116 901.772395, 850.3944 887.599155, 850.3944 887.599155, 836.22116 873.4259149999999, 836.22116 873.4259149999999, 850.3944 859.252675, 850.3944 859.252675, 836.22116 845.079435, 836.22116 845.079435, 850.3944 830.906195, 850.3944 830.906195, 836.22116 816.732955, 836.22116 816.732955, 850.3944 802.559715, 850.3944 802.559715, 836.22116 788.386475, 836.22116 788.386475, 850.3944 774.2132349999999, 850.3944 774.2132349999999, 836.22116 760.039995, 836.22116 760.039995, 850.3944 745.866755, 850.3944 745.866755, 836.22116 731.6935149999999, 836.22116 731.6935149999999, 850.3944 717.520275, 850.3944 717.520275, 836.22116 703.347035, 836.22116 703.347035, 850.3944 689.1737949999999, 850.3944 689.1737949999999, 836.22116 675.000555, 836.22116 675.000555, 850.3944 660.827315, 850.3944 660.827315, 836.22116 646.6540749999999, 836.22116 646.6540749999999, 850.3944 632.480835, 850.3944 632.480835, 836.22116 618.307595, 836.22116 618.307595, 850.3944 604.1343549999999, 850.3944 604.1343549999999, 836.22116 589.961115, 836.22116 589.961115, 850.3944 575.787875, 850.3944 575.787875, 836.22116 561.614635, 836.22116 561.614635, 850.3944 547.4413949999999, 850.3944 547.4413949999999, 836.22116 533.268155, 836.22116 533.268155, 850.3944 519.094915, 850.3944 519.094915, 836.22116 504.921675, 836.22116 504.921675, 850.3944 490.748435, 850.3944 490.748435, 836.22116 476.57519499999995, 836.22116 476.57519499999995, 850.3944 462.401955, 850.3944 462.401955, 836.22116 448.22871499999997, 836.22116 448.22871499999997, 850.3944 434.055475, 850.3944 434.055475, 836.22116 419.882235, 836.22116 419.882235, 850.3944 405.70899499999996, 850.3944 405.70899499999996, 836.22116 391.535755, 836.22116 391.535755, 850.3944 377.362515, 850.3944 377.362515, 836.22116 363.18927499999995, 836.22116 363.18927499999995, 850.3944 349.016035, 850.3944 349.016035, 836.22116 334.84279499999997, 836.22116 334.84279499999997, 850.3944 320.66955499999995, 850.3944 320.66955499999995, 836.22116 306.496315, 836.22116 306.496315, 850.3944 292.32307499999996, 850.3944 292.32307499999996, 836.22116 278.149835, 836.22116 278.149835, 850.3944 263.976595, 850.3944 263.976595, 836.22116 249.803355, 836.22116 249.803355, 850.3944 235.63011500000002, 850.3944 235.63011500000002, 836.22116 221.456875, 836.22116 221.456875, 850.3944 207.283635, 850.3944 207.283635, 836.22116 193.110395, 836.22116 193.110395, 850.3944 178.937155, 850.3944 178.937155, 836.22116 164.763915, 836.22116 164.763915, 850.3944 150.590675, 850.3944 150.590675, 836.22116 136.417435, 836.22116 136.417435, 850.3944 122.24419499999999, 850.3944 122.24419499999999, 836.22116 108.070955, 836.22116 108.070955, 850.3944 93.897715, 850.3944 93.897715, 836.22116 79.724475, 836.22116 79.724475, 850.3944 65.55123499999999, 850.3944 65.55123499999999, 836.22116 51.377995, 836.22116 51.377995, 850.3944 37.204755, 850.3944 37.204755, 836.22116 18.6023775, 836.22116 18.6023775, 850.3944 0, 850.3943999999999 0, 832.6778499999999 14.17324, 832.6778499999999 14.17324, 814.9612999999999 0, 814.9612999999999 0, 800.78806 14.17324, 800.78806 14.17324, 786.61482 0, 786.61482 0, 772.4415799999999 14.17324, 772.4415799999999 14.17324, 758.26834 0, 758.26834 0, 744.0951 14.17324, 744.0951 14.17324, 729.9218599999999 0, 729.9218599999999 0, 715.74862 14.17324, 715.74862 14.17324, 701.57538 0, 701.57538 0, 687.4021399999999 14.17324, 687.4021399999999 14.17324, 673.2289 0, 673.2289 0, 659.05566 14.17324, 659.05566 14.17324, 644.8824199999999 0, 644.8824199999999 0, 630.70918 14.17324, 630.70918 14.17324, 616.53594 0, 616.53594 0, 602.3626999999999 14.17324, 602.3626999999999 14.17324, 588.1894599999999 0, 588.1894599999999 0, 574.01622 14.17324, 574.01622 14.17324, 559.84298 0, 559.84298 0, 545.6697399999999 14.17324, 545.6697399999999 14.17324, 531.4965 0, 531.4965 0, 517.32326 14.17324, 517.32326 14.17324, 503.15002000000004 0, 503.15002000000004 0, 488.97677999999996 14.17324, 488.97677999999996 14.17324, 474.80354 0, 474.80354 0, 460.63030000000003 14.17324, 460.63030000000003 14.17324, 446.45705999999996 0, 446.45705999999996 0, 432.28382 14.17324, 432.28382 14.17324, 418.11058 0, 418.11058 0, 403.93733999999995 14.17324, 403.93733999999995 14.17324, 389.7641 0, 389.7641 0, 375.59086 14.17324, 375.59086 14.17324, 361.41761999999994 0, 361.41761999999994 0, 347.24438 14.17324, 347.24438 14.17324, 333.07114 0, 333.07114 0, 318.89789999999994 14.17324, 318.89789999999994 14.17324, 304.72466 0, 304.72466 0, 290.55142 14.17324, 290.55142 14.17324, 276.37818 0, 276.37818 0, 262.20493999999997 14.17324, 262.20493999999997 14.17324, 248.0317 0, 248.0317 0, 233.85846 14.17324, 233.85846 14.17324, 219.68522 0, 219.68522 0, 205.51198 14.17324, 205.51198 14.17324, 191.33874 0, 191.33874 0, 177.16549999999998 14.17324, 177.16549999999998 14.17324, 162.99226 0, 162.99226 0, 148.81902 14.17324, 148.81902 14.17324, 134.64578 0, 134.64578 0, 120.47254 14.17324, 120.47254 14.17324, 106.29929999999999 0, 106.29929999999999 0, 92.12606 14.17324, 92.12606 14.17324, 77.95282 0, 77.95282 0, 63.779579999999996 14.17324, 63.779579999999996 14.17324, 49.606339999999996 0, 49.606339999999996 0, 35.433099999999996 14.17324, 35.433099999999996 14.17324, 17.716549999999998 0, 17.716549999999998 "/> 
</g>
<!-- Back--> 
<g transform="translate(989.8236485000001, 22.500018499999996) " > 
<polygon style="stroke:#000000; fill:none; stroke-width:0.035433099999999995" points="0, 0 18.6023775, 0 18.6023775, 14.17324 37.204755, 14.17324 37.204755, 0 51.377995, 0 51.377995, 14.17324 65.55123499999999, 14.17324 65.55123499999999, 0 79.724475, 0 79.724475, 14.17324 93.897715, 14.17324 93.897715, 0 108.070955, 0 108.070955, 14.17324 122.24419499999999, 14.17324 122.24419499999999, 0 136.417435, 0 136.417435, 14.17324 150.590675, 14.17324 150.590675, 0 164.763915, 0 164.763915, 14.17324 178.937155, 14.17324 178.937155, 0 193.110395, 0 193.110395, 14.17324 207.283635, 14.17324 207.283635, 0 221.456875, 0 221.456875, 14.17324 235.63011500000002, 14.17324 235.63011500000002, 0 249.803355, 0 249.803355, 14.17324 263.976595, 14.17324 263.976595, 0 278.149835, 0 278.149835, 14.17324 292.32307499999996, 14.17324 292.32307499999996, 0 306.496315, 0 306.496315, 14.17324 320.66955499999995, 14.17324 320.66955499999995, 0 334.84279499999997, 0 334.84279499999997, 14.17324 349.016035, 14.17324 349.016035, 0 363.18927499999995, 0 363.18927499999995, 14.17324 377.362515, 14.17324 377.362515, 0 391.535755, 0 391.535755, 14.17324 405.70899499999996, 14.17324 405.70899499999996, 0 419.882235, 0 419.882235, 14.17324 434.055475, 14.17324 434.055475, 0 448.22871499999997, 0 448.22871499999997, 14.17324 462.401955, 14.17324 462.401955, 0 476.57519499999995, 0 476.57519499999995, 14.17324 490.748435, 14.17324 490.748435, 0 504.921675, 0 504.921675, 14.17324 519.094915, 14.17324 519.094915, 0 533.268155, 0 533.268155, 14.17324 547.4413949999999, 14.17324 547.4413949999999, 0 561.614635, 0 561.614635, 14.17324 575.787875, 14.17324 575.787875, 0 589.961115, 0 589.961115, 14.17324 604.1343549999999, 14.17324 604.1343549999999, 0 618.307595, 0 618.307595, 14.17324 632.480835, 14.17324 632.480835, 0 646.6540749999999, 0 646.6540749999999, 14.17324 660.827315, 14.17324 660.827315, 0 675.000555, 0 675.000555, 14.17324 689.1737949999999, 14.17324 689.1737949999999, 0 703.347035, 0 703.347035, 14.17324 717.520275, 14.17324 717.520275, 0 731.6935149999999, 0 731.6935149999999, 14.17324 745.866755, 14.17324 745.866755, 0 760.039995, 0 760.039995, 14.17324 774.2132349999999, 14.17324 774.2132349999999, 0 788.386475, 0 788.386475, 14.17324 802.559715, 14.17324 802.559715, 0 816.732955, 0 816.732955, 14.17324 830.906195, 14.17324 830.906195, 0 845.079435, 0 845.079435, 14.17324 859.252675, 14.17324 859.252675, 0 873.4259149999999, 0 873.4259149999999, 14.17324 887.599155, 14.17324 887.599155, 0 901.772395, 0 901.772395, 14.17324 915.9456349999999, 14.17324 915.9456349999999, 0 930.118875, 0 930.118875, 14.17324 948.7212525, 14.17324 948.7212525, 0 967.32363, 0 967.32363, 17.716549999999998 953.15039, 17.716549999999998 953.15039, 35.433099999999996 967.32363, 35.433099999999996 967.32363, 49.606339999999996 953.15039, 49.606339999999996 953.15039, 63.779579999999996 967.32363, 63.779579999999996 967.32363, 77.95282 953.15039, 77.95282 953.15039, 92.12606 967.32363, 92.12606 967.32363, 106.29929999999999 953.15039, 106.29929999999999 953.15039, 120.47254 967.32363, 120.47254 967.32363, 134.64578 953.15039, 134.64578 953.15039, 148.81902 967.32363, 148.81902 967.32363, 162.99226 953.15039, 162.99226 953.15039, 177.16549999999998 967.32363, 177.16549999999998 967.32363, 191.33874 953.15039, 191.33874 953.15039, 205.51198 967.32363, 205.51198 967.32363, 219.68522 953.15039, 219.68522 953.15039, 233.85846 967.32363, 233.85846 967.32363, 248.0317 953.15039, 248.0317 953.15039, 262.20493999999997 967.32363, 262.20493999999997 967.32363, 276.37818 953.15039, 276.37818 953.15039, 290.55142 967.32363, 290.55142 967.32363, 304.72466 953.15039, 304.72466 953.15039, 318.89789999999994 967.32363, 318.89789999999994 967.32363, 333.07114 953.15039, 333.07114 953.15039, 347.24438 967.32363, 347.24438 967.32363, 361.41761999999994 953.15039, 361.41761999999994 953.15039, 375.59086 967.32363, 375.59086 967.32363, 389.7641 953.15039, 389.7641 953.15039, 403.93733999999995 967.32363, 403.93733999999995 967.32363, 418.11058 953.15039, 418.11058 953.15039, 432.28382 967.32363, 432.28382 967.32363, 446.45705999999996 953.15039, 446.45705999999996 953.15039, 460.63030000000003 967.32363, 460.63030000000003 967.32363, 474.80354 953.15039, 474.80354 953.15039, 488.97677999999996 967.32363, 488.97677999999996 967.32363, 503.15002000000004 953.15039, 503.15002000000004 953.15039, 517.32326 967.32363, 517.32326 967.32363, 531.4965 953.15039, 531.4965 953.15039, 545.6697399999999 967.32363, 545.6697399999999 967.32363, 559.84298 953.15039, 559.84298 953.15039, 574.01622 967.32363, 574.01622 967.32363, 588.1894599999999 953.15039, 588.1894599999999 953.15039, 602.3626999999999 967.32363, 602.3626999999999 967.32363, 616.53594 953.15039, 616.53594 953.15039, 630.70918 967.32363, 630.70918 967.32363, 644.8824199999999 953.15039, 644.8824199999999 953.15039, 659.05566 967.32363, 659.05566 967.32363, 673.2289 953.15039, 673.2289 953.15039, 687.4021399999999 967.32363, 687.4021399999999 967.32363, 701.57538 953.15039, 701.57538 953.15039, 715.74862 967.32363, 715.74862 967.32363, 729.9218599999999 953.15039, 729.9218599999999 953.15039, 744.0951 967.32363, 744.0951 967.32363, 758.26834 953.15039, 758.26834 953.15039, 772.4415799999999 967.32363, 772.4415799999999 967.32363, 786.61482 953.15039, 786.61482 953.15039, 800.78806 967.32363, 800.78806 967.32363, 814.9612999999999 953.15039, 814.9612999999999 953.15039, 832.6778499999999 967.32363, 832.6778499999999 967.32363, 850.3944 948.7212525, 850.3944 948.7212525, 836.22116 930.118875, 836.22116 930.118875, 850.3944 915.9456349999999, 850.3944 915.9456349999999, 836.22116 901.772395, 836.22116 901.772395, 850.3944 887.599155, 850.3944 887.599155, 836.22116 873.4259149999999, 836.22116 873.4259149999999, 850.3944 859.252675, 850.3944 859.252675, 836.22116 845.079435, 836.22116 845.079435, 850.3944 830.906195, 850.3944 830.906195, 836.22116 816.732955, 836.22116 816.732955, 850.3944 802.559715, 850.3944 802.559715, 836.22116 788.386475, 836.22116 788.386475, 850.3944 774.2132349999999, 850.3944 774.2132349999999, 836.22116 760.039995, 836.22116 760.039995, 850.3944 745.866755, 850.3944 745.866755, 836.22116 731.6935149999999, 836.22116 731.6935149999999, 850.3944 717.520275, 850.3944 717.520275, 836.22116 703.347035, 836.22116 703.347035, 850.3944 689.1737949999999, 850.3944 689.1737949999999, 836.22116 675.000555, 836.22116 675.000555, 850.3944 660.827315, 850.3944 660.827315, 836.22116 646.6540749999999, 836.22116 646.6540749999999, 850.3944 632.480835, 850.3944 632.480835, 836.22116 618.307595, 836.22116 618.307595, 850.3944 604.1343549999999, 850.3944 604.1343549999999, 836.22116 589.961115, 836.22116 589.961115, 850.3944 575.787875, 850.3944 575.787875, 836.22116 561.614635, 836.22116 561.614635, 850.3944 547.4413949999999, 850.3944 547.4413949999999, 836.22116 533.268155, 836.22116 533.268155, 850.3944 519.094915, 850.3944 519.094915, 836.22116 504.921675, 836.22116 504.921675, 850.3944 490.748435, 850.3944 490.748435, 836.22116 476.57519499999995, 836.22116 476.57519499999995, 850.3944 462.401955, 850.3944 462.401955, 836.22116 448.22871499999997, 836.22116 448.22871499999997, 850.3944 434.055475, 850.3944 434.055475, 836.22116 419.882235, 836.22116 419.882235, 850.3944 405.70899499999996, 850.3944 405.70899499999996, 836.22116 391.535755, 836.22116 391.535755, 850.3944 377.362515, 850.3944 377.362515, 836.22116 363.18927499999995, 836.22116 363.18927499999995, 850.3944 349.016035, 850.3944 349.016035, 836.22116 334.84279499999997, 836.22116 334.84279499999997, 850.3944 320.66955499999995, 850.3944 320.66955499999995, 836.22116 306.496315, 836.22116 306.496315, 850.3944 292.32307499999996, 850.3944 292.32307499999996, 836.22116 278.149835, 836.22116 278.149835, 850.3944 263.976595, 850.3944 263.976595, 836.22116 249.803355, 836.22116 249.803355, 850.3944 235.63011500000002, 850.3944 235.63011500000002, 836.22116 221.456875, 836.22116 221.456875, 850.3944 207.283635, 850.3944 207.283635, 836.22116 193.110395, 836.22116 193.110395, 850.3944 178.937155, 850.3944 178.937155, 836.22116 164.763915, 836.22116 164.763915, 850.3944 150.590675, 850.3944 150.590675, 836.22116 136.417435, 836.22116 136.417435, 850.3944 122.24419499999999, 850.3944 122.24419499999999, 836.22116 108.070955, 836.22116 108.070955, 850.3944 93.897715, 850.3944 93.897715, 836.22116 79.724475, 836.22116 79.724475, 850.3944 65.55123499999999, 850.3944 65.55123499999999, 836.22116 51.377995, 836.22116 51.377995, 850.3944 37.204755, 850.3944 37.204755, 836.22116 18.6023775, 836.22116 18.6023775, 850.3944 0, 850.3943999999999 0, 832.6778499999999 14.17324, 832.6778499999999 14.17324, 814.9612999999999 0, 814.9612999999999 0, 800.78806 14.17324, 800.78806 14.17324, 786.61482 0, 786.61482 0, 772.4415799999999 14.17324, 772.4415799999999 14.17324, 758.26834 0, 758.26834 0, 744.0951 14.17324, 744.0951 14.17324, 729.9218599999999 0, 729.9218599999999 0, 715.74862 14.17324, 715.74862 14.17324, 701.57538 0, 701.57538 0, 687.4021399999999 14.17324, 687.4021399999999 14.17324, 673.2289 0, 673.2289 0, 659.05566 14.17324, 659.05566 14.17324, 644.8824199999999 0, 644.8824199999999 0, 630.70918 14.17324, 630.70918 14.17324, 616.53594 0, 616.53594 0, 602.3626999999999 14.17324, 602.3626999999999 14.17324, 588.1894599999999 0, 588.1894599999999 0, 574.01622 14.17324, 574.01622 14.17324, 559.84298 0, 559.84298 0, 545.6697399999999 14.17324, 545.6697399999999 14.17324, 531.4965 0, 531.4965 0, 517.32326 14.17324, 517.32326 14.17324, 503.15002000000004 0, 503.15002000000004 0, 488.97677999999996 14.17324, 488.97677999999996 14.17324, 474.80354 0, 474.80354 0, 460.63030000000003 14.17324, 460.63030000000003 14.17324, 446.45705999999996 0, 446.45705999999996 0, 432.28382 14.17324, 432.28382 14.17324, 418.11058 0, 418.11058 0, 403.93733999999995 14.17324, 403.93733999999995 14.17324, 389.7641 0, 389.7641 0, 375.59086 14.17324, 375.59086 14.17324, 361.41761999999994 0, 361.41761999999994 0, 347.24438 14.17324, 347.24438 14.17324, 333.07114 0, 333.07114 0, 318.89789999999994 14.17324, 318.89789999999994 14.17324, 304.72466 0, 304.72466 0, 290.55142 14.17324, 290.55142 14.17324, 276.37818 0, 276.37818 0, 262.20493999999997 14.17324, 262.20493999999997 14.17324, 248.0317 0, 248.0317 0, 233.85846 14.17324, 233.85846 14.17324, 219.68522 0, 219.68522 0, 205.51198 14.17324, 205.51198 14.17324, 191.33874 0, 191.33874 0, 177.16549999999998 14.17324, 177.16549999999998 14.17324, 162.99226 0, 162.99226 0, 148.81902 14.17324, 148.81902 14.17324, 134.64578 0, 134.64578 0, 120.47254 14.17324, 120.47254 14.17324, 106.29929999999999 0, 106.29929999999999 0, 92.12606 14.17324, 92.12606 14.17324, 77.95282 0, 77.95282 0, 63.779579999999996 14.17324, 63.779579999999996 14.17324, 49.606339999999996 0, 49.606339999999996 0, 35.433099999999996 14.17324, 35.433099999999996 14.17324, 17.716549999999998 0, 17.716549999999998 "/> 
</g>
<!-- Left--> 
<g transform="translate(1957.1472785, 22.500018499999996) " > 
<polygon style="stroke:#000000; fill:none; stroke-width:0.035433099999999995" points="14.17324, 0 16.299225999999997, 0 16.299225999999997, 14.17324 32.598451999999995, 14.17324 32.598451999999995, 0 48.89767799999999, 0 48.89767799999999, 14.17324 65.19690399999999, 14.17324 65.19690399999999, 0 67.32289, 0 67.32289, 17.716549999999998 81.49613, 17.716549999999998 81.49613, 35.433099999999996 67.32289, 35.433099999999996 67.32289, 49.606339999999996 81.49613, 49.606339999999996 81.49613, 63.779579999999996 67.32289, 63.779579999999996 67.32289, 77.95282 81.49613, 77.95282 81.49613, 92.12606 67.32289, 92.12606 67.32289, 106.29929999999999 81.49613, 106.29929999999999 81.49613, 120.47254 67.32289, 120.47254 67.32289, 134.64578 81.49613, 134.64578 81.49613, 148.81902 67.32289, 148.81902 67.32289, 162.99226 81.49613, 162.99226 81.49613, 177.16549999999998 67.32289, 177.16549999999998 67.32289, 191.33874 81.49613, 191.33874 81.49613, 205.51198 67.32289, 205.51198 67.32289, 219.68522 81.49613, 219.68522 81.49613, 233.85846 67.32289, 233.85846 67.32289, 248.0317 81.49613, 248.0317 81.49613, 262.20493999999997 67.32289, 262.20493999999997 67.32289, 276.37818 81.49613, 276.37818 81.49613, 290.55142 67.32289, 290.55142 67.32289, 304.72466 81.49613, 304.72466 81.49613, 318.89789999999994 67.32289, 318.89789999999994 67.32289, 333.07114 81.49613, 333.07114 81.49613, 347.24438 67.32289, 347.24438 67.32289, 361.41761999999994 81.49613, 361.41761999999994 81.49613, 375.59086 67.32289, 375.59086 67.32289, 389.7641 81.49613, 389.7641 81.49613, 403.93733999999995 67.32289, 403.93733999999995 67.32289, 418.11058 81.49613, 418.11058 81.49613, 432.28382 67.32289, 432.28382 67.32289, 446.45705999999996 81.49613, 446.45705999999996 81.49613, 460.63030000000003 67.32289, 460.63030000000003 67.32289, 474.80354 81.49613, 474.80354 81.49613, 488.97677999999996 67.32289, 488.97677999999996 67.32289, 503.15002000000004 81.49613, 503.15002000000004 81.49613, 517.32326 67.32289, 517.32326 67.32289, 531.4965 81.49613, 531.4965 81.49613, 545.6697399999999 67.32289, 545.6697399999999 67.32289, 559.84298 81.49613, 559.84298 81.49613, 574.01622 67.32289, 574.01622 67.32289, 588.1894599999999 81.49613, 588.1894599999999 81.49613, 602.3626999999999 67.32289, 602.3626999999999 67.32289, 616.53594 81.49613, 616.53594 81.49613, 630.70918 67.32289, 630.70918 67.32289, 644.8824199999999 81.49613, 644.8824199999999 81.49613, 659.05566 67.32289, 659.05566 67.32289, 673.2289 81.49613, 673.2289 81.49613, 687.4021399999999 67.32289, 687.4021399999999 67.32289, 701.57538 81.49613, 701.57538 81.49613, 715.74862 67.32289, 715.74862 67.32289, 729.9218599999999 81.49613, 729.9218599999999 81.49613, 744.0951 67.32289, 744.0951 67.32289, 758.26834 81.49613, 758.26834 81.49613, 772.4415799999999 67.32289, 772.4415799999999 67.32289, 786.61482 81.49613, 786.61482 81.49613, 800.78806 67.32289, 800.78806 67.32289, 814.9612999999999 81.49613, 814.9612999999999 81.49613, 832.6778499999999 67.32289, 832.6778499999999 67.32289, 850.3944 65.19690399999999, 850.3944 65.19690399999999, 836.22116 48.89767799999999, 836.22116 48.89767799999999, 850.3944 32.598451999999995, 850.3944 32.598451999999995, 836.22116 16.299225999999997, 836.22116 16.299225999999997, 850.3944 14.17324, 850.3943999999999 14.17324, 832.6778499999999 0, 832.6778499999999 0, 814.9612999999999 14.17324, 814.9612999999999 14.17324, 800.78806 0, 800.78806 0, 786.61482 14.17324, 786.61482 14.17324, 772.4415799999999 0, 772.4415799999999 0, 758.26834 14.17324, 758.26834 14.17324, 744.0951 0, 744.0951 0, 729.9218599999999 14.17324, 729.9218599999999 14.17324, 715.74862 0, 715.74862 0, 701.57538 14.17324, 701.57538 14.17324, 687.4021399999999 0, 687.4021399999999 0, 673.2289 14.17324, 673.2289 14.17324, 659.05566 0, 659.05566 0, 644.8824199999999 14.17324, 644.8824199999999 14.17324, 630.70918 0, 630.70918 0, 616.53594 14.17324, 616.53594 14.17324, 602.3626999999999 0, 602.3626999999999 0, 588.1894599999999 14.17324, 588.1894599999999 14.17324, 574.01622 0, 574.01622 0, 559.84298 14.17324, 559.84298 14.17324, 545.6697399999999 0, 545.6697399999999 0, 531.4965 14.17324, 531.4965 14.17324, 517.32326 0, 517.32326 0, 503.15002000000004 14.17324, 503.15002000000004 14.17324, 488.97677999999996 0, 488.97677999999996 0, 474.80354 14.17324, 474.80354 14.17324, 460.63030000000003 0, 460.63030000000003 0, 446.45705999999996 14.17324, 446.45705999999996 14.17324, 432.28382 0, 432.28382 0, 418.11058 14.17324, 418.11058 14.17324, 403.93733999999995 0, 403.93733999999995 0, 389.7641 14.17324, 389.7641 14.17324, 375.59086 0, 375.59086 0, 361.41761999999994 14.17324, 361.41761999999994 14.17324, 347.24438 0, 347.24438 0, 333.07114 14.17324, 333.07114 14.17324, 318.89789999999994 0, 318.89789999999994 0, 304.72466 14.17324, 304.72466 14.17324, 290.55142 0, 290.55142 0, 276.37818 14.17324, 276.37818 14.17324, 262.20493999999997 0, 262.20493999999997 0, 248.0317 14.17324, 248.0317 14.17324, 233.85846 0, 233.85846 0, 219.68522 14.17324, 219.68522 14.17324, 205.51198 0, 205.51198 0, 191.33874 14.17324, 191.33874 14.17324, 177.16549999999998 0, 177.16549999999998 0, 162.99226 14.17324, 162.99226 14.17324, 148.81902 0, 148.81902 0, 134.64578 14.17324, 134.64578 14.17324, 120.47254 0, 120.47254 0, 106.29929999999999 14.17324, 106.29929999999999 14.17324, 92.12606 0, 92.12606 0, 77.95282 14.17324, 77.95282 14.17324, 63.779579999999996 0, 63.779579999999996 0, 49.606339999999996 14.17324, 49.606339999999996 14.17324, 35.433099999999996 0, 35.433099999999996 0, 17.716549999999998 14.17324, 17.716549999999998 "/> 
</g>
<!-- Right--> 
<g transform="translate(1957.1472785, 872.8944184999999) " > 
<polygon style="stroke:#000000; fill:none; stroke-width:0.035433099999999995" points="14.17324, 0 16.299225999999997, 0 16.299225999999997, 14.17324 32.598451999999995, 14.17324 32.598451999999995, 0 48.89767799999999, 0 48.89767799999999, 14.17324 65.19690399999999, 14.17324 65.19690399999999, 0 67.32289, 0 67.32289, 17.716549999999998 81.49613, 17.716549999999998 81.49613, 35.433099999999996 67.32289, 35.433099999999996 67.32289, 49.606339999999996 81.49613, 49.606339999999996 81.49613, 63.779579999999996 67.32289, 63.779579999999996 67.32289, 77.95282 81.49613, 77.95282 81.49613, 92.12606 67.32289, 92.12606 67.32289, 106.29929999999999 81.49613, 106.29929999999999 81.49613, 120.47254 67.32289, 120.47254 67.32289, 134.64578 81.49613, 134.64578 81.49613, 148.81902 67.32289, 148.81902 67.32289, 162.99226 81.49613, 162.99226 81.49613, 177.16549999999998 67.32289, 177.16549999999998 67.32289, 191.33874 81.49613, 191.33874 81.49613, 205.51198 67.32289, 205.51198 67.32289, 219.68522 81.49613, 219.68522 81.49613, 233.85846 67.32289, 233.85846 67.32289, 248.0317 81.49613, 248.0317 81.49613, 262.20493999999997 67.32289, 262.20493999999997 67.32289, 276.37818 81.49613, 276.37818 81.49613, 290.55142 67.32289, 290.55142 67.32289, 304.72466 81.49613, 304.72466 81.49613, 318.89789999999994 67.32289, 318.89789999999994 67.32289, 333.07114 81.49613, 333.07114 81.49613, 347.24438 67.32289, 347.24438 67.32289, 361.41761999999994 81.49613, 361.41761999999994 81.49613, 375.59086 67.32289, 375.59086 67.32289, 389.7641 81.49613, 389.7641 81.49613, 403.93733999999995 67.32289, 403.93733999999995 67.32289, 418.11058 81.49613, 418.11058 81.49613, 432.28382 67.32289, 432.28382 67.32289, 446.45705999999996 81.49613, 446.45705999999996 81.49613, 460.63030000000003 67.32289, 460.63030000000003 67.32289, 474.80354 81.49613, 474.80354 81.49613, 488.97677999999996 67.32289, 488.97677999999996 67.32289, 503.15002000000004 81.49613, 503.15002000000004 81.49613, 517.32326 67.32289, 517.32326 67.32289, 531.4965 81.49613, 531.4965 81.49613, 545.6697399999999 67.32289, 545.6697399999999 67.32289, 559.84298 81.49613, 559.84298 81.49613, 574.01622 67.32289, 574.01622 67.32289, 588.1894599999999 81.49613, 588.1894599999999 81.49613, 602.3626999999999 67.32289, 602.3626999999999 67.32289, 616.53594 81.49613, 616.53594 81.49613, 630.70918 67.32289, 630.70918 67.32289, 644.8824199999999 81.49613, 644.8824199999999 81.49613, 659.05566 67.32289, 659.05566 67.32289, 673.2289 81.49613, 673.2289 81.49613, 687.4021399999999 67.32289, 687.4021399999999 67.32289, 701.57538 81.49613, 701.57538 81.49613, 715.74862 67.32289, 715.74862 67.32289, 729.9218599999999 81.49613, 729.9218599999999 81.49613, 744.0951 67.32289, 744.0951 67.32289, 758.26834 81.49613, 758.26834 81.49613, 772.4415799999999 67.32289, 772.4415799999999 67.32289, 786.61482 81.49613, 786.61482 81.49613, 800.78806 67.32289, 800.78806 67.32289, 814.9612999999999 81.49613, 814.9612999999999 81.49613, 832.6778499999999 67.32289, 832.6778499999999 67.32289, 850.3944 65.19690399999999, 850.3944 65.19690399999999, 836.22116 48.89767799999999, 836.22116 48.89767799999999, 850.3944 32.598451999999995, 850.3944 32.598451999999995, 836.22116 16.299225999999997, 836.22116 16.299225999999997, 850.3944 14.17324, 850.3943999999999 14.17324, 832.6778499999999 0, 832.6778499999999 0, 814.9612999999999 14.17324, 814.9612999999999 14.17324, 800.78806 0, 800.78806 0, 786.61482 14.17324, 786.61482 14.17324, 772.4415799999999 0, 772.4415799999999 0, 758.26834 14.17324, 758.26834 14.17324, 744.0951 0, 744.0951 0, 729.9218599999999 14.17324, 729.9218599999999 14.17324, 715.74862 0, 715.74862 0, 701.57538 14.17324, 701.57538 14.17324, 687.4021399999999 0, 687.4021399999999 0, 673.2289 14.17324, 673.2289 14.17324, 659.05566 0, 659.05566 0, 644.8824199999999 14.17324, 644.8824199999999 14.17324, 630.70918 0, 630.70918 0, 616.53594 14.17324, 616.53594 14.17324, 602.3626999999999 0, 602.3626999999999 0, 588.1894599999999 14.17324, 588.1894599999999 14.17324, 574.01622 0, 574.01622 0, 559.84298 14.17324, 559.84298 14.17324, 545.6697399999999 0, 545.6697399999999 0, 531.4965 14.17324, 531.4965 14.17324, 517.32326 0, 517.32326 0, 503.15002000000004 14.17324, 503.15002000000004 14.17324, 488.97677999999996 0, 488.97677999999996 0, 474.80354 14.17324, 474.80354 14.17324, 460.63030000000003 0, 460.63030000000003 0, 446.45705999999996 14.17324, 446.45705999999996 14.17324, 432.28382 0, 432.28382 0, 418.11058 14.17324, 418.11058 14.17324, 403.93733999999995 0, 403.93733999999995 0, 389.7641 14.17324, 389.7641 14.17324, 375.59086 0, 375.59086 0, 361.41761999999994 14.17324, 361.41761999999994 14.17324, 347.24438 0, 347.24438 0, 333.07114 14.17324, 333.07114 14.17324, 318.89789999999994 0, 318.89789999999994 0, 304.72466 14.17324, 304.72466 14.17324, 290.55142 0, 290.55142 0, 276.37818 14.17324, 276.37818 14.17324, 262.20493999999997 0, 262.20493999999997 0, 248.0317 14.17324, 248.0317 14.17324, 233.85846 0, 233.85846 0, 219.68522 14.17324, 219.68522 14.17324, 205.51198 0, 205.51198 0, 191.33874 14.17324, 191.33874 14.17324, 177.16549999999998 0, 177.16549999999998 0, 162.99226 14.17324, 162.99226 14.17324, 148.81902 0, 148.81902 0, 134.64578 14.17324, 134.64578 14.17324, 120.47254 0, 120.47254 0, 106.29929999999999 14.17324, 106.29929999999999 14.17324, 92.12606 0, 92.12606 0, 77.95282 14.17324, 77.95282 14.17324, 63.779579999999996 0, 63.779579999999996 0, 49.606339999999996 14.17324, 49.606339999999996 14.17324, 35.433099999999996 0, 35.433099999999996 0, 17.716549999999998 14.17324, 17.716549999999998 "/> 
</g>
<!-- Top--> 
<g transform="translate(22.500018499999996, 872.8944184999999) " > 
<polygon style="stroke:#000000; fill:none; stroke-width:0.035433099999999995" points="14.17324, 14.17324 18.6023775, 14.17324 18.6023775, 0 37.204755, 0 37.204755, 14.17324 51.377995, 14.17324 51.377995, 0 65.55123499999999, 0 65.55123499999999, 14.17324 79.724475, 14.17324 79.724475, 0 93.897715, 0 93.897715, 14.17324 108.070955, 14.17324 108.070955, 0 122.24419499999999, 0 122.24419499999999, 14.17324 136.417435, 14.17324 136.417435, 0 150.590675, 0 150.590675, 14.17324 164.763915, 14.17324 164.763915, 0 178.937155, 0 178.937155, 14.17324 193.110395, 14.17324 193.110395, 0 207.283635, 0 207.283635, 14.17324 221.456875, 14.17324 221.456875, 0 235.63011500000002, 0 235.63011500000002, 14.17324 249.803355, 14.17324 249.803355, 0 263.976595, 0 263.976595, 14.17324 278.149835, 14.17324 278.149835, 0 292.32307499999996, 0 292.32307499999996, 14.17324 306.496315, 14.17324 306.496315, 0 320.66955499999995, 0 320.66955499999995, 14.17324 334.84279499999997, 14.17324 334.84279499999997, 0 349.016035, 0 349.016035, 14.17324 363.18927499999995, 14.17324 363.18927499999995, 0 377.362515, 0 377.362515, 14.17324 391.535755, 14.17324 391.535755, 0 405.70899499999996, 0 405.70899499999996, 14.17324 419.882235, 14.17324 419.882235, 0 434.055475, 0 434.055475, 14.17324 448.22871499999997, 14.17324 448.22871499999997, 0 462.401955, 0 462.401955, 14.17324 476.57519499999995, 14.17324 476.57519499999995, 0 490.748435, 0 490.748435, 14.17324 504.921675, 14.17324 504.921675, 0 519.094915, 0 519.094915, 14.17324 533.268155, 14.17324 533.268155, 0 547.4413949999999, 0 547.4413949999999, 14.17324 561.614635, 14.17324 561.614635, 0 575.787875, 0 575.787875, 14.17324 589.961115, 14.17324 589.961115, 0 604.1343549999999, 0 604.1343549999999, 14.17324 618.307595, 14.17324 618.307595, 0 632.480835, 0 632.480835, 14.17324 646.6540749999999, 14.17324 646.6540749999999, 0 660.827315, 0 660.827315, 14.17324 675.000555, 14.17324 675.000555, 0 689.1737949999999, 0 689.1737949999999, 14.17324 703.347035, 14.17324 703.347035, 0 717.520275, 0 717.520275, 14.17324 731.6935149999999, 14.17324 731.6935149999999, 0 745.866755, 0 745.866755, 14.17324 760.039995, 14.17324 760.039995, 0 774.2132349999999, 0 774.2132349999999, 14.17324 788.386475, 14.17324 788.386475, 0 802.559715, 0 802.559715, 14.17324 816.732955, 14.17324 816.732955, 0 830.906195, 0 830.906195, 14.17324 845.079435, 14.17324 845.079435, 0 859.252675, 0 859.252675, 14.17324 873.4259149999999, 14.17324 873.4259149999999, 0 887.599155, 0 887.599155, 14.17324 901.772395, 14.17324 901.772395, 0 915.9456349999999, 0 915.9456349999999, 14.17324 930.118875, 14.17324 930.118875, 0 948.7212525, 0 948.7212525, 14.17324 953.15039, 14.17324 953.15039, 16.299225999999997 967.32363, 16.299225999999997 967.32363, 32.598451999999995 953.15039, 32.598451999999995 953.15039, 48.89767799999999 967.32363, 48.89767799999999 967.32363, 65.19690399999999 953.15039, 65.19690399999999 953.15039, 67.32289 948.7212525, 67.32289 948.7212525, 81.49613 930.118875, 81.49613 930.118875, 67.32289 915.9456349999999, 67.32289 915.9456349999999, 81.49613 901.772395, 81.49613 901.772395, 67.32289 887.599155, 67.32289 887.599155, 81.49613 873.4259149999999, 81.49613 873.4259149999999, 67.32289 859.252675, 67.32289 859.252675, 81.49613 845.079435, 81.49613 845.079435, 67.32289 830.906195, 67.32289 830.906195, 81.49613 816.732955, 81.49613 816.732955, 67.32289 802.559715, 67.32289 802.559715, 81.49613 788.386475, 81.49613 788.386475, 67.32289 774.2132349999999, 67.32289 774.2132349999999, 81.49613 760.039995, 81.49613 760.039995, 67.32289 745.866755, 67.32289 745.866755, 81.49613 731.6935149999999, 81.49613 731.6935149999999, 67.32289 717.520275, 67.32289 717.520275, 81.49613 703.347035, 81.49613 703.347035, 67.32289 689.1737949999999, 67.32289 689.1737949999999, 81.49613 675.000555, 81.49613 675.000555, 67.32289 660.827315, 67.32289 660.827315, 81.49613 646.6540749999999, 81.49613 646.6540749999999, 67.32289 632.480835, 67.32289 632.480835, 81.49613 618.307595, 81.49613 618.307595, 67.32289 604.1343549999999, 67.32289 604.1343549999999, 81.49613 589.961115, 81.49613 589.961115, 67.32289 575.787875, 67.32289 575.787875, 81.49613 561.614635, 81.49613 561.614635, 67.32289 547.4413949999999, 67.32289 547.4413949999999, 81.49613 533.268155, 81.49613 533.268155, 67.32289 519.094915, 67.32289 519.094915, 81.49613 504.921675, 81.49613 504.921675, 67.32289 490.748435, 67.32289 490.748435, 81.49613 476.57519499999995, 81.49613 476.57519499999995, 67.32289 462.401955, 67.32289 462.401955, 81.49613 448.22871499999997, 81.49613 448.22871499999997, 67.32289 434.055475, 67.32289 434.055475, 81.49613 419.882235, 81.49613 419.882235, 67.32289 405.70899499999996, 67.32289 405.70899499999996, 81.49613 391.535755, 81.49613 391.535755, 67.32289 377.362515, 67.32289 377.362515, 81.49613 363.18927499999995, 81.49613 363.18927499999995, 67.32289 349.016035, 67.32289 349.016035, 81.49613 334.84279499999997, 81.49613 334.84279499999997, 67.32289 320.66955499999995, 67.32289 320.66955499999995, 81.49613 306.496315, 81.49613 306.496315, 67.32289 292.32307499999996, 67.32289 292.32307499999996, 81.49613 278.149835, 81.49613 278.149835, 67.32289 263.976595, 67.32289 263.976595, 81.49613 249.803355, 81.49613 249.803355, 67.32289 235.63011500000002, 67.32289 235.63011500000002, 81.49613 221.456875, 81.49613 221.456875, 67.32289 207.283635, 67.32289 207.283635, 81.49613 193.110395, 81.49613 193.110395, 67.32289 178.937155, 67.32289 178.937155, 81.49613 164.763915, 81.49613 164.763915, 67.32289 150.590675, 67.32289 150.590675, 81.49613 136.417435, 81.49613 136.417435, 67.32289 122.24419499999999, 67.32289 122.24419499999999, 81.49613 108.070955, 81.49613 108.070955, 67.32289 93.897715, 67.32289 93.897715, 81.49613 79.724475, 81.49613 79.724475, 67.32289 65.55123499999999, 67.32289 65.55123499999999, 81.49613 51.377995, 81.49613 51.377995, 67.32289 37.204755, 67.32289 37.204755, 81.49613 18.6023775, 81.49613 18.6023775, 67.32289 14.17324, 67.32289 14.17324, 65.19690399999999 0, 65.19690399999999 0, 48.89767799999999 14.17324, 48.89767799999999 14.17324, 32.598451999999995 0, 32.598451999999995 0, 16.299225999999997 14.17324, 16.299225999999997 "/> 
</g>
<!-- Bottom--> 
<g transform="translate(989.8236485000001, 872.8944184999999) " > 
<polygon style="stroke:#000000; fill:none; stroke-width:0.035433099999999995" points="14.17324, 14.17324 18.6023775, 14.17324 18.6023775, 0 37.204755, 0 37.204755, 14.17324 51.377995, 14.17324 51.377995, 0 65.55123499999999, 0 65.55123499999999, 14.17324 79.724475, 14.17324 79.724475, 0 93.897715, 0 93.897715, 14.17324 108.070955, 14.17324 108.070955, 0 122.24419499999999, 0 122.24419499999999, 14.17324 136.417435, 14.17324 136.417435, 0 150.590675, 0 150.590675, 14.17324 164.763915, 14.17324 164.763915, 0 178.937155, 0 178.937155, 14.17324 193.110395, 14.17324 193.110395, 0 207.283635, 0 207.283635, 14.17324 221.456875, 14.17324 221.456875, 0 235.63011500000002, 0 235.63011500000002, 14.17324 249.803355, 14.17324 249.803355, 0 263.976595, 0 263.976595, 14.17324 278.149835, 14.17324 278.149835, 0 292.32307499999996, 0 292.32307499999996, 14.17324 306.496315, 14.17324 306.496315, 0 320.66955499999995, 0 320.66955499999995, 14.17324 334.84279499999997, 14.17324 334.84279499999997, 0 349.016035, 0 349.016035, 14.17324 363.18927499999995, 14.17324 363.18927499999995, 0 377.362515, 0 377.362515, 14.17324 391.535755, 14.17324 391.535755, 0 405.70899499999996, 0 405.70899499999996, 14.17324 419.882235, 14.17324 419.882235, 0 434.055475, 0 434.055475, 14.17324 448.22871499999997, 14.17324 448.22871499999997, 0 462.401955, 0 462.401955, 14.17324 476.57519499999995, 14.17324 476.57519499999995, 0 490.748435, 0 490.748435, 14.17324 504.921675, 14.17324 504.921675, 0 519.094915, 0 519.094915, 14.17324 533.268155, 14.17324 533.268155, 0 547.4413949999999, 0 547.4413949999999, 14.17324 561.614635, 14.17324 561.614635, 0 575.787875, 0 575.787875, 14.17324 589.961115, 14.17324 589.961115, 0 604.1343549999999, 0 604.1343549999999, 14.17324 618.307595, 14.17324 618.307595, 0 632.480835, 0 632.480835, 14.17324 646.6540749999999, 14.17324 646.6540749999999, 0 660.827315, 0 660.827315, 14.17324 675.000555, 14.17324 675.000555, 0 689.1737949999999, 0 689.1737949999999, 14.17324 703.347035, 14.17324 703.347035, 0 717.520275, 0 717.520275, 14.17324 731.6935149999999, 14.17324 731.6935149999999, 0 745.866755, 0 745.866755, 14.17324 760.039995, 14.17324 760.039995, 0 774.2132349999999, 0 774.2132349999999, 14.17324 788.386475, 14.17324 788.386475, 0 802.559715, 0 802.559715, 14.17324 816.732955, 14.17324 816.732955, 0 830.906195, 0 830.906195, 14.17324 845.079435, 14.17324 845.079435, 0 859.252675, 0 859.252675, 14.17324 873.4259149999999, 14.17324 873.4259149999999, 0 887.599155, 0 887.599155, 14.17324 901.772395, 14.17324 901.772395, 0 915.9456349999999, 0 915.9456349999999, 14.17324 930.118875, 14.17324 930.118875, 0 948.7212525, 0 948.7212525, 14.17324 953.15039, 14.17324 953.15039, 16.299225999999997 967.32363, 16.299225999999997 967.32363, 32.598451999999995 953.15039, 32.598451999999995 953.15039, 48.89767799999999 967.32363, 48.89767799999999 967.32363, 65.19690399999999 953.15039, 65.19690399999999 953.15039, 67.32289 948.7212525, 67.32289 948.7212525, 81.49613 930.118875, 81.49613 930.118875, 67.32289 915.9456349999999, 67.32289 915.9456349999999, 81.49613 901.772395, 81.49613 901.772395, 67.32289 887.599155, 67.32289 887.599155, 81.49613 873.4259149999999, 81.49613 873.4259149999999, 67.32289 859.252675, 67.32289 859.252675, 81.49613 845.079435, 81.49613 845.079435, 67.32289 830.906195, 67.32289 830.906195, 81.49613 816.732955, 81.49613 816.732955, 67.32289 802.559715, 67.32289 802.559715, 81.49613 788.386475, 81.49613 788.386475, 67.32289 774.2132349999999, 67.32289 774.2132349999999, 81.49613 760.039995, 81.49613 760.039995, 67.32289 745.866755, 67.32289 745.866755, 81.49613 731.6935149999999, 81.49613 731.6935149999999, 67.32289 717.520275, 67.32289 717.520275, 81.49613 703.347035, 81.49613 703.347035, 67.32289 689.1737949999999, 67.32289 689.1737949999999, 81.49613 675.000555, 81.49613 675.000555, 67.32289 660.827315, 67.32289 660.827315, 81.49613 646.6540749999999, 81.49613 646.6540749999999, 67.32289 632.480835, 67.32289 632.480835, 81.49613 618.307595, 81.49613 618.307595, 67.32289 604.1343549999999, 67.32289 604.1343549999999, 81.49613 589.961115, 81.49613 589.961115, 67.32289 575.787875, 67.32289 575.787875, 81.49613 561.614635, 81.49613 561.614635, 67.32289 547.4413949999999, 67.32289 547.4413949999999, 81.49613 533.268155, 81.49613 533.268155, 67.32289 519.094915, 67.32289 519.094915, 81.49613 504.921675, 81.49613 504.921675, 67.32289 490.748435, 67.32289 490.748435, 81.49613 476.57519499999995, 81.49613 476.57519499999995, 67.32289 462.401955, 67.32289 462.401955, 81.49613 448.22871499999997, 81.49613 448.22871499999997, 67.32289 434.055475, 67.32289 434.055475, 81.49613 419.882235, 81.49613 419.882235, 67.32289 405.70899499999996, 67.32289 405.70899499999996, 81.49613 391.535755, 81.49613 391.535755, 67.32289 377.362515, 67.32289 377.362515, 81.49613 363.18927499999995, 81.49613 363.18927499999995, 67.32289 349.016035, 67.32289 349.016035, 81.49613 334.84279499999997, 81.49613 334.84279499999997, 67.32289 320.66955499999995, 67.32289 320.66955499999995, 81.49613 306.496315, 81.49613 306.496315, 67.32289 292.32307499999996, 67.32289 292.32307499999996, 81.49613 278.149835, 81.49613 278.149835, 67.32289 263.976595, 67.32289 263.976595, 81.49613 249.803355, 81.49613 249.803355, 67.32289 235.63011500000002, 67.32289 235.63011500000002, 81.49613 221.456875, 81.49613 221.456875, 67.32289 207.283635, 67.32289 207.283635, 81.49613 193.110395, 81.49613 193.110395, 67.32289 178.937155, 67.32289 178.937155, 81.49613 164.763915, 81.49613 164.763915, 67.32289 150.590675, 67.32289 150.590675, 81.49613 136.417435, 81.49613 136.417435, 67.32289 122.24419499999999, 67.32289 122.24419499999999, 81.49613 108.070955, 81.49613 108.070955, 67.32289 93.897715, 67.32289 93.897715, 81.49613 79.724475, 81.49613 79.724475, 67.32289 65.55123499999999, 67.32289 65.55123499999999, 81.49613 51.377995, 81.49613 51.377995, 67.32289 37.204755, 67.32289 37.204755, 81.49613 18.6023775, 81.49613 18.6023775, 67.32289 14.17324, 67.32289 14.17324, 65.19690399999999 0, 65.19690399999999 0, 48.89767799999999 14.17324, 48.89767799999999 14.17324, 32.598451999999995 0, 32.598451999999995 0, 16.299225999999997 14.17324, 16.299225999999997 "/> 
</g></svg>