<?xml version="1.0" encoding="UTF-8" standalone="no"?>
<svg
   xmlns:dc="http://purl.org/dc/elements/1.1/"
   xmlns:cc="http://creativecommons.org/ns#"
   xmlns:rdf="http://www.w3.org/1999/02/22-rdf-syntax-ns#"
   xmlns:svg="http://www.w3.org/2000/svg"
   xmlns="http://www.w3.org/2000/svg"
   xmlns:sodipodi="http://sodipodi.sourceforge.net/DTD/sodipodi-0.dtd"
   xmlns:inkscape="http://www.inkscape.org/namespaces/inkscape"
   version="1.1"
   width="1736.2205"
   height="1027.5591"
   viewBox="0 0 1736.2218 1027.5599"
   id="svg3101"
   inkscape:version="0.48.4 r9939"
   sodipodi:docname="caseplans_backonly.dxf">
  <metadata
     id="metadata3131">
    <rdf:RDF>
      <cc:Work
         rdf:about="">
        <dc:format>image/svg+xml</dc:format>
        <dc:type
           rdf:resource="http://purl.org/dc/dcmitype/StillImage" />
        <dc:title></dc:title>
      </cc:Work>
    </rdf:RDF>
  </metadata>
  <defs
     id="defs3129" />
  <sodipodi:namedview
     pagecolor="#ffffff"
     bordercolor="#666666"
     borderopacity="1"
     objecttolerance="10"
     gridtolerance="10"
     guidetolerance="10"
     inkscape:pageopacity="0"
     inkscape:pageshadow="2"
     inkscape:window-width="1440"
     inkscape:window-height="840"
     id="namedview3127"
     showgrid="false"
     inkscape:zoom="0.37512071"
     inkscape:cx="1583.4365"
     inkscape:cy="627.32041"
     inkscape:window-x="0"
     inkscape:window-y="25"
     inkscape:window-maximized="1"
     inkscape:current-layer="svg3101"
     units="mm"
     inkscape:document-units="mm"
     showguides="true"
     inkscape:guide-bbox="true" />
  <!-- Front-->
  <!-- Back-->
  <!-- Left-->
  <!-- Right-->
  <!-- Top-->
  <!-- Bottom-->
  <g
     transform="translate(1592.4847,92.577815)"
     id="g3111"
     style="stroke:#000000;stroke-width:1.70787537;stroke-miterlimit:4;stroke-opacity:1;stroke-dasharray:none">
    <path
       inkscape:connector-curvature="0"
       id="polygon3113"
       d="m 81.49613,347.24438 -14.17324,0 0,14.17324 14.17324,0 0,14.17324 -14.17324,0 0,14.17324 14.17324,0 0,14.17324 -14.17324,0 0,14.17324 14.17324,0 0,14.17324 -14.17324,0 0,14.17324 14.17324,0 0,14.17324 -14.17324,0 0,14.17324 14.17324,0 0,14.17324 -14.17324,0 0,14.17324 14.17324,0 0,14.17324 -14.17324,0 0,14.17324 14.17324,0 0,14.17324 -14.17324,0 0,14.17324 14.17324,0 0,14.17324 -14.17324,0 0,14.17324 14.17324,0 0,14.17324 -14.17324,0 0,14.17324 14.17324,0 0,14.17324 -14.17324,0 0,14.17324 14.17324,0 0,14.17324 -14.17324,0 0,14.17324 14.17324,0 0,14.17324 -14.17324,0 0,14.17324 14.17324,0 0,14.17324 -14.17324,0 0,14.17324 14.17324,0 0,14.17324 -14.17324,0 0,14.17324 14.17324,0 0,14.17324 -14.17324,0 0,14.17324 14.17324,0 0,14.17324 -14.17324,0 0,14.17324 14.17324,0 0,17.71655 -14.17324,0 0,17.71655 -2.125986,0 0,-14.17324 -16.299226,0 0,14.17324 -16.299226,0 0,-14.17324 -16.299226,0 0,14.17324 -2.125986,0 0,-17.71655 -14.17324,0 0,-17.71655 14.17324,0 0,-14.17324 -14.17324,0 0,-14.17324 14.17324,0 0,-14.17324 -14.17324,0 0,-14.17324 14.17324,0 0,-14.17324 -14.17324,0 0,-14.17324 14.17324,0 0,-14.17324 -14.17324,0 0,-14.17324 14.17324,0 0,-14.17324 -14.17324,0 0,-14.17324 14.17324,0 0,-14.17324 -14.17324,0 0,-14.17324 14.17324,0 0,-14.17324 -14.17324,0 0,-14.17324 14.17324,0 0,-14.17324 -14.17324,0 0,-14.17324 14.17324,0 0,-14.17324 -14.17324,0 0,-14.17324 14.17324,0 0,-14.17324 -14.17324,0 0,-14.17324 14.17324,0 0,-14.17324 -14.17324,0 0,-14.17324 14.17324,0 0,-14.17324 -14.17324,0 0,-14.17324 14.17324,0 0,-14.17324 -14.17324,0 0,-14.17324 14.17324,0 0,-14.17324 -14.17324,0 0,-14.17324 14.17324,0 0,-14.17324 -14.17324,0 0,-14.17324 14.17324,0 0,-14.17324 -14.17324,0 0,-14.17324 14.17324,0 0,-14.17324 -14.17324,0 0,-14.17324 14.17324,0 0,-14.17324 -14.17324,0 0,-14.17324 14.17324,0 0,-14.17324 -14.17324,0 0,-14.17324 14.17324,0 0,-14.17324 -14.17324,0 0,-14.17324 14.17324,0 0,-14.17324 -14.17324,0 0,-14.17324 14.17324,0 0,-14.17324 -14.17324,0 0,-14.17324 14.17324,0 0,-14.17324 -14.17324,0 0,-14.17324 14.17324,0 0,-14.17324 -14.17324,0 0,-14.17324 14.17324,0 0,-14.17324 -14.17324,0 0,-14.17324 14.17324,0 0,-14.17324 -14.17324,0 0,-14.17324 14.17324,0 0,-14.17324 -14.17324,0 0,-14.17324 14.17324,0 0,-14.17324 -14.17324,0 0,-17.71655 14.17324,0 0,-17.71655 2.125986,0 0,14.17324 16.299226,0 0,-14.17324 16.299226,0 0,14.17324 16.299226,0 0,-14.17324 2.125986,0 0,17.71655 14.17324,0 0,17.71655 -14.17324,0 0,14.17324 14.17324,0 0,14.17324 -14.17324,0 0,14.17324 14.17324,0 0,14.17324 -14.17324,0 0,14.17324 14.17324,0 0,14.17324 -14.17324,0 0,14.17324 14.17324,0 0,14.17324 -14.17324,0 0,14.17324 14.17324,0 0,14.17324 -14.17324,0 0,14.17324 14.17324,0 0,14.17324 -14.17324,0 0,14.17324 14.17324,0 0,14.17324 -14.17324,0 0,14.17324 14.17324,0 0,14.17324 -14.17324,0 0,14.17324 14.17324,0 0,14.17324 -14.17324,0 0,14.17324 14.17324,0 0,14.17324 -14.17324,0 0,14.17324 14.17324,0 z"
       style="fill:none;stroke:#000000" />
  </g>
  <g
     transform="translate(572.02328,92.592529)"
     id="g3115"
     style="stroke:#000000;stroke-width:1.70787537;stroke-miterlimit:4;stroke-opacity:1;stroke-dasharray:none">
    <path
       inkscape:connector-curvature="0"
       id="polygon3117"
       d="m 67.32289,545.66974 0,14.17324 14.17324,0 0,14.17324 -14.17324,0 0,14.17324 14.17324,0 0,14.17324 -14.17324,0 0,14.17324 14.17324,0 0,14.17324 -14.17324,0 0,14.17324 14.17324,0 0,14.17324 -14.17324,0 0,14.17324 14.17324,0 0,14.17324 -14.17324,0 0,14.17324 14.17324,0 0,14.17324 -14.17324,0 0,14.17324 14.17324,0 0,14.17324 -14.17324,0 0,14.17324 14.17324,0 0,14.17324 -14.17324,0 0,14.17324 14.17324,0 0,14.17324 -14.17324,0 0,14.17324 14.17324,0 0,17.71655 -14.17324,0 0,17.71655 -2.125986,0 0,-14.17324 -16.299226,0 0,14.17324 -16.299226,0 0,-14.17324 -16.299226,0 0,14.17324 -2.125986,0 0,-17.71655 -14.17324,0 0,-17.71655 14.17324,0 0,-14.17324 -14.17324,0 0,-14.17324 14.17324,0 0,-14.17324 -14.17324,0 0,-14.17324 14.17324,0 0,-14.17324 -14.17324,0 0,-14.17324 14.17324,0 0,-14.17324 -14.17324,0 0,-14.17324 14.17324,0 0,-14.17324 -14.17324,0 0,-14.17324 14.17324,0 0,-14.17324 -14.17324,0 0,-14.17324 14.17324,0 0,-14.17324 -14.17324,0 0,-14.17324 14.17324,0 0,-14.17324 -14.17324,0 0,-14.17324 14.17324,0 0,-14.17324 -14.17324,0 0,-14.17324 14.17324,0 0,-14.17324 -14.17324,0 0,-14.17324 14.17324,0 0,-14.17324 -14.17324,0 0,-14.17324 14.17324,0 0,-14.17324 -14.17324,0 0,-14.17324 14.17324,0 0,-14.17324 -14.17324,0 0,-14.17324 14.17324,0 0,-14.17324 -14.17324,0 0,-14.17324 14.17324,0 0,-14.17324 -14.17324,0 0,-14.17324 14.17324,0 0,-14.17324 -14.17324,0 0,-14.17324 14.17324,0 0,-14.17324 -14.17324,0 0,-14.17324 14.17324,0 0,-14.17324 -14.17324,0 0,-14.17324 14.17324,0 0,-14.17324 -14.17324,0 0,-14.17324 14.17324,0 0,-14.17324 -14.17324,0 0,-14.17324 14.17324,0 0,-14.17324 -14.17324,0 0,-14.17324 14.17324,0 0,-14.17324 -14.17324,0 0,-14.17324 14.17324,0 0,-14.17324 -14.17324,0 0,-14.17324 14.17324,0 0,-14.17324 -14.17324,0 0,-14.17324 14.17324,0 0,-14.17324 -14.17324,0 0,-14.17324 14.17324,0 0,-14.17324 -14.17324,0 0,-14.17324 14.17324,0 0,-14.17324 -14.17324,0 0,-14.17324 14.17324,0 0,-14.17324 -14.17324,0 0,-17.71655 14.17324,0 0,-17.71655 2.125986,0 0,14.17324 16.299226,0 0,-14.17324 16.299226,0 0,14.17324 16.299226,0 0,-14.17324 2.125986,0 0,17.71655 14.17324,0 0,17.71655 -14.17324,0 0,14.17324 14.17324,0 0,14.17324 -14.17324,0 0,14.17324 14.17324,0 0,14.17324 -14.17324,0 0,14.17324 14.17324,0 0,14.17324 -14.17324,0 0,14.17324 14.17324,0 0,14.17324 -14.17324,0 0,14.17324 14.17324,0 0,14.17324 -14.17324,0 0,14.17324 14.17324,0 0,14.17324 -14.17324,0 0,14.17324 14.17324,0 0,14.17324 -14.17324,0 0,14.17324 14.17324,0 0,14.17324 -14.17324,0 0,14.17324 14.17324,0 0,14.17324 -14.17324,0 0,14.17324 14.17324,0 0,14.17324 -14.17324,0 0,14.17324 14.17324,0 0,14.17324 -14.17324,0 0,14.17324 14.17324,0 0,14.17324 -14.17324,0 0,14.17324 14.17324,0 0,14.17324 -14.17324,0 0,14.17324 14.17324,0 0,14.17324 -14.17324,0 0,14.17324 14.17324,0 0,14.17324 -14.17324,0 0,14.17324 14.17324,0 0,14.17324 -14.17324,0 0,14.17324 14.17324,0 0,14.17324 -14.17324,0 0,14.17324 14.17324,0 0,14.17324 z"
       style="fill:none;stroke:#000000" />
  </g>
  <g
     transform="translate(639.37701,25.252699)"
     id="g3119"
     style="stroke:#000000;stroke-width:1.70787537;stroke-miterlimit:4;stroke-opacity:1;stroke-dasharray:none">
    <path
       inkscape:connector-curvature="0"
       id="polygon3121"
       d="m 967.32363,65.196904 -14.17324,0 0,2.125986 -4.42914,0 0,14.17324 -18.60237,0 0,-14.17324 -14.17325,0 0,14.17324 -14.17324,0 0,-14.17324 -14.17324,0 0,14.17324 -14.17324,0 0,-14.17324 -14.17324,0 0,14.17324 -14.17324,0 0,-14.17324 -14.17323,0 0,14.17324 -14.17325,0 0,-14.17324 -14.17324,0 0,14.17324 -14.17323,0 0,-14.17324 -14.17325,0 0,14.17324 -14.17324,0 0,-14.17324 -14.17323,0 0,14.17324 -14.17325,0 0,-14.17324 -14.17324,0 0,14.17324 -14.17323,0 0,-14.17324 -14.17325,0 0,14.17324 -14.17324,0 0,-14.17324 -14.17324,0 0,14.17324 -14.17324,0 0,-14.17324 -14.17324,0 0,14.17324 -14.17324,0 0,-14.17324 -14.17324,0 0,14.17324 -14.17324,0 0,-14.17324 -14.17324,0 0,14.17324 -14.17323,0 0,-14.17324 -14.17325,0 0,14.17324 -14.17324,0 0,-14.17324 -14.17323,0 0,14.17324 -14.17325,0 0,-14.17324 -14.17324,0 0,14.17324 -14.17324,0 0,-14.17324 -14.17324,0 0,14.17324 -14.17324,0 0,-14.17324 -14.17323,0 0,14.17324 -14.17325,0 0,-14.17324 -14.17324,0 0,14.17324 -14.17324,0 0,-14.17324 -14.17324,0 0,14.17324 -14.17324,0 0,-14.17324 -14.17324,0 0,14.17324 -14.17324,0 0,-14.17324 -14.17324,0 0,14.17324 -14.17324,0 0,-14.17324 -14.17324,0 0,14.17324 -14.17324,0 0,-14.17324 -14.17324,0 0,14.17324 -14.17323,0 0,-14.17324 -14.17324,0 0,14.17324 -14.17325,0 0,-14.17324 -14.17323,0 0,14.17324 -14.17324,0 0,-14.17324 -14.17325,0 0,14.17324 -14.17324,0 0,-14.17324 -14.17323,0 0,14.17324 -14.17324,0 0,-14.17324 -14.17325,0 0,14.17324 -14.17324,0 0,-14.17324 -14.173235,0 0,14.17324 -14.17324,0 0,-14.17324 -14.17324,0 0,14.17324 -14.17324,0 0,-14.17324 -14.17324,0 0,14.17324 -18.602378,0 0,-14.17324 -4.429137,0 0,-2.125986 -14.17324,0"
       style="fill:none;stroke:#000000"
       sodipodi:nodetypes="cccccccccccccccccccccccccccccccccccccccccccccccccccccccccccccccccccccccccccccccccccccccccccccccccccccccccccccccccccccccccccccccccccccccccc" />
  </g>
  <g
     transform="translate(639.36279,928.80876)"
     id="g3123"
     style="stroke:#000000;stroke-width:1.70787537;stroke-miterlimit:4;stroke-opacity:1;stroke-dasharray:none">
    <path
       inkscape:connector-curvature="0"
       id="polygon3125"
       d="m 363.18927,14.17324 0,-14.17324 14.17324,0 0,14.17324 14.17324,0 0,-14.17324 14.17324,0 0,14.17324 14.17324,0 0,-14.17324 14.17325,0 0,14.17324 14.17323,0 0,-14.17324 14.17324,0 0,14.17324 14.17324,0 0,-14.17324 14.17324,0 0,14.17324 14.17324,0 0,-14.17324 14.17325,0 0,14.17324 14.17323,0 0,-14.17324 14.17324,0 0,14.17324 14.17325,0 0,-14.17324 14.17323,0 0,14.17324 14.17324,0 0,-14.17324 14.17324,0 0,14.17324 14.17324,0 0,-14.17324 14.17324,0 0,14.17324 14.17324,0 0,-14.17324 14.17324,0 0,14.17324 14.17324,0 0,-14.17324 14.17324,0 0,14.17324 14.17325,0 0,-14.17324 14.17323,0 0,14.17324 14.17324,0 0,-14.17324 14.17325,0 0,14.17324 14.17323,0 0,-14.17324 14.17324,0 0,14.17324 14.17325,0 0,-14.17324 14.17323,0 0,14.17324 14.17324,0 0,-14.17324 14.17325,0 0,14.17324 14.17323,0 0,-14.17324 14.17324,0 0,14.17324 14.17324,0 0,-14.17324 14.17324,0 0,14.17324 14.17324,0 0,-14.17324 14.17324,0 0,14.17324 14.17325,0 0,-14.17324 18.60237,0 0,14.17324 4.42914,0 0,2.125986 14.17324,0 0,16.299226 -14.17324,0 0,16.299226 14.17324,0 0,16.299226 -14.17324,0 0,2.125986 -4.42914,0 0,14.17324 -18.60237,0 0,-14.17324 -14.17325,0 0,14.17324 -14.17324,0 0,-14.17324 -14.17324,0 0,14.17324 -14.17324,0 0,-14.17324 -14.17324,0 0,14.17324 -14.17324,0 0,-14.17324 -14.17323,0 0,14.17324 -14.17325,0 0,-14.17324 -14.17324,0 0,14.17324 -14.17323,0 0,-14.17324 -14.17325,0 0,14.17324 -14.17324,0 0,-14.17324 -14.17323,0 0,14.17324 -14.17325,0 0,-14.17324 -14.17324,0 0,14.17324 -14.17323,0 0,-14.17324 -14.17325,0 0,14.17324 -14.17324,0 0,-14.17324 -14.17324,0 0,14.17324 -14.17324,0 0,-14.17324 -14.17324,0 0,14.17324 -14.17324,0 0,-14.17324 -14.17324,0 0,14.17324 -14.17324,0 0,-14.17324 -14.17324,0 0,14.17324 -14.17323,0 0,-14.17324 -14.17325,0 0,14.17324 -14.17324,0 0,-14.17324 -14.17323,0 0,14.17324 -14.17325,0 0,-14.17324 -14.17324,0 0,14.17324 -14.17324,0 0,-14.17324 -14.17324,0 0,14.17324 -14.17324,0 0,-14.17324 -14.17323,0 0,14.17324 -14.17325,0 0,-14.17324 -14.17324,0 0,14.17324 -14.17324,0 0,-14.17324 -14.17324,0 0,14.17324 -14.17324,0 0,-14.17324 -14.17324,0 0,14.17324 -14.17324,0 0,-14.17324 -14.17324,0 0,14.17324 -14.17324,0 0,-14.17324 -14.17324,0 0,14.17324 -14.17324,0 0,-14.17324 -14.17324,0 0,14.17324 -14.17323,0 0,-14.17324 -14.17324,0 0,14.17324 -14.17325,0 0,-14.17324 -14.17323,0 0,14.17324 -14.17324,0 0,-14.17324 -14.17325,0 0,14.17324 -14.17324,0 0,-14.17324 -14.17323,0 0,14.17324 -14.17324,0 0,-14.17324 -14.17325,0 0,14.17324 -14.17324,0 0,-14.17324 -14.173235,0 0,14.17324 -14.17324,0 0,-14.17324 -14.17324,0 0,14.17324 -14.17324,0 0,-14.17324 -14.17324,0 0,14.17324 -18.602378,0 0,-14.17324 -4.429137,0 0,-2.125986 -14.17324,0 0,-16.299226 14.17324,0 0,-16.299226 -14.17324,0 0,-16.299226 14.17324,0 0,-2.125986 4.429137,0 0,-14.17324 18.602378,0 0,14.17324 14.17324,0 0,-14.17324 14.17324,0 0,14.17324 14.17324,0 0,-14.17324 14.17324,0 0,14.17324 14.173235,0 0,-14.17324 14.17324,0 0,14.17324 14.17325,0 0,-14.17324 14.17324,0 0,14.17324 14.17323,0 0,-14.17324 14.17324,0 0,14.17324 14.17325,0 0,-14.17324 14.17324,0 0,14.17324 14.17323,0 0,-14.17324 14.17325,0 0,14.17324 14.17324,0 0,-14.17324 14.17323,0 0,14.17324 14.17324,0 0,-14.17324 14.17324,0 0,14.17324 14.17324,0 0,-14.17324 14.17324,0 0,14.17324 14.17324,0 0,-14.17324 14.17324,0 0,14.17324 z"
       style="fill:none;stroke:#000000" />
  </g>
  <path
     inkscape:connector-curvature="0"
     id="path3194"
     d="m 1647.6483,719.93836 c 0,8.2324 -6.6737,14.90608 -14.9061,14.90608 -8.2324,0 -14.9061,-6.67368 -14.9061,-14.90608 0,-8.23241 6.6737,-14.90609 14.9061,-14.90609 8.2324,0 14.9061,6.67368 14.9061,14.90609 z"
     style="color:#000000;fill:none;stroke:#000000;stroke-width:1.70787537;stroke-linecap:butt;stroke-linejoin:miter;stroke-miterlimit:4;stroke-opacity:1;stroke-dasharray:none;stroke-dashoffset:0;marker:none;visibility:visible;display:inline;overflow:visible;enable-background:accumulate" />
  <path
     inkscape:connector-curvature="0"
     id="path3220"
     d="m 1535.659,968.61595 c 0,11.01758 -8.9315,19.9491 -19.9491,19.9491 -11.0176,0 -19.9491,-8.93152 -19.9491,-19.9491 0,-11.01759 8.9315,-19.94912 19.9491,-19.94912 11.0176,0 19.9491,8.93153 19.9491,19.94912 z"
     style="color:#000000;fill:none;stroke:#000000;stroke-width:1.70787537;stroke-linecap:butt;stroke-linejoin:miter;stroke-miterlimit:4;stroke-opacity:1;stroke-dasharray:none;stroke-dashoffset:0;marker:none;visibility:visible;display:inline;overflow:visible;enable-background:accumulate" />
  <path
     style="fill:none;stroke:#000000;stroke-width:1.70787537;stroke-linecap:butt;stroke-linejoin:miter;stroke-miterlimit:4;stroke-opacity:1;stroke-dasharray:none"
     d="m 1592.4647,942.95127 14.1591,0"
     id="path3260"
     inkscape:connector-curvature="0" />
  <path
     style="fill:none;stroke:#000000;stroke-width:1.70787537;stroke-linecap:butt;stroke-linejoin:miter;stroke-miterlimit:4;stroke-opacity:1;stroke-dasharray:none"
     d="m 1592.5225,92.538701 14.1013,0.05779"
     id="path4030"
     inkscape:connector-curvature="0" />
  <path
     style="fill:none;stroke:#000000;stroke-width:1.70787537;stroke-linecap:butt;stroke-linejoin:miter;stroke-miterlimit:4;stroke-opacity:1;stroke-dasharray:none"
     d="m 639.29755,92.596493 14.21689,-0.05779"
     id="path4032"
     inkscape:connector-curvature="0" />
  <path
     style="fill:none;stroke:#000000;stroke-width:1.70787537;stroke-linecap:butt;stroke-linejoin:miter;stroke-miterlimit:4;stroke-opacity:1;stroke-dasharray:none"
     d="m 639.29755,942.89347 14.21689,0.0578"
     id="path4034"
     inkscape:connector-curvature="0" />
</svg>
