  0
SECTION
  2
HEADER
  9
$ACADVER
  1
AC1014
  9
$HANDSEED
  5
FFFF
  9
$MEASUREMENT
 70
     1
  0
ENDSEC
  0
SECTION
  2
TABLES
  0
TABLE
  2
VPORT
  5
8
330
0
100
AcDbSymbolTable
 70
     4
  0
VPORT
  5
2E
330
8
100
AcDbSymbolTableRecord
100
AcDbViewportTableRecord
  2
*ACTIVE
 70
     0
 10
0.0
 20
0.0
 11
1.0
 21
1.0
 12
210.0
 22
148.5
 13
0.0
 23
0.0
 14
10.0
 24
10.0
 15
10.0
 25
10.0
 16
0.0
 26
0.0
 36
1.0
 17
0.0
 27
0.0
 37
0.0
 40
341.0
 41
1.24
 42
50.0
 43
0.0
 44
0.0
 50
0.0
 51
0.0
 71
     0
 72
   100
 73
     1
 74
     3
 75
     0
 76
     0
 77
     0
 78
     0
  0
ENDTAB
  0
TABLE
  2
LTYPE
  5
5
330
0
100
AcDbSymbolTable
 70
     1
  0
LTYPE
  5
14
330
5
100
AcDbSymbolTableRecord
100
AcDbLinetypeTableRecord
  2
BYBLOCK
 70
     0
  3

 72
    65
 73
     0
 40
0.0
  0
LTYPE
  5
15
330
5
100
AcDbSymbolTableRecord
100
AcDbLinetypeTableRecord
  2
BYLAYER
 70
     0
  3

 72
    65
 73
     0
 40
0.0
  0
LTYPE
  5
16
330
5
100
AcDbSymbolTableRecord
100
AcDbLinetypeTableRecord
  2
CONTINUOUS
 70
     0
  3
Solid line
 72
    65
 73
     0
 40
0.0
  0
ENDTAB
  0
TABLE
  2
LAYER
  5
2
100
AcDbSymbolTable
 70
1
  0
LAYER
  5
50
100
AcDbSymbolTableRecord
100
AcDbLayerTableRecord
  2
0
 70
0
  6
CONTINUOUS
  0
ENDTAB
  0
TABLE
  2
STYLE
  5
3
330
0
100
AcDbSymbolTable
 70
     1
  0
STYLE
  5
11
330
3
100
AcDbSymbolTableRecord
100
AcDbTextStyleTableRecord
  2
STANDARD
 70
     0
 40
0.0
 41
1.0
 50
0.0
 71
     0
 42
2.5
  3
txt
  4

  0
ENDTAB
  0
TABLE
  2
VIEW
  5
6
330
0
100
AcDbSymbolTable
 70
     0
  0
ENDTAB
  0
TABLE
  2
UCS
  5
7
330
0
100
AcDbSymbolTable
 70
     0
  0
ENDTAB
  0
TABLE
  2
APPID
  5
9
330
0
100
AcDbSymbolTable
 70
     2
  0
APPID
  5
12
330
9
100
AcDbSymbolTableRecord
100
AcDbRegAppTableRecord
  2
ACAD
 70
     0
  0
ENDTAB
  0
TABLE
  2
DIMSTYLE
  5
A
330
0
100
AcDbSymbolTable
 70
     1
  0
DIMSTYLE
105
27
330
A
100
AcDbSymbolTableRecord
100
AcDbDimStyleTableRecord
  2
ISO-25
 70
     0
  3

  4

  5

  6

  7

 40
1.0
 41
2.5
 42
0.625
 43
3.75
 44
1.25
 45
0.0
 46
0.0
 47
0.0
 48
0.0
140
2.5
141
2.5
142
0.0
143
0.03937007874016
144
1.0
145
0.0
146
1.0
147
0.625
 71
     0
 72
     0
 73
     0
 74
     0
 75
     0
 76
     0
 77
     1
 78
     8
170
     0
171
     3
172
     1
173
     0
174
     0
175
     0
176
     0
177
     0
178
     0
270
     2
271
     2
272
     2
273
     2
274
     3
340
11
275
     0
280
     0
281
     0
282
     0
283
     0
284
     8
285
     0
286
     0
287
     3
288
     0
  0
ENDTAB
  0
TABLE
  2
BLOCK_RECORD
  5
1
330
0
100
AcDbSymbolTable
 70
     1
  0
BLOCK_RECORD
  5
1F
330
1
100
AcDbSymbolTableRecord
100
AcDbBlockTableRecord
  2
*MODEL_SPACE
  0
BLOCK_RECORD
  5
1B
330
1
100
AcDbSymbolTableRecord
100
AcDbBlockTableRecord
  2
*PAPER_SPACE
  0
ENDTAB
  0
ENDSEC
  0
SECTION
  2
BLOCKS
  0
BLOCK
  5
20
330
1F
100
AcDbEntity
  8
0
100
AcDbBlockBegin
  2
*MODEL_SPACE
 70
     0
 10
0.0
 20
0.0
 30
0.0
  3
*MODEL_SPACE
  1

  0
ENDBLK
  5
21
330
1F
100
AcDbEntity
  8
0
100
AcDbBlockEnd
  0
BLOCK
  5
1C
330
1B
100
AcDbEntity
 67
     1
  8
0
100
AcDbBlockBegin
  2
*PAPER_SPACE
  1

  0
ENDBLK
  5
1D
330
1B
100
AcDbEntity
 67
     1
  8
0
100
AcDbBlockEnd
  0
ENDSEC
  0
SECTION
  2
ENTITIES
  0
LINE
  5
100
100
AcDbEntity
  8
0
 62
7
100
AcDbLine
 10
472.434590
 20
165.872415
 30
0.0
 11
468.434587
 21
165.872415
 31
0.0
  0
LINE
  5
101
100
AcDbEntity
  8
0
 62
7
100
AcDbLine
 10
468.434587
 20
165.872415
 30
0.0
 11
468.434587
 21
161.872412
 31
0.0
  0
LINE
  5
102
100
AcDbEntity
  8
0
 62
7
100
AcDbLine
 10
468.434587
 20
161.872412
 30
0.0
 11
472.434590
 21
161.872412
 31
0.0
  0
LINE
  5
103
100
AcDbEntity
  8
0
 62
7
100
AcDbLine
 10
472.434590
 20
161.872412
 30
0.0
 11
472.434590
 21
157.872409
 31
0.0
  0
LINE
  5
104
100
AcDbEntity
  8
0
 62
7
100
AcDbLine
 10
472.434590
 20
157.872409
 30
0.0
 11
468.434587
 21
157.872409
 31
0.0
  0
LINE
  5
105
100
AcDbEntity
  8
0
 62
7
100
AcDbLine
 10
468.434587
 20
157.872409
 30
0.0
 11
468.434587
 21
153.872406
 31
0.0
  0
LINE
  5
106
100
AcDbEntity
  8
0
 62
7
100
AcDbLine
 10
468.434587
 20
153.872406
 30
0.0
 11
472.434590
 21
153.872406
 31
0.0
  0
LINE
  5
107
100
AcDbEntity
  8
0
 62
7
100
AcDbLine
 10
472.434590
 20
153.872406
 30
0.0
 11
472.434590
 21
149.872402
 31
0.0
  0
LINE
  5
108
100
AcDbEntity
  8
0
 62
7
100
AcDbLine
 10
472.434590
 20
149.872402
 30
0.0
 11
468.434587
 21
149.872402
 31
0.0
  0
LINE
  5
109
100
AcDbEntity
  8
0
 62
7
100
AcDbLine
 10
468.434587
 20
149.872402
 30
0.0
 11
468.434587
 21
145.872399
 31
0.0
  0
LINE
  5
10a
100
AcDbEntity
  8
0
 62
7
100
AcDbLine
 10
468.434587
 20
145.872399
 30
0.0
 11
472.434590
 21
145.872399
 31
0.0
  0
LINE
  5
10b
100
AcDbEntity
  8
0
 62
7
100
AcDbLine
 10
472.434590
 20
145.872399
 30
0.0
 11
472.434590
 21
141.872396
 31
0.0
  0
LINE
  5
10c
100
AcDbEntity
  8
0
 62
7
100
AcDbLine
 10
472.434590
 20
141.872396
 30
0.0
 11
468.434587
 21
141.872396
 31
0.0
  0
LINE
  5
10d
100
AcDbEntity
  8
0
 62
7
100
AcDbLine
 10
468.434587
 20
141.872396
 30
0.0
 11
468.434587
 21
137.872392
 31
0.0
  0
LINE
  5
10e
100
AcDbEntity
  8
0
 62
7
100
AcDbLine
 10
468.434587
 20
137.872392
 30
0.0
 11
472.434590
 21
137.872392
 31
0.0
  0
LINE
  5
10f
100
AcDbEntity
  8
0
 62
7
100
AcDbLine
 10
472.434590
 20
137.872392
 30
0.0
 11
472.434590
 21
133.872389
 31
0.0
  0
LINE
  5
110
100
AcDbEntity
  8
0
 62
7
100
AcDbLine
 10
472.434590
 20
133.872389
 30
0.0
 11
468.434587
 21
133.872389
 31
0.0
  0
LINE
  5
111
100
AcDbEntity
  8
0
 62
7
100
AcDbLine
 10
468.434587
 20
133.872389
 30
0.0
 11
468.434587
 21
129.872386
 31
0.0
  0
LINE
  5
112
100
AcDbEntity
  8
0
 62
7
100
AcDbLine
 10
468.434587
 20
129.872386
 30
0.0
 11
472.434590
 21
129.872386
 31
0.0
  0
LINE
  5
113
100
AcDbEntity
  8
0
 62
7
100
AcDbLine
 10
472.434590
 20
129.872386
 30
0.0
 11
472.434590
 21
125.872383
 31
0.0
  0
LINE
  5
114
100
AcDbEntity
  8
0
 62
7
100
AcDbLine
 10
472.434590
 20
125.872383
 30
0.0
 11
468.434587
 21
125.872383
 31
0.0
  0
LINE
  5
115
100
AcDbEntity
  8
0
 62
7
100
AcDbLine
 10
468.434587
 20
125.872383
 30
0.0
 11
468.434587
 21
121.872379
 31
0.0
  0
LINE
  5
116
100
AcDbEntity
  8
0
 62
7
100
AcDbLine
 10
468.434587
 20
121.872379
 30
0.0
 11
472.434590
 21
121.872379
 31
0.0
  0
LINE
  5
117
100
AcDbEntity
  8
0
 62
7
100
AcDbLine
 10
472.434590
 20
121.872379
 30
0.0
 11
472.434590
 21
117.872376
 31
0.0
  0
LINE
  5
118
100
AcDbEntity
  8
0
 62
7
100
AcDbLine
 10
472.434590
 20
117.872376
 30
0.0
 11
468.434587
 21
117.872376
 31
0.0
  0
LINE
  5
119
100
AcDbEntity
  8
0
 62
7
100
AcDbLine
 10
468.434587
 20
117.872376
 30
0.0
 11
468.434587
 21
113.872373
 31
0.0
  0
LINE
  5
11a
100
AcDbEntity
  8
0
 62
7
100
AcDbLine
 10
468.434587
 20
113.872373
 30
0.0
 11
472.434590
 21
113.872373
 31
0.0
  0
LINE
  5
11b
100
AcDbEntity
  8
0
 62
7
100
AcDbLine
 10
472.434590
 20
113.872373
 30
0.0
 11
472.434590
 21
109.872369
 31
0.0
  0
LINE
  5
11c
100
AcDbEntity
  8
0
 62
7
100
AcDbLine
 10
472.434590
 20
109.872369
 30
0.0
 11
468.434587
 21
109.872369
 31
0.0
  0
LINE
  5
11d
100
AcDbEntity
  8
0
 62
7
100
AcDbLine
 10
468.434587
 20
109.872369
 30
0.0
 11
468.434587
 21
105.872366
 31
0.0
  0
LINE
  5
11e
100
AcDbEntity
  8
0
 62
7
100
AcDbLine
 10
468.434587
 20
105.872366
 30
0.0
 11
472.434590
 21
105.872366
 31
0.0
  0
LINE
  5
11f
100
AcDbEntity
  8
0
 62
7
100
AcDbLine
 10
472.434590
 20
105.872366
 30
0.0
 11
472.434590
 21
101.872363
 31
0.0
  0
LINE
  5
120
100
AcDbEntity
  8
0
 62
7
100
AcDbLine
 10
472.434590
 20
101.872363
 30
0.0
 11
468.434587
 21
101.872363
 31
0.0
  0
LINE
  5
121
100
AcDbEntity
  8
0
 62
7
100
AcDbLine
 10
468.434587
 20
101.872363
 30
0.0
 11
468.434587
 21
97.872359
 31
0.0
  0
LINE
  5
122
100
AcDbEntity
  8
0
 62
7
100
AcDbLine
 10
468.434587
 20
97.872359
 30
0.0
 11
472.434590
 21
97.872359
 31
0.0
  0
LINE
  5
123
100
AcDbEntity
  8
0
 62
7
100
AcDbLine
 10
472.434590
 20
97.872359
 30
0.0
 11
472.434590
 21
93.872356
 31
0.0
  0
LINE
  5
124
100
AcDbEntity
  8
0
 62
7
100
AcDbLine
 10
472.434590
 20
93.872356
 30
0.0
 11
468.434587
 21
93.872356
 31
0.0
  0
LINE
  5
125
100
AcDbEntity
  8
0
 62
7
100
AcDbLine
 10
468.434587
 20
93.872356
 30
0.0
 11
468.434587
 21
89.872353
 31
0.0
  0
LINE
  5
126
100
AcDbEntity
  8
0
 62
7
100
AcDbLine
 10
468.434587
 20
89.872353
 30
0.0
 11
472.434590
 21
89.872353
 31
0.0
  0
LINE
  5
127
100
AcDbEntity
  8
0
 62
7
100
AcDbLine
 10
472.434590
 20
89.872353
 30
0.0
 11
472.434590
 21
85.872350
 31
0.0
  0
LINE
  5
128
100
AcDbEntity
  8
0
 62
7
100
AcDbLine
 10
472.434590
 20
85.872350
 30
0.0
 11
468.434587
 21
85.872350
 31
0.0
  0
LINE
  5
129
100
AcDbEntity
  8
0
 62
7
100
AcDbLine
 10
468.434587
 20
85.872350
 30
0.0
 11
468.434587
 21
81.872346
 31
0.0
  0
LINE
  5
12a
100
AcDbEntity
  8
0
 62
7
100
AcDbLine
 10
468.434587
 20
81.872346
 30
0.0
 11
472.434590
 21
81.872346
 31
0.0
  0
LINE
  5
12b
100
AcDbEntity
  8
0
 62
7
100
AcDbLine
 10
472.434590
 20
81.872346
 30
0.0
 11
472.434590
 21
77.872343
 31
0.0
  0
LINE
  5
12c
100
AcDbEntity
  8
0
 62
7
100
AcDbLine
 10
472.434590
 20
77.872343
 30
0.0
 11
468.434587
 21
77.872343
 31
0.0
  0
LINE
  5
12d
100
AcDbEntity
  8
0
 62
7
100
AcDbLine
 10
468.434587
 20
77.872343
 30
0.0
 11
468.434587
 21
73.872340
 31
0.0
  0
LINE
  5
12e
100
AcDbEntity
  8
0
 62
7
100
AcDbLine
 10
468.434587
 20
73.872340
 30
0.0
 11
472.434590
 21
73.872340
 31
0.0
  0
LINE
  5
12f
100
AcDbEntity
  8
0
 62
7
100
AcDbLine
 10
472.434590
 20
73.872340
 30
0.0
 11
472.434590
 21
69.872336
 31
0.0
  0
LINE
  5
130
100
AcDbEntity
  8
0
 62
7
100
AcDbLine
 10
472.434590
 20
69.872336
 30
0.0
 11
468.434587
 21
69.872336
 31
0.0
  0
LINE
  5
131
100
AcDbEntity
  8
0
 62
7
100
AcDbLine
 10
468.434587
 20
69.872336
 30
0.0
 11
468.434587
 21
65.872333
 31
0.0
  0
LINE
  5
132
100
AcDbEntity
  8
0
 62
7
100
AcDbLine
 10
468.434587
 20
65.872333
 30
0.0
 11
472.434590
 21
65.872333
 31
0.0
  0
LINE
  5
133
100
AcDbEntity
  8
0
 62
7
100
AcDbLine
 10
472.434590
 20
65.872333
 30
0.0
 11
472.434590
 21
61.872330
 31
0.0
  0
LINE
  5
134
100
AcDbEntity
  8
0
 62
7
100
AcDbLine
 10
472.434590
 20
61.872330
 30
0.0
 11
468.434587
 21
61.872330
 31
0.0
  0
LINE
  5
135
100
AcDbEntity
  8
0
 62
7
100
AcDbLine
 10
468.434587
 20
61.872330
 30
0.0
 11
468.434587
 21
57.872327
 31
0.0
  0
LINE
  5
136
100
AcDbEntity
  8
0
 62
7
100
AcDbLine
 10
468.434587
 20
57.872327
 30
0.0
 11
472.434590
 21
57.872327
 31
0.0
  0
LINE
  5
137
100
AcDbEntity
  8
0
 62
7
100
AcDbLine
 10
472.434590
 20
57.872327
 30
0.0
 11
472.434590
 21
53.872323
 31
0.0
  0
LINE
  5
138
100
AcDbEntity
  8
0
 62
7
100
AcDbLine
 10
472.434590
 20
53.872323
 30
0.0
 11
468.434587
 21
53.872323
 31
0.0
  0
LINE
  5
139
100
AcDbEntity
  8
0
 62
7
100
AcDbLine
 10
468.434587
 20
53.872323
 30
0.0
 11
468.434587
 21
49.872320
 31
0.0
  0
LINE
  5
13a
100
AcDbEntity
  8
0
 62
7
100
AcDbLine
 10
468.434587
 20
49.872320
 30
0.0
 11
472.434590
 21
49.872320
 31
0.0
  0
LINE
  5
13b
100
AcDbEntity
  8
0
 62
7
100
AcDbLine
 10
472.434590
 20
49.872320
 30
0.0
 11
472.434590
 21
45.872317
 31
0.0
  0
LINE
  5
13c
100
AcDbEntity
  8
0
 62
7
100
AcDbLine
 10
472.434590
 20
45.872317
 30
0.0
 11
468.434587
 21
45.872317
 31
0.0
  0
LINE
  5
13d
100
AcDbEntity
  8
0
 62
7
100
AcDbLine
 10
468.434587
 20
45.872317
 30
0.0
 11
468.434587
 21
41.872313
 31
0.0
  0
LINE
  5
13e
100
AcDbEntity
  8
0
 62
7
100
AcDbLine
 10
468.434587
 20
41.872313
 30
0.0
 11
472.434590
 21
41.872313
 31
0.0
  0
LINE
  5
13f
100
AcDbEntity
  8
0
 62
7
100
AcDbLine
 10
472.434590
 20
41.872313
 30
0.0
 11
472.434590
 21
37.872310
 31
0.0
  0
LINE
  5
140
100
AcDbEntity
  8
0
 62
7
100
AcDbLine
 10
472.434590
 20
37.872310
 30
0.0
 11
468.434587
 21
37.872310
 31
0.0
  0
LINE
  5
141
100
AcDbEntity
  8
0
 62
7
100
AcDbLine
 10
468.434587
 20
37.872310
 30
0.0
 11
468.434587
 21
33.872307
 31
0.0
  0
LINE
  5
142
100
AcDbEntity
  8
0
 62
7
100
AcDbLine
 10
468.434587
 20
33.872307
 30
0.0
 11
472.434590
 21
33.872307
 31
0.0
  0
LINE
  5
143
100
AcDbEntity
  8
0
 62
7
100
AcDbLine
 10
472.434590
 20
33.872307
 30
0.0
 11
472.434590
 21
28.872303
 31
0.0
  0
LINE
  5
144
100
AcDbEntity
  8
0
 62
7
100
AcDbLine
 10
472.434590
 20
28.872303
 30
0.0
 11
468.434587
 21
28.872303
 31
0.0
  0
LINE
  5
145
100
AcDbEntity
  8
0
 62
7
100
AcDbLine
 10
468.434587
 20
28.872303
 30
0.0
 11
468.434587
 21
23.872299
 31
0.0
  0
LINE
  5
146
100
AcDbEntity
  8
0
 62
7
100
AcDbLine
 10
468.434587
 20
23.872299
 30
0.0
 11
467.834586
 21
23.872299
 31
0.0
  0
LINE
  5
147
100
AcDbEntity
  8
0
 62
7
100
AcDbLine
 10
467.834586
 20
23.872299
 30
0.0
 11
467.834586
 21
27.872302
 31
0.0
  0
LINE
  5
148
100
AcDbEntity
  8
0
 62
7
100
AcDbLine
 10
467.834586
 20
27.872302
 30
0.0
 11
463.234582
 21
27.872302
 31
0.0
  0
LINE
  5
149
100
AcDbEntity
  8
0
 62
7
100
AcDbLine
 10
463.234582
 20
27.872302
 30
0.0
 11
463.234582
 21
23.872299
 31
0.0
  0
LINE
  5
14a
100
AcDbEntity
  8
0
 62
7
100
AcDbLine
 10
463.234582
 20
23.872299
 30
0.0
 11
458.634578
 21
23.872299
 31
0.0
  0
LINE
  5
14b
100
AcDbEntity
  8
0
 62
7
100
AcDbLine
 10
458.634578
 20
23.872299
 30
0.0
 11
458.634578
 21
27.872302
 31
0.0
  0
LINE
  5
14c
100
AcDbEntity
  8
0
 62
7
100
AcDbLine
 10
458.634578
 20
27.872302
 30
0.0
 11
454.034575
 21
27.872302
 31
0.0
  0
LINE
  5
14d
100
AcDbEntity
  8
0
 62
7
100
AcDbLine
 10
454.034575
 20
27.872302
 30
0.0
 11
454.034575
 21
23.872299
 31
0.0
  0
LINE
  5
14e
100
AcDbEntity
  8
0
 62
7
100
AcDbLine
 10
454.034575
 20
23.872299
 30
0.0
 11
453.434574
 21
23.872299
 31
0.0
  0
LINE
  5
14f
100
AcDbEntity
  8
0
 62
7
100
AcDbLine
 10
453.434574
 20
23.872299
 30
0.0
 11
453.434574
 21
28.872303
 31
0.0
  0
LINE
  5
150
100
AcDbEntity
  8
0
 62
7
100
AcDbLine
 10
453.434574
 20
28.872303
 30
0.0
 11
449.434571
 21
28.872303
 31
0.0
  0
LINE
  5
151
100
AcDbEntity
  8
0
 62
7
100
AcDbLine
 10
449.434571
 20
28.872303
 30
0.0
 11
449.434571
 21
33.872307
 31
0.0
  0
LINE
  5
152
100
AcDbEntity
  8
0
 62
7
100
AcDbLine
 10
449.434571
 20
33.872307
 30
0.0
 11
453.434574
 21
33.872307
 31
0.0
  0
LINE
  5
153
100
AcDbEntity
  8
0
 62
7
100
AcDbLine
 10
453.434574
 20
33.872307
 30
0.0
 11
453.434574
 21
37.872310
 31
0.0
  0
LINE
  5
154
100
AcDbEntity
  8
0
 62
7
100
AcDbLine
 10
453.434574
 20
37.872310
 30
0.0
 11
449.434571
 21
37.872310
 31
0.0
  0
LINE
  5
155
100
AcDbEntity
  8
0
 62
7
100
AcDbLine
 10
449.434571
 20
37.872310
 30
0.0
 11
449.434571
 21
41.872313
 31
0.0
  0
LINE
  5
156
100
AcDbEntity
  8
0
 62
7
100
AcDbLine
 10
449.434571
 20
41.872313
 30
0.0
 11
453.434574
 21
41.872313
 31
0.0
  0
LINE
  5
157
100
AcDbEntity
  8
0
 62
7
100
AcDbLine
 10
453.434574
 20
41.872313
 30
0.0
 11
453.434574
 21
45.872317
 31
0.0
  0
LINE
  5
158
100
AcDbEntity
  8
0
 62
7
100
AcDbLine
 10
453.434574
 20
45.872317
 30
0.0
 11
449.434571
 21
45.872317
 31
0.0
  0
LINE
  5
159
100
AcDbEntity
  8
0
 62
7
100
AcDbLine
 10
449.434571
 20
45.872317
 30
0.0
 11
449.434571
 21
49.872320
 31
0.0
  0
LINE
  5
15a
100
AcDbEntity
  8
0
 62
7
100
AcDbLine
 10
449.434571
 20
49.872320
 30
0.0
 11
453.434574
 21
49.872320
 31
0.0
  0
LINE
  5
15b
100
AcDbEntity
  8
0
 62
7
100
AcDbLine
 10
453.434574
 20
49.872320
 30
0.0
 11
453.434574
 21
53.872323
 31
0.0
  0
LINE
  5
15c
100
AcDbEntity
  8
0
 62
7
100
AcDbLine
 10
453.434574
 20
53.872323
 30
0.0
 11
449.434571
 21
53.872323
 31
0.0
  0
LINE
  5
15d
100
AcDbEntity
  8
0
 62
7
100
AcDbLine
 10
449.434571
 20
53.872323
 30
0.0
 11
449.434571
 21
57.872327
 31
0.0
  0
LINE
  5
15e
100
AcDbEntity
  8
0
 62
7
100
AcDbLine
 10
449.434571
 20
57.872327
 30
0.0
 11
453.434574
 21
57.872327
 31
0.0
  0
LINE
  5
15f
100
AcDbEntity
  8
0
 62
7
100
AcDbLine
 10
453.434574
 20
57.872327
 30
0.0
 11
453.434574
 21
61.872330
 31
0.0
  0
LINE
  5
160
100
AcDbEntity
  8
0
 62
7
100
AcDbLine
 10
453.434574
 20
61.872330
 30
0.0
 11
449.434571
 21
61.872330
 31
0.0
  0
LINE
  5
161
100
AcDbEntity
  8
0
 62
7
100
AcDbLine
 10
449.434571
 20
61.872330
 30
0.0
 11
449.434571
 21
65.872333
 31
0.0
  0
LINE
  5
162
100
AcDbEntity
  8
0
 62
7
100
AcDbLine
 10
449.434571
 20
65.872333
 30
0.0
 11
453.434574
 21
65.872333
 31
0.0
  0
LINE
  5
163
100
AcDbEntity
  8
0
 62
7
100
AcDbLine
 10
453.434574
 20
65.872333
 30
0.0
 11
453.434574
 21
69.872336
 31
0.0
  0
LINE
  5
164
100
AcDbEntity
  8
0
 62
7
100
AcDbLine
 10
453.434574
 20
69.872336
 30
0.0
 11
449.434571
 21
69.872336
 31
0.0
  0
LINE
  5
165
100
AcDbEntity
  8
0
 62
7
100
AcDbLine
 10
449.434571
 20
69.872336
 30
0.0
 11
449.434571
 21
73.872340
 31
0.0
  0
LINE
  5
166
100
AcDbEntity
  8
0
 62
7
100
AcDbLine
 10
449.434571
 20
73.872340
 30
0.0
 11
453.434574
 21
73.872340
 31
0.0
  0
LINE
  5
167
100
AcDbEntity
  8
0
 62
7
100
AcDbLine
 10
453.434574
 20
73.872340
 30
0.0
 11
453.434574
 21
77.872343
 31
0.0
  0
LINE
  5
168
100
AcDbEntity
  8
0
 62
7
100
AcDbLine
 10
453.434574
 20
77.872343
 30
0.0
 11
449.434571
 21
77.872343
 31
0.0
  0
LINE
  5
169
100
AcDbEntity
  8
0
 62
7
100
AcDbLine
 10
449.434571
 20
77.872343
 30
0.0
 11
449.434571
 21
81.872346
 31
0.0
  0
LINE
  5
16a
100
AcDbEntity
  8
0
 62
7
100
AcDbLine
 10
449.434571
 20
81.872346
 30
0.0
 11
453.434574
 21
81.872346
 31
0.0
  0
LINE
  5
16b
100
AcDbEntity
  8
0
 62
7
100
AcDbLine
 10
453.434574
 20
81.872346
 30
0.0
 11
453.434574
 21
85.872350
 31
0.0
  0
LINE
  5
16c
100
AcDbEntity
  8
0
 62
7
100
AcDbLine
 10
453.434574
 20
85.872350
 30
0.0
 11
449.434571
 21
85.872350
 31
0.0
  0
LINE
  5
16d
100
AcDbEntity
  8
0
 62
7
100
AcDbLine
 10
449.434571
 20
85.872350
 30
0.0
 11
449.434571
 21
89.872353
 31
0.0
  0
LINE
  5
16e
100
AcDbEntity
  8
0
 62
7
100
AcDbLine
 10
449.434571
 20
89.872353
 30
0.0
 11
453.434574
 21
89.872353
 31
0.0
  0
LINE
  5
16f
100
AcDbEntity
  8
0
 62
7
100
AcDbLine
 10
453.434574
 20
89.872353
 30
0.0
 11
453.434574
 21
93.872356
 31
0.0
  0
LINE
  5
170
100
AcDbEntity
  8
0
 62
7
100
AcDbLine
 10
453.434574
 20
93.872356
 30
0.0
 11
449.434571
 21
93.872356
 31
0.0
  0
LINE
  5
171
100
AcDbEntity
  8
0
 62
7
100
AcDbLine
 10
449.434571
 20
93.872356
 30
0.0
 11
449.434571
 21
97.872359
 31
0.0
  0
LINE
  5
172
100
AcDbEntity
  8
0
 62
7
100
AcDbLine
 10
449.434571
 20
97.872359
 30
0.0
 11
453.434574
 21
97.872359
 31
0.0
  0
LINE
  5
173
100
AcDbEntity
  8
0
 62
7
100
AcDbLine
 10
453.434574
 20
97.872359
 30
0.0
 11
453.434574
 21
101.872363
 31
0.0
  0
LINE
  5
174
100
AcDbEntity
  8
0
 62
7
100
AcDbLine
 10
453.434574
 20
101.872363
 30
0.0
 11
449.434571
 21
101.872363
 31
0.0
  0
LINE
  5
175
100
AcDbEntity
  8
0
 62
7
100
AcDbLine
 10
449.434571
 20
101.872363
 30
0.0
 11
449.434571
 21
105.872366
 31
0.0
  0
LINE
  5
176
100
AcDbEntity
  8
0
 62
7
100
AcDbLine
 10
449.434571
 20
105.872366
 30
0.0
 11
453.434574
 21
105.872366
 31
0.0
  0
LINE
  5
177
100
AcDbEntity
  8
0
 62
7
100
AcDbLine
 10
453.434574
 20
105.872366
 30
0.0
 11
453.434574
 21
109.872369
 31
0.0
  0
LINE
  5
178
100
AcDbEntity
  8
0
 62
7
100
AcDbLine
 10
453.434574
 20
109.872369
 30
0.0
 11
449.434571
 21
109.872369
 31
0.0
  0
LINE
  5
179
100
AcDbEntity
  8
0
 62
7
100
AcDbLine
 10
449.434571
 20
109.872369
 30
0.0
 11
449.434571
 21
113.872373
 31
0.0
  0
LINE
  5
17a
100
AcDbEntity
  8
0
 62
7
100
AcDbLine
 10
449.434571
 20
113.872373
 30
0.0
 11
453.434574
 21
113.872373
 31
0.0
  0
LINE
  5
17b
100
AcDbEntity
  8
0
 62
7
100
AcDbLine
 10
453.434574
 20
113.872373
 30
0.0
 11
453.434574
 21
117.872376
 31
0.0
  0
LINE
  5
17c
100
AcDbEntity
  8
0
 62
7
100
AcDbLine
 10
453.434574
 20
117.872376
 30
0.0
 11
449.434571
 21
117.872376
 31
0.0
  0
LINE
  5
17d
100
AcDbEntity
  8
0
 62
7
100
AcDbLine
 10
449.434571
 20
117.872376
 30
0.0
 11
449.434571
 21
121.872379
 31
0.0
  0
LINE
  5
17e
100
AcDbEntity
  8
0
 62
7
100
AcDbLine
 10
449.434571
 20
121.872379
 30
0.0
 11
453.434574
 21
121.872379
 31
0.0
  0
LINE
  5
17f
100
AcDbEntity
  8
0
 62
7
100
AcDbLine
 10
453.434574
 20
121.872379
 30
0.0
 11
453.434574
 21
125.872383
 31
0.0
  0
LINE
  5
180
100
AcDbEntity
  8
0
 62
7
100
AcDbLine
 10
453.434574
 20
125.872383
 30
0.0
 11
449.434571
 21
125.872383
 31
0.0
  0
LINE
  5
181
100
AcDbEntity
  8
0
 62
7
100
AcDbLine
 10
449.434571
 20
125.872383
 30
0.0
 11
449.434571
 21
129.872386
 31
0.0
  0
LINE
  5
182
100
AcDbEntity
  8
0
 62
7
100
AcDbLine
 10
449.434571
 20
129.872386
 30
0.0
 11
453.434574
 21
129.872386
 31
0.0
  0
LINE
  5
183
100
AcDbEntity
  8
0
 62
7
100
AcDbLine
 10
453.434574
 20
129.872386
 30
0.0
 11
453.434574
 21
133.872389
 31
0.0
  0
LINE
  5
184
100
AcDbEntity
  8
0
 62
7
100
AcDbLine
 10
453.434574
 20
133.872389
 30
0.0
 11
449.434571
 21
133.872389
 31
0.0
  0
LINE
  5
185
100
AcDbEntity
  8
0
 62
7
100
AcDbLine
 10
449.434571
 20
133.872389
 30
0.0
 11
449.434571
 21
137.872392
 31
0.0
  0
LINE
  5
186
100
AcDbEntity
  8
0
 62
7
100
AcDbLine
 10
449.434571
 20
137.872392
 30
0.0
 11
453.434574
 21
137.872392
 31
0.0
  0
LINE
  5
187
100
AcDbEntity
  8
0
 62
7
100
AcDbLine
 10
453.434574
 20
137.872392
 30
0.0
 11
453.434574
 21
141.872396
 31
0.0
  0
LINE
  5
188
100
AcDbEntity
  8
0
 62
7
100
AcDbLine
 10
453.434574
 20
141.872396
 30
0.0
 11
449.434571
 21
141.872396
 31
0.0
  0
LINE
  5
189
100
AcDbEntity
  8
0
 62
7
100
AcDbLine
 10
449.434571
 20
141.872396
 30
0.0
 11
449.434571
 21
145.872399
 31
0.0
  0
LINE
  5
18a
100
AcDbEntity
  8
0
 62
7
100
AcDbLine
 10
449.434571
 20
145.872399
 30
0.0
 11
453.434574
 21
145.872399
 31
0.0
  0
LINE
  5
18b
100
AcDbEntity
  8
0
 62
7
100
AcDbLine
 10
453.434574
 20
145.872399
 30
0.0
 11
453.434574
 21
149.872402
 31
0.0
  0
LINE
  5
18c
100
AcDbEntity
  8
0
 62
7
100
AcDbLine
 10
453.434574
 20
149.872402
 30
0.0
 11
449.434571
 21
149.872402
 31
0.0
  0
LINE
  5
18d
100
AcDbEntity
  8
0
 62
7
100
AcDbLine
 10
449.434571
 20
149.872402
 30
0.0
 11
449.434571
 21
153.872406
 31
0.0
  0
LINE
  5
18e
100
AcDbEntity
  8
0
 62
7
100
AcDbLine
 10
449.434571
 20
153.872406
 30
0.0
 11
453.434574
 21
153.872406
 31
0.0
  0
LINE
  5
18f
100
AcDbEntity
  8
0
 62
7
100
AcDbLine
 10
453.434574
 20
153.872406
 30
0.0
 11
453.434574
 21
157.872409
 31
0.0
  0
LINE
  5
190
100
AcDbEntity
  8
0
 62
7
100
AcDbLine
 10
453.434574
 20
157.872409
 30
0.0
 11
449.434571
 21
157.872409
 31
0.0
  0
LINE
  5
191
100
AcDbEntity
  8
0
 62
7
100
AcDbLine
 10
449.434571
 20
157.872409
 30
0.0
 11
449.434571
 21
161.872412
 31
0.0
  0
LINE
  5
192
100
AcDbEntity
  8
0
 62
7
100
AcDbLine
 10
449.434571
 20
161.872412
 30
0.0
 11
453.434574
 21
161.872412
 31
0.0
  0
LINE
  5
193
100
AcDbEntity
  8
0
 62
7
100
AcDbLine
 10
453.434574
 20
161.872412
 30
0.0
 11
453.434574
 21
165.872415
 31
0.0
  0
LINE
  5
194
100
AcDbEntity
  8
0
 62
7
100
AcDbLine
 10
453.434574
 20
165.872415
 30
0.0
 11
449.434571
 21
165.872415
 31
0.0
  0
LINE
  5
195
100
AcDbEntity
  8
0
 62
7
100
AcDbLine
 10
449.434571
 20
165.872415
 30
0.0
 11
449.434571
 21
169.872419
 31
0.0
  0
LINE
  5
196
100
AcDbEntity
  8
0
 62
7
100
AcDbLine
 10
449.434571
 20
169.872419
 30
0.0
 11
453.434574
 21
169.872419
 31
0.0
  0
LINE
  5
197
100
AcDbEntity
  8
0
 62
7
100
AcDbLine
 10
453.434574
 20
169.872419
 30
0.0
 11
453.434574
 21
173.872422
 31
0.0
  0
LINE
  5
198
100
AcDbEntity
  8
0
 62
7
100
AcDbLine
 10
453.434574
 20
173.872422
 30
0.0
 11
449.434571
 21
173.872422
 31
0.0
  0
LINE
  5
199
100
AcDbEntity
  8
0
 62
7
100
AcDbLine
 10
449.434571
 20
173.872422
 30
0.0
 11
449.434571
 21
177.872425
 31
0.0
  0
LINE
  5
19a
100
AcDbEntity
  8
0
 62
7
100
AcDbLine
 10
449.434571
 20
177.872425
 30
0.0
 11
453.434574
 21
177.872425
 31
0.0
  0
LINE
  5
19b
100
AcDbEntity
  8
0
 62
7
100
AcDbLine
 10
453.434574
 20
177.872425
 30
0.0
 11
453.434574
 21
181.872429
 31
0.0
  0
LINE
  5
19c
100
AcDbEntity
  8
0
 62
7
100
AcDbLine
 10
453.434574
 20
181.872429
 30
0.0
 11
449.434571
 21
181.872429
 31
0.0
  0
LINE
  5
19d
100
AcDbEntity
  8
0
 62
7
100
AcDbLine
 10
449.434571
 20
181.872429
 30
0.0
 11
449.434571
 21
185.872432
 31
0.0
  0
LINE
  5
19e
100
AcDbEntity
  8
0
 62
7
100
AcDbLine
 10
449.434571
 20
185.872432
 30
0.0
 11
453.434574
 21
185.872432
 31
0.0
  0
LINE
  5
19f
100
AcDbEntity
  8
0
 62
7
100
AcDbLine
 10
453.434574
 20
185.872432
 30
0.0
 11
453.434574
 21
189.872435
 31
0.0
  0
LINE
  5
1a0
100
AcDbEntity
  8
0
 62
7
100
AcDbLine
 10
453.434574
 20
189.872435
 30
0.0
 11
449.434571
 21
189.872435
 31
0.0
  0
LINE
  5
1a1
100
AcDbEntity
  8
0
 62
7
100
AcDbLine
 10
449.434571
 20
189.872435
 30
0.0
 11
449.434571
 21
193.872438
 31
0.0
  0
LINE
  5
1a2
100
AcDbEntity
  8
0
 62
7
100
AcDbLine
 10
449.434571
 20
193.872438
 30
0.0
 11
453.434574
 21
193.872438
 31
0.0
  0
LINE
  5
1a3
100
AcDbEntity
  8
0
 62
7
100
AcDbLine
 10
453.434574
 20
193.872438
 30
0.0
 11
453.434574
 21
197.872442
 31
0.0
  0
LINE
  5
1a4
100
AcDbEntity
  8
0
 62
7
100
AcDbLine
 10
453.434574
 20
197.872442
 30
0.0
 11
449.434571
 21
197.872442
 31
0.0
  0
LINE
  5
1a5
100
AcDbEntity
  8
0
 62
7
100
AcDbLine
 10
449.434571
 20
197.872442
 30
0.0
 11
449.434571
 21
201.872445
 31
0.0
  0
LINE
  5
1a6
100
AcDbEntity
  8
0
 62
7
100
AcDbLine
 10
449.434571
 20
201.872445
 30
0.0
 11
453.434574
 21
201.872445
 31
0.0
  0
LINE
  5
1a7
100
AcDbEntity
  8
0
 62
7
100
AcDbLine
 10
453.434574
 20
201.872445
 30
0.0
 11
453.434574
 21
205.872448
 31
0.0
  0
LINE
  5
1a8
100
AcDbEntity
  8
0
 62
7
100
AcDbLine
 10
453.434574
 20
205.872448
 30
0.0
 11
449.434571
 21
205.872448
 31
0.0
  0
LINE
  5
1a9
100
AcDbEntity
  8
0
 62
7
100
AcDbLine
 10
449.434571
 20
205.872448
 30
0.0
 11
449.434571
 21
209.872452
 31
0.0
  0
LINE
  5
1aa
100
AcDbEntity
  8
0
 62
7
100
AcDbLine
 10
449.434571
 20
209.872452
 30
0.0
 11
453.434574
 21
209.872452
 31
0.0
  0
LINE
  5
1ab
100
AcDbEntity
  8
0
 62
7
100
AcDbLine
 10
453.434574
 20
209.872452
 30
0.0
 11
453.434574
 21
213.872455
 31
0.0
  0
LINE
  5
1ac
100
AcDbEntity
  8
0
 62
7
100
AcDbLine
 10
453.434574
 20
213.872455
 30
0.0
 11
449.434571
 21
213.872455
 31
0.0
  0
LINE
  5
1ad
100
AcDbEntity
  8
0
 62
7
100
AcDbLine
 10
449.434571
 20
213.872455
 30
0.0
 11
449.434571
 21
217.872458
 31
0.0
  0
LINE
  5
1ae
100
AcDbEntity
  8
0
 62
7
100
AcDbLine
 10
449.434571
 20
217.872458
 30
0.0
 11
453.434574
 21
217.872458
 31
0.0
  0
LINE
  5
1af
100
AcDbEntity
  8
0
 62
7
100
AcDbLine
 10
453.434574
 20
217.872458
 30
0.0
 11
453.434574
 21
221.872461
 31
0.0
  0
LINE
  5
1b0
100
AcDbEntity
  8
0
 62
7
100
AcDbLine
 10
453.434574
 20
221.872461
 30
0.0
 11
449.434571
 21
221.872461
 31
0.0
  0
LINE
  5
1b1
100
AcDbEntity
  8
0
 62
7
100
AcDbLine
 10
449.434571
 20
221.872461
 30
0.0
 11
449.434571
 21
225.872465
 31
0.0
  0
LINE
  5
1b2
100
AcDbEntity
  8
0
 62
7
100
AcDbLine
 10
449.434571
 20
225.872465
 30
0.0
 11
453.434574
 21
225.872465
 31
0.0
  0
LINE
  5
1b3
100
AcDbEntity
  8
0
 62
7
100
AcDbLine
 10
453.434574
 20
225.872465
 30
0.0
 11
453.434574
 21
229.872468
 31
0.0
  0
LINE
  5
1b4
100
AcDbEntity
  8
0
 62
7
100
AcDbLine
 10
453.434574
 20
229.872468
 30
0.0
 11
449.434571
 21
229.872468
 31
0.0
  0
LINE
  5
1b5
100
AcDbEntity
  8
0
 62
7
100
AcDbLine
 10
449.434571
 20
229.872468
 30
0.0
 11
449.434571
 21
233.872471
 31
0.0
  0
LINE
  5
1b6
100
AcDbEntity
  8
0
 62
7
100
AcDbLine
 10
449.434571
 20
233.872471
 30
0.0
 11
453.434574
 21
233.872471
 31
0.0
  0
LINE
  5
1b7
100
AcDbEntity
  8
0
 62
7
100
AcDbLine
 10
453.434574
 20
233.872471
 30
0.0
 11
453.434574
 21
237.872475
 31
0.0
  0
LINE
  5
1b8
100
AcDbEntity
  8
0
 62
7
100
AcDbLine
 10
453.434574
 20
237.872475
 30
0.0
 11
449.434571
 21
237.872475
 31
0.0
  0
LINE
  5
1b9
100
AcDbEntity
  8
0
 62
7
100
AcDbLine
 10
449.434571
 20
237.872475
 30
0.0
 11
449.434571
 21
241.872478
 31
0.0
  0
LINE
  5
1ba
100
AcDbEntity
  8
0
 62
7
100
AcDbLine
 10
449.434571
 20
241.872478
 30
0.0
 11
453.434574
 21
241.872478
 31
0.0
  0
LINE
  5
1bb
100
AcDbEntity
  8
0
 62
7
100
AcDbLine
 10
453.434574
 20
241.872478
 30
0.0
 11
453.434574
 21
245.872481
 31
0.0
  0
LINE
  5
1bc
100
AcDbEntity
  8
0
 62
7
100
AcDbLine
 10
453.434574
 20
245.872481
 30
0.0
 11
449.434571
 21
245.872481
 31
0.0
  0
LINE
  5
1bd
100
AcDbEntity
  8
0
 62
7
100
AcDbLine
 10
449.434571
 20
245.872481
 30
0.0
 11
449.434571
 21
249.872484
 31
0.0
  0
LINE
  5
1be
100
AcDbEntity
  8
0
 62
7
100
AcDbLine
 10
449.434571
 20
249.872484
 30
0.0
 11
453.434574
 21
249.872484
 31
0.0
  0
LINE
  5
1bf
100
AcDbEntity
  8
0
 62
7
100
AcDbLine
 10
453.434574
 20
249.872484
 30
0.0
 11
453.434574
 21
253.872488
 31
0.0
  0
LINE
  5
1c0
100
AcDbEntity
  8
0
 62
7
100
AcDbLine
 10
453.434574
 20
253.872488
 30
0.0
 11
449.434571
 21
253.872488
 31
0.0
  0
LINE
  5
1c1
100
AcDbEntity
  8
0
 62
7
100
AcDbLine
 10
449.434571
 20
253.872488
 30
0.0
 11
449.434571
 21
258.872492
 31
0.0
  0
LINE
  5
1c2
100
AcDbEntity
  8
0
 62
7
100
AcDbLine
 10
449.434571
 20
258.872492
 30
0.0
 11
453.434574
 21
258.872492
 31
0.0
  0
LINE
  5
1c3
100
AcDbEntity
  8
0
 62
7
100
AcDbLine
 10
453.434574
 20
258.872492
 30
0.0
 11
453.434574
 21
263.872496
 31
0.0
  0
LINE
  5
1c4
100
AcDbEntity
  8
0
 62
7
100
AcDbLine
 10
453.434574
 20
263.872496
 30
0.0
 11
454.034575
 21
263.872496
 31
0.0
  0
LINE
  5
1c5
100
AcDbEntity
  8
0
 62
7
100
AcDbLine
 10
454.034575
 20
263.872496
 30
0.0
 11
454.034575
 21
259.872493
 31
0.0
  0
LINE
  5
1c6
100
AcDbEntity
  8
0
 62
7
100
AcDbLine
 10
454.034575
 20
259.872493
 30
0.0
 11
458.634578
 21
259.872493
 31
0.0
  0
LINE
  5
1c7
100
AcDbEntity
  8
0
 62
7
100
AcDbLine
 10
458.634578
 20
259.872493
 30
0.0
 11
458.634578
 21
263.872496
 31
0.0
  0
LINE
  5
1c8
100
AcDbEntity
  8
0
 62
7
100
AcDbLine
 10
458.634578
 20
263.872496
 30
0.0
 11
463.234582
 21
263.872496
 31
0.0
  0
LINE
  5
1c9
100
AcDbEntity
  8
0
 62
7
100
AcDbLine
 10
463.234582
 20
263.872496
 30
0.0
 11
463.234582
 21
259.872493
 31
0.0
  0
LINE
  5
1ca
100
AcDbEntity
  8
0
 62
7
100
AcDbLine
 10
463.234582
 20
259.872493
 30
0.0
 11
467.834586
 21
259.872493
 31
0.0
  0
LINE
  5
1cb
100
AcDbEntity
  8
0
 62
7
100
AcDbLine
 10
467.834586
 20
259.872493
 30
0.0
 11
467.834586
 21
263.872496
 31
0.0
  0
LINE
  5
1cc
100
AcDbEntity
  8
0
 62
7
100
AcDbLine
 10
467.834586
 20
263.872496
 30
0.0
 11
468.434587
 21
263.872496
 31
0.0
  0
LINE
  5
1cd
100
AcDbEntity
  8
0
 62
7
100
AcDbLine
 10
468.434587
 20
263.872496
 30
0.0
 11
468.434587
 21
258.872492
 31
0.0
  0
LINE
  5
1ce
100
AcDbEntity
  8
0
 62
7
100
AcDbLine
 10
468.434587
 20
258.872492
 30
0.0
 11
472.434590
 21
258.872492
 31
0.0
  0
LINE
  5
1cf
100
AcDbEntity
  8
0
 62
7
100
AcDbLine
 10
472.434590
 20
258.872492
 30
0.0
 11
472.434590
 21
253.872488
 31
0.0
  0
LINE
  5
1d0
100
AcDbEntity
  8
0
 62
7
100
AcDbLine
 10
472.434590
 20
253.872488
 30
0.0
 11
468.434587
 21
253.872488
 31
0.0
  0
LINE
  5
1d1
100
AcDbEntity
  8
0
 62
7
100
AcDbLine
 10
468.434587
 20
253.872488
 30
0.0
 11
468.434587
 21
249.872484
 31
0.0
  0
LINE
  5
1d2
100
AcDbEntity
  8
0
 62
7
100
AcDbLine
 10
468.434587
 20
249.872484
 30
0.0
 11
472.434590
 21
249.872484
 31
0.0
  0
LINE
  5
1d3
100
AcDbEntity
  8
0
 62
7
100
AcDbLine
 10
472.434590
 20
249.872484
 30
0.0
 11
472.434590
 21
245.872481
 31
0.0
  0
LINE
  5
1d4
100
AcDbEntity
  8
0
 62
7
100
AcDbLine
 10
472.434590
 20
245.872481
 30
0.0
 11
468.434587
 21
245.872481
 31
0.0
  0
LINE
  5
1d5
100
AcDbEntity
  8
0
 62
7
100
AcDbLine
 10
468.434587
 20
245.872481
 30
0.0
 11
468.434587
 21
241.872478
 31
0.0
  0
LINE
  5
1d6
100
AcDbEntity
  8
0
 62
7
100
AcDbLine
 10
468.434587
 20
241.872478
 30
0.0
 11
472.434590
 21
241.872478
 31
0.0
  0
LINE
  5
1d7
100
AcDbEntity
  8
0
 62
7
100
AcDbLine
 10
472.434590
 20
241.872478
 30
0.0
 11
472.434590
 21
237.872475
 31
0.0
  0
LINE
  5
1d8
100
AcDbEntity
  8
0
 62
7
100
AcDbLine
 10
472.434590
 20
237.872475
 30
0.0
 11
468.434587
 21
237.872475
 31
0.0
  0
LINE
  5
1d9
100
AcDbEntity
  8
0
 62
7
100
AcDbLine
 10
468.434587
 20
237.872475
 30
0.0
 11
468.434587
 21
233.872471
 31
0.0
  0
LINE
  5
1da
100
AcDbEntity
  8
0
 62
7
100
AcDbLine
 10
468.434587
 20
233.872471
 30
0.0
 11
472.434590
 21
233.872471
 31
0.0
  0
LINE
  5
1db
100
AcDbEntity
  8
0
 62
7
100
AcDbLine
 10
472.434590
 20
233.872471
 30
0.0
 11
472.434590
 21
229.872468
 31
0.0
  0
LINE
  5
1dc
100
AcDbEntity
  8
0
 62
7
100
AcDbLine
 10
472.434590
 20
229.872468
 30
0.0
 11
468.434587
 21
229.872468
 31
0.0
  0
LINE
  5
1dd
100
AcDbEntity
  8
0
 62
7
100
AcDbLine
 10
468.434587
 20
229.872468
 30
0.0
 11
468.434587
 21
225.872465
 31
0.0
  0
LINE
  5
1de
100
AcDbEntity
  8
0
 62
7
100
AcDbLine
 10
468.434587
 20
225.872465
 30
0.0
 11
472.434590
 21
225.872465
 31
0.0
  0
LINE
  5
1df
100
AcDbEntity
  8
0
 62
7
100
AcDbLine
 10
472.434590
 20
225.872465
 30
0.0
 11
472.434590
 21
221.872461
 31
0.0
  0
LINE
  5
1e0
100
AcDbEntity
  8
0
 62
7
100
AcDbLine
 10
472.434590
 20
221.872461
 30
0.0
 11
468.434587
 21
221.872461
 31
0.0
  0
LINE
  5
1e1
100
AcDbEntity
  8
0
 62
7
100
AcDbLine
 10
468.434587
 20
221.872461
 30
0.0
 11
468.434587
 21
217.872458
 31
0.0
  0
LINE
  5
1e2
100
AcDbEntity
  8
0
 62
7
100
AcDbLine
 10
468.434587
 20
217.872458
 30
0.0
 11
472.434590
 21
217.872458
 31
0.0
  0
LINE
  5
1e3
100
AcDbEntity
  8
0
 62
7
100
AcDbLine
 10
472.434590
 20
217.872458
 30
0.0
 11
472.434590
 21
213.872455
 31
0.0
  0
LINE
  5
1e4
100
AcDbEntity
  8
0
 62
7
100
AcDbLine
 10
472.434590
 20
213.872455
 30
0.0
 11
468.434587
 21
213.872455
 31
0.0
  0
LINE
  5
1e5
100
AcDbEntity
  8
0
 62
7
100
AcDbLine
 10
468.434587
 20
213.872455
 30
0.0
 11
468.434587
 21
209.872452
 31
0.0
  0
LINE
  5
1e6
100
AcDbEntity
  8
0
 62
7
100
AcDbLine
 10
468.434587
 20
209.872452
 30
0.0
 11
472.434590
 21
209.872452
 31
0.0
  0
LINE
  5
1e7
100
AcDbEntity
  8
0
 62
7
100
AcDbLine
 10
472.434590
 20
209.872452
 30
0.0
 11
472.434590
 21
205.872448
 31
0.0
  0
LINE
  5
1e8
100
AcDbEntity
  8
0
 62
7
100
AcDbLine
 10
472.434590
 20
205.872448
 30
0.0
 11
468.434587
 21
205.872448
 31
0.0
  0
LINE
  5
1e9
100
AcDbEntity
  8
0
 62
7
100
AcDbLine
 10
468.434587
 20
205.872448
 30
0.0
 11
468.434587
 21
201.872445
 31
0.0
  0
LINE
  5
1ea
100
AcDbEntity
  8
0
 62
7
100
AcDbLine
 10
468.434587
 20
201.872445
 30
0.0
 11
472.434590
 21
201.872445
 31
0.0
  0
LINE
  5
1eb
100
AcDbEntity
  8
0
 62
7
100
AcDbLine
 10
472.434590
 20
201.872445
 30
0.0
 11
472.434590
 21
197.872442
 31
0.0
  0
LINE
  5
1ec
100
AcDbEntity
  8
0
 62
7
100
AcDbLine
 10
472.434590
 20
197.872442
 30
0.0
 11
468.434587
 21
197.872442
 31
0.0
  0
LINE
  5
1ed
100
AcDbEntity
  8
0
 62
7
100
AcDbLine
 10
468.434587
 20
197.872442
 30
0.0
 11
468.434587
 21
193.872438
 31
0.0
  0
LINE
  5
1ee
100
AcDbEntity
  8
0
 62
7
100
AcDbLine
 10
468.434587
 20
193.872438
 30
0.0
 11
472.434590
 21
193.872438
 31
0.0
  0
LINE
  5
1ef
100
AcDbEntity
  8
0
 62
7
100
AcDbLine
 10
472.434590
 20
193.872438
 30
0.0
 11
472.434590
 21
189.872435
 31
0.0
  0
LINE
  5
1f0
100
AcDbEntity
  8
0
 62
7
100
AcDbLine
 10
472.434590
 20
189.872435
 30
0.0
 11
468.434587
 21
189.872435
 31
0.0
  0
LINE
  5
1f1
100
AcDbEntity
  8
0
 62
7
100
AcDbLine
 10
468.434587
 20
189.872435
 30
0.0
 11
468.434587
 21
185.872432
 31
0.0
  0
LINE
  5
1f2
100
AcDbEntity
  8
0
 62
7
100
AcDbLine
 10
468.434587
 20
185.872432
 30
0.0
 11
472.434590
 21
185.872432
 31
0.0
  0
LINE
  5
1f3
100
AcDbEntity
  8
0
 62
7
100
AcDbLine
 10
472.434590
 20
185.872432
 30
0.0
 11
472.434590
 21
181.872429
 31
0.0
  0
LINE
  5
1f4
100
AcDbEntity
  8
0
 62
7
100
AcDbLine
 10
472.434590
 20
181.872429
 30
0.0
 11
468.434587
 21
181.872429
 31
0.0
  0
LINE
  5
1f5
100
AcDbEntity
  8
0
 62
7
100
AcDbLine
 10
468.434587
 20
181.872429
 30
0.0
 11
468.434587
 21
177.872425
 31
0.0
  0
LINE
  5
1f6
100
AcDbEntity
  8
0
 62
7
100
AcDbLine
 10
468.434587
 20
177.872425
 30
0.0
 11
472.434590
 21
177.872425
 31
0.0
  0
LINE
  5
1f7
100
AcDbEntity
  8
0
 62
7
100
AcDbLine
 10
472.434590
 20
177.872425
 30
0.0
 11
472.434590
 21
173.872422
 31
0.0
  0
LINE
  5
1f8
100
AcDbEntity
  8
0
 62
7
100
AcDbLine
 10
472.434590
 20
173.872422
 30
0.0
 11
468.434587
 21
173.872422
 31
0.0
  0
LINE
  5
1f9
100
AcDbEntity
  8
0
 62
7
100
AcDbLine
 10
468.434587
 20
173.872422
 30
0.0
 11
468.434587
 21
169.872419
 31
0.0
  0
LINE
  5
1fa
100
AcDbEntity
  8
0
 62
7
100
AcDbLine
 10
468.434587
 20
169.872419
 30
0.0
 11
472.434590
 21
169.872419
 31
0.0
  0
LINE
  5
1fb
100
AcDbEntity
  8
0
 62
7
100
AcDbLine
 10
472.434590
 20
169.872419
 30
0.0
 11
472.434590
 21
165.872415
 31
0.0
  0
LINE
  5
1fc
100
AcDbEntity
  8
0
 62
7
100
AcDbLine
 10
180.437697
 20
109.868217
 30
0.0
 11
180.437697
 21
105.868213
 31
0.0
  0
LINE
  5
1fd
100
AcDbEntity
  8
0
 62
7
100
AcDbLine
 10
180.437697
 20
105.868213
 30
0.0
 11
184.437700
 21
105.868213
 31
0.0
  0
LINE
  5
1fe
100
AcDbEntity
  8
0
 62
7
100
AcDbLine
 10
184.437700
 20
105.868213
 30
0.0
 11
184.437700
 21
101.868210
 31
0.0
  0
LINE
  5
1ff
100
AcDbEntity
  8
0
 62
7
100
AcDbLine
 10
184.437700
 20
101.868210
 30
0.0
 11
180.437697
 21
101.868210
 31
0.0
  0
LINE
  5
200
100
AcDbEntity
  8
0
 62
7
100
AcDbLine
 10
180.437697
 20
101.868210
 30
0.0
 11
180.437697
 21
97.868207
 31
0.0
  0
LINE
  5
201
100
AcDbEntity
  8
0
 62
7
100
AcDbLine
 10
180.437697
 20
97.868207
 30
0.0
 11
184.437700
 21
97.868207
 31
0.0
  0
LINE
  5
202
100
AcDbEntity
  8
0
 62
7
100
AcDbLine
 10
184.437700
 20
97.868207
 30
0.0
 11
184.437700
 21
93.868204
 31
0.0
  0
LINE
  5
203
100
AcDbEntity
  8
0
 62
7
100
AcDbLine
 10
184.437700
 20
93.868204
 30
0.0
 11
180.437697
 21
93.868204
 31
0.0
  0
LINE
  5
204
100
AcDbEntity
  8
0
 62
7
100
AcDbLine
 10
180.437697
 20
93.868204
 30
0.0
 11
180.437697
 21
89.868200
 31
0.0
  0
LINE
  5
205
100
AcDbEntity
  8
0
 62
7
100
AcDbLine
 10
180.437697
 20
89.868200
 30
0.0
 11
184.437700
 21
89.868200
 31
0.0
  0
LINE
  5
206
100
AcDbEntity
  8
0
 62
7
100
AcDbLine
 10
184.437700
 20
89.868200
 30
0.0
 11
184.437700
 21
85.868197
 31
0.0
  0
LINE
  5
207
100
AcDbEntity
  8
0
 62
7
100
AcDbLine
 10
184.437700
 20
85.868197
 30
0.0
 11
180.437697
 21
85.868197
 31
0.0
  0
LINE
  5
208
100
AcDbEntity
  8
0
 62
7
100
AcDbLine
 10
180.437697
 20
85.868197
 30
0.0
 11
180.437697
 21
81.868194
 31
0.0
  0
LINE
  5
209
100
AcDbEntity
  8
0
 62
7
100
AcDbLine
 10
180.437697
 20
81.868194
 30
0.0
 11
184.437700
 21
81.868194
 31
0.0
  0
LINE
  5
20a
100
AcDbEntity
  8
0
 62
7
100
AcDbLine
 10
184.437700
 20
81.868194
 30
0.0
 11
184.437700
 21
77.868190
 31
0.0
  0
LINE
  5
20b
100
AcDbEntity
  8
0
 62
7
100
AcDbLine
 10
184.437700
 20
77.868190
 30
0.0
 11
180.437697
 21
77.868190
 31
0.0
  0
LINE
  5
20c
100
AcDbEntity
  8
0
 62
7
100
AcDbLine
 10
180.437697
 20
77.868190
 30
0.0
 11
180.437697
 21
73.868187
 31
0.0
  0
LINE
  5
20d
100
AcDbEntity
  8
0
 62
7
100
AcDbLine
 10
180.437697
 20
73.868187
 30
0.0
 11
184.437700
 21
73.868187
 31
0.0
  0
LINE
  5
20e
100
AcDbEntity
  8
0
 62
7
100
AcDbLine
 10
184.437700
 20
73.868187
 30
0.0
 11
184.437700
 21
69.868184
 31
0.0
  0
LINE
  5
20f
100
AcDbEntity
  8
0
 62
7
100
AcDbLine
 10
184.437700
 20
69.868184
 30
0.0
 11
180.437697
 21
69.868184
 31
0.0
  0
LINE
  5
210
100
AcDbEntity
  8
0
 62
7
100
AcDbLine
 10
180.437697
 20
69.868184
 30
0.0
 11
180.437697
 21
65.868181
 31
0.0
  0
LINE
  5
211
100
AcDbEntity
  8
0
 62
7
100
AcDbLine
 10
180.437697
 20
65.868181
 30
0.0
 11
184.437700
 21
65.868181
 31
0.0
  0
LINE
  5
212
100
AcDbEntity
  8
0
 62
7
100
AcDbLine
 10
184.437700
 20
65.868181
 30
0.0
 11
184.437700
 21
61.868177
 31
0.0
  0
LINE
  5
213
100
AcDbEntity
  8
0
 62
7
100
AcDbLine
 10
184.437700
 20
61.868177
 30
0.0
 11
180.437697
 21
61.868177
 31
0.0
  0
LINE
  5
214
100
AcDbEntity
  8
0
 62
7
100
AcDbLine
 10
180.437697
 20
61.868177
 30
0.0
 11
180.437697
 21
57.868174
 31
0.0
  0
LINE
  5
215
100
AcDbEntity
  8
0
 62
7
100
AcDbLine
 10
180.437697
 20
57.868174
 30
0.0
 11
184.437700
 21
57.868174
 31
0.0
  0
LINE
  5
216
100
AcDbEntity
  8
0
 62
7
100
AcDbLine
 10
184.437700
 20
57.868174
 30
0.0
 11
184.437700
 21
53.868171
 31
0.0
  0
LINE
  5
217
100
AcDbEntity
  8
0
 62
7
100
AcDbLine
 10
184.437700
 20
53.868171
 30
0.0
 11
180.437697
 21
53.868171
 31
0.0
  0
LINE
  5
218
100
AcDbEntity
  8
0
 62
7
100
AcDbLine
 10
180.437697
 20
53.868171
 30
0.0
 11
180.437697
 21
49.868167
 31
0.0
  0
LINE
  5
219
100
AcDbEntity
  8
0
 62
7
100
AcDbLine
 10
180.437697
 20
49.868167
 30
0.0
 11
184.437700
 21
49.868167
 31
0.0
  0
LINE
  5
21a
100
AcDbEntity
  8
0
 62
7
100
AcDbLine
 10
184.437700
 20
49.868167
 30
0.0
 11
184.437700
 21
45.868164
 31
0.0
  0
LINE
  5
21b
100
AcDbEntity
  8
0
 62
7
100
AcDbLine
 10
184.437700
 20
45.868164
 30
0.0
 11
180.437697
 21
45.868164
 31
0.0
  0
LINE
  5
21c
100
AcDbEntity
  8
0
 62
7
100
AcDbLine
 10
180.437697
 20
45.868164
 30
0.0
 11
180.437697
 21
41.868161
 31
0.0
  0
LINE
  5
21d
100
AcDbEntity
  8
0
 62
7
100
AcDbLine
 10
180.437697
 20
41.868161
 30
0.0
 11
184.437700
 21
41.868161
 31
0.0
  0
LINE
  5
21e
100
AcDbEntity
  8
0
 62
7
100
AcDbLine
 10
184.437700
 20
41.868161
 30
0.0
 11
184.437700
 21
37.868158
 31
0.0
  0
LINE
  5
21f
100
AcDbEntity
  8
0
 62
7
100
AcDbLine
 10
184.437700
 20
37.868158
 30
0.0
 11
180.437697
 21
37.868158
 31
0.0
  0
LINE
  5
220
100
AcDbEntity
  8
0
 62
7
100
AcDbLine
 10
180.437697
 20
37.868158
 30
0.0
 11
180.437697
 21
33.868154
 31
0.0
  0
LINE
  5
221
100
AcDbEntity
  8
0
 62
7
100
AcDbLine
 10
180.437697
 20
33.868154
 30
0.0
 11
184.437700
 21
33.868154
 31
0.0
  0
LINE
  5
222
100
AcDbEntity
  8
0
 62
7
100
AcDbLine
 10
184.437700
 20
33.868154
 30
0.0
 11
184.437700
 21
28.868150
 31
0.0
  0
LINE
  5
223
100
AcDbEntity
  8
0
 62
7
100
AcDbLine
 10
184.437700
 20
28.868150
 30
0.0
 11
180.437697
 21
28.868150
 31
0.0
  0
LINE
  5
224
100
AcDbEntity
  8
0
 62
7
100
AcDbLine
 10
180.437697
 20
28.868150
 30
0.0
 11
180.437697
 21
23.868146
 31
0.0
  0
LINE
  5
225
100
AcDbEntity
  8
0
 62
7
100
AcDbLine
 10
180.437697
 20
23.868146
 30
0.0
 11
179.837696
 21
23.868146
 31
0.0
  0
LINE
  5
226
100
AcDbEntity
  8
0
 62
7
100
AcDbLine
 10
179.837696
 20
23.868146
 30
0.0
 11
179.837696
 21
27.868149
 31
0.0
  0
LINE
  5
227
100
AcDbEntity
  8
0
 62
7
100
AcDbLine
 10
179.837696
 20
27.868149
 30
0.0
 11
175.237693
 21
27.868149
 31
0.0
  0
LINE
  5
228
100
AcDbEntity
  8
0
 62
7
100
AcDbLine
 10
175.237693
 20
27.868149
 30
0.0
 11
175.237693
 21
23.868146
 31
0.0
  0
LINE
  5
229
100
AcDbEntity
  8
0
 62
7
100
AcDbLine
 10
175.237693
 20
23.868146
 30
0.0
 11
170.637689
 21
23.868146
 31
0.0
  0
LINE
  5
22a
100
AcDbEntity
  8
0
 62
7
100
AcDbLine
 10
170.637689
 20
23.868146
 30
0.0
 11
170.637689
 21
27.868149
 31
0.0
  0
LINE
  5
22b
100
AcDbEntity
  8
0
 62
7
100
AcDbLine
 10
170.637689
 20
27.868149
 30
0.0
 11
166.037685
 21
27.868149
 31
0.0
  0
LINE
  5
22c
100
AcDbEntity
  8
0
 62
7
100
AcDbLine
 10
166.037685
 20
27.868149
 30
0.0
 11
166.037685
 21
23.868146
 31
0.0
  0
LINE
  5
22d
100
AcDbEntity
  8
0
 62
7
100
AcDbLine
 10
166.037685
 20
23.868146
 30
0.0
 11
165.437685
 21
23.868146
 31
0.0
  0
LINE
  5
22e
100
AcDbEntity
  8
0
 62
7
100
AcDbLine
 10
165.437685
 20
23.868146
 30
0.0
 11
165.437685
 21
28.868150
 31
0.0
  0
LINE
  5
22f
100
AcDbEntity
  8
0
 62
7
100
AcDbLine
 10
165.437685
 20
28.868150
 30
0.0
 11
161.437681
 21
28.868150
 31
0.0
  0
LINE
  5
230
100
AcDbEntity
  8
0
 62
7
100
AcDbLine
 10
161.437681
 20
28.868150
 30
0.0
 11
161.437681
 21
33.868154
 31
0.0
  0
LINE
  5
231
100
AcDbEntity
  8
0
 62
7
100
AcDbLine
 10
161.437681
 20
33.868154
 30
0.0
 11
165.437685
 21
33.868154
 31
0.0
  0
LINE
  5
232
100
AcDbEntity
  8
0
 62
7
100
AcDbLine
 10
165.437685
 20
33.868154
 30
0.0
 11
165.437685
 21
37.868158
 31
0.0
  0
LINE
  5
233
100
AcDbEntity
  8
0
 62
7
100
AcDbLine
 10
165.437685
 20
37.868158
 30
0.0
 11
161.437681
 21
37.868158
 31
0.0
  0
LINE
  5
234
100
AcDbEntity
  8
0
 62
7
100
AcDbLine
 10
161.437681
 20
37.868158
 30
0.0
 11
161.437681
 21
41.868161
 31
0.0
  0
LINE
  5
235
100
AcDbEntity
  8
0
 62
7
100
AcDbLine
 10
161.437681
 20
41.868161
 30
0.0
 11
165.437685
 21
41.868161
 31
0.0
  0
LINE
  5
236
100
AcDbEntity
  8
0
 62
7
100
AcDbLine
 10
165.437685
 20
41.868161
 30
0.0
 11
165.437685
 21
45.868164
 31
0.0
  0
LINE
  5
237
100
AcDbEntity
  8
0
 62
7
100
AcDbLine
 10
165.437685
 20
45.868164
 30
0.0
 11
161.437681
 21
45.868164
 31
0.0
  0
LINE
  5
238
100
AcDbEntity
  8
0
 62
7
100
AcDbLine
 10
161.437681
 20
45.868164
 30
0.0
 11
161.437681
 21
49.868167
 31
0.0
  0
LINE
  5
239
100
AcDbEntity
  8
0
 62
7
100
AcDbLine
 10
161.437681
 20
49.868167
 30
0.0
 11
165.437685
 21
49.868167
 31
0.0
  0
LINE
  5
23a
100
AcDbEntity
  8
0
 62
7
100
AcDbLine
 10
165.437685
 20
49.868167
 30
0.0
 11
165.437685
 21
53.868171
 31
0.0
  0
LINE
  5
23b
100
AcDbEntity
  8
0
 62
7
100
AcDbLine
 10
165.437685
 20
53.868171
 30
0.0
 11
161.437681
 21
53.868171
 31
0.0
  0
LINE
  5
23c
100
AcDbEntity
  8
0
 62
7
100
AcDbLine
 10
161.437681
 20
53.868171
 30
0.0
 11
161.437681
 21
57.868174
 31
0.0
  0
LINE
  5
23d
100
AcDbEntity
  8
0
 62
7
100
AcDbLine
 10
161.437681
 20
57.868174
 30
0.0
 11
165.437685
 21
57.868174
 31
0.0
  0
LINE
  5
23e
100
AcDbEntity
  8
0
 62
7
100
AcDbLine
 10
165.437685
 20
57.868174
 30
0.0
 11
165.437685
 21
61.868177
 31
0.0
  0
LINE
  5
23f
100
AcDbEntity
  8
0
 62
7
100
AcDbLine
 10
165.437685
 20
61.868177
 30
0.0
 11
161.437681
 21
61.868177
 31
0.0
  0
LINE
  5
240
100
AcDbEntity
  8
0
 62
7
100
AcDbLine
 10
161.437681
 20
61.868177
 30
0.0
 11
161.437681
 21
65.868181
 31
0.0
  0
LINE
  5
241
100
AcDbEntity
  8
0
 62
7
100
AcDbLine
 10
161.437681
 20
65.868181
 30
0.0
 11
165.437685
 21
65.868181
 31
0.0
  0
LINE
  5
242
100
AcDbEntity
  8
0
 62
7
100
AcDbLine
 10
165.437685
 20
65.868181
 30
0.0
 11
165.437685
 21
69.868184
 31
0.0
  0
LINE
  5
243
100
AcDbEntity
  8
0
 62
7
100
AcDbLine
 10
165.437685
 20
69.868184
 30
0.0
 11
161.437681
 21
69.868184
 31
0.0
  0
LINE
  5
244
100
AcDbEntity
  8
0
 62
7
100
AcDbLine
 10
161.437681
 20
69.868184
 30
0.0
 11
161.437681
 21
73.868187
 31
0.0
  0
LINE
  5
245
100
AcDbEntity
  8
0
 62
7
100
AcDbLine
 10
161.437681
 20
73.868187
 30
0.0
 11
165.437685
 21
73.868187
 31
0.0
  0
LINE
  5
246
100
AcDbEntity
  8
0
 62
7
100
AcDbLine
 10
165.437685
 20
73.868187
 30
0.0
 11
165.437685
 21
77.868190
 31
0.0
  0
LINE
  5
247
100
AcDbEntity
  8
0
 62
7
100
AcDbLine
 10
165.437685
 20
77.868190
 30
0.0
 11
161.437681
 21
77.868190
 31
0.0
  0
LINE
  5
248
100
AcDbEntity
  8
0
 62
7
100
AcDbLine
 10
161.437681
 20
77.868190
 30
0.0
 11
161.437681
 21
81.868194
 31
0.0
  0
LINE
  5
249
100
AcDbEntity
  8
0
 62
7
100
AcDbLine
 10
161.437681
 20
81.868194
 30
0.0
 11
165.437685
 21
81.868194
 31
0.0
  0
LINE
  5
24a
100
AcDbEntity
  8
0
 62
7
100
AcDbLine
 10
165.437685
 20
81.868194
 30
0.0
 11
165.437685
 21
85.868197
 31
0.0
  0
LINE
  5
24b
100
AcDbEntity
  8
0
 62
7
100
AcDbLine
 10
165.437685
 20
85.868197
 30
0.0
 11
161.437681
 21
85.868197
 31
0.0
  0
LINE
  5
24c
100
AcDbEntity
  8
0
 62
7
100
AcDbLine
 10
161.437681
 20
85.868197
 30
0.0
 11
161.437681
 21
89.868200
 31
0.0
  0
LINE
  5
24d
100
AcDbEntity
  8
0
 62
7
100
AcDbLine
 10
161.437681
 20
89.868200
 30
0.0
 11
165.437685
 21
89.868200
 31
0.0
  0
LINE
  5
24e
100
AcDbEntity
  8
0
 62
7
100
AcDbLine
 10
165.437685
 20
89.868200
 30
0.0
 11
165.437685
 21
93.868204
 31
0.0
  0
LINE
  5
24f
100
AcDbEntity
  8
0
 62
7
100
AcDbLine
 10
165.437685
 20
93.868204
 30
0.0
 11
161.437681
 21
93.868204
 31
0.0
  0
LINE
  5
250
100
AcDbEntity
  8
0
 62
7
100
AcDbLine
 10
161.437681
 20
93.868204
 30
0.0
 11
161.437681
 21
97.868207
 31
0.0
  0
LINE
  5
251
100
AcDbEntity
  8
0
 62
7
100
AcDbLine
 10
161.437681
 20
97.868207
 30
0.0
 11
165.437685
 21
97.868207
 31
0.0
  0
LINE
  5
252
100
AcDbEntity
  8
0
 62
7
100
AcDbLine
 10
165.437685
 20
97.868207
 30
0.0
 11
165.437685
 21
101.868210
 31
0.0
  0
LINE
  5
253
100
AcDbEntity
  8
0
 62
7
100
AcDbLine
 10
165.437685
 20
101.868210
 30
0.0
 11
161.437681
 21
101.868210
 31
0.0
  0
LINE
  5
254
100
AcDbEntity
  8
0
 62
7
100
AcDbLine
 10
161.437681
 20
101.868210
 30
0.0
 11
161.437681
 21
105.868213
 31
0.0
  0
LINE
  5
255
100
AcDbEntity
  8
0
 62
7
100
AcDbLine
 10
161.437681
 20
105.868213
 30
0.0
 11
165.437685
 21
105.868213
 31
0.0
  0
LINE
  5
256
100
AcDbEntity
  8
0
 62
7
100
AcDbLine
 10
165.437685
 20
105.868213
 30
0.0
 11
165.437685
 21
109.868217
 31
0.0
  0
LINE
  5
257
100
AcDbEntity
  8
0
 62
7
100
AcDbLine
 10
165.437685
 20
109.868217
 30
0.0
 11
161.437681
 21
109.868217
 31
0.0
  0
LINE
  5
258
100
AcDbEntity
  8
0
 62
7
100
AcDbLine
 10
161.437681
 20
109.868217
 30
0.0
 11
161.437681
 21
113.868220
 31
0.0
  0
LINE
  5
259
100
AcDbEntity
  8
0
 62
7
100
AcDbLine
 10
161.437681
 20
113.868220
 30
0.0
 11
165.437685
 21
113.868220
 31
0.0
  0
LINE
  5
25a
100
AcDbEntity
  8
0
 62
7
100
AcDbLine
 10
165.437685
 20
113.868220
 30
0.0
 11
165.437685
 21
117.868223
 31
0.0
  0
LINE
  5
25b
100
AcDbEntity
  8
0
 62
7
100
AcDbLine
 10
165.437685
 20
117.868223
 30
0.0
 11
161.437681
 21
117.868223
 31
0.0
  0
LINE
  5
25c
100
AcDbEntity
  8
0
 62
7
100
AcDbLine
 10
161.437681
 20
117.868223
 30
0.0
 11
161.437681
 21
121.868227
 31
0.0
  0
LINE
  5
25d
100
AcDbEntity
  8
0
 62
7
100
AcDbLine
 10
161.437681
 20
121.868227
 30
0.0
 11
165.437685
 21
121.868227
 31
0.0
  0
LINE
  5
25e
100
AcDbEntity
  8
0
 62
7
100
AcDbLine
 10
165.437685
 20
121.868227
 30
0.0
 11
165.437685
 21
125.868230
 31
0.0
  0
LINE
  5
25f
100
AcDbEntity
  8
0
 62
7
100
AcDbLine
 10
165.437685
 20
125.868230
 30
0.0
 11
161.437681
 21
125.868230
 31
0.0
  0
LINE
  5
260
100
AcDbEntity
  8
0
 62
7
100
AcDbLine
 10
161.437681
 20
125.868230
 30
0.0
 11
161.437681
 21
129.868233
 31
0.0
  0
LINE
  5
261
100
AcDbEntity
  8
0
 62
7
100
AcDbLine
 10
161.437681
 20
129.868233
 30
0.0
 11
165.437685
 21
129.868233
 31
0.0
  0
LINE
  5
262
100
AcDbEntity
  8
0
 62
7
100
AcDbLine
 10
165.437685
 20
129.868233
 30
0.0
 11
165.437685
 21
133.868236
 31
0.0
  0
LINE
  5
263
100
AcDbEntity
  8
0
 62
7
100
AcDbLine
 10
165.437685
 20
133.868236
 30
0.0
 11
161.437681
 21
133.868236
 31
0.0
  0
LINE
  5
264
100
AcDbEntity
  8
0
 62
7
100
AcDbLine
 10
161.437681
 20
133.868236
 30
0.0
 11
161.437681
 21
137.868240
 31
0.0
  0
LINE
  5
265
100
AcDbEntity
  8
0
 62
7
100
AcDbLine
 10
161.437681
 20
137.868240
 30
0.0
 11
165.437685
 21
137.868240
 31
0.0
  0
LINE
  5
266
100
AcDbEntity
  8
0
 62
7
100
AcDbLine
 10
165.437685
 20
137.868240
 30
0.0
 11
165.437685
 21
141.868243
 31
0.0
  0
LINE
  5
267
100
AcDbEntity
  8
0
 62
7
100
AcDbLine
 10
165.437685
 20
141.868243
 30
0.0
 11
161.437681
 21
141.868243
 31
0.0
  0
LINE
  5
268
100
AcDbEntity
  8
0
 62
7
100
AcDbLine
 10
161.437681
 20
141.868243
 30
0.0
 11
161.437681
 21
145.868246
 31
0.0
  0
LINE
  5
269
100
AcDbEntity
  8
0
 62
7
100
AcDbLine
 10
161.437681
 20
145.868246
 30
0.0
 11
165.437685
 21
145.868246
 31
0.0
  0
LINE
  5
26a
100
AcDbEntity
  8
0
 62
7
100
AcDbLine
 10
165.437685
 20
145.868246
 30
0.0
 11
165.437685
 21
149.868250
 31
0.0
  0
LINE
  5
26b
100
AcDbEntity
  8
0
 62
7
100
AcDbLine
 10
165.437685
 20
149.868250
 30
0.0
 11
161.437681
 21
149.868250
 31
0.0
  0
LINE
  5
26c
100
AcDbEntity
  8
0
 62
7
100
AcDbLine
 10
161.437681
 20
149.868250
 30
0.0
 11
161.437681
 21
153.868253
 31
0.0
  0
LINE
  5
26d
100
AcDbEntity
  8
0
 62
7
100
AcDbLine
 10
161.437681
 20
153.868253
 30
0.0
 11
165.437685
 21
153.868253
 31
0.0
  0
LINE
  5
26e
100
AcDbEntity
  8
0
 62
7
100
AcDbLine
 10
165.437685
 20
153.868253
 30
0.0
 11
165.437685
 21
157.868256
 31
0.0
  0
LINE
  5
26f
100
AcDbEntity
  8
0
 62
7
100
AcDbLine
 10
165.437685
 20
157.868256
 30
0.0
 11
161.437681
 21
157.868256
 31
0.0
  0
LINE
  5
270
100
AcDbEntity
  8
0
 62
7
100
AcDbLine
 10
161.437681
 20
157.868256
 30
0.0
 11
161.437681
 21
161.868260
 31
0.0
  0
LINE
  5
271
100
AcDbEntity
  8
0
 62
7
100
AcDbLine
 10
161.437681
 20
161.868260
 30
0.0
 11
165.437685
 21
161.868260
 31
0.0
  0
LINE
  5
272
100
AcDbEntity
  8
0
 62
7
100
AcDbLine
 10
165.437685
 20
161.868260
 30
0.0
 11
165.437685
 21
165.868263
 31
0.0
  0
LINE
  5
273
100
AcDbEntity
  8
0
 62
7
100
AcDbLine
 10
165.437685
 20
165.868263
 30
0.0
 11
161.437681
 21
165.868263
 31
0.0
  0
LINE
  5
274
100
AcDbEntity
  8
0
 62
7
100
AcDbLine
 10
161.437681
 20
165.868263
 30
0.0
 11
161.437681
 21
169.868266
 31
0.0
  0
LINE
  5
275
100
AcDbEntity
  8
0
 62
7
100
AcDbLine
 10
161.437681
 20
169.868266
 30
0.0
 11
165.437685
 21
169.868266
 31
0.0
  0
LINE
  5
276
100
AcDbEntity
  8
0
 62
7
100
AcDbLine
 10
165.437685
 20
169.868266
 30
0.0
 11
165.437685
 21
173.868269
 31
0.0
  0
LINE
  5
277
100
AcDbEntity
  8
0
 62
7
100
AcDbLine
 10
165.437685
 20
173.868269
 30
0.0
 11
161.437681
 21
173.868269
 31
0.0
  0
LINE
  5
278
100
AcDbEntity
  8
0
 62
7
100
AcDbLine
 10
161.437681
 20
173.868269
 30
0.0
 11
161.437681
 21
177.868273
 31
0.0
  0
LINE
  5
279
100
AcDbEntity
  8
0
 62
7
100
AcDbLine
 10
161.437681
 20
177.868273
 30
0.0
 11
165.437685
 21
177.868273
 31
0.0
  0
LINE
  5
27a
100
AcDbEntity
  8
0
 62
7
100
AcDbLine
 10
165.437685
 20
177.868273
 30
0.0
 11
165.437685
 21
181.868276
 31
0.0
  0
LINE
  5
27b
100
AcDbEntity
  8
0
 62
7
100
AcDbLine
 10
165.437685
 20
181.868276
 30
0.0
 11
161.437681
 21
181.868276
 31
0.0
  0
LINE
  5
27c
100
AcDbEntity
  8
0
 62
7
100
AcDbLine
 10
161.437681
 20
181.868276
 30
0.0
 11
161.437681
 21
185.868279
 31
0.0
  0
LINE
  5
27d
100
AcDbEntity
  8
0
 62
7
100
AcDbLine
 10
161.437681
 20
185.868279
 30
0.0
 11
165.437685
 21
185.868279
 31
0.0
  0
LINE
  5
27e
100
AcDbEntity
  8
0
 62
7
100
AcDbLine
 10
165.437685
 20
185.868279
 30
0.0
 11
165.437685
 21
189.868283
 31
0.0
  0
LINE
  5
27f
100
AcDbEntity
  8
0
 62
7
100
AcDbLine
 10
165.437685
 20
189.868283
 30
0.0
 11
161.437681
 21
189.868283
 31
0.0
  0
LINE
  5
280
100
AcDbEntity
  8
0
 62
7
100
AcDbLine
 10
161.437681
 20
189.868283
 30
0.0
 11
161.437681
 21
193.868286
 31
0.0
  0
LINE
  5
281
100
AcDbEntity
  8
0
 62
7
100
AcDbLine
 10
161.437681
 20
193.868286
 30
0.0
 11
165.437685
 21
193.868286
 31
0.0
  0
LINE
  5
282
100
AcDbEntity
  8
0
 62
7
100
AcDbLine
 10
165.437685
 20
193.868286
 30
0.0
 11
165.437685
 21
197.868289
 31
0.0
  0
LINE
  5
283
100
AcDbEntity
  8
0
 62
7
100
AcDbLine
 10
165.437685
 20
197.868289
 30
0.0
 11
161.437681
 21
197.868289
 31
0.0
  0
LINE
  5
284
100
AcDbEntity
  8
0
 62
7
100
AcDbLine
 10
161.437681
 20
197.868289
 30
0.0
 11
161.437681
 21
201.868292
 31
0.0
  0
LINE
  5
285
100
AcDbEntity
  8
0
 62
7
100
AcDbLine
 10
161.437681
 20
201.868292
 30
0.0
 11
165.437685
 21
201.868292
 31
0.0
  0
LINE
  5
286
100
AcDbEntity
  8
0
 62
7
100
AcDbLine
 10
165.437685
 20
201.868292
 30
0.0
 11
165.437685
 21
205.868296
 31
0.0
  0
LINE
  5
287
100
AcDbEntity
  8
0
 62
7
100
AcDbLine
 10
165.437685
 20
205.868296
 30
0.0
 11
161.437681
 21
205.868296
 31
0.0
  0
LINE
  5
288
100
AcDbEntity
  8
0
 62
7
100
AcDbLine
 10
161.437681
 20
205.868296
 30
0.0
 11
161.437681
 21
209.868299
 31
0.0
  0
LINE
  5
289
100
AcDbEntity
  8
0
 62
7
100
AcDbLine
 10
161.437681
 20
209.868299
 30
0.0
 11
165.437685
 21
209.868299
 31
0.0
  0
LINE
  5
28a
100
AcDbEntity
  8
0
 62
7
100
AcDbLine
 10
165.437685
 20
209.868299
 30
0.0
 11
165.437685
 21
213.868302
 31
0.0
  0
LINE
  5
28b
100
AcDbEntity
  8
0
 62
7
100
AcDbLine
 10
165.437685
 20
213.868302
 30
0.0
 11
161.437681
 21
213.868302
 31
0.0
  0
LINE
  5
28c
100
AcDbEntity
  8
0
 62
7
100
AcDbLine
 10
161.437681
 20
213.868302
 30
0.0
 11
161.437681
 21
217.868306
 31
0.0
  0
LINE
  5
28d
100
AcDbEntity
  8
0
 62
7
100
AcDbLine
 10
161.437681
 20
217.868306
 30
0.0
 11
165.437685
 21
217.868306
 31
0.0
  0
LINE
  5
28e
100
AcDbEntity
  8
0
 62
7
100
AcDbLine
 10
165.437685
 20
217.868306
 30
0.0
 11
165.437685
 21
221.868309
 31
0.0
  0
LINE
  5
28f
100
AcDbEntity
  8
0
 62
7
100
AcDbLine
 10
165.437685
 20
221.868309
 30
0.0
 11
161.437681
 21
221.868309
 31
0.0
  0
LINE
  5
290
100
AcDbEntity
  8
0
 62
7
100
AcDbLine
 10
161.437681
 20
221.868309
 30
0.0
 11
161.437681
 21
225.868312
 31
0.0
  0
LINE
  5
291
100
AcDbEntity
  8
0
 62
7
100
AcDbLine
 10
161.437681
 20
225.868312
 30
0.0
 11
165.437685
 21
225.868312
 31
0.0
  0
LINE
  5
292
100
AcDbEntity
  8
0
 62
7
100
AcDbLine
 10
165.437685
 20
225.868312
 30
0.0
 11
165.437685
 21
229.868315
 31
0.0
  0
LINE
  5
293
100
AcDbEntity
  8
0
 62
7
100
AcDbLine
 10
165.437685
 20
229.868315
 30
0.0
 11
161.437681
 21
229.868315
 31
0.0
  0
LINE
  5
294
100
AcDbEntity
  8
0
 62
7
100
AcDbLine
 10
161.437681
 20
229.868315
 30
0.0
 11
161.437681
 21
233.868319
 31
0.0
  0
LINE
  5
295
100
AcDbEntity
  8
0
 62
7
100
AcDbLine
 10
161.437681
 20
233.868319
 30
0.0
 11
165.437685
 21
233.868319
 31
0.0
  0
LINE
  5
296
100
AcDbEntity
  8
0
 62
7
100
AcDbLine
 10
165.437685
 20
233.868319
 30
0.0
 11
165.437685
 21
237.868322
 31
0.0
  0
LINE
  5
297
100
AcDbEntity
  8
0
 62
7
100
AcDbLine
 10
165.437685
 20
237.868322
 30
0.0
 11
161.437681
 21
237.868322
 31
0.0
  0
LINE
  5
298
100
AcDbEntity
  8
0
 62
7
100
AcDbLine
 10
161.437681
 20
237.868322
 30
0.0
 11
161.437681
 21
241.868325
 31
0.0
  0
LINE
  5
299
100
AcDbEntity
  8
0
 62
7
100
AcDbLine
 10
161.437681
 20
241.868325
 30
0.0
 11
165.437685
 21
241.868325
 31
0.0
  0
LINE
  5
29a
100
AcDbEntity
  8
0
 62
7
100
AcDbLine
 10
165.437685
 20
241.868325
 30
0.0
 11
165.437685
 21
245.868329
 31
0.0
  0
LINE
  5
29b
100
AcDbEntity
  8
0
 62
7
100
AcDbLine
 10
165.437685
 20
245.868329
 30
0.0
 11
161.437681
 21
245.868329
 31
0.0
  0
LINE
  5
29c
100
AcDbEntity
  8
0
 62
7
100
AcDbLine
 10
161.437681
 20
245.868329
 30
0.0
 11
161.437681
 21
249.868332
 31
0.0
  0
LINE
  5
29d
100
AcDbEntity
  8
0
 62
7
100
AcDbLine
 10
161.437681
 20
249.868332
 30
0.0
 11
165.437685
 21
249.868332
 31
0.0
  0
LINE
  5
29e
100
AcDbEntity
  8
0
 62
7
100
AcDbLine
 10
165.437685
 20
249.868332
 30
0.0
 11
165.437685
 21
253.868335
 31
0.0
  0
LINE
  5
29f
100
AcDbEntity
  8
0
 62
7
100
AcDbLine
 10
165.437685
 20
253.868335
 30
0.0
 11
161.437681
 21
253.868335
 31
0.0
  0
LINE
  5
2a0
100
AcDbEntity
  8
0
 62
7
100
AcDbLine
 10
161.437681
 20
253.868335
 30
0.0
 11
161.437681
 21
258.868339
 31
0.0
  0
LINE
  5
2a1
100
AcDbEntity
  8
0
 62
7
100
AcDbLine
 10
161.437681
 20
258.868339
 30
0.0
 11
165.437685
 21
258.868339
 31
0.0
  0
LINE
  5
2a2
100
AcDbEntity
  8
0
 62
7
100
AcDbLine
 10
165.437685
 20
258.868339
 30
0.0
 11
165.437685
 21
263.868343
 31
0.0
  0
LINE
  5
2a3
100
AcDbEntity
  8
0
 62
7
100
AcDbLine
 10
165.437685
 20
263.868343
 30
0.0
 11
166.037685
 21
263.868343
 31
0.0
  0
LINE
  5
2a4
100
AcDbEntity
  8
0
 62
7
100
AcDbLine
 10
166.037685
 20
263.868343
 30
0.0
 11
166.037685
 21
259.868340
 31
0.0
  0
LINE
  5
2a5
100
AcDbEntity
  8
0
 62
7
100
AcDbLine
 10
166.037685
 20
259.868340
 30
0.0
 11
170.637689
 21
259.868340
 31
0.0
  0
LINE
  5
2a6
100
AcDbEntity
  8
0
 62
7
100
AcDbLine
 10
170.637689
 20
259.868340
 30
0.0
 11
170.637689
 21
263.868343
 31
0.0
  0
LINE
  5
2a7
100
AcDbEntity
  8
0
 62
7
100
AcDbLine
 10
170.637689
 20
263.868343
 30
0.0
 11
175.237693
 21
263.868343
 31
0.0
  0
LINE
  5
2a8
100
AcDbEntity
  8
0
 62
7
100
AcDbLine
 10
175.237693
 20
263.868343
 30
0.0
 11
175.237693
 21
259.868340
 31
0.0
  0
LINE
  5
2a9
100
AcDbEntity
  8
0
 62
7
100
AcDbLine
 10
175.237693
 20
259.868340
 30
0.0
 11
179.837696
 21
259.868340
 31
0.0
  0
LINE
  5
2aa
100
AcDbEntity
  8
0
 62
7
100
AcDbLine
 10
179.837696
 20
259.868340
 30
0.0
 11
179.837696
 21
263.868343
 31
0.0
  0
LINE
  5
2ab
100
AcDbEntity
  8
0
 62
7
100
AcDbLine
 10
179.837696
 20
263.868343
 30
0.0
 11
180.437697
 21
263.868343
 31
0.0
  0
LINE
  5
2ac
100
AcDbEntity
  8
0
 62
7
100
AcDbLine
 10
180.437697
 20
263.868343
 30
0.0
 11
180.437697
 21
258.868339
 31
0.0
  0
LINE
  5
2ad
100
AcDbEntity
  8
0
 62
7
100
AcDbLine
 10
180.437697
 20
258.868339
 30
0.0
 11
184.437700
 21
258.868339
 31
0.0
  0
LINE
  5
2ae
100
AcDbEntity
  8
0
 62
7
100
AcDbLine
 10
184.437700
 20
258.868339
 30
0.0
 11
184.437700
 21
253.868335
 31
0.0
  0
LINE
  5
2af
100
AcDbEntity
  8
0
 62
7
100
AcDbLine
 10
184.437700
 20
253.868335
 30
0.0
 11
180.437697
 21
253.868335
 31
0.0
  0
LINE
  5
2b0
100
AcDbEntity
  8
0
 62
7
100
AcDbLine
 10
180.437697
 20
253.868335
 30
0.0
 11
180.437697
 21
249.868332
 31
0.0
  0
LINE
  5
2b1
100
AcDbEntity
  8
0
 62
7
100
AcDbLine
 10
180.437697
 20
249.868332
 30
0.0
 11
184.437700
 21
249.868332
 31
0.0
  0
LINE
  5
2b2
100
AcDbEntity
  8
0
 62
7
100
AcDbLine
 10
184.437700
 20
249.868332
 30
0.0
 11
184.437700
 21
245.868329
 31
0.0
  0
LINE
  5
2b3
100
AcDbEntity
  8
0
 62
7
100
AcDbLine
 10
184.437700
 20
245.868329
 30
0.0
 11
180.437697
 21
245.868329
 31
0.0
  0
LINE
  5
2b4
100
AcDbEntity
  8
0
 62
7
100
AcDbLine
 10
180.437697
 20
245.868329
 30
0.0
 11
180.437697
 21
241.868325
 31
0.0
  0
LINE
  5
2b5
100
AcDbEntity
  8
0
 62
7
100
AcDbLine
 10
180.437697
 20
241.868325
 30
0.0
 11
184.437700
 21
241.868325
 31
0.0
  0
LINE
  5
2b6
100
AcDbEntity
  8
0
 62
7
100
AcDbLine
 10
184.437700
 20
241.868325
 30
0.0
 11
184.437700
 21
237.868322
 31
0.0
  0
LINE
  5
2b7
100
AcDbEntity
  8
0
 62
7
100
AcDbLine
 10
184.437700
 20
237.868322
 30
0.0
 11
180.437697
 21
237.868322
 31
0.0
  0
LINE
  5
2b8
100
AcDbEntity
  8
0
 62
7
100
AcDbLine
 10
180.437697
 20
237.868322
 30
0.0
 11
180.437697
 21
233.868319
 31
0.0
  0
LINE
  5
2b9
100
AcDbEntity
  8
0
 62
7
100
AcDbLine
 10
180.437697
 20
233.868319
 30
0.0
 11
184.437700
 21
233.868319
 31
0.0
  0
LINE
  5
2ba
100
AcDbEntity
  8
0
 62
7
100
AcDbLine
 10
184.437700
 20
233.868319
 30
0.0
 11
184.437700
 21
229.868315
 31
0.0
  0
LINE
  5
2bb
100
AcDbEntity
  8
0
 62
7
100
AcDbLine
 10
184.437700
 20
229.868315
 30
0.0
 11
180.437697
 21
229.868315
 31
0.0
  0
LINE
  5
2bc
100
AcDbEntity
  8
0
 62
7
100
AcDbLine
 10
180.437697
 20
229.868315
 30
0.0
 11
180.437697
 21
225.868312
 31
0.0
  0
LINE
  5
2bd
100
AcDbEntity
  8
0
 62
7
100
AcDbLine
 10
180.437697
 20
225.868312
 30
0.0
 11
184.437700
 21
225.868312
 31
0.0
  0
LINE
  5
2be
100
AcDbEntity
  8
0
 62
7
100
AcDbLine
 10
184.437700
 20
225.868312
 30
0.0
 11
184.437700
 21
221.868309
 31
0.0
  0
LINE
  5
2bf
100
AcDbEntity
  8
0
 62
7
100
AcDbLine
 10
184.437700
 20
221.868309
 30
0.0
 11
180.437697
 21
221.868309
 31
0.0
  0
LINE
  5
2c0
100
AcDbEntity
  8
0
 62
7
100
AcDbLine
 10
180.437697
 20
221.868309
 30
0.0
 11
180.437697
 21
217.868306
 31
0.0
  0
LINE
  5
2c1
100
AcDbEntity
  8
0
 62
7
100
AcDbLine
 10
180.437697
 20
217.868306
 30
0.0
 11
184.437700
 21
217.868306
 31
0.0
  0
LINE
  5
2c2
100
AcDbEntity
  8
0
 62
7
100
AcDbLine
 10
184.437700
 20
217.868306
 30
0.0
 11
184.437700
 21
213.868302
 31
0.0
  0
LINE
  5
2c3
100
AcDbEntity
  8
0
 62
7
100
AcDbLine
 10
184.437700
 20
213.868302
 30
0.0
 11
180.437697
 21
213.868302
 31
0.0
  0
LINE
  5
2c4
100
AcDbEntity
  8
0
 62
7
100
AcDbLine
 10
180.437697
 20
213.868302
 30
0.0
 11
180.437697
 21
209.868299
 31
0.0
  0
LINE
  5
2c5
100
AcDbEntity
  8
0
 62
7
100
AcDbLine
 10
180.437697
 20
209.868299
 30
0.0
 11
184.437700
 21
209.868299
 31
0.0
  0
LINE
  5
2c6
100
AcDbEntity
  8
0
 62
7
100
AcDbLine
 10
184.437700
 20
209.868299
 30
0.0
 11
184.437700
 21
205.868296
 31
0.0
  0
LINE
  5
2c7
100
AcDbEntity
  8
0
 62
7
100
AcDbLine
 10
184.437700
 20
205.868296
 30
0.0
 11
180.437697
 21
205.868296
 31
0.0
  0
LINE
  5
2c8
100
AcDbEntity
  8
0
 62
7
100
AcDbLine
 10
180.437697
 20
205.868296
 30
0.0
 11
180.437697
 21
201.868292
 31
0.0
  0
LINE
  5
2c9
100
AcDbEntity
  8
0
 62
7
100
AcDbLine
 10
180.437697
 20
201.868292
 30
0.0
 11
184.437700
 21
201.868292
 31
0.0
  0
LINE
  5
2ca
100
AcDbEntity
  8
0
 62
7
100
AcDbLine
 10
184.437700
 20
201.868292
 30
0.0
 11
184.437700
 21
197.868289
 31
0.0
  0
LINE
  5
2cb
100
AcDbEntity
  8
0
 62
7
100
AcDbLine
 10
184.437700
 20
197.868289
 30
0.0
 11
180.437697
 21
197.868289
 31
0.0
  0
LINE
  5
2cc
100
AcDbEntity
  8
0
 62
7
100
AcDbLine
 10
180.437697
 20
197.868289
 30
0.0
 11
180.437697
 21
193.868286
 31
0.0
  0
LINE
  5
2cd
100
AcDbEntity
  8
0
 62
7
100
AcDbLine
 10
180.437697
 20
193.868286
 30
0.0
 11
184.437700
 21
193.868286
 31
0.0
  0
LINE
  5
2ce
100
AcDbEntity
  8
0
 62
7
100
AcDbLine
 10
184.437700
 20
193.868286
 30
0.0
 11
184.437700
 21
189.868283
 31
0.0
  0
LINE
  5
2cf
100
AcDbEntity
  8
0
 62
7
100
AcDbLine
 10
184.437700
 20
189.868283
 30
0.0
 11
180.437697
 21
189.868283
 31
0.0
  0
LINE
  5
2d0
100
AcDbEntity
  8
0
 62
7
100
AcDbLine
 10
180.437697
 20
189.868283
 30
0.0
 11
180.437697
 21
185.868279
 31
0.0
  0
LINE
  5
2d1
100
AcDbEntity
  8
0
 62
7
100
AcDbLine
 10
180.437697
 20
185.868279
 30
0.0
 11
184.437700
 21
185.868279
 31
0.0
  0
LINE
  5
2d2
100
AcDbEntity
  8
0
 62
7
100
AcDbLine
 10
184.437700
 20
185.868279
 30
0.0
 11
184.437700
 21
181.868276
 31
0.0
  0
LINE
  5
2d3
100
AcDbEntity
  8
0
 62
7
100
AcDbLine
 10
184.437700
 20
181.868276
 30
0.0
 11
180.437697
 21
181.868276
 31
0.0
  0
LINE
  5
2d4
100
AcDbEntity
  8
0
 62
7
100
AcDbLine
 10
180.437697
 20
181.868276
 30
0.0
 11
180.437697
 21
177.868273
 31
0.0
  0
LINE
  5
2d5
100
AcDbEntity
  8
0
 62
7
100
AcDbLine
 10
180.437697
 20
177.868273
 30
0.0
 11
184.437700
 21
177.868273
 31
0.0
  0
LINE
  5
2d6
100
AcDbEntity
  8
0
 62
7
100
AcDbLine
 10
184.437700
 20
177.868273
 30
0.0
 11
184.437700
 21
173.868269
 31
0.0
  0
LINE
  5
2d7
100
AcDbEntity
  8
0
 62
7
100
AcDbLine
 10
184.437700
 20
173.868269
 30
0.0
 11
180.437697
 21
173.868269
 31
0.0
  0
LINE
  5
2d8
100
AcDbEntity
  8
0
 62
7
100
AcDbLine
 10
180.437697
 20
173.868269
 30
0.0
 11
180.437697
 21
169.868266
 31
0.0
  0
LINE
  5
2d9
100
AcDbEntity
  8
0
 62
7
100
AcDbLine
 10
180.437697
 20
169.868266
 30
0.0
 11
184.437700
 21
169.868266
 31
0.0
  0
LINE
  5
2da
100
AcDbEntity
  8
0
 62
7
100
AcDbLine
 10
184.437700
 20
169.868266
 30
0.0
 11
184.437700
 21
165.868263
 31
0.0
  0
LINE
  5
2db
100
AcDbEntity
  8
0
 62
7
100
AcDbLine
 10
184.437700
 20
165.868263
 30
0.0
 11
180.437697
 21
165.868263
 31
0.0
  0
LINE
  5
2dc
100
AcDbEntity
  8
0
 62
7
100
AcDbLine
 10
180.437697
 20
165.868263
 30
0.0
 11
180.437697
 21
161.868260
 31
0.0
  0
LINE
  5
2dd
100
AcDbEntity
  8
0
 62
7
100
AcDbLine
 10
180.437697
 20
161.868260
 30
0.0
 11
184.437700
 21
161.868260
 31
0.0
  0
LINE
  5
2de
100
AcDbEntity
  8
0
 62
7
100
AcDbLine
 10
184.437700
 20
161.868260
 30
0.0
 11
184.437700
 21
157.868256
 31
0.0
  0
LINE
  5
2df
100
AcDbEntity
  8
0
 62
7
100
AcDbLine
 10
184.437700
 20
157.868256
 30
0.0
 11
180.437697
 21
157.868256
 31
0.0
  0
LINE
  5
2e0
100
AcDbEntity
  8
0
 62
7
100
AcDbLine
 10
180.437697
 20
157.868256
 30
0.0
 11
180.437697
 21
153.868253
 31
0.0
  0
LINE
  5
2e1
100
AcDbEntity
  8
0
 62
7
100
AcDbLine
 10
180.437697
 20
153.868253
 30
0.0
 11
184.437700
 21
153.868253
 31
0.0
  0
LINE
  5
2e2
100
AcDbEntity
  8
0
 62
7
100
AcDbLine
 10
184.437700
 20
153.868253
 30
0.0
 11
184.437700
 21
149.868250
 31
0.0
  0
LINE
  5
2e3
100
AcDbEntity
  8
0
 62
7
100
AcDbLine
 10
184.437700
 20
149.868250
 30
0.0
 11
180.437697
 21
149.868250
 31
0.0
  0
LINE
  5
2e4
100
AcDbEntity
  8
0
 62
7
100
AcDbLine
 10
180.437697
 20
149.868250
 30
0.0
 11
180.437697
 21
145.868246
 31
0.0
  0
LINE
  5
2e5
100
AcDbEntity
  8
0
 62
7
100
AcDbLine
 10
180.437697
 20
145.868246
 30
0.0
 11
184.437700
 21
145.868246
 31
0.0
  0
LINE
  5
2e6
100
AcDbEntity
  8
0
 62
7
100
AcDbLine
 10
184.437700
 20
145.868246
 30
0.0
 11
184.437700
 21
141.868243
 31
0.0
  0
LINE
  5
2e7
100
AcDbEntity
  8
0
 62
7
100
AcDbLine
 10
184.437700
 20
141.868243
 30
0.0
 11
180.437697
 21
141.868243
 31
0.0
  0
LINE
  5
2e8
100
AcDbEntity
  8
0
 62
7
100
AcDbLine
 10
180.437697
 20
141.868243
 30
0.0
 11
180.437697
 21
137.868240
 31
0.0
  0
LINE
  5
2e9
100
AcDbEntity
  8
0
 62
7
100
AcDbLine
 10
180.437697
 20
137.868240
 30
0.0
 11
184.437700
 21
137.868240
 31
0.0
  0
LINE
  5
2ea
100
AcDbEntity
  8
0
 62
7
100
AcDbLine
 10
184.437700
 20
137.868240
 30
0.0
 11
184.437700
 21
133.868236
 31
0.0
  0
LINE
  5
2eb
100
AcDbEntity
  8
0
 62
7
100
AcDbLine
 10
184.437700
 20
133.868236
 30
0.0
 11
180.437697
 21
133.868236
 31
0.0
  0
LINE
  5
2ec
100
AcDbEntity
  8
0
 62
7
100
AcDbLine
 10
180.437697
 20
133.868236
 30
0.0
 11
180.437697
 21
129.868233
 31
0.0
  0
LINE
  5
2ed
100
AcDbEntity
  8
0
 62
7
100
AcDbLine
 10
180.437697
 20
129.868233
 30
0.0
 11
184.437700
 21
129.868233
 31
0.0
  0
LINE
  5
2ee
100
AcDbEntity
  8
0
 62
7
100
AcDbLine
 10
184.437700
 20
129.868233
 30
0.0
 11
184.437700
 21
125.868230
 31
0.0
  0
LINE
  5
2ef
100
AcDbEntity
  8
0
 62
7
100
AcDbLine
 10
184.437700
 20
125.868230
 30
0.0
 11
180.437697
 21
125.868230
 31
0.0
  0
LINE
  5
2f0
100
AcDbEntity
  8
0
 62
7
100
AcDbLine
 10
180.437697
 20
125.868230
 30
0.0
 11
180.437697
 21
121.868227
 31
0.0
  0
LINE
  5
2f1
100
AcDbEntity
  8
0
 62
7
100
AcDbLine
 10
180.437697
 20
121.868227
 30
0.0
 11
184.437700
 21
121.868227
 31
0.0
  0
LINE
  5
2f2
100
AcDbEntity
  8
0
 62
7
100
AcDbLine
 10
184.437700
 20
121.868227
 30
0.0
 11
184.437700
 21
117.868223
 31
0.0
  0
LINE
  5
2f3
100
AcDbEntity
  8
0
 62
7
100
AcDbLine
 10
184.437700
 20
117.868223
 30
0.0
 11
180.437697
 21
117.868223
 31
0.0
  0
LINE
  5
2f4
100
AcDbEntity
  8
0
 62
7
100
AcDbLine
 10
180.437697
 20
117.868223
 30
0.0
 11
180.437697
 21
113.868220
 31
0.0
  0
LINE
  5
2f5
100
AcDbEntity
  8
0
 62
7
100
AcDbLine
 10
180.437697
 20
113.868220
 30
0.0
 11
184.437700
 21
113.868220
 31
0.0
  0
LINE
  5
2f6
100
AcDbEntity
  8
0
 62
7
100
AcDbLine
 10
184.437700
 20
113.868220
 30
0.0
 11
184.437700
 21
109.868217
 31
0.0
  0
LINE
  5
2f7
100
AcDbEntity
  8
0
 62
7
100
AcDbLine
 10
184.437700
 20
109.868217
 30
0.0
 11
180.437697
 21
109.868217
 31
0.0
  0
LINE
  5
2f8
100
AcDbEntity
  8
0
 62
7
100
AcDbLine
 10
453.446625
 20
264.473125
 30
0.0
 11
449.446622
 21
264.473125
 31
0.0
  0
LINE
  5
2f9
100
AcDbEntity
  8
0
 62
7
100
AcDbLine
 10
449.446622
 20
264.473125
 30
0.0
 11
449.446622
 21
263.873124
 31
0.0
  0
LINE
  5
2fa
100
AcDbEntity
  8
0
 62
7
100
AcDbLine
 10
449.446622
 20
263.873124
 30
0.0
 11
448.196620
 21
263.873124
 31
0.0
  0
LINE
  5
2fb
100
AcDbEntity
  8
0
 62
7
100
AcDbLine
 10
448.196620
 20
263.873124
 30
0.0
 11
448.196620
 21
259.873121
 31
0.0
  0
LINE
  5
2fc
100
AcDbEntity
  8
0
 62
7
100
AcDbLine
 10
448.196620
 20
259.873121
 30
0.0
 11
442.946618
 21
259.873121
 31
0.0
  0
LINE
  5
2fd
100
AcDbEntity
  8
0
 62
7
100
AcDbLine
 10
442.946618
 20
259.873121
 30
0.0
 11
442.946618
 21
263.873124
 31
0.0
  0
LINE
  5
2fe
100
AcDbEntity
  8
0
 62
7
100
AcDbLine
 10
442.946618
 20
263.873124
 30
0.0
 11
438.946612
 21
263.873124
 31
0.0
  0
LINE
  5
2ff
100
AcDbEntity
  8
0
 62
7
100
AcDbLine
 10
438.946612
 20
263.873124
 30
0.0
 11
438.946612
 21
259.873121
 31
0.0
  0
LINE
  5
300
100
AcDbEntity
  8
0
 62
7
100
AcDbLine
 10
438.946612
 20
259.873121
 30
0.0
 11
434.946608
 21
259.873121
 31
0.0
  0
LINE
  5
301
100
AcDbEntity
  8
0
 62
7
100
AcDbLine
 10
434.946608
 20
259.873121
 30
0.0
 11
434.946608
 21
263.873124
 31
0.0
  0
LINE
  5
302
100
AcDbEntity
  8
0
 62
7
100
AcDbLine
 10
434.946608
 20
263.873124
 30
0.0
 11
430.946605
 21
263.873124
 31
0.0
  0
LINE
  5
303
100
AcDbEntity
  8
0
 62
7
100
AcDbLine
 10
430.946605
 20
263.873124
 30
0.0
 11
430.946605
 21
259.873121
 31
0.0
  0
LINE
  5
304
100
AcDbEntity
  8
0
 62
7
100
AcDbLine
 10
430.946605
 20
259.873121
 30
0.0
 11
426.946602
 21
259.873121
 31
0.0
  0
LINE
  5
305
100
AcDbEntity
  8
0
 62
7
100
AcDbLine
 10
426.946602
 20
259.873121
 30
0.0
 11
426.946602
 21
263.873124
 31
0.0
  0
LINE
  5
306
100
AcDbEntity
  8
0
 62
7
100
AcDbLine
 10
426.946602
 20
263.873124
 30
0.0
 11
422.946599
 21
263.873124
 31
0.0
  0
LINE
  5
307
100
AcDbEntity
  8
0
 62
7
100
AcDbLine
 10
422.946599
 20
263.873124
 30
0.0
 11
422.946599
 21
259.873121
 31
0.0
  0
LINE
  5
308
100
AcDbEntity
  8
0
 62
7
100
AcDbLine
 10
422.946599
 20
259.873121
 30
0.0
 11
418.946595
 21
259.873121
 31
0.0
  0
LINE
  5
309
100
AcDbEntity
  8
0
 62
7
100
AcDbLine
 10
418.946595
 20
259.873121
 30
0.0
 11
418.946595
 21
263.873124
 31
0.0
  0
LINE
  5
30a
100
AcDbEntity
  8
0
 62
7
100
AcDbLine
 10
418.946595
 20
263.873124
 30
0.0
 11
414.946595
 21
263.873124
 31
0.0
  0
LINE
  5
30b
100
AcDbEntity
  8
0
 62
7
100
AcDbLine
 10
414.946595
 20
263.873124
 30
0.0
 11
414.946595
 21
259.873121
 31
0.0
  0
LINE
  5
30c
100
AcDbEntity
  8
0
 62
7
100
AcDbLine
 10
414.946595
 20
259.873121
 30
0.0
 11
410.946589
 21
259.873121
 31
0.0
  0
LINE
  5
30d
100
AcDbEntity
  8
0
 62
7
100
AcDbLine
 10
410.946589
 20
259.873121
 30
0.0
 11
410.946589
 21
263.873124
 31
0.0
  0
LINE
  5
30e
100
AcDbEntity
  8
0
 62
7
100
AcDbLine
 10
410.946589
 20
263.873124
 30
0.0
 11
406.946585
 21
263.873124
 31
0.0
  0
LINE
  5
30f
100
AcDbEntity
  8
0
 62
7
100
AcDbLine
 10
406.946585
 20
263.873124
 30
0.0
 11
406.946585
 21
259.873121
 31
0.0
  0
LINE
  5
310
100
AcDbEntity
  8
0
 62
7
100
AcDbLine
 10
406.946585
 20
259.873121
 30
0.0
 11
402.946585
 21
259.873121
 31
0.0
  0
LINE
  5
311
100
AcDbEntity
  8
0
 62
7
100
AcDbLine
 10
402.946585
 20
259.873121
 30
0.0
 11
402.946585
 21
263.873124
 31
0.0
  0
LINE
  5
312
100
AcDbEntity
  8
0
 62
7
100
AcDbLine
 10
402.946585
 20
263.873124
 30
0.0
 11
398.946579
 21
263.873124
 31
0.0
  0
LINE
  5
313
100
AcDbEntity
  8
0
 62
7
100
AcDbLine
 10
398.946579
 20
263.873124
 30
0.0
 11
398.946579
 21
259.873121
 31
0.0
  0
LINE
  5
314
100
AcDbEntity
  8
0
 62
7
100
AcDbLine
 10
398.946579
 20
259.873121
 30
0.0
 11
394.946576
 21
259.873121
 31
0.0
  0
LINE
  5
315
100
AcDbEntity
  8
0
 62
7
100
AcDbLine
 10
394.946576
 20
259.873121
 30
0.0
 11
394.946576
 21
263.873124
 31
0.0
  0
LINE
  5
316
100
AcDbEntity
  8
0
 62
7
100
AcDbLine
 10
394.946576
 20
263.873124
 30
0.0
 11
390.946575
 21
263.873124
 31
0.0
  0
LINE
  5
317
100
AcDbEntity
  8
0
 62
7
100
AcDbLine
 10
390.946575
 20
263.873124
 30
0.0
 11
390.946575
 21
259.873121
 31
0.0
  0
LINE
  5
318
100
AcDbEntity
  8
0
 62
7
100
AcDbLine
 10
390.946575
 20
259.873121
 30
0.0
 11
386.946569
 21
259.873121
 31
0.0
  0
LINE
  5
319
100
AcDbEntity
  8
0
 62
7
100
AcDbLine
 10
386.946569
 20
259.873121
 30
0.0
 11
386.946569
 21
263.873124
 31
0.0
  0
LINE
  5
31a
100
AcDbEntity
  8
0
 62
7
100
AcDbLine
 10
386.946569
 20
263.873124
 30
0.0
 11
382.946566
 21
263.873124
 31
0.0
  0
LINE
  5
31b
100
AcDbEntity
  8
0
 62
7
100
AcDbLine
 10
382.946566
 20
263.873124
 30
0.0
 11
382.946566
 21
259.873121
 31
0.0
  0
LINE
  5
31c
100
AcDbEntity
  8
0
 62
7
100
AcDbLine
 10
382.946566
 20
259.873121
 30
0.0
 11
378.946565
 21
259.873121
 31
0.0
  0
LINE
  5
31d
100
AcDbEntity
  8
0
 62
7
100
AcDbLine
 10
378.946565
 20
259.873121
 30
0.0
 11
378.946565
 21
263.873124
 31
0.0
  0
LINE
  5
31e
100
AcDbEntity
  8
0
 62
7
100
AcDbLine
 10
378.946565
 20
263.873124
 30
0.0
 11
374.946559
 21
263.873124
 31
0.0
  0
LINE
  5
31f
100
AcDbEntity
  8
0
 62
7
100
AcDbLine
 10
374.946559
 20
263.873124
 30
0.0
 11
374.946559
 21
259.873121
 31
0.0
  0
LINE
  5
320
100
AcDbEntity
  8
0
 62
7
100
AcDbLine
 10
374.946559
 20
259.873121
 30
0.0
 11
370.946556
 21
259.873121
 31
0.0
  0
LINE
  5
321
100
AcDbEntity
  8
0
 62
7
100
AcDbLine
 10
370.946556
 20
259.873121
 30
0.0
 11
370.946556
 21
263.873124
 31
0.0
  0
LINE
  5
322
100
AcDbEntity
  8
0
 62
7
100
AcDbLine
 10
370.946556
 20
263.873124
 30
0.0
 11
366.946553
 21
263.873124
 31
0.0
  0
LINE
  5
323
100
AcDbEntity
  8
0
 62
7
100
AcDbLine
 10
366.946553
 20
263.873124
 30
0.0
 11
366.946553
 21
259.873121
 31
0.0
  0
LINE
  5
324
100
AcDbEntity
  8
0
 62
7
100
AcDbLine
 10
366.946553
 20
259.873121
 30
0.0
 11
362.946549
 21
259.873121
 31
0.0
  0
LINE
  5
325
100
AcDbEntity
  8
0
 62
7
100
AcDbLine
 10
362.946549
 20
259.873121
 30
0.0
 11
362.946549
 21
263.873124
 31
0.0
  0
LINE
  5
326
100
AcDbEntity
  8
0
 62
7
100
AcDbLine
 10
362.946549
 20
263.873124
 30
0.0
 11
358.946546
 21
263.873124
 31
0.0
  0
LINE
  5
327
100
AcDbEntity
  8
0
 62
7
100
AcDbLine
 10
358.946546
 20
263.873124
 30
0.0
 11
358.946546
 21
259.873121
 31
0.0
  0
LINE
  5
328
100
AcDbEntity
  8
0
 62
7
100
AcDbLine
 10
358.946546
 20
259.873121
 30
0.0
 11
354.946543
 21
259.873121
 31
0.0
  0
LINE
  5
329
100
AcDbEntity
  8
0
 62
7
100
AcDbLine
 10
354.946543
 20
259.873121
 30
0.0
 11
354.946543
 21
263.873124
 31
0.0
  0
LINE
  5
32a
100
AcDbEntity
  8
0
 62
7
100
AcDbLine
 10
354.946543
 20
263.873124
 30
0.0
 11
350.946539
 21
263.873124
 31
0.0
  0
LINE
  5
32b
100
AcDbEntity
  8
0
 62
7
100
AcDbLine
 10
350.946539
 20
263.873124
 30
0.0
 11
350.946539
 21
259.873121
 31
0.0
  0
LINE
  5
32c
100
AcDbEntity
  8
0
 62
7
100
AcDbLine
 10
350.946539
 20
259.873121
 30
0.0
 11
346.946536
 21
259.873121
 31
0.0
  0
LINE
  5
32d
100
AcDbEntity
  8
0
 62
7
100
AcDbLine
 10
346.946536
 20
259.873121
 30
0.0
 11
346.946536
 21
263.873124
 31
0.0
  0
LINE
  5
32e
100
AcDbEntity
  8
0
 62
7
100
AcDbLine
 10
346.946536
 20
263.873124
 30
0.0
 11
342.946533
 21
263.873124
 31
0.0
  0
LINE
  5
32f
100
AcDbEntity
  8
0
 62
7
100
AcDbLine
 10
342.946533
 20
263.873124
 30
0.0
 11
342.946533
 21
259.873121
 31
0.0
  0
LINE
  5
330
100
AcDbEntity
  8
0
 62
7
100
AcDbLine
 10
342.946533
 20
259.873121
 30
0.0
 11
338.946532
 21
259.873121
 31
0.0
  0
LINE
  5
331
100
AcDbEntity
  8
0
 62
7
100
AcDbLine
 10
338.946532
 20
259.873121
 30
0.0
 11
338.946532
 21
263.873124
 31
0.0
  0
LINE
  5
332
100
AcDbEntity
  8
0
 62
7
100
AcDbLine
 10
338.946532
 20
263.873124
 30
0.0
 11
334.946526
 21
263.873124
 31
0.0
  0
LINE
  5
333
100
AcDbEntity
  8
0
 62
7
100
AcDbLine
 10
334.946526
 20
263.873124
 30
0.0
 11
334.946526
 21
259.873121
 31
0.0
  0
LINE
  5
334
100
AcDbEntity
  8
0
 62
7
100
AcDbLine
 10
334.946526
 20
259.873121
 30
0.0
 11
330.946523
 21
259.873121
 31
0.0
  0
LINE
  5
335
100
AcDbEntity
  8
0
 62
7
100
AcDbLine
 10
330.946523
 20
259.873121
 30
0.0
 11
330.946523
 21
263.873124
 31
0.0
  0
LINE
  5
336
100
AcDbEntity
  8
0
 62
7
100
AcDbLine
 10
330.946523
 20
263.873124
 30
0.0
 11
326.946522
 21
263.873124
 31
0.0
  0
LINE
  5
337
100
AcDbEntity
  8
0
 62
7
100
AcDbLine
 10
326.946522
 20
263.873124
 30
0.0
 11
326.946522
 21
259.873121
 31
0.0
  0
LINE
  5
338
100
AcDbEntity
  8
0
 62
7
100
AcDbLine
 10
326.946522
 20
259.873121
 30
0.0
 11
322.946516
 21
259.873121
 31
0.0
  0
LINE
  5
339
100
AcDbEntity
  8
0
 62
7
100
AcDbLine
 10
322.946516
 20
259.873121
 30
0.0
 11
322.946516
 21
263.873124
 31
0.0
  0
LINE
  5
33a
100
AcDbEntity
  8
0
 62
7
100
AcDbLine
 10
322.946516
 20
263.873124
 30
0.0
 11
318.946513
 21
263.873124
 31
0.0
  0
LINE
  5
33b
100
AcDbEntity
  8
0
 62
7
100
AcDbLine
 10
318.946513
 20
263.873124
 30
0.0
 11
318.946513
 21
259.873121
 31
0.0
  0
LINE
  5
33c
100
AcDbEntity
  8
0
 62
7
100
AcDbLine
 10
318.946513
 20
259.873121
 30
0.0
 11
314.946510
 21
259.873121
 31
0.0
  0
LINE
  5
33d
100
AcDbEntity
  8
0
 62
7
100
AcDbLine
 10
314.946510
 20
259.873121
 30
0.0
 11
314.946510
 21
263.873124
 31
0.0
  0
LINE
  5
33e
100
AcDbEntity
  8
0
 62
7
100
AcDbLine
 10
314.946510
 20
263.873124
 30
0.0
 11
310.946506
 21
263.873124
 31
0.0
  0
LINE
  5
33f
100
AcDbEntity
  8
0
 62
7
100
AcDbLine
 10
310.946506
 20
263.873124
 30
0.0
 11
310.946506
 21
259.873121
 31
0.0
  0
LINE
  5
340
100
AcDbEntity
  8
0
 62
7
100
AcDbLine
 10
310.946506
 20
259.873121
 30
0.0
 11
306.946503
 21
259.873121
 31
0.0
  0
LINE
  5
341
100
AcDbEntity
  8
0
 62
7
100
AcDbLine
 10
306.946503
 20
259.873121
 30
0.0
 11
306.946503
 21
263.873124
 31
0.0
  0
LINE
  5
342
100
AcDbEntity
  8
0
 62
7
100
AcDbLine
 10
306.946503
 20
263.873124
 30
0.0
 11
302.946503
 21
263.873124
 31
0.0
  0
LINE
  5
343
100
AcDbEntity
  8
0
 62
7
100
AcDbLine
 10
302.946503
 20
263.873124
 30
0.0
 11
302.946503
 21
259.873121
 31
0.0
  0
LINE
  5
344
100
AcDbEntity
  8
0
 62
7
100
AcDbLine
 10
302.946503
 20
259.873121
 30
0.0
 11
298.946497
 21
259.873121
 31
0.0
  0
LINE
  5
345
100
AcDbEntity
  8
0
 62
7
100
AcDbLine
 10
298.946497
 20
259.873121
 30
0.0
 11
298.946497
 21
263.873124
 31
0.0
  0
LINE
  5
346
100
AcDbEntity
  8
0
 62
7
100
AcDbLine
 10
298.946497
 20
263.873124
 30
0.0
 11
294.946493
 21
263.873124
 31
0.0
  0
LINE
  5
347
100
AcDbEntity
  8
0
 62
7
100
AcDbLine
 10
294.946493
 20
263.873124
 30
0.0
 11
294.946493
 21
259.873121
 31
0.0
  0
LINE
  5
348
100
AcDbEntity
  8
0
 62
7
100
AcDbLine
 10
294.946493
 20
259.873121
 30
0.0
 11
290.946490
 21
259.873121
 31
0.0
  0
LINE
  5
349
100
AcDbEntity
  8
0
 62
7
100
AcDbLine
 10
290.946490
 20
259.873121
 30
0.0
 11
290.946490
 21
263.873124
 31
0.0
  0
LINE
  5
34a
100
AcDbEntity
  8
0
 62
7
100
AcDbLine
 10
290.946490
 20
263.873124
 30
0.0
 11
286.946487
 21
263.873124
 31
0.0
  0
LINE
  5
34b
100
AcDbEntity
  8
0
 62
7
100
AcDbLine
 10
286.946487
 20
263.873124
 30
0.0
 11
286.946487
 21
259.873121
 31
0.0
  0
LINE
  5
34c
100
AcDbEntity
  8
0
 62
7
100
AcDbLine
 10
286.946487
 20
259.873121
 30
0.0
 11
282.946483
 21
259.873121
 31
0.0
  0
LINE
  5
34d
100
AcDbEntity
  8
0
 62
7
100
AcDbLine
 10
282.946483
 20
259.873121
 30
0.0
 11
282.946483
 21
263.873124
 31
0.0
  0
LINE
  5
34e
100
AcDbEntity
  8
0
 62
7
100
AcDbLine
 10
282.946483
 20
263.873124
 30
0.0
 11
278.946480
 21
263.873124
 31
0.0
  0
LINE
  5
34f
100
AcDbEntity
  8
0
 62
7
100
AcDbLine
 10
278.946480
 20
263.873124
 30
0.0
 11
278.946480
 21
259.873121
 31
0.0
  0
LINE
  5
350
100
AcDbEntity
  8
0
 62
7
100
AcDbLine
 10
278.946480
 20
259.873121
 30
0.0
 11
274.946477
 21
259.873121
 31
0.0
  0
LINE
  5
351
100
AcDbEntity
  8
0
 62
7
100
AcDbLine
 10
274.946477
 20
259.873121
 30
0.0
 11
274.946477
 21
263.873124
 31
0.0
  0
LINE
  5
352
100
AcDbEntity
  8
0
 62
7
100
AcDbLine
 10
274.946477
 20
263.873124
 30
0.0
 11
270.946474
 21
263.873124
 31
0.0
  0
LINE
  5
353
100
AcDbEntity
  8
0
 62
7
100
AcDbLine
 10
270.946474
 20
263.873124
 30
0.0
 11
270.946474
 21
259.873121
 31
0.0
  0
LINE
  5
354
100
AcDbEntity
  8
0
 62
7
100
AcDbLine
 10
270.946474
 20
259.873121
 30
0.0
 11
266.946470
 21
259.873121
 31
0.0
  0
LINE
  5
355
100
AcDbEntity
  8
0
 62
7
100
AcDbLine
 10
266.946470
 20
259.873121
 30
0.0
 11
266.946470
 21
263.873124
 31
0.0
  0
LINE
  5
356
100
AcDbEntity
  8
0
 62
7
100
AcDbLine
 10
266.946470
 20
263.873124
 30
0.0
 11
262.946467
 21
263.873124
 31
0.0
  0
LINE
  5
357
100
AcDbEntity
  8
0
 62
7
100
AcDbLine
 10
262.946467
 20
263.873124
 30
0.0
 11
262.946467
 21
259.873121
 31
0.0
  0
LINE
  5
358
100
AcDbEntity
  8
0
 62
7
100
AcDbLine
 10
262.946467
 20
259.873121
 30
0.0
 11
258.946464
 21
259.873121
 31
0.0
  0
LINE
  5
359
100
AcDbEntity
  8
0
 62
7
100
AcDbLine
 10
258.946464
 20
259.873121
 30
0.0
 11
258.946464
 21
263.873124
 31
0.0
  0
LINE
  5
35a
100
AcDbEntity
  8
0
 62
7
100
AcDbLine
 10
258.946464
 20
263.873124
 30
0.0
 11
254.946460
 21
263.873124
 31
0.0
  0
LINE
  5
35b
100
AcDbEntity
  8
0
 62
7
100
AcDbLine
 10
254.946460
 20
263.873124
 30
0.0
 11
254.946460
 21
259.873121
 31
0.0
  0
LINE
  5
35c
100
AcDbEntity
  8
0
 62
7
100
AcDbLine
 10
254.946460
 20
259.873121
 30
0.0
 11
250.946460
 21
259.873121
 31
0.0
  0
LINE
  5
35d
100
AcDbEntity
  8
0
 62
7
100
AcDbLine
 10
250.946460
 20
259.873121
 30
0.0
 11
250.946460
 21
263.873124
 31
0.0
  0
LINE
  5
35e
100
AcDbEntity
  8
0
 62
7
100
AcDbLine
 10
250.946460
 20
263.873124
 30
0.0
 11
246.946457
 21
263.873124
 31
0.0
  0
LINE
  5
35f
100
AcDbEntity
  8
0
 62
7
100
AcDbLine
 10
246.946457
 20
263.873124
 30
0.0
 11
246.946457
 21
259.873121
 31
0.0
  0
LINE
  5
360
100
AcDbEntity
  8
0
 62
7
100
AcDbLine
 10
246.946457
 20
259.873121
 30
0.0
 11
242.946451
 21
259.873121
 31
0.0
  0
LINE
  5
361
100
AcDbEntity
  8
0
 62
7
100
AcDbLine
 10
242.946451
 20
259.873121
 30
0.0
 11
242.946451
 21
263.873124
 31
0.0
  0
LINE
  5
362
100
AcDbEntity
  8
0
 62
7
100
AcDbLine
 10
242.946451
 20
263.873124
 30
0.0
 11
238.946450
 21
263.873124
 31
0.0
  0
LINE
  5
363
100
AcDbEntity
  8
0
 62
7
100
AcDbLine
 10
238.946450
 20
263.873124
 30
0.0
 11
238.946450
 21
259.873121
 31
0.0
  0
LINE
  5
364
100
AcDbEntity
  8
0
 62
7
100
AcDbLine
 10
238.946450
 20
259.873121
 30
0.0
 11
234.946447
 21
259.873121
 31
0.0
  0
LINE
  5
365
100
AcDbEntity
  8
0
 62
7
100
AcDbLine
 10
234.946447
 20
259.873121
 30
0.0
 11
234.946447
 21
263.873124
 31
0.0
  0
LINE
  5
366
100
AcDbEntity
  8
0
 62
7
100
AcDbLine
 10
234.946447
 20
263.873124
 30
0.0
 11
230.946441
 21
263.873124
 31
0.0
  0
LINE
  5
367
100
AcDbEntity
  8
0
 62
7
100
AcDbLine
 10
230.946441
 20
263.873124
 30
0.0
 11
230.946441
 21
259.873121
 31
0.0
  0
LINE
  5
368
100
AcDbEntity
  8
0
 62
7
100
AcDbLine
 10
230.946441
 20
259.873121
 30
0.0
 11
226.946437
 21
259.873121
 31
0.0
  0
LINE
  5
369
100
AcDbEntity
  8
0
 62
7
100
AcDbLine
 10
226.946437
 20
259.873121
 30
0.0
 11
226.946437
 21
263.873124
 31
0.0
  0
LINE
  5
36a
100
AcDbEntity
  8
0
 62
7
100
AcDbLine
 10
226.946437
 20
263.873124
 30
0.0
 11
222.946437
 21
263.873124
 31
0.0
  0
LINE
  5
36b
100
AcDbEntity
  8
0
 62
7
100
AcDbLine
 10
222.946437
 20
263.873124
 30
0.0
 11
222.946437
 21
259.873121
 31
0.0
  0
LINE
  5
36c
100
AcDbEntity
  8
0
 62
7
100
AcDbLine
 10
222.946437
 20
259.873121
 30
0.0
 11
218.946434
 21
259.873121
 31
0.0
  0
LINE
  5
36d
100
AcDbEntity
  8
0
 62
7
100
AcDbLine
 10
218.946434
 20
259.873121
 30
0.0
 11
218.946434
 21
263.873124
 31
0.0
  0
LINE
  5
36e
100
AcDbEntity
  8
0
 62
7
100
AcDbLine
 10
218.946434
 20
263.873124
 30
0.0
 11
214.946428
 21
263.873124
 31
0.0
  0
LINE
  5
36f
100
AcDbEntity
  8
0
 62
7
100
AcDbLine
 10
214.946428
 20
263.873124
 30
0.0
 11
214.946428
 21
259.873121
 31
0.0
  0
LINE
  5
370
100
AcDbEntity
  8
0
 62
7
100
AcDbLine
 10
214.946428
 20
259.873121
 30
0.0
 11
210.946424
 21
259.873121
 31
0.0
  0
LINE
  5
371
100
AcDbEntity
  8
0
 62
7
100
AcDbLine
 10
210.946424
 20
259.873121
 30
0.0
 11
210.946424
 21
263.873124
 31
0.0
  0
LINE
  5
372
100
AcDbEntity
  8
0
 62
7
100
AcDbLine
 10
210.946424
 20
263.873124
 30
0.0
 11
206.946422
 21
263.873124
 31
0.0
  0
LINE
  5
373
100
AcDbEntity
  8
0
 62
7
100
AcDbLine
 10
206.946422
 20
263.873124
 30
0.0
 11
206.946422
 21
259.873121
 31
0.0
  0
LINE
  5
374
100
AcDbEntity
  8
0
 62
7
100
AcDbLine
 10
206.946422
 20
259.873121
 30
0.0
 11
202.946419
 21
259.873121
 31
0.0
  0
LINE
  5
375
100
AcDbEntity
  8
0
 62
7
100
AcDbLine
 10
202.946419
 20
259.873121
 30
0.0
 11
202.946419
 21
263.873124
 31
0.0
  0
LINE
  5
376
100
AcDbEntity
  8
0
 62
7
100
AcDbLine
 10
202.946419
 20
263.873124
 30
0.0
 11
198.946416
 21
263.873124
 31
0.0
  0
LINE
  5
377
100
AcDbEntity
  8
0
 62
7
100
AcDbLine
 10
198.946416
 20
263.873124
 30
0.0
 11
198.946416
 21
259.873121
 31
0.0
  0
LINE
  5
378
100
AcDbEntity
  8
0
 62
7
100
AcDbLine
 10
198.946416
 20
259.873121
 30
0.0
 11
194.946413
 21
259.873121
 31
0.0
  0
LINE
  5
379
100
AcDbEntity
  8
0
 62
7
100
AcDbLine
 10
194.946413
 20
259.873121
 30
0.0
 11
194.946413
 21
263.873124
 31
0.0
  0
LINE
  5
37a
100
AcDbEntity
  8
0
 62
7
100
AcDbLine
 10
194.946413
 20
263.873124
 30
0.0
 11
190.946409
 21
263.873124
 31
0.0
  0
LINE
  5
37b
100
AcDbEntity
  8
0
 62
7
100
AcDbLine
 10
190.946409
 20
263.873124
 30
0.0
 11
190.946409
 21
259.873121
 31
0.0
  0
LINE
  5
37c
100
AcDbEntity
  8
0
 62
7
100
AcDbLine
 10
190.946409
 20
259.873121
 30
0.0
 11
185.696405
 21
259.873121
 31
0.0
  0
LINE
  5
37d
100
AcDbEntity
  8
0
 62
7
100
AcDbLine
 10
185.696405
 20
259.873121
 30
0.0
 11
185.696405
 21
263.873124
 31
0.0
  0
LINE
  5
37e
100
AcDbEntity
  8
0
 62
7
100
AcDbLine
 10
185.696405
 20
263.873124
 30
0.0
 11
184.446404
 21
263.873124
 31
0.0
  0
LINE
  5
37f
100
AcDbEntity
  8
0
 62
7
100
AcDbLine
 10
184.446404
 20
263.873124
 30
0.0
 11
184.446404
 21
264.473125
 31
0.0
  0
LINE
  5
380
100
AcDbEntity
  8
0
 62
7
100
AcDbLine
 10
184.446404
 20
264.473125
 30
0.0
 11
180.446401
 21
264.473125
 31
0.0
  0
LINE
  5
381
100
AcDbEntity
  8
0
 62
7
100
AcDbLine
 10
282.942470
 20
23.869537
 30
0.0
 11
282.942470
 21
27.869540
 31
0.0
  0
LINE
  5
382
100
AcDbEntity
  8
0
 62
7
100
AcDbLine
 10
282.942470
 20
27.869540
 30
0.0
 11
286.942474
 21
27.869540
 31
0.0
  0
LINE
  5
383
100
AcDbEntity
  8
0
 62
7
100
AcDbLine
 10
286.942474
 20
27.869540
 30
0.0
 11
286.942474
 21
23.869537
 31
0.0
  0
LINE
  5
384
100
AcDbEntity
  8
0
 62
7
100
AcDbLine
 10
286.942474
 20
23.869537
 30
0.0
 11
290.942477
 21
23.869537
 31
0.0
  0
LINE
  5
385
100
AcDbEntity
  8
0
 62
7
100
AcDbLine
 10
290.942477
 20
23.869537
 30
0.0
 11
290.942477
 21
27.869540
 31
0.0
  0
LINE
  5
386
100
AcDbEntity
  8
0
 62
7
100
AcDbLine
 10
290.942477
 20
27.869540
 30
0.0
 11
294.942480
 21
27.869540
 31
0.0
  0
LINE
  5
387
100
AcDbEntity
  8
0
 62
7
100
AcDbLine
 10
294.942480
 20
27.869540
 30
0.0
 11
294.942480
 21
23.869537
 31
0.0
  0
LINE
  5
388
100
AcDbEntity
  8
0
 62
7
100
AcDbLine
 10
294.942480
 20
23.869537
 30
0.0
 11
298.942483
 21
23.869537
 31
0.0
  0
LINE
  5
389
100
AcDbEntity
  8
0
 62
7
100
AcDbLine
 10
298.942483
 20
23.869537
 30
0.0
 11
298.942483
 21
27.869540
 31
0.0
  0
LINE
  5
38a
100
AcDbEntity
  8
0
 62
7
100
AcDbLine
 10
298.942483
 20
27.869540
 30
0.0
 11
302.942490
 21
27.869540
 31
0.0
  0
LINE
  5
38b
100
AcDbEntity
  8
0
 62
7
100
AcDbLine
 10
302.942490
 20
27.869540
 30
0.0
 11
302.942490
 21
23.869537
 31
0.0
  0
LINE
  5
38c
100
AcDbEntity
  8
0
 62
7
100
AcDbLine
 10
302.942490
 20
23.869537
 30
0.0
 11
306.942490
 21
23.869537
 31
0.0
  0
LINE
  5
38d
100
AcDbEntity
  8
0
 62
7
100
AcDbLine
 10
306.942490
 20
23.869537
 30
0.0
 11
306.942490
 21
27.869540
 31
0.0
  0
LINE
  5
38e
100
AcDbEntity
  8
0
 62
7
100
AcDbLine
 10
306.942490
 20
27.869540
 30
0.0
 11
310.942493
 21
27.869540
 31
0.0
  0
LINE
  5
38f
100
AcDbEntity
  8
0
 62
7
100
AcDbLine
 10
310.942493
 20
27.869540
 30
0.0
 11
310.942493
 21
23.869537
 31
0.0
  0
LINE
  5
390
100
AcDbEntity
  8
0
 62
7
100
AcDbLine
 10
310.942493
 20
23.869537
 30
0.0
 11
314.942497
 21
23.869537
 31
0.0
  0
LINE
  5
391
100
AcDbEntity
  8
0
 62
7
100
AcDbLine
 10
314.942497
 20
23.869537
 30
0.0
 11
314.942497
 21
27.869540
 31
0.0
  0
LINE
  5
392
100
AcDbEntity
  8
0
 62
7
100
AcDbLine
 10
314.942497
 20
27.869540
 30
0.0
 11
318.942500
 21
27.869540
 31
0.0
  0
LINE
  5
393
100
AcDbEntity
  8
0
 62
7
100
AcDbLine
 10
318.942500
 20
27.869540
 30
0.0
 11
318.942500
 21
23.869537
 31
0.0
  0
LINE
  5
394
100
AcDbEntity
  8
0
 62
7
100
AcDbLine
 10
318.942500
 20
23.869537
 30
0.0
 11
322.942503
 21
23.869537
 31
0.0
  0
LINE
  5
395
100
AcDbEntity
  8
0
 62
7
100
AcDbLine
 10
322.942503
 20
23.869537
 30
0.0
 11
322.942503
 21
27.869540
 31
0.0
  0
LINE
  5
396
100
AcDbEntity
  8
0
 62
7
100
AcDbLine
 10
322.942503
 20
27.869540
 30
0.0
 11
326.942509
 21
27.869540
 31
0.0
  0
LINE
  5
397
100
AcDbEntity
  8
0
 62
7
100
AcDbLine
 10
326.942509
 20
27.869540
 30
0.0
 11
326.942509
 21
23.869537
 31
0.0
  0
LINE
  5
398
100
AcDbEntity
  8
0
 62
7
100
AcDbLine
 10
326.942509
 20
23.869537
 30
0.0
 11
330.942510
 21
23.869537
 31
0.0
  0
LINE
  5
399
100
AcDbEntity
  8
0
 62
7
100
AcDbLine
 10
330.942510
 20
23.869537
 30
0.0
 11
330.942510
 21
27.869540
 31
0.0
  0
LINE
  5
39a
100
AcDbEntity
  8
0
 62
7
100
AcDbLine
 10
330.942510
 20
27.869540
 30
0.0
 11
334.942513
 21
27.869540
 31
0.0
  0
LINE
  5
39b
100
AcDbEntity
  8
0
 62
7
100
AcDbLine
 10
334.942513
 20
27.869540
 30
0.0
 11
334.942513
 21
23.869537
 31
0.0
  0
LINE
  5
39c
100
AcDbEntity
  8
0
 62
7
100
AcDbLine
 10
334.942513
 20
23.869537
 30
0.0
 11
338.942519
 21
23.869537
 31
0.0
  0
LINE
  5
39d
100
AcDbEntity
  8
0
 62
7
100
AcDbLine
 10
338.942519
 20
23.869537
 30
0.0
 11
338.942519
 21
27.869540
 31
0.0
  0
LINE
  5
39e
100
AcDbEntity
  8
0
 62
7
100
AcDbLine
 10
338.942519
 20
27.869540
 30
0.0
 11
342.942520
 21
27.869540
 31
0.0
  0
LINE
  5
39f
100
AcDbEntity
  8
0
 62
7
100
AcDbLine
 10
342.942520
 20
27.869540
 30
0.0
 11
342.942520
 21
23.869537
 31
0.0
  0
LINE
  5
3a0
100
AcDbEntity
  8
0
 62
7
100
AcDbLine
 10
342.942520
 20
23.869537
 30
0.0
 11
346.942523
 21
23.869537
 31
0.0
  0
LINE
  5
3a1
100
AcDbEntity
  8
0
 62
7
100
AcDbLine
 10
346.942523
 20
23.869537
 30
0.0
 11
346.942523
 21
27.869540
 31
0.0
  0
LINE
  5
3a2
100
AcDbEntity
  8
0
 62
7
100
AcDbLine
 10
346.942523
 20
27.869540
 30
0.0
 11
350.942526
 21
27.869540
 31
0.0
  0
LINE
  5
3a3
100
AcDbEntity
  8
0
 62
7
100
AcDbLine
 10
350.942526
 20
27.869540
 30
0.0
 11
350.942526
 21
23.869537
 31
0.0
  0
LINE
  5
3a4
100
AcDbEntity
  8
0
 62
7
100
AcDbLine
 10
350.942526
 20
23.869537
 30
0.0
 11
354.942529
 21
23.869537
 31
0.0
  0
LINE
  5
3a5
100
AcDbEntity
  8
0
 62
7
100
AcDbLine
 10
354.942529
 20
23.869537
 30
0.0
 11
354.942529
 21
27.869540
 31
0.0
  0
LINE
  5
3a6
100
AcDbEntity
  8
0
 62
7
100
AcDbLine
 10
354.942529
 20
27.869540
 30
0.0
 11
358.942533
 21
27.869540
 31
0.0
  0
LINE
  5
3a7
100
AcDbEntity
  8
0
 62
7
100
AcDbLine
 10
358.942533
 20
27.869540
 30
0.0
 11
358.942533
 21
23.869537
 31
0.0
  0
LINE
  5
3a8
100
AcDbEntity
  8
0
 62
7
100
AcDbLine
 10
358.942533
 20
23.869537
 30
0.0
 11
362.942536
 21
23.869537
 31
0.0
  0
LINE
  5
3a9
100
AcDbEntity
  8
0
 62
7
100
AcDbLine
 10
362.942536
 20
23.869537
 30
0.0
 11
362.942536
 21
27.869540
 31
0.0
  0
LINE
  5
3aa
100
AcDbEntity
  8
0
 62
7
100
AcDbLine
 10
362.942536
 20
27.869540
 30
0.0
 11
366.942539
 21
27.869540
 31
0.0
  0
LINE
  5
3ab
100
AcDbEntity
  8
0
 62
7
100
AcDbLine
 10
366.942539
 20
27.869540
 30
0.0
 11
366.942539
 21
23.869537
 31
0.0
  0
LINE
  5
3ac
100
AcDbEntity
  8
0
 62
7
100
AcDbLine
 10
366.942539
 20
23.869537
 30
0.0
 11
370.942543
 21
23.869537
 31
0.0
  0
LINE
  5
3ad
100
AcDbEntity
  8
0
 62
7
100
AcDbLine
 10
370.942543
 20
23.869537
 30
0.0
 11
370.942543
 21
27.869540
 31
0.0
  0
LINE
  5
3ae
100
AcDbEntity
  8
0
 62
7
100
AcDbLine
 10
370.942543
 20
27.869540
 30
0.0
 11
374.942546
 21
27.869540
 31
0.0
  0
LINE
  5
3af
100
AcDbEntity
  8
0
 62
7
100
AcDbLine
 10
374.942546
 20
27.869540
 30
0.0
 11
374.942546
 21
23.869537
 31
0.0
  0
LINE
  5
3b0
100
AcDbEntity
  8
0
 62
7
100
AcDbLine
 10
374.942546
 20
23.869537
 30
0.0
 11
378.942552
 21
23.869537
 31
0.0
  0
LINE
  5
3b1
100
AcDbEntity
  8
0
 62
7
100
AcDbLine
 10
378.942552
 20
23.869537
 30
0.0
 11
378.942552
 21
27.869540
 31
0.0
  0
LINE
  5
3b2
100
AcDbEntity
  8
0
 62
7
100
AcDbLine
 10
378.942552
 20
27.869540
 30
0.0
 11
382.942552
 21
27.869540
 31
0.0
  0
LINE
  5
3b3
100
AcDbEntity
  8
0
 62
7
100
AcDbLine
 10
382.942552
 20
27.869540
 30
0.0
 11
382.942552
 21
23.869537
 31
0.0
  0
LINE
  5
3b4
100
AcDbEntity
  8
0
 62
7
100
AcDbLine
 10
382.942552
 20
23.869537
 30
0.0
 11
386.942556
 21
23.869537
 31
0.0
  0
LINE
  5
3b5
100
AcDbEntity
  8
0
 62
7
100
AcDbLine
 10
386.942556
 20
23.869537
 30
0.0
 11
386.942556
 21
27.869540
 31
0.0
  0
LINE
  5
3b6
100
AcDbEntity
  8
0
 62
7
100
AcDbLine
 10
386.942556
 20
27.869540
 30
0.0
 11
390.942562
 21
27.869540
 31
0.0
  0
LINE
  5
3b7
100
AcDbEntity
  8
0
 62
7
100
AcDbLine
 10
390.942562
 20
27.869540
 30
0.0
 11
390.942562
 21
23.869537
 31
0.0
  0
LINE
  5
3b8
100
AcDbEntity
  8
0
 62
7
100
AcDbLine
 10
390.942562
 20
23.869537
 30
0.0
 11
394.942562
 21
23.869537
 31
0.0
  0
LINE
  5
3b9
100
AcDbEntity
  8
0
 62
7
100
AcDbLine
 10
394.942562
 20
23.869537
 30
0.0
 11
394.942562
 21
27.869540
 31
0.0
  0
LINE
  5
3ba
100
AcDbEntity
  8
0
 62
7
100
AcDbLine
 10
394.942562
 20
27.869540
 30
0.0
 11
398.942566
 21
27.869540
 31
0.0
  0
LINE
  5
3bb
100
AcDbEntity
  8
0
 62
7
100
AcDbLine
 10
398.942566
 20
27.869540
 30
0.0
 11
398.942566
 21
23.869537
 31
0.0
  0
LINE
  5
3bc
100
AcDbEntity
  8
0
 62
7
100
AcDbLine
 10
398.942566
 20
23.869537
 30
0.0
 11
402.942572
 21
23.869537
 31
0.0
  0
LINE
  5
3bd
100
AcDbEntity
  8
0
 62
7
100
AcDbLine
 10
402.942572
 20
23.869537
 30
0.0
 11
402.942572
 21
27.869540
 31
0.0
  0
LINE
  5
3be
100
AcDbEntity
  8
0
 62
7
100
AcDbLine
 10
402.942572
 20
27.869540
 30
0.0
 11
406.942572
 21
27.869540
 31
0.0
  0
LINE
  5
3bf
100
AcDbEntity
  8
0
 62
7
100
AcDbLine
 10
406.942572
 20
27.869540
 30
0.0
 11
406.942572
 21
23.869537
 31
0.0
  0
LINE
  5
3c0
100
AcDbEntity
  8
0
 62
7
100
AcDbLine
 10
406.942572
 20
23.869537
 30
0.0
 11
410.942576
 21
23.869537
 31
0.0
  0
LINE
  5
3c1
100
AcDbEntity
  8
0
 62
7
100
AcDbLine
 10
410.942576
 20
23.869537
 30
0.0
 11
410.942576
 21
27.869540
 31
0.0
  0
LINE
  5
3c2
100
AcDbEntity
  8
0
 62
7
100
AcDbLine
 10
410.942576
 20
27.869540
 30
0.0
 11
414.942582
 21
27.869540
 31
0.0
  0
LINE
  5
3c3
100
AcDbEntity
  8
0
 62
7
100
AcDbLine
 10
414.942582
 20
27.869540
 30
0.0
 11
414.942582
 21
23.869537
 31
0.0
  0
LINE
  5
3c4
100
AcDbEntity
  8
0
 62
7
100
AcDbLine
 10
414.942582
 20
23.869537
 30
0.0
 11
418.942582
 21
23.869537
 31
0.0
  0
LINE
  5
3c5
100
AcDbEntity
  8
0
 62
7
100
AcDbLine
 10
418.942582
 20
23.869537
 30
0.0
 11
418.942582
 21
27.869540
 31
0.0
  0
LINE
  5
3c6
100
AcDbEntity
  8
0
 62
7
100
AcDbLine
 10
418.942582
 20
27.869540
 30
0.0
 11
422.942585
 21
27.869540
 31
0.0
  0
LINE
  5
3c7
100
AcDbEntity
  8
0
 62
7
100
AcDbLine
 10
422.942585
 20
27.869540
 30
0.0
 11
422.942585
 21
23.869537
 31
0.0
  0
LINE
  5
3c8
100
AcDbEntity
  8
0
 62
7
100
AcDbLine
 10
422.942585
 20
23.869537
 30
0.0
 11
426.942589
 21
23.869537
 31
0.0
  0
LINE
  5
3c9
100
AcDbEntity
  8
0
 62
7
100
AcDbLine
 10
426.942589
 20
23.869537
 30
0.0
 11
426.942589
 21
27.869540
 31
0.0
  0
LINE
  5
3ca
100
AcDbEntity
  8
0
 62
7
100
AcDbLine
 10
426.942589
 20
27.869540
 30
0.0
 11
430.942592
 21
27.869540
 31
0.0
  0
LINE
  5
3cb
100
AcDbEntity
  8
0
 62
7
100
AcDbLine
 10
430.942592
 20
27.869540
 30
0.0
 11
430.942592
 21
23.869537
 31
0.0
  0
LINE
  5
3cc
100
AcDbEntity
  8
0
 62
7
100
AcDbLine
 10
430.942592
 20
23.869537
 30
0.0
 11
434.942595
 21
23.869537
 31
0.0
  0
LINE
  5
3cd
100
AcDbEntity
  8
0
 62
7
100
AcDbLine
 10
434.942595
 20
23.869537
 30
0.0
 11
434.942595
 21
27.869540
 31
0.0
  0
LINE
  5
3ce
100
AcDbEntity
  8
0
 62
7
100
AcDbLine
 10
434.942595
 20
27.869540
 30
0.0
 11
438.942599
 21
27.869540
 31
0.0
  0
LINE
  5
3cf
100
AcDbEntity
  8
0
 62
7
100
AcDbLine
 10
438.942599
 20
27.869540
 30
0.0
 11
438.942599
 21
23.869537
 31
0.0
  0
LINE
  5
3d0
100
AcDbEntity
  8
0
 62
7
100
AcDbLine
 10
438.942599
 20
23.869537
 30
0.0
 11
442.942605
 21
23.869537
 31
0.0
  0
LINE
  5
3d1
100
AcDbEntity
  8
0
 62
7
100
AcDbLine
 10
442.942605
 20
23.869537
 30
0.0
 11
442.942605
 21
27.869540
 31
0.0
  0
LINE
  5
3d2
100
AcDbEntity
  8
0
 62
7
100
AcDbLine
 10
442.942605
 20
27.869540
 30
0.0
 11
448.192607
 21
27.869540
 31
0.0
  0
LINE
  5
3d3
100
AcDbEntity
  8
0
 62
7
100
AcDbLine
 10
448.192607
 20
27.869540
 30
0.0
 11
448.192607
 21
23.869537
 31
0.0
  0
LINE
  5
3d4
100
AcDbEntity
  8
0
 62
7
100
AcDbLine
 10
448.192607
 20
23.869537
 30
0.0
 11
449.442609
 21
23.869537
 31
0.0
  0
LINE
  5
3d5
100
AcDbEntity
  8
0
 62
7
100
AcDbLine
 10
449.442609
 20
23.869537
 30
0.0
 11
449.442609
 21
23.269537
 31
0.0
  0
LINE
  5
3d6
100
AcDbEntity
  8
0
 62
7
100
AcDbLine
 10
449.442609
 20
23.269537
 30
0.0
 11
453.442612
 21
23.269537
 31
0.0
  0
LINE
  5
3d7
100
AcDbEntity
  8
0
 62
7
100
AcDbLine
 10
453.442612
 20
23.269537
 30
0.0
 11
453.442612
 21
18.669533
 31
0.0
  0
LINE
  5
3d8
100
AcDbEntity
  8
0
 62
7
100
AcDbLine
 10
453.442612
 20
18.669533
 30
0.0
 11
449.442609
 21
18.669533
 31
0.0
  0
LINE
  5
3d9
100
AcDbEntity
  8
0
 62
7
100
AcDbLine
 10
449.442609
 20
18.669533
 30
0.0
 11
449.442609
 21
14.069529
 31
0.0
  0
LINE
  5
3da
100
AcDbEntity
  8
0
 62
7
100
AcDbLine
 10
449.442609
 20
14.069529
 30
0.0
 11
453.442612
 21
14.069529
 31
0.0
  0
LINE
  5
3db
100
AcDbEntity
  8
0
 62
7
100
AcDbLine
 10
453.442612
 20
14.069529
 30
0.0
 11
453.442612
 21
9.469525
 31
0.0
  0
LINE
  5
3dc
100
AcDbEntity
  8
0
 62
7
100
AcDbLine
 10
453.442612
 20
9.469525
 30
0.0
 11
449.442609
 21
9.469525
 31
0.0
  0
LINE
  5
3dd
100
AcDbEntity
  8
0
 62
7
100
AcDbLine
 10
449.442609
 20
9.469525
 30
0.0
 11
449.442609
 21
8.869525
 31
0.0
  0
LINE
  5
3de
100
AcDbEntity
  8
0
 62
7
100
AcDbLine
 10
449.442609
 20
8.869525
 30
0.0
 11
448.192607
 21
8.869525
 31
0.0
  0
LINE
  5
3df
100
AcDbEntity
  8
0
 62
7
100
AcDbLine
 10
448.192607
 20
8.869525
 30
0.0
 11
448.192607
 21
4.869521
 31
0.0
  0
LINE
  5
3e0
100
AcDbEntity
  8
0
 62
7
100
AcDbLine
 10
448.192607
 20
4.869521
 30
0.0
 11
442.942605
 21
4.869521
 31
0.0
  0
LINE
  5
3e1
100
AcDbEntity
  8
0
 62
7
100
AcDbLine
 10
442.942605
 20
4.869521
 30
0.0
 11
442.942605
 21
8.869525
 31
0.0
  0
LINE
  5
3e2
100
AcDbEntity
  8
0
 62
7
100
AcDbLine
 10
442.942605
 20
8.869525
 30
0.0
 11
438.942599
 21
8.869525
 31
0.0
  0
LINE
  5
3e3
100
AcDbEntity
  8
0
 62
7
100
AcDbLine
 10
438.942599
 20
8.869525
 30
0.0
 11
438.942599
 21
4.869521
 31
0.0
  0
LINE
  5
3e4
100
AcDbEntity
  8
0
 62
7
100
AcDbLine
 10
438.942599
 20
4.869521
 30
0.0
 11
434.942595
 21
4.869521
 31
0.0
  0
LINE
  5
3e5
100
AcDbEntity
  8
0
 62
7
100
AcDbLine
 10
434.942595
 20
4.869521
 30
0.0
 11
434.942595
 21
8.869525
 31
0.0
  0
LINE
  5
3e6
100
AcDbEntity
  8
0
 62
7
100
AcDbLine
 10
434.942595
 20
8.869525
 30
0.0
 11
430.942592
 21
8.869525
 31
0.0
  0
LINE
  5
3e7
100
AcDbEntity
  8
0
 62
7
100
AcDbLine
 10
430.942592
 20
8.869525
 30
0.0
 11
430.942592
 21
4.869521
 31
0.0
  0
LINE
  5
3e8
100
AcDbEntity
  8
0
 62
7
100
AcDbLine
 10
430.942592
 20
4.869521
 30
0.0
 11
426.942589
 21
4.869521
 31
0.0
  0
LINE
  5
3e9
100
AcDbEntity
  8
0
 62
7
100
AcDbLine
 10
426.942589
 20
4.869521
 30
0.0
 11
426.942589
 21
8.869525
 31
0.0
  0
LINE
  5
3ea
100
AcDbEntity
  8
0
 62
7
100
AcDbLine
 10
426.942589
 20
8.869525
 30
0.0
 11
422.942585
 21
8.869525
 31
0.0
  0
LINE
  5
3eb
100
AcDbEntity
  8
0
 62
7
100
AcDbLine
 10
422.942585
 20
8.869525
 30
0.0
 11
422.942585
 21
4.869521
 31
0.0
  0
LINE
  5
3ec
100
AcDbEntity
  8
0
 62
7
100
AcDbLine
 10
422.942585
 20
4.869521
 30
0.0
 11
418.942582
 21
4.869521
 31
0.0
  0
LINE
  5
3ed
100
AcDbEntity
  8
0
 62
7
100
AcDbLine
 10
418.942582
 20
4.869521
 30
0.0
 11
418.942582
 21
8.869525
 31
0.0
  0
LINE
  5
3ee
100
AcDbEntity
  8
0
 62
7
100
AcDbLine
 10
418.942582
 20
8.869525
 30
0.0
 11
414.942582
 21
8.869525
 31
0.0
  0
LINE
  5
3ef
100
AcDbEntity
  8
0
 62
7
100
AcDbLine
 10
414.942582
 20
8.869525
 30
0.0
 11
414.942582
 21
4.869521
 31
0.0
  0
LINE
  5
3f0
100
AcDbEntity
  8
0
 62
7
100
AcDbLine
 10
414.942582
 20
4.869521
 30
0.0
 11
410.942576
 21
4.869521
 31
0.0
  0
LINE
  5
3f1
100
AcDbEntity
  8
0
 62
7
100
AcDbLine
 10
410.942576
 20
4.869521
 30
0.0
 11
410.942576
 21
8.869525
 31
0.0
  0
LINE
  5
3f2
100
AcDbEntity
  8
0
 62
7
100
AcDbLine
 10
410.942576
 20
8.869525
 30
0.0
 11
406.942572
 21
8.869525
 31
0.0
  0
LINE
  5
3f3
100
AcDbEntity
  8
0
 62
7
100
AcDbLine
 10
406.942572
 20
8.869525
 30
0.0
 11
406.942572
 21
4.869521
 31
0.0
  0
LINE
  5
3f4
100
AcDbEntity
  8
0
 62
7
100
AcDbLine
 10
406.942572
 20
4.869521
 30
0.0
 11
402.942572
 21
4.869521
 31
0.0
  0
LINE
  5
3f5
100
AcDbEntity
  8
0
 62
7
100
AcDbLine
 10
402.942572
 20
4.869521
 30
0.0
 11
402.942572
 21
8.869525
 31
0.0
  0
LINE
  5
3f6
100
AcDbEntity
  8
0
 62
7
100
AcDbLine
 10
402.942572
 20
8.869525
 30
0.0
 11
398.942566
 21
8.869525
 31
0.0
  0
LINE
  5
3f7
100
AcDbEntity
  8
0
 62
7
100
AcDbLine
 10
398.942566
 20
8.869525
 30
0.0
 11
398.942566
 21
4.869521
 31
0.0
  0
LINE
  5
3f8
100
AcDbEntity
  8
0
 62
7
100
AcDbLine
 10
398.942566
 20
4.869521
 30
0.0
 11
394.942562
 21
4.869521
 31
0.0
  0
LINE
  5
3f9
100
AcDbEntity
  8
0
 62
7
100
AcDbLine
 10
394.942562
 20
4.869521
 30
0.0
 11
394.942562
 21
8.869525
 31
0.0
  0
LINE
  5
3fa
100
AcDbEntity
  8
0
 62
7
100
AcDbLine
 10
394.942562
 20
8.869525
 30
0.0
 11
390.942562
 21
8.869525
 31
0.0
  0
LINE
  5
3fb
100
AcDbEntity
  8
0
 62
7
100
AcDbLine
 10
390.942562
 20
8.869525
 30
0.0
 11
390.942562
 21
4.869521
 31
0.0
  0
LINE
  5
3fc
100
AcDbEntity
  8
0
 62
7
100
AcDbLine
 10
390.942562
 20
4.869521
 30
0.0
 11
386.942556
 21
4.869521
 31
0.0
  0
LINE
  5
3fd
100
AcDbEntity
  8
0
 62
7
100
AcDbLine
 10
386.942556
 20
4.869521
 30
0.0
 11
386.942556
 21
8.869525
 31
0.0
  0
LINE
  5
3fe
100
AcDbEntity
  8
0
 62
7
100
AcDbLine
 10
386.942556
 20
8.869525
 30
0.0
 11
382.942552
 21
8.869525
 31
0.0
  0
LINE
  5
3ff
100
AcDbEntity
  8
0
 62
7
100
AcDbLine
 10
382.942552
 20
8.869525
 30
0.0
 11
382.942552
 21
4.869521
 31
0.0
  0
LINE
  5
400
100
AcDbEntity
  8
0
 62
7
100
AcDbLine
 10
382.942552
 20
4.869521
 30
0.0
 11
378.942552
 21
4.869521
 31
0.0
  0
LINE
  5
401
100
AcDbEntity
  8
0
 62
7
100
AcDbLine
 10
378.942552
 20
4.869521
 30
0.0
 11
378.942552
 21
8.869525
 31
0.0
  0
LINE
  5
402
100
AcDbEntity
  8
0
 62
7
100
AcDbLine
 10
378.942552
 20
8.869525
 30
0.0
 11
374.942546
 21
8.869525
 31
0.0
  0
LINE
  5
403
100
AcDbEntity
  8
0
 62
7
100
AcDbLine
 10
374.942546
 20
8.869525
 30
0.0
 11
374.942546
 21
4.869521
 31
0.0
  0
LINE
  5
404
100
AcDbEntity
  8
0
 62
7
100
AcDbLine
 10
374.942546
 20
4.869521
 30
0.0
 11
370.942543
 21
4.869521
 31
0.0
  0
LINE
  5
405
100
AcDbEntity
  8
0
 62
7
100
AcDbLine
 10
370.942543
 20
4.869521
 30
0.0
 11
370.942543
 21
8.869525
 31
0.0
  0
LINE
  5
406
100
AcDbEntity
  8
0
 62
7
100
AcDbLine
 10
370.942543
 20
8.869525
 30
0.0
 11
366.942539
 21
8.869525
 31
0.0
  0
LINE
  5
407
100
AcDbEntity
  8
0
 62
7
100
AcDbLine
 10
366.942539
 20
8.869525
 30
0.0
 11
366.942539
 21
4.869521
 31
0.0
  0
LINE
  5
408
100
AcDbEntity
  8
0
 62
7
100
AcDbLine
 10
366.942539
 20
4.869521
 30
0.0
 11
362.942536
 21
4.869521
 31
0.0
  0
LINE
  5
409
100
AcDbEntity
  8
0
 62
7
100
AcDbLine
 10
362.942536
 20
4.869521
 30
0.0
 11
362.942536
 21
8.869525
 31
0.0
  0
LINE
  5
40a
100
AcDbEntity
  8
0
 62
7
100
AcDbLine
 10
362.942536
 20
8.869525
 30
0.0
 11
358.942533
 21
8.869525
 31
0.0
  0
LINE
  5
40b
100
AcDbEntity
  8
0
 62
7
100
AcDbLine
 10
358.942533
 20
8.869525
 30
0.0
 11
358.942533
 21
4.869521
 31
0.0
  0
LINE
  5
40c
100
AcDbEntity
  8
0
 62
7
100
AcDbLine
 10
358.942533
 20
4.869521
 30
0.0
 11
354.942529
 21
4.869521
 31
0.0
  0
LINE
  5
40d
100
AcDbEntity
  8
0
 62
7
100
AcDbLine
 10
354.942529
 20
4.869521
 30
0.0
 11
354.942529
 21
8.869525
 31
0.0
  0
LINE
  5
40e
100
AcDbEntity
  8
0
 62
7
100
AcDbLine
 10
354.942529
 20
8.869525
 30
0.0
 11
350.942526
 21
8.869525
 31
0.0
  0
LINE
  5
40f
100
AcDbEntity
  8
0
 62
7
100
AcDbLine
 10
350.942526
 20
8.869525
 30
0.0
 11
350.942526
 21
4.869521
 31
0.0
  0
LINE
  5
410
100
AcDbEntity
  8
0
 62
7
100
AcDbLine
 10
350.942526
 20
4.869521
 30
0.0
 11
346.942523
 21
4.869521
 31
0.0
  0
LINE
  5
411
100
AcDbEntity
  8
0
 62
7
100
AcDbLine
 10
346.942523
 20
4.869521
 30
0.0
 11
346.942523
 21
8.869525
 31
0.0
  0
LINE
  5
412
100
AcDbEntity
  8
0
 62
7
100
AcDbLine
 10
346.942523
 20
8.869525
 30
0.0
 11
342.942520
 21
8.869525
 31
0.0
  0
LINE
  5
413
100
AcDbEntity
  8
0
 62
7
100
AcDbLine
 10
342.942520
 20
8.869525
 30
0.0
 11
342.942520
 21
4.869521
 31
0.0
  0
LINE
  5
414
100
AcDbEntity
  8
0
 62
7
100
AcDbLine
 10
342.942520
 20
4.869521
 30
0.0
 11
338.942519
 21
4.869521
 31
0.0
  0
LINE
  5
415
100
AcDbEntity
  8
0
 62
7
100
AcDbLine
 10
338.942519
 20
4.869521
 30
0.0
 11
338.942519
 21
8.869525
 31
0.0
  0
LINE
  5
416
100
AcDbEntity
  8
0
 62
7
100
AcDbLine
 10
338.942519
 20
8.869525
 30
0.0
 11
334.942513
 21
8.869525
 31
0.0
  0
LINE
  5
417
100
AcDbEntity
  8
0
 62
7
100
AcDbLine
 10
334.942513
 20
8.869525
 30
0.0
 11
334.942513
 21
4.869521
 31
0.0
  0
LINE
  5
418
100
AcDbEntity
  8
0
 62
7
100
AcDbLine
 10
334.942513
 20
4.869521
 30
0.0
 11
330.942510
 21
4.869521
 31
0.0
  0
LINE
  5
419
100
AcDbEntity
  8
0
 62
7
100
AcDbLine
 10
330.942510
 20
4.869521
 30
0.0
 11
330.942510
 21
8.869525
 31
0.0
  0
LINE
  5
41a
100
AcDbEntity
  8
0
 62
7
100
AcDbLine
 10
330.942510
 20
8.869525
 30
0.0
 11
326.942509
 21
8.869525
 31
0.0
  0
LINE
  5
41b
100
AcDbEntity
  8
0
 62
7
100
AcDbLine
 10
326.942509
 20
8.869525
 30
0.0
 11
326.942509
 21
4.869521
 31
0.0
  0
LINE
  5
41c
100
AcDbEntity
  8
0
 62
7
100
AcDbLine
 10
326.942509
 20
4.869521
 30
0.0
 11
322.942503
 21
4.869521
 31
0.0
  0
LINE
  5
41d
100
AcDbEntity
  8
0
 62
7
100
AcDbLine
 10
322.942503
 20
4.869521
 30
0.0
 11
322.942503
 21
8.869525
 31
0.0
  0
LINE
  5
41e
100
AcDbEntity
  8
0
 62
7
100
AcDbLine
 10
322.942503
 20
8.869525
 30
0.0
 11
318.942500
 21
8.869525
 31
0.0
  0
LINE
  5
41f
100
AcDbEntity
  8
0
 62
7
100
AcDbLine
 10
318.942500
 20
8.869525
 30
0.0
 11
318.942500
 21
4.869521
 31
0.0
  0
LINE
  5
420
100
AcDbEntity
  8
0
 62
7
100
AcDbLine
 10
318.942500
 20
4.869521
 30
0.0
 11
314.942497
 21
4.869521
 31
0.0
  0
LINE
  5
421
100
AcDbEntity
  8
0
 62
7
100
AcDbLine
 10
314.942497
 20
4.869521
 30
0.0
 11
314.942497
 21
8.869525
 31
0.0
  0
LINE
  5
422
100
AcDbEntity
  8
0
 62
7
100
AcDbLine
 10
314.942497
 20
8.869525
 30
0.0
 11
310.942493
 21
8.869525
 31
0.0
  0
LINE
  5
423
100
AcDbEntity
  8
0
 62
7
100
AcDbLine
 10
310.942493
 20
8.869525
 30
0.0
 11
310.942493
 21
4.869521
 31
0.0
  0
LINE
  5
424
100
AcDbEntity
  8
0
 62
7
100
AcDbLine
 10
310.942493
 20
4.869521
 30
0.0
 11
306.942490
 21
4.869521
 31
0.0
  0
LINE
  5
425
100
AcDbEntity
  8
0
 62
7
100
AcDbLine
 10
306.942490
 20
4.869521
 30
0.0
 11
306.942490
 21
8.869525
 31
0.0
  0
LINE
  5
426
100
AcDbEntity
  8
0
 62
7
100
AcDbLine
 10
306.942490
 20
8.869525
 30
0.0
 11
302.942490
 21
8.869525
 31
0.0
  0
LINE
  5
427
100
AcDbEntity
  8
0
 62
7
100
AcDbLine
 10
302.942490
 20
8.869525
 30
0.0
 11
302.942490
 21
4.869521
 31
0.0
  0
LINE
  5
428
100
AcDbEntity
  8
0
 62
7
100
AcDbLine
 10
302.942490
 20
4.869521
 30
0.0
 11
298.942483
 21
4.869521
 31
0.0
  0
LINE
  5
429
100
AcDbEntity
  8
0
 62
7
100
AcDbLine
 10
298.942483
 20
4.869521
 30
0.0
 11
298.942483
 21
8.869525
 31
0.0
  0
LINE
  5
42a
100
AcDbEntity
  8
0
 62
7
100
AcDbLine
 10
298.942483
 20
8.869525
 30
0.0
 11
294.942480
 21
8.869525
 31
0.0
  0
LINE
  5
42b
100
AcDbEntity
  8
0
 62
7
100
AcDbLine
 10
294.942480
 20
8.869525
 30
0.0
 11
294.942480
 21
4.869521
 31
0.0
  0
LINE
  5
42c
100
AcDbEntity
  8
0
 62
7
100
AcDbLine
 10
294.942480
 20
4.869521
 30
0.0
 11
290.942477
 21
4.869521
 31
0.0
  0
LINE
  5
42d
100
AcDbEntity
  8
0
 62
7
100
AcDbLine
 10
290.942477
 20
4.869521
 30
0.0
 11
290.942477
 21
8.869525
 31
0.0
  0
LINE
  5
42e
100
AcDbEntity
  8
0
 62
7
100
AcDbLine
 10
290.942477
 20
8.869525
 30
0.0
 11
286.942474
 21
8.869525
 31
0.0
  0
LINE
  5
42f
100
AcDbEntity
  8
0
 62
7
100
AcDbLine
 10
286.942474
 20
8.869525
 30
0.0
 11
286.942474
 21
4.869521
 31
0.0
  0
LINE
  5
430
100
AcDbEntity
  8
0
 62
7
100
AcDbLine
 10
286.942474
 20
4.869521
 30
0.0
 11
282.942470
 21
4.869521
 31
0.0
  0
LINE
  5
431
100
AcDbEntity
  8
0
 62
7
100
AcDbLine
 10
282.942470
 20
4.869521
 30
0.0
 11
282.942470
 21
8.869525
 31
0.0
  0
LINE
  5
432
100
AcDbEntity
  8
0
 62
7
100
AcDbLine
 10
282.942470
 20
8.869525
 30
0.0
 11
278.942467
 21
8.869525
 31
0.0
  0
LINE
  5
433
100
AcDbEntity
  8
0
 62
7
100
AcDbLine
 10
278.942467
 20
8.869525
 30
0.0
 11
278.942467
 21
4.869521
 31
0.0
  0
LINE
  5
434
100
AcDbEntity
  8
0
 62
7
100
AcDbLine
 10
278.942467
 20
4.869521
 30
0.0
 11
274.942464
 21
4.869521
 31
0.0
  0
LINE
  5
435
100
AcDbEntity
  8
0
 62
7
100
AcDbLine
 10
274.942464
 20
4.869521
 30
0.0
 11
274.942464
 21
8.869525
 31
0.0
  0
LINE
  5
436
100
AcDbEntity
  8
0
 62
7
100
AcDbLine
 10
274.942464
 20
8.869525
 30
0.0
 11
270.942460
 21
8.869525
 31
0.0
  0
LINE
  5
437
100
AcDbEntity
  8
0
 62
7
100
AcDbLine
 10
270.942460
 20
8.869525
 30
0.0
 11
270.942460
 21
4.869521
 31
0.0
  0
LINE
  5
438
100
AcDbEntity
  8
0
 62
7
100
AcDbLine
 10
270.942460
 20
4.869521
 30
0.0
 11
266.942457
 21
4.869521
 31
0.0
  0
LINE
  5
439
100
AcDbEntity
  8
0
 62
7
100
AcDbLine
 10
266.942457
 20
4.869521
 30
0.0
 11
266.942457
 21
8.869525
 31
0.0
  0
LINE
  5
43a
100
AcDbEntity
  8
0
 62
7
100
AcDbLine
 10
266.942457
 20
8.869525
 30
0.0
 11
262.942454
 21
8.869525
 31
0.0
  0
LINE
  5
43b
100
AcDbEntity
  8
0
 62
7
100
AcDbLine
 10
262.942454
 20
8.869525
 30
0.0
 11
262.942454
 21
4.869521
 31
0.0
  0
LINE
  5
43c
100
AcDbEntity
  8
0
 62
7
100
AcDbLine
 10
262.942454
 20
4.869521
 30
0.0
 11
258.942451
 21
4.869521
 31
0.0
  0
LINE
  5
43d
100
AcDbEntity
  8
0
 62
7
100
AcDbLine
 10
258.942451
 20
4.869521
 30
0.0
 11
258.942451
 21
8.869525
 31
0.0
  0
LINE
  5
43e
100
AcDbEntity
  8
0
 62
7
100
AcDbLine
 10
258.942451
 20
8.869525
 30
0.0
 11
254.942447
 21
8.869525
 31
0.0
  0
LINE
  5
43f
100
AcDbEntity
  8
0
 62
7
100
AcDbLine
 10
254.942447
 20
8.869525
 30
0.0
 11
254.942447
 21
4.869521
 31
0.0
  0
LINE
  5
440
100
AcDbEntity
  8
0
 62
7
100
AcDbLine
 10
254.942447
 20
4.869521
 30
0.0
 11
250.942447
 21
4.869521
 31
0.0
  0
LINE
  5
441
100
AcDbEntity
  8
0
 62
7
100
AcDbLine
 10
250.942447
 20
4.869521
 30
0.0
 11
250.942447
 21
8.869525
 31
0.0
  0
LINE
  5
442
100
AcDbEntity
  8
0
 62
7
100
AcDbLine
 10
250.942447
 20
8.869525
 30
0.0
 11
246.942443
 21
8.869525
 31
0.0
  0
LINE
  5
443
100
AcDbEntity
  8
0
 62
7
100
AcDbLine
 10
246.942443
 20
8.869525
 30
0.0
 11
246.942443
 21
4.869521
 31
0.0
  0
LINE
  5
444
100
AcDbEntity
  8
0
 62
7
100
AcDbLine
 10
246.942443
 20
4.869521
 30
0.0
 11
242.942437
 21
4.869521
 31
0.0
  0
LINE
  5
445
100
AcDbEntity
  8
0
 62
7
100
AcDbLine
 10
242.942437
 20
4.869521
 30
0.0
 11
242.942437
 21
8.869525
 31
0.0
  0
LINE
  5
446
100
AcDbEntity
  8
0
 62
7
100
AcDbLine
 10
242.942437
 20
8.869525
 30
0.0
 11
238.942437
 21
8.869525
 31
0.0
  0
LINE
  5
447
100
AcDbEntity
  8
0
 62
7
100
AcDbLine
 10
238.942437
 20
8.869525
 30
0.0
 11
238.942437
 21
4.869521
 31
0.0
  0
LINE
  5
448
100
AcDbEntity
  8
0
 62
7
100
AcDbLine
 10
238.942437
 20
4.869521
 30
0.0
 11
234.942434
 21
4.869521
 31
0.0
  0
LINE
  5
449
100
AcDbEntity
  8
0
 62
7
100
AcDbLine
 10
234.942434
 20
4.869521
 30
0.0
 11
234.942434
 21
8.869525
 31
0.0
  0
LINE
  5
44a
100
AcDbEntity
  8
0
 62
7
100
AcDbLine
 10
234.942434
 20
8.869525
 30
0.0
 11
230.942428
 21
8.869525
 31
0.0
  0
LINE
  5
44b
100
AcDbEntity
  8
0
 62
7
100
AcDbLine
 10
230.942428
 20
8.869525
 30
0.0
 11
230.942428
 21
4.869521
 31
0.0
  0
LINE
  5
44c
100
AcDbEntity
  8
0
 62
7
100
AcDbLine
 10
230.942428
 20
4.869521
 30
0.0
 11
226.942424
 21
4.869521
 31
0.0
  0
LINE
  5
44d
100
AcDbEntity
  8
0
 62
7
100
AcDbLine
 10
226.942424
 20
4.869521
 30
0.0
 11
226.942424
 21
8.869525
 31
0.0
  0
LINE
  5
44e
100
AcDbEntity
  8
0
 62
7
100
AcDbLine
 10
226.942424
 20
8.869525
 30
0.0
 11
222.942424
 21
8.869525
 31
0.0
  0
LINE
  5
44f
100
AcDbEntity
  8
0
 62
7
100
AcDbLine
 10
222.942424
 20
8.869525
 30
0.0
 11
222.942424
 21
4.869521
 31
0.0
  0
LINE
  5
450
100
AcDbEntity
  8
0
 62
7
100
AcDbLine
 10
222.942424
 20
4.869521
 30
0.0
 11
218.942420
 21
4.869521
 31
0.0
  0
LINE
  5
451
100
AcDbEntity
  8
0
 62
7
100
AcDbLine
 10
218.942420
 20
4.869521
 30
0.0
 11
218.942420
 21
8.869525
 31
0.0
  0
LINE
  5
452
100
AcDbEntity
  8
0
 62
7
100
AcDbLine
 10
218.942420
 20
8.869525
 30
0.0
 11
214.942414
 21
8.869525
 31
0.0
  0
LINE
  5
453
100
AcDbEntity
  8
0
 62
7
100
AcDbLine
 10
214.942414
 20
8.869525
 30
0.0
 11
214.942414
 21
4.869521
 31
0.0
  0
LINE
  5
454
100
AcDbEntity
  8
0
 62
7
100
AcDbLine
 10
214.942414
 20
4.869521
 30
0.0
 11
210.942411
 21
4.869521
 31
0.0
  0
LINE
  5
455
100
AcDbEntity
  8
0
 62
7
100
AcDbLine
 10
210.942411
 20
4.869521
 30
0.0
 11
210.942411
 21
8.869525
 31
0.0
  0
LINE
  5
456
100
AcDbEntity
  8
0
 62
7
100
AcDbLine
 10
210.942411
 20
8.869525
 30
0.0
 11
206.942409
 21
8.869525
 31
0.0
  0
LINE
  5
457
100
AcDbEntity
  8
0
 62
7
100
AcDbLine
 10
206.942409
 20
8.869525
 30
0.0
 11
206.942409
 21
4.869521
 31
0.0
  0
LINE
  5
458
100
AcDbEntity
  8
0
 62
7
100
AcDbLine
 10
206.942409
 20
4.869521
 30
0.0
 11
202.942406
 21
4.869521
 31
0.0
  0
LINE
  5
459
100
AcDbEntity
  8
0
 62
7
100
AcDbLine
 10
202.942406
 20
4.869521
 30
0.0
 11
202.942406
 21
8.869525
 31
0.0
  0
LINE
  5
45a
100
AcDbEntity
  8
0
 62
7
100
AcDbLine
 10
202.942406
 20
8.869525
 30
0.0
 11
198.942403
 21
8.869525
 31
0.0
  0
LINE
  5
45b
100
AcDbEntity
  8
0
 62
7
100
AcDbLine
 10
198.942403
 20
8.869525
 30
0.0
 11
198.942403
 21
4.869521
 31
0.0
  0
LINE
  5
45c
100
AcDbEntity
  8
0
 62
7
100
AcDbLine
 10
198.942403
 20
4.869521
 30
0.0
 11
194.942399
 21
4.869521
 31
0.0
  0
LINE
  5
45d
100
AcDbEntity
  8
0
 62
7
100
AcDbLine
 10
194.942399
 20
4.869521
 30
0.0
 11
194.942399
 21
8.869525
 31
0.0
  0
LINE
  5
45e
100
AcDbEntity
  8
0
 62
7
100
AcDbLine
 10
194.942399
 20
8.869525
 30
0.0
 11
190.942396
 21
8.869525
 31
0.0
  0
LINE
  5
45f
100
AcDbEntity
  8
0
 62
7
100
AcDbLine
 10
190.942396
 20
8.869525
 30
0.0
 11
190.942396
 21
4.869521
 31
0.0
  0
LINE
  5
460
100
AcDbEntity
  8
0
 62
7
100
AcDbLine
 10
190.942396
 20
4.869521
 30
0.0
 11
185.692392
 21
4.869521
 31
0.0
  0
LINE
  5
461
100
AcDbEntity
  8
0
 62
7
100
AcDbLine
 10
185.692392
 20
4.869521
 30
0.0
 11
185.692392
 21
8.869525
 31
0.0
  0
LINE
  5
462
100
AcDbEntity
  8
0
 62
7
100
AcDbLine
 10
185.692392
 20
8.869525
 30
0.0
 11
184.442391
 21
8.869525
 31
0.0
  0
LINE
  5
463
100
AcDbEntity
  8
0
 62
7
100
AcDbLine
 10
184.442391
 20
8.869525
 30
0.0
 11
184.442391
 21
9.469525
 31
0.0
  0
LINE
  5
464
100
AcDbEntity
  8
0
 62
7
100
AcDbLine
 10
184.442391
 20
9.469525
 30
0.0
 11
180.442387
 21
9.469525
 31
0.0
  0
LINE
  5
465
100
AcDbEntity
  8
0
 62
7
100
AcDbLine
 10
180.442387
 20
9.469525
 30
0.0
 11
180.442387
 21
14.069529
 31
0.0
  0
LINE
  5
466
100
AcDbEntity
  8
0
 62
7
100
AcDbLine
 10
180.442387
 20
14.069529
 30
0.0
 11
184.442391
 21
14.069529
 31
0.0
  0
LINE
  5
467
100
AcDbEntity
  8
0
 62
7
100
AcDbLine
 10
184.442391
 20
14.069529
 30
0.0
 11
184.442391
 21
18.669533
 31
0.0
  0
LINE
  5
468
100
AcDbEntity
  8
0
 62
7
100
AcDbLine
 10
184.442391
 20
18.669533
 30
0.0
 11
180.442387
 21
18.669533
 31
0.0
  0
LINE
  5
469
100
AcDbEntity
  8
0
 62
7
100
AcDbLine
 10
180.442387
 20
18.669533
 30
0.0
 11
180.442387
 21
23.269537
 31
0.0
  0
LINE
  5
46a
100
AcDbEntity
  8
0
 62
7
100
AcDbLine
 10
180.442387
 20
23.269537
 30
0.0
 11
184.442391
 21
23.269537
 31
0.0
  0
LINE
  5
46b
100
AcDbEntity
  8
0
 62
7
100
AcDbLine
 10
184.442391
 20
23.269537
 30
0.0
 11
184.442391
 21
23.869537
 31
0.0
  0
LINE
  5
46c
100
AcDbEntity
  8
0
 62
7
100
AcDbLine
 10
184.442391
 20
23.869537
 30
0.0
 11
185.692392
 21
23.869537
 31
0.0
  0
LINE
  5
46d
100
AcDbEntity
  8
0
 62
7
100
AcDbLine
 10
185.692392
 20
23.869537
 30
0.0
 11
185.692392
 21
27.869540
 31
0.0
  0
LINE
  5
46e
100
AcDbEntity
  8
0
 62
7
100
AcDbLine
 10
185.692392
 20
27.869540
 30
0.0
 11
190.942396
 21
27.869540
 31
0.0
  0
LINE
  5
46f
100
AcDbEntity
  8
0
 62
7
100
AcDbLine
 10
190.942396
 20
27.869540
 30
0.0
 11
190.942396
 21
23.869537
 31
0.0
  0
LINE
  5
470
100
AcDbEntity
  8
0
 62
7
100
AcDbLine
 10
190.942396
 20
23.869537
 30
0.0
 11
194.942399
 21
23.869537
 31
0.0
  0
LINE
  5
471
100
AcDbEntity
  8
0
 62
7
100
AcDbLine
 10
194.942399
 20
23.869537
 30
0.0
 11
194.942399
 21
27.869540
 31
0.0
  0
LINE
  5
472
100
AcDbEntity
  8
0
 62
7
100
AcDbLine
 10
194.942399
 20
27.869540
 30
0.0
 11
198.942403
 21
27.869540
 31
0.0
  0
LINE
  5
473
100
AcDbEntity
  8
0
 62
7
100
AcDbLine
 10
198.942403
 20
27.869540
 30
0.0
 11
198.942403
 21
23.869537
 31
0.0
  0
LINE
  5
474
100
AcDbEntity
  8
0
 62
7
100
AcDbLine
 10
198.942403
 20
23.869537
 30
0.0
 11
202.942406
 21
23.869537
 31
0.0
  0
LINE
  5
475
100
AcDbEntity
  8
0
 62
7
100
AcDbLine
 10
202.942406
 20
23.869537
 30
0.0
 11
202.942406
 21
27.869540
 31
0.0
  0
LINE
  5
476
100
AcDbEntity
  8
0
 62
7
100
AcDbLine
 10
202.942406
 20
27.869540
 30
0.0
 11
206.942409
 21
27.869540
 31
0.0
  0
LINE
  5
477
100
AcDbEntity
  8
0
 62
7
100
AcDbLine
 10
206.942409
 20
27.869540
 30
0.0
 11
206.942409
 21
23.869537
 31
0.0
  0
LINE
  5
478
100
AcDbEntity
  8
0
 62
7
100
AcDbLine
 10
206.942409
 20
23.869537
 30
0.0
 11
210.942411
 21
23.869537
 31
0.0
  0
LINE
  5
479
100
AcDbEntity
  8
0
 62
7
100
AcDbLine
 10
210.942411
 20
23.869537
 30
0.0
 11
210.942411
 21
27.869540
 31
0.0
  0
LINE
  5
47a
100
AcDbEntity
  8
0
 62
7
100
AcDbLine
 10
210.942411
 20
27.869540
 30
0.0
 11
214.942414
 21
27.869540
 31
0.0
  0
LINE
  5
47b
100
AcDbEntity
  8
0
 62
7
100
AcDbLine
 10
214.942414
 20
27.869540
 30
0.0
 11
214.942414
 21
23.869537
 31
0.0
  0
LINE
  5
47c
100
AcDbEntity
  8
0
 62
7
100
AcDbLine
 10
214.942414
 20
23.869537
 30
0.0
 11
218.942420
 21
23.869537
 31
0.0
  0
LINE
  5
47d
100
AcDbEntity
  8
0
 62
7
100
AcDbLine
 10
218.942420
 20
23.869537
 30
0.0
 11
218.942420
 21
27.869540
 31
0.0
  0
LINE
  5
47e
100
AcDbEntity
  8
0
 62
7
100
AcDbLine
 10
218.942420
 20
27.869540
 30
0.0
 11
222.942424
 21
27.869540
 31
0.0
  0
LINE
  5
47f
100
AcDbEntity
  8
0
 62
7
100
AcDbLine
 10
222.942424
 20
27.869540
 30
0.0
 11
222.942424
 21
23.869537
 31
0.0
  0
LINE
  5
480
100
AcDbEntity
  8
0
 62
7
100
AcDbLine
 10
222.942424
 20
23.869537
 30
0.0
 11
226.942424
 21
23.869537
 31
0.0
  0
LINE
  5
481
100
AcDbEntity
  8
0
 62
7
100
AcDbLine
 10
226.942424
 20
23.869537
 30
0.0
 11
226.942424
 21
27.869540
 31
0.0
  0
LINE
  5
482
100
AcDbEntity
  8
0
 62
7
100
AcDbLine
 10
226.942424
 20
27.869540
 30
0.0
 11
230.942428
 21
27.869540
 31
0.0
  0
LINE
  5
483
100
AcDbEntity
  8
0
 62
7
100
AcDbLine
 10
230.942428
 20
27.869540
 30
0.0
 11
230.942428
 21
23.869537
 31
0.0
  0
LINE
  5
484
100
AcDbEntity
  8
0
 62
7
100
AcDbLine
 10
230.942428
 20
23.869537
 30
0.0
 11
234.942434
 21
23.869537
 31
0.0
  0
LINE
  5
485
100
AcDbEntity
  8
0
 62
7
100
AcDbLine
 10
234.942434
 20
23.869537
 30
0.0
 11
234.942434
 21
27.869540
 31
0.0
  0
LINE
  5
486
100
AcDbEntity
  8
0
 62
7
100
AcDbLine
 10
234.942434
 20
27.869540
 30
0.0
 11
238.942437
 21
27.869540
 31
0.0
  0
LINE
  5
487
100
AcDbEntity
  8
0
 62
7
100
AcDbLine
 10
238.942437
 20
27.869540
 30
0.0
 11
238.942437
 21
23.869537
 31
0.0
  0
LINE
  5
488
100
AcDbEntity
  8
0
 62
7
100
AcDbLine
 10
238.942437
 20
23.869537
 30
0.0
 11
242.942437
 21
23.869537
 31
0.0
  0
LINE
  5
489
100
AcDbEntity
  8
0
 62
7
100
AcDbLine
 10
242.942437
 20
23.869537
 30
0.0
 11
242.942437
 21
27.869540
 31
0.0
  0
LINE
  5
48a
100
AcDbEntity
  8
0
 62
7
100
AcDbLine
 10
242.942437
 20
27.869540
 30
0.0
 11
246.942443
 21
27.869540
 31
0.0
  0
LINE
  5
48b
100
AcDbEntity
  8
0
 62
7
100
AcDbLine
 10
246.942443
 20
27.869540
 30
0.0
 11
246.942443
 21
23.869537
 31
0.0
  0
LINE
  5
48c
100
AcDbEntity
  8
0
 62
7
100
AcDbLine
 10
246.942443
 20
23.869537
 30
0.0
 11
250.942447
 21
23.869537
 31
0.0
  0
LINE
  5
48d
100
AcDbEntity
  8
0
 62
7
100
AcDbLine
 10
250.942447
 20
23.869537
 30
0.0
 11
250.942447
 21
27.869540
 31
0.0
  0
LINE
  5
48e
100
AcDbEntity
  8
0
 62
7
100
AcDbLine
 10
250.942447
 20
27.869540
 30
0.0
 11
254.942447
 21
27.869540
 31
0.0
  0
LINE
  5
48f
100
AcDbEntity
  8
0
 62
7
100
AcDbLine
 10
254.942447
 20
27.869540
 30
0.0
 11
254.942447
 21
23.869537
 31
0.0
  0
LINE
  5
490
100
AcDbEntity
  8
0
 62
7
100
AcDbLine
 10
254.942447
 20
23.869537
 30
0.0
 11
258.942451
 21
23.869537
 31
0.0
  0
LINE
  5
491
100
AcDbEntity
  8
0
 62
7
100
AcDbLine
 10
258.942451
 20
23.869537
 30
0.0
 11
258.942451
 21
27.869540
 31
0.0
  0
LINE
  5
492
100
AcDbEntity
  8
0
 62
7
100
AcDbLine
 10
258.942451
 20
27.869540
 30
0.0
 11
262.942454
 21
27.869540
 31
0.0
  0
LINE
  5
493
100
AcDbEntity
  8
0
 62
7
100
AcDbLine
 10
262.942454
 20
27.869540
 30
0.0
 11
262.942454
 21
23.869537
 31
0.0
  0
LINE
  5
494
100
AcDbEntity
  8
0
 62
7
100
AcDbLine
 10
262.942454
 20
23.869537
 30
0.0
 11
266.942457
 21
23.869537
 31
0.0
  0
LINE
  5
495
100
AcDbEntity
  8
0
 62
7
100
AcDbLine
 10
266.942457
 20
23.869537
 30
0.0
 11
266.942457
 21
27.869540
 31
0.0
  0
LINE
  5
496
100
AcDbEntity
  8
0
 62
7
100
AcDbLine
 10
266.942457
 20
27.869540
 30
0.0
 11
270.942460
 21
27.869540
 31
0.0
  0
LINE
  5
497
100
AcDbEntity
  8
0
 62
7
100
AcDbLine
 10
270.942460
 20
27.869540
 30
0.0
 11
270.942460
 21
23.869537
 31
0.0
  0
LINE
  5
498
100
AcDbEntity
  8
0
 62
7
100
AcDbLine
 10
270.942460
 20
23.869537
 30
0.0
 11
274.942464
 21
23.869537
 31
0.0
  0
LINE
  5
499
100
AcDbEntity
  8
0
 62
7
100
AcDbLine
 10
274.942464
 20
23.869537
 30
0.0
 11
274.942464
 21
27.869540
 31
0.0
  0
LINE
  5
49a
100
AcDbEntity
  8
0
 62
7
100
AcDbLine
 10
274.942464
 20
27.869540
 30
0.0
 11
278.942467
 21
27.869540
 31
0.0
  0
LINE
  5
49b
100
AcDbEntity
  8
0
 62
7
100
AcDbLine
 10
278.942467
 20
27.869540
 30
0.0
 11
278.942467
 21
23.869537
 31
0.0
  0
LINE
  5
49c
100
AcDbEntity
  8
0
 62
7
100
AcDbLine
 10
278.942467
 20
23.869537
 30
0.0
 11
282.942470
 21
23.869537
 31
0.0
  0
SPLINE
  5
49d
100
AcDbEntity
  8
0
 62
7
100
AcDbSpline
 70
8
 71
3
 72
8
 73
4
 74
0
 40
0
 40
0
 40
0
 40
0
 40
1
 40
1
 40
1
 40
1
 10
465.002965
 20
86.817409
 30
0.0
 10
465.002965
 20
84.494043
 30
0.0
 10
463.119498
 20
82.610582
 30
0.0
 10
460.796132
 20
82.610582
 30
0.0
  0
SPLINE
  5
49e
100
AcDbEntity
  8
0
 62
7
100
AcDbSpline
 70
8
 71
3
 72
8
 73
4
 74
0
 40
0
 40
0
 40
0
 40
0
 40
1
 40
1
 40
1
 40
1
 10
460.796132
 20
82.610582
 30
0.0
 10
458.472766
 20
82.610582
 30
0.0
 10
456.589299
 20
84.494043
 30
0.0
 10
456.589299
 20
86.817409
 30
0.0
  0
SPLINE
  5
49f
100
AcDbEntity
  8
0
 62
7
100
AcDbSpline
 70
8
 71
3
 72
8
 73
4
 74
0
 40
0
 40
0
 40
0
 40
0
 40
1
 40
1
 40
1
 40
1
 10
456.589299
 20
86.817409
 30
0.0
 10
456.589299
 20
89.140778
 30
0.0
 10
458.472766
 20
91.024239
 30
0.0
 10
460.796132
 20
91.024239
 30
0.0
  0
SPLINE
  5
4a0
100
AcDbEntity
  8
0
 62
7
100
AcDbSpline
 70
8
 71
3
 72
8
 73
4
 74
0
 40
0
 40
0
 40
0
 40
0
 40
1
 40
1
 40
1
 40
1
 10
460.796132
 20
91.024239
 30
0.0
 10
463.119498
 20
91.024239
 30
0.0
 10
465.002965
 20
89.140778
 30
0.0
 10
465.002965
 20
86.817409
 30
0.0
  0
LINE
  5
4a1
100
AcDbEntity
  8
0
 62
7
100
AcDbLine
 10
465.002965
 20
86.817409
 30
0.0
 11
465.002965
 21
86.817409
 31
0.0
  0
SPLINE
  5
4a2
100
AcDbEntity
  8
0
 62
7
100
AcDbSpline
 70
8
 71
3
 72
8
 73
4
 74
0
 40
0
 40
0
 40
0
 40
0
 40
1
 40
1
 40
1
 40
1
 10
433.397096
 20
16.635067
 30
0.0
 10
433.397096
 20
13.525661
 30
0.0
 10
430.876428
 20
11.004987
 30
0.0
 10
427.767016
 20
11.004987
 30
0.0
  0
SPLINE
  5
4a3
100
AcDbEntity
  8
0
 62
7
100
AcDbSpline
 70
8
 71
3
 72
8
 73
4
 74
0
 40
0
 40
0
 40
0
 40
0
 40
1
 40
1
 40
1
 40
1
 10
427.767016
 20
11.004987
 30
0.0
 10
424.657605
 20
11.004987
 30
0.0
 10
422.136937
 20
13.525661
 30
0.0
 10
422.136937
 20
16.635067
 30
0.0
  0
SPLINE
  5
4a4
100
AcDbEntity
  8
0
 62
7
100
AcDbSpline
 70
8
 71
3
 72
8
 73
4
 74
0
 40
0
 40
0
 40
0
 40
0
 40
1
 40
1
 40
1
 40
1
 10
422.136937
 20
16.635067
 30
0.0
 10
422.136937
 20
19.744476
 30
0.0
 10
424.657605
 20
22.265152
 30
0.0
 10
427.767016
 20
22.265152
 30
0.0
  0
SPLINE
  5
4a5
100
AcDbEntity
  8
0
 62
7
100
AcDbSpline
 70
8
 71
3
 72
8
 73
4
 74
0
 40
0
 40
0
 40
0
 40
0
 40
1
 40
1
 40
1
 40
1
 10
427.767016
 20
22.265152
 30
0.0
 10
430.876428
 20
22.265152
 30
0.0
 10
433.397096
 20
19.744476
 30
0.0
 10
433.397096
 20
16.635067
 30
0.0
  0
LINE
  5
4a6
100
AcDbEntity
  8
0
 62
7
100
AcDbLine
 10
433.397096
 20
16.635067
 30
0.0
 11
433.397096
 21
16.635067
 31
0.0
  0
LINE
  5
4a7
100
AcDbEntity
  8
0
 62
7
100
AcDbLine
 10
449.428926
 20
23.878210
 30
0.0
 11
453.424939
 21
23.878210
 31
0.0
  0
LINE
  5
4a8
100
AcDbEntity
  8
0
 62
7
100
AcDbLine
 10
449.445239
 20
263.883535
 30
0.0
 11
453.424939
 21
263.867225
 31
0.0
  0
LINE
  5
4a9
100
AcDbEntity
  8
0
 62
7
100
AcDbLine
 10
180.423975
 20
263.867225
 30
0.0
 11
184.436298
 21
263.883534
 31
0.0
  0
LINE
  5
4aa
100
AcDbEntity
  8
0
 62
7
100
AcDbLine
 10
180.423975
 20
23.894522
 30
0.0
 11
184.436298
 21
23.878210
 31
0.0
  0
ENDSEC
  0
SECTION
  2
OBJECTS
  0
DICTIONARY
  5
C
330
0
100
AcDbDictionary
  3
ACAD_GROUP
350
D
  3
ACAD_MLINESTYLE
350
17
  0
DICTIONARY
  5
D
330
C
100
AcDbDictionary
  0
DICTIONARY
  5
1A
330
C
100
AcDbDictionary
  0
DICTIONARY
  5
17
330
C
100
AcDbDictionary
  3
STANDARD
350
18
  0
DICTIONARY
  5
19
330
C
100
AcDbDictionary
  0
ENDSEC
  0
EOF
