<?xml version="1.0" encoding="UTF-8" standalone="no"?>
<svg
   xmlns:dc="http://purl.org/dc/elements/1.1/"
   xmlns:cc="http://creativecommons.org/ns#"
   xmlns:rdf="http://www.w3.org/1999/02/22-rdf-syntax-ns#"
   xmlns:svg="http://www.w3.org/2000/svg"
   xmlns="http://www.w3.org/2000/svg"
   xmlns:sodipodi="http://sodipodi.sourceforge.net/DTD/sodipodi-0.dtd"
   xmlns:inkscape="http://www.inkscape.org/namespaces/inkscape"
   version="1.1"
   width="1736.2205"
   height="1027.5591"
   viewBox="0 0 1736.2218 1027.5599"
   id="svg3101"
   inkscape:version="0.48.4 r9939"
   sodipodi:docname="caseplans_backonly.svg">
  <metadata
     id="metadata3131">
    <rdf:RDF>
      <cc:Work
         rdf:about="">
        <dc:format>image/svg+xml</dc:format>
        <dc:type
           rdf:resource="http://purl.org/dc/dcmitype/StillImage" />
        <dc:title></dc:title>
      </cc:Work>
    </rdf:RDF>
  </metadata>
  <defs
     id="defs3129" />
  <sodipodi:namedview
     pagecolor="#ffffff"
     bordercolor="#666666"
     borderopacity="1"
     objecttolerance="10"
     gridtolerance="10"
     guidetolerance="10"
     inkscape:pageopacity="0"
     inkscape:pageshadow="2"
     inkscape:window-width="1440"
     inkscape:window-height="840"
     id="namedview3127"
     showgrid="false"
     inkscape:zoom="17.303366"
     inkscape:cx="663.43922"
     inkscape:cy="89.33395"
     inkscape:window-x="0"
     inkscape:window-y="25"
     inkscape:window-maximized="1"
     inkscape:current-layer="svg3101"
     units="mm"
     inkscape:document-units="mm" />
  <!-- Front-->
  <!-- Back-->
  <g
     transform="translate(639.36279,92.577815)"
     id="g3107"
     style="fill:none;stroke:#ff0000;stroke-width:0.09566937;stroke-miterlimit:3.04999995;stroke-dasharray:none">
    <polygon
       style="fill:none;stroke:#ff0000;stroke-width:0.09566937;stroke-miterlimit:3.04999995;stroke-dasharray:none"
       points="221.45687,0 221.45687,14.17324 235.63012,14.17324 235.63012,0 249.80336,0 249.80336,14.17324 263.97659,14.17324 263.97659,0 278.14983,0 278.14983,14.17324 292.32307,14.17324 292.32307,0 306.49631,0 306.49631,14.17324 320.66955,14.17324 320.66955,0 334.84279,0 334.84279,14.17324 349.01603,14.17324 349.01603,0 363.18927,0 363.18927,14.17324 377.36251,14.17324 377.36251,0 391.53575,0 391.53575,14.17324 405.70899,14.17324 405.70899,0 419.88223,0 419.88223,14.17324 434.05548,14.17324 434.05548,0 448.22871,0 448.22871,14.17324 462.40195,14.17324 462.40195,0 476.57519,0 476.57519,14.17324 490.74843,14.17324 490.74843,0 504.92167,0 504.92167,14.17324 519.09492,14.17324 519.09492,0 533.26815,0 533.26815,14.17324 547.44139,14.17324 547.44139,0 561.61464,0 561.61464,14.17324 575.78787,14.17324 575.78787,0 589.96111,0 589.96111,14.17324 604.13435,14.17324 604.13435,0 618.30759,0 618.30759,14.17324 632.48083,14.17324 632.48083,0 646.65407,0 646.65407,14.17324 660.82731,14.17324 660.82731,0 675.00055,0 675.00055,14.17324 689.17379,14.17324 689.17379,0 703.34704,0 703.34704,14.17324 717.52027,14.17324 717.52027,0 731.69351,0 731.69351,14.17324 745.86676,14.17324 745.86676,0 760.03999,0 760.03999,14.17324 774.21323,14.17324 774.21323,0 788.38648,0 788.38648,14.17324 802.55971,14.17324 802.55971,0 816.73295,0 816.73295,14.17324 830.9062,14.17324 830.9062,0 845.07943,0 845.07943,14.17324 859.25267,14.17324 859.25267,0 873.42591,0 873.42591,14.17324 887.59915,14.17324 887.59915,0 901.77239,0 901.77239,14.17324 915.94563,14.17324 915.94563,0 930.11888,0 930.11888,14.17324 948.72125,14.17324 948.72125,0 967.32363,0 967.32363,17.71655 953.15039,17.71655 953.15039,35.4331 967.32363,35.4331 967.32363,49.60634 953.15039,49.60634 953.15039,63.77958 967.32363,63.77958 967.32363,77.95282 953.15039,77.95282 953.15039,92.12606 967.32363,92.12606 967.32363,106.2993 953.15039,106.2993 953.15039,120.47254 967.32363,120.47254 967.32363,134.64578 953.15039,134.64578 953.15039,148.81902 967.32363,148.81902 967.32363,162.99226 953.15039,162.99226 953.15039,177.1655 967.32363,177.1655 967.32363,191.33874 953.15039,191.33874 953.15039,205.51198 967.32363,205.51198 967.32363,219.68522 953.15039,219.68522 953.15039,233.85846 967.32363,233.85846 967.32363,248.0317 953.15039,248.0317 953.15039,262.20494 967.32363,262.20494 967.32363,276.37818 953.15039,276.37818 953.15039,290.55142 967.32363,290.55142 967.32363,304.72466 953.15039,304.72466 953.15039,318.8979 967.32363,318.8979 967.32363,333.07114 953.15039,333.07114 953.15039,347.24438 967.32363,347.24438 967.32363,361.41762 953.15039,361.41762 953.15039,375.59086 967.32363,375.59086 967.32363,389.7641 953.15039,389.7641 953.15039,403.93734 967.32363,403.93734 967.32363,418.11058 953.15039,418.11058 953.15039,432.28382 967.32363,432.28382 967.32363,446.45706 953.15039,446.45706 953.15039,460.6303 967.32363,460.6303 967.32363,474.80354 953.15039,474.80354 953.15039,488.97678 967.32363,488.97678 967.32363,503.15002 953.15039,503.15002 953.15039,517.32326 967.32363,517.32326 967.32363,531.4965 953.15039,531.4965 953.15039,545.66974 967.32363,545.66974 967.32363,559.84298 953.15039,559.84298 953.15039,574.01622 967.32363,574.01622 967.32363,588.18946 953.15039,588.18946 953.15039,602.3627 967.32363,602.3627 967.32363,616.53594 953.15039,616.53594 953.15039,630.70918 967.32363,630.70918 967.32363,644.88242 953.15039,644.88242 953.15039,659.05566 967.32363,659.05566 967.32363,673.2289 953.15039,673.2289 953.15039,687.40214 967.32363,687.40214 967.32363,701.57538 953.15039,701.57538 953.15039,715.74862 967.32363,715.74862 967.32363,729.92186 953.15039,729.92186 953.15039,744.0951 967.32363,744.0951 967.32363,758.26834 953.15039,758.26834 953.15039,772.44158 967.32363,772.44158 967.32363,786.61482 953.15039,786.61482 953.15039,800.78806 967.32363,800.78806 967.32363,814.9613 953.15039,814.9613 953.15039,832.67785 967.32363,832.67785 967.32363,850.3944 948.72125,850.3944 948.72125,836.22116 930.11888,836.22116 930.11888,850.3944 915.94563,850.3944 915.94563,836.22116 901.77239,836.22116 901.77239,850.3944 887.59915,850.3944 887.59915,836.22116 873.42591,836.22116 873.42591,850.3944 859.25267,850.3944 859.25267,836.22116 845.07943,836.22116 845.07943,850.3944 830.9062,850.3944 830.9062,836.22116 816.73295,836.22116 816.73295,850.3944 802.55971,850.3944 802.55971,836.22116 788.38648,836.22116 788.38648,850.3944 774.21323,850.3944 774.21323,836.22116 760.03999,836.22116 760.03999,850.3944 745.86676,850.3944 745.86676,836.22116 731.69351,836.22116 731.69351,850.3944 717.52027,850.3944 717.52027,836.22116 703.34704,836.22116 703.34704,850.3944 689.17379,850.3944 689.17379,836.22116 675.00055,836.22116 675.00055,850.3944 660.82731,850.3944 660.82731,836.22116 646.65407,836.22116 646.65407,850.3944 632.48083,850.3944 632.48083,836.22116 618.30759,836.22116 618.30759,850.3944 604.13435,850.3944 604.13435,836.22116 589.96111,836.22116 589.96111,850.3944 575.78787,850.3944 575.78787,836.22116 561.61464,836.22116 561.61464,850.3944 547.44139,850.3944 547.44139,836.22116 533.26815,836.22116 533.26815,850.3944 519.09492,850.3944 519.09492,836.22116 504.92167,836.22116 504.92167,850.3944 490.74843,850.3944 490.74843,836.22116 476.57519,836.22116 476.57519,850.3944 462.40195,850.3944 462.40195,836.22116 448.22871,836.22116 448.22871,850.3944 434.05548,850.3944 434.05548,836.22116 419.88223,836.22116 419.88223,850.3944 405.70899,850.3944 405.70899,836.22116 391.53575,836.22116 391.53575,850.3944 377.36251,850.3944 377.36251,836.22116 363.18927,836.22116 363.18927,850.3944 349.01603,850.3944 349.01603,836.22116 334.84279,836.22116 334.84279,850.3944 320.66955,850.3944 320.66955,836.22116 306.49631,836.22116 306.49631,850.3944 292.32307,850.3944 292.32307,836.22116 278.14983,836.22116 278.14983,850.3944 263.97659,850.3944 263.97659,836.22116 249.80336,836.22116 249.80336,850.3944 235.63012,850.3944 235.63012,836.22116 221.45687,836.22116 221.45687,850.3944 207.28364,850.3944 207.28364,836.22116 193.1104,836.22116 193.1104,850.3944 178.93715,850.3944 178.93715,836.22116 164.76391,836.22116 164.76391,850.3944 150.59068,850.3944 150.59068,836.22116 136.41744,836.22116 136.41744,850.3944 122.24419,850.3944 122.24419,836.22116 108.07095,836.22116 108.07095,850.3944 93.897715,850.3944 93.897715,836.22116 79.724475,836.22116 79.724475,850.3944 65.551235,850.3944 65.551235,836.22116 51.377995,836.22116 51.377995,850.3944 37.204755,850.3944 37.204755,836.22116 18.602377,836.22116 18.602377,850.3944 0,850.3944 0,832.67785 14.17324,832.67785 14.17324,814.9613 0,814.9613 0,800.78806 14.17324,800.78806 14.17324,786.61482 0,786.61482 0,772.44158 14.17324,772.44158 14.17324,758.26834 0,758.26834 0,744.0951 14.17324,744.0951 14.17324,729.92186 0,729.92186 0,715.74862 14.17324,715.74862 14.17324,701.57538 0,701.57538 0,687.40214 14.17324,687.40214 14.17324,673.2289 0,673.2289 0,659.05566 14.17324,659.05566 14.17324,644.88242 0,644.88242 0,630.70918 14.17324,630.70918 14.17324,616.53594 0,616.53594 0,602.3627 14.17324,602.3627 14.17324,588.18946 0,588.18946 0,574.01622 14.17324,574.01622 14.17324,559.84298 0,559.84298 0,545.66974 14.17324,545.66974 14.17324,531.4965 0,531.4965 0,517.32326 14.17324,517.32326 14.17324,503.15002 0,503.15002 0,488.97678 14.17324,488.97678 14.17324,474.80354 0,474.80354 0,460.6303 14.17324,460.6303 14.17324,446.45706 0,446.45706 0,432.28382 14.17324,432.28382 14.17324,418.11058 0,418.11058 0,403.93734 14.17324,403.93734 14.17324,389.7641 0,389.7641 0,375.59086 14.17324,375.59086 14.17324,361.41762 0,361.41762 0,347.24438 14.17324,347.24438 14.17324,333.07114 0,333.07114 0,318.8979 14.17324,318.8979 14.17324,304.72466 0,304.72466 0,290.55142 14.17324,290.55142 14.17324,276.37818 0,276.37818 0,262.20494 14.17324,262.20494 14.17324,248.0317 0,248.0317 0,233.85846 14.17324,233.85846 14.17324,219.68522 0,219.68522 0,205.51198 14.17324,205.51198 14.17324,191.33874 0,191.33874 0,177.1655 14.17324,177.1655 14.17324,162.99226 0,162.99226 0,148.81902 14.17324,148.81902 14.17324,134.64578 0,134.64578 0,120.47254 14.17324,120.47254 14.17324,106.2993 0,106.2993 0,92.12606 14.17324,92.12606 14.17324,77.95282 0,77.95282 0,63.77958 14.17324,63.77958 14.17324,49.60634 0,49.60634 0,35.4331 14.17324,35.4331 14.17324,17.71655 0,17.71655 0,0 18.602377,0 18.602377,14.17324 37.204755,14.17324 37.204755,0 51.377995,0 51.377995,14.17324 65.551235,14.17324 65.551235,0 79.724475,0 79.724475,14.17324 93.897715,14.17324 93.897715,0 108.07095,0 108.07095,14.17324 122.24419,14.17324 122.24419,0 136.41744,0 136.41744,14.17324 150.59068,14.17324 150.59068,0 164.76391,0 164.76391,14.17324 178.93715,14.17324 178.93715,0 193.1104,0 193.1104,14.17324 207.28364,14.17324 207.28364,0 "
       id="polygon3109" />
  </g>
  <!-- Left-->
  <g
     transform="translate(1592.4847,92.577815)"
     id="g3111"
     style="stroke-width:0.09566937;stroke-miterlimit:3.04999995;stroke-dasharray:none">
    <polygon
       style="fill:none;stroke:#000000;stroke-width:0.09566937;stroke-miterlimit:3.04999995;stroke-dasharray:none"
       points="81.49613,347.24438 67.32289,347.24438 67.32289,361.41762 81.49613,361.41762 81.49613,375.59086 67.32289,375.59086 67.32289,389.7641 81.49613,389.7641 81.49613,403.93734 67.32289,403.93734 67.32289,418.11058 81.49613,418.11058 81.49613,432.28382 67.32289,432.28382 67.32289,446.45706 81.49613,446.45706 81.49613,460.6303 67.32289,460.6303 67.32289,474.80354 81.49613,474.80354 81.49613,488.97678 67.32289,488.97678 67.32289,503.15002 81.49613,503.15002 81.49613,517.32326 67.32289,517.32326 67.32289,531.4965 81.49613,531.4965 81.49613,545.66974 67.32289,545.66974 67.32289,559.84298 81.49613,559.84298 81.49613,574.01622 67.32289,574.01622 67.32289,588.18946 81.49613,588.18946 81.49613,602.3627 67.32289,602.3627 67.32289,616.53594 81.49613,616.53594 81.49613,630.70918 67.32289,630.70918 67.32289,644.88242 81.49613,644.88242 81.49613,659.05566 67.32289,659.05566 67.32289,673.2289 81.49613,673.2289 81.49613,687.40214 67.32289,687.40214 67.32289,701.57538 81.49613,701.57538 81.49613,715.74862 67.32289,715.74862 67.32289,729.92186 81.49613,729.92186 81.49613,744.0951 67.32289,744.0951 67.32289,758.26834 81.49613,758.26834 81.49613,772.44158 67.32289,772.44158 67.32289,786.61482 81.49613,786.61482 81.49613,800.78806 67.32289,800.78806 67.32289,814.9613 81.49613,814.9613 81.49613,832.67785 67.32289,832.67785 67.32289,850.3944 65.196904,850.3944 65.196904,836.22116 48.897678,836.22116 48.897678,850.3944 32.598452,850.3944 32.598452,836.22116 16.299226,836.22116 16.299226,850.3944 14.17324,850.3944 14.17324,832.67785 0,832.67785 0,814.9613 14.17324,814.9613 14.17324,800.78806 0,800.78806 0,786.61482 14.17324,786.61482 14.17324,772.44158 0,772.44158 0,758.26834 14.17324,758.26834 14.17324,744.0951 0,744.0951 0,729.92186 14.17324,729.92186 14.17324,715.74862 0,715.74862 0,701.57538 14.17324,701.57538 14.17324,687.40214 0,687.40214 0,673.2289 14.17324,673.2289 14.17324,659.05566 0,659.05566 0,644.88242 14.17324,644.88242 14.17324,630.70918 0,630.70918 0,616.53594 14.17324,616.53594 14.17324,602.3627 0,602.3627 0,588.18946 14.17324,588.18946 14.17324,574.01622 0,574.01622 0,559.84298 14.17324,559.84298 14.17324,545.66974 0,545.66974 0,531.4965 14.17324,531.4965 14.17324,517.32326 0,517.32326 0,503.15002 14.17324,503.15002 14.17324,488.97678 0,488.97678 0,474.80354 14.17324,474.80354 14.17324,460.6303 0,460.6303 0,446.45706 14.17324,446.45706 14.17324,432.28382 0,432.28382 0,418.11058 14.17324,418.11058 14.17324,403.93734 0,403.93734 0,389.7641 14.17324,389.7641 14.17324,375.59086 0,375.59086 0,361.41762 14.17324,361.41762 14.17324,347.24438 0,347.24438 0,333.07114 14.17324,333.07114 14.17324,318.8979 0,318.8979 0,304.72466 14.17324,304.72466 14.17324,290.55142 0,290.55142 0,276.37818 14.17324,276.37818 14.17324,262.20494 0,262.20494 0,248.0317 14.17324,248.0317 14.17324,233.85846 0,233.85846 0,219.68522 14.17324,219.68522 14.17324,205.51198 0,205.51198 0,191.33874 14.17324,191.33874 14.17324,177.1655 0,177.1655 0,162.99226 14.17324,162.99226 14.17324,148.81902 0,148.81902 0,134.64578 14.17324,134.64578 14.17324,120.47254 0,120.47254 0,106.2993 14.17324,106.2993 14.17324,92.12606 0,92.12606 0,77.95282 14.17324,77.95282 14.17324,63.77958 0,63.77958 0,49.60634 14.17324,49.60634 14.17324,35.4331 0,35.4331 0,17.71655 14.17324,17.71655 14.17324,0 16.299226,0 16.299226,14.17324 32.598452,14.17324 32.598452,0 48.897678,0 48.897678,14.17324 65.196904,14.17324 65.196904,0 67.32289,0 67.32289,17.71655 81.49613,17.71655 81.49613,35.4331 67.32289,35.4331 67.32289,49.60634 81.49613,49.60634 81.49613,63.77958 67.32289,63.77958 67.32289,77.95282 81.49613,77.95282 81.49613,92.12606 67.32289,92.12606 67.32289,106.2993 81.49613,106.2993 81.49613,120.47254 67.32289,120.47254 67.32289,134.64578 81.49613,134.64578 81.49613,148.81902 67.32289,148.81902 67.32289,162.99226 81.49613,162.99226 81.49613,177.1655 67.32289,177.1655 67.32289,191.33874 81.49613,191.33874 81.49613,205.51198 67.32289,205.51198 67.32289,219.68522 81.49613,219.68522 81.49613,233.85846 67.32289,233.85846 67.32289,248.0317 81.49613,248.0317 81.49613,262.20494 67.32289,262.20494 67.32289,276.37818 81.49613,276.37818 81.49613,290.55142 67.32289,290.55142 67.32289,304.72466 81.49613,304.72466 81.49613,318.8979 67.32289,318.8979 67.32289,333.07114 81.49613,333.07114 "
       id="polygon3113" />
  </g>
  <!-- Right-->
  <g
     transform="translate(572.02328,92.592529)"
     id="g3115"
     style="stroke-width:0.09566937;stroke-miterlimit:3.04999995;stroke-dasharray:none">
    <polygon
       style="fill:none;stroke:#000000;stroke-width:0.09566937;stroke-miterlimit:3.04999995;stroke-dasharray:none"
       points="67.32289,545.66974 67.32289,559.84298 81.49613,559.84298 81.49613,574.01622 67.32289,574.01622 67.32289,588.18946 81.49613,588.18946 81.49613,602.3627 67.32289,602.3627 67.32289,616.53594 81.49613,616.53594 81.49613,630.70918 67.32289,630.70918 67.32289,644.88242 81.49613,644.88242 81.49613,659.05566 67.32289,659.05566 67.32289,673.2289 81.49613,673.2289 81.49613,687.40214 67.32289,687.40214 67.32289,701.57538 81.49613,701.57538 81.49613,715.74862 67.32289,715.74862 67.32289,729.92186 81.49613,729.92186 81.49613,744.0951 67.32289,744.0951 67.32289,758.26834 81.49613,758.26834 81.49613,772.44158 67.32289,772.44158 67.32289,786.61482 81.49613,786.61482 81.49613,800.78806 67.32289,800.78806 67.32289,814.9613 81.49613,814.9613 81.49613,832.67785 67.32289,832.67785 67.32289,850.3944 65.196904,850.3944 65.196904,836.22116 48.897678,836.22116 48.897678,850.3944 32.598452,850.3944 32.598452,836.22116 16.299226,836.22116 16.299226,850.3944 14.17324,850.3944 14.17324,832.67785 0,832.67785 0,814.9613 14.17324,814.9613 14.17324,800.78806 0,800.78806 0,786.61482 14.17324,786.61482 14.17324,772.44158 0,772.44158 0,758.26834 14.17324,758.26834 14.17324,744.0951 0,744.0951 0,729.92186 14.17324,729.92186 14.17324,715.74862 0,715.74862 0,701.57538 14.17324,701.57538 14.17324,687.40214 0,687.40214 0,673.2289 14.17324,673.2289 14.17324,659.05566 0,659.05566 0,644.88242 14.17324,644.88242 14.17324,630.70918 0,630.70918 0,616.53594 14.17324,616.53594 14.17324,602.3627 0,602.3627 0,588.18946 14.17324,588.18946 14.17324,574.01622 0,574.01622 0,559.84298 14.17324,559.84298 14.17324,545.66974 0,545.66974 0,531.4965 14.17324,531.4965 14.17324,517.32326 0,517.32326 0,503.15002 14.17324,503.15002 14.17324,488.97678 0,488.97678 0,474.80354 14.17324,474.80354 14.17324,460.6303 0,460.6303 0,446.45706 14.17324,446.45706 14.17324,432.28382 0,432.28382 0,418.11058 14.17324,418.11058 14.17324,403.93734 0,403.93734 0,389.7641 14.17324,389.7641 14.17324,375.59086 0,375.59086 0,361.41762 14.17324,361.41762 14.17324,347.24438 0,347.24438 0,333.07114 14.17324,333.07114 14.17324,318.8979 0,318.8979 0,304.72466 14.17324,304.72466 14.17324,290.55142 0,290.55142 0,276.37818 14.17324,276.37818 14.17324,262.20494 0,262.20494 0,248.0317 14.17324,248.0317 14.17324,233.85846 0,233.85846 0,219.68522 14.17324,219.68522 14.17324,205.51198 0,205.51198 0,191.33874 14.17324,191.33874 14.17324,177.1655 0,177.1655 0,162.99226 14.17324,162.99226 14.17324,148.81902 0,148.81902 0,134.64578 14.17324,134.64578 14.17324,120.47254 0,120.47254 0,106.2993 14.17324,106.2993 14.17324,92.12606 0,92.12606 0,77.95282 14.17324,77.95282 14.17324,63.77958 0,63.77958 0,49.60634 14.17324,49.60634 14.17324,35.4331 0,35.4331 0,17.71655 14.17324,17.71655 14.17324,0 16.299226,0 16.299226,14.17324 32.598452,14.17324 32.598452,0 48.897678,0 48.897678,14.17324 65.196904,14.17324 65.196904,0 67.32289,0 67.32289,17.71655 81.49613,17.71655 81.49613,35.4331 67.32289,35.4331 67.32289,49.60634 81.49613,49.60634 81.49613,63.77958 67.32289,63.77958 67.32289,77.95282 81.49613,77.95282 81.49613,92.12606 67.32289,92.12606 67.32289,106.2993 81.49613,106.2993 81.49613,120.47254 67.32289,120.47254 67.32289,134.64578 81.49613,134.64578 81.49613,148.81902 67.32289,148.81902 67.32289,162.99226 81.49613,162.99226 81.49613,177.1655 67.32289,177.1655 67.32289,191.33874 81.49613,191.33874 81.49613,205.51198 67.32289,205.51198 67.32289,219.68522 81.49613,219.68522 81.49613,233.85846 67.32289,233.85846 67.32289,248.0317 81.49613,248.0317 81.49613,262.20494 67.32289,262.20494 67.32289,276.37818 81.49613,276.37818 81.49613,290.55142 67.32289,290.55142 67.32289,304.72466 81.49613,304.72466 81.49613,318.8979 67.32289,318.8979 67.32289,333.07114 81.49613,333.07114 81.49613,347.24438 67.32289,347.24438 67.32289,361.41762 81.49613,361.41762 81.49613,375.59086 67.32289,375.59086 67.32289,389.7641 81.49613,389.7641 81.49613,403.93734 67.32289,403.93734 67.32289,418.11058 81.49613,418.11058 81.49613,432.28382 67.32289,432.28382 67.32289,446.45706 81.49613,446.45706 81.49613,460.6303 67.32289,460.6303 67.32289,474.80354 81.49613,474.80354 81.49613,488.97678 67.32289,488.97678 67.32289,503.15002 81.49613,503.15002 81.49613,517.32326 67.32289,517.32326 67.32289,531.4965 81.49613,531.4965 81.49613,545.66974 "
       id="polygon3117" />
  </g>
  <!-- Top-->
  <g
     transform="translate(639.37701,25.252699)"
     id="g3119"
     style="stroke-width:0.09566937;stroke-miterlimit:3.04999995;stroke-dasharray:none">
    <polygon
       style="fill:none;stroke:#000000;stroke-width:0.09566937;stroke-miterlimit:3.04999995;stroke-dasharray:none"
       points="434.05548,14.17324 448.22871,14.17324 448.22871,0 462.40195,0 462.40195,14.17324 476.57519,14.17324 476.57519,0 490.74843,0 490.74843,14.17324 504.92167,14.17324 504.92167,0 519.09492,0 519.09492,14.17324 533.26815,14.17324 533.26815,0 547.44139,0 547.44139,14.17324 561.61464,14.17324 561.61464,0 575.78787,0 575.78787,14.17324 589.96111,14.17324 589.96111,0 604.13435,0 604.13435,14.17324 618.30759,14.17324 618.30759,0 632.48083,0 632.48083,14.17324 646.65407,14.17324 646.65407,0 660.82731,0 660.82731,14.17324 675.00055,14.17324 675.00055,0 689.17379,0 689.17379,14.17324 703.34704,14.17324 703.34704,0 717.52027,0 717.52027,14.17324 731.69351,14.17324 731.69351,0 745.86676,0 745.86676,14.17324 760.03999,14.17324 760.03999,0 774.21323,0 774.21323,14.17324 788.38648,14.17324 788.38648,0 802.55971,0 802.55971,14.17324 816.73295,14.17324 816.73295,0 830.9062,0 830.9062,14.17324 845.07943,14.17324 845.07943,0 859.25267,0 859.25267,14.17324 873.42591,14.17324 873.42591,0 887.59915,0 887.59915,14.17324 901.77239,14.17324 901.77239,0 915.94563,0 915.94563,14.17324 930.11888,14.17324 930.11888,0 948.72125,0 948.72125,14.17324 953.15039,14.17324 953.15039,16.299226 967.32363,16.299226 967.32363,32.598452 953.15039,32.598452 953.15039,48.897678 967.32363,48.897678 967.32363,65.196904 953.15039,65.196904 953.15039,67.32289 948.72125,67.32289 948.72125,81.49613 930.11888,81.49613 930.11888,67.32289 915.94563,67.32289 915.94563,81.49613 901.77239,81.49613 901.77239,67.32289 887.59915,67.32289 887.59915,81.49613 873.42591,81.49613 873.42591,67.32289 859.25267,67.32289 859.25267,81.49613 845.07943,81.49613 845.07943,67.32289 830.9062,67.32289 830.9062,81.49613 816.73295,81.49613 816.73295,67.32289 802.55971,67.32289 802.55971,81.49613 788.38648,81.49613 788.38648,67.32289 774.21323,67.32289 774.21323,81.49613 760.03999,81.49613 760.03999,67.32289 745.86676,67.32289 745.86676,81.49613 731.69351,81.49613 731.69351,67.32289 717.52027,67.32289 717.52027,81.49613 703.34704,81.49613 703.34704,67.32289 689.17379,67.32289 689.17379,81.49613 675.00055,81.49613 675.00055,67.32289 660.82731,67.32289 660.82731,81.49613 646.65407,81.49613 646.65407,67.32289 632.48083,67.32289 632.48083,81.49613 618.30759,81.49613 618.30759,67.32289 604.13435,67.32289 604.13435,81.49613 589.96111,81.49613 589.96111,67.32289 575.78787,67.32289 575.78787,81.49613 561.61464,81.49613 561.61464,67.32289 547.44139,67.32289 547.44139,81.49613 533.26815,81.49613 533.26815,67.32289 519.09492,67.32289 519.09492,81.49613 504.92167,81.49613 504.92167,67.32289 490.74843,67.32289 490.74843,81.49613 476.57519,81.49613 476.57519,67.32289 462.40195,67.32289 462.40195,81.49613 448.22871,81.49613 448.22871,67.32289 434.05548,67.32289 434.05548,81.49613 419.88223,81.49613 419.88223,67.32289 405.70899,67.32289 405.70899,81.49613 391.53575,81.49613 391.53575,67.32289 377.36251,67.32289 377.36251,81.49613 363.18927,81.49613 363.18927,67.32289 349.01603,67.32289 349.01603,81.49613 334.84279,81.49613 334.84279,67.32289 320.66955,67.32289 320.66955,81.49613 306.49631,81.49613 306.49631,67.32289 292.32307,67.32289 292.32307,81.49613 278.14983,81.49613 278.14983,67.32289 263.97659,67.32289 263.97659,81.49613 249.80336,81.49613 249.80336,67.32289 235.63012,67.32289 235.63012,81.49613 221.45687,81.49613 221.45687,67.32289 207.28364,67.32289 207.28364,81.49613 193.1104,81.49613 193.1104,67.32289 178.93715,67.32289 178.93715,81.49613 164.76391,81.49613 164.76391,67.32289 150.59068,67.32289 150.59068,81.49613 136.41744,81.49613 136.41744,67.32289 122.24419,67.32289 122.24419,81.49613 108.07095,81.49613 108.07095,67.32289 93.897715,67.32289 93.897715,81.49613 79.724475,81.49613 79.724475,67.32289 65.551235,67.32289 65.551235,81.49613 51.377995,81.49613 51.377995,67.32289 37.204755,67.32289 37.204755,81.49613 18.602377,81.49613 18.602377,67.32289 14.17324,67.32289 14.17324,65.196904 0,65.196904 0,48.897678 14.17324,48.897678 14.17324,32.598452 0,32.598452 0,16.299226 14.17324,16.299226 14.17324,14.17324 18.602377,14.17324 18.602377,0 37.204755,0 37.204755,14.17324 51.377995,14.17324 51.377995,0 65.551235,0 65.551235,14.17324 79.724475,14.17324 79.724475,0 93.897715,0 93.897715,14.17324 108.07095,14.17324 108.07095,0 122.24419,0 122.24419,14.17324 136.41744,14.17324 136.41744,0 150.59068,0 150.59068,14.17324 164.76391,14.17324 164.76391,0 178.93715,0 178.93715,14.17324 193.1104,14.17324 193.1104,0 207.28364,0 207.28364,14.17324 221.45687,14.17324 221.45687,0 235.63012,0 235.63012,14.17324 249.80336,14.17324 249.80336,0 263.97659,0 263.97659,14.17324 278.14983,14.17324 278.14983,0 292.32307,0 292.32307,14.17324 306.49631,14.17324 306.49631,0 320.66955,0 320.66955,14.17324 334.84279,14.17324 334.84279,0 349.01603,0 349.01603,14.17324 363.18927,14.17324 363.18927,0 377.36251,0 377.36251,14.17324 391.53575,14.17324 391.53575,0 405.70899,0 405.70899,14.17324 419.88223,14.17324 419.88223,0 434.05548,0 "
       id="polygon3121" />
  </g>
  <!-- Bottom-->
  <g
     transform="translate(639.36279,928.80876)"
     id="g3123"
     style="stroke-width:0.09566937;stroke-miterlimit:3.04999995;stroke-dasharray:none">
    <polygon
       style="fill:none;stroke:#000000;stroke-width:0.09566937;stroke-miterlimit:3.04999995;stroke-dasharray:none"
       points="363.18927,14.17324 363.18927,0 377.36251,0 377.36251,14.17324 391.53575,14.17324 391.53575,0 405.70899,0 405.70899,14.17324 419.88223,14.17324 419.88223,0 434.05548,0 434.05548,14.17324 448.22871,14.17324 448.22871,0 462.40195,0 462.40195,14.17324 476.57519,14.17324 476.57519,0 490.74843,0 490.74843,14.17324 504.92167,14.17324 504.92167,0 519.09492,0 519.09492,14.17324 533.26815,14.17324 533.26815,0 547.44139,0 547.44139,14.17324 561.61464,14.17324 561.61464,0 575.78787,0 575.78787,14.17324 589.96111,14.17324 589.96111,0 604.13435,0 604.13435,14.17324 618.30759,14.17324 618.30759,0 632.48083,0 632.48083,14.17324 646.65407,14.17324 646.65407,0 660.82731,0 660.82731,14.17324 675.00055,14.17324 675.00055,0 689.17379,0 689.17379,14.17324 703.34704,14.17324 703.34704,0 717.52027,0 717.52027,14.17324 731.69351,14.17324 731.69351,0 745.86676,0 745.86676,14.17324 760.03999,14.17324 760.03999,0 774.21323,0 774.21323,14.17324 788.38648,14.17324 788.38648,0 802.55971,0 802.55971,14.17324 816.73295,14.17324 816.73295,0 830.9062,0 830.9062,14.17324 845.07943,14.17324 845.07943,0 859.25267,0 859.25267,14.17324 873.42591,14.17324 873.42591,0 887.59915,0 887.59915,14.17324 901.77239,14.17324 901.77239,0 915.94563,0 915.94563,14.17324 930.11888,14.17324 930.11888,0 948.72125,0 948.72125,14.17324 953.15039,14.17324 953.15039,16.299226 967.32363,16.299226 967.32363,32.598452 953.15039,32.598452 953.15039,48.897678 967.32363,48.897678 967.32363,65.196904 953.15039,65.196904 953.15039,67.32289 948.72125,67.32289 948.72125,81.49613 930.11888,81.49613 930.11888,67.32289 915.94563,67.32289 915.94563,81.49613 901.77239,81.49613 901.77239,67.32289 887.59915,67.32289 887.59915,81.49613 873.42591,81.49613 873.42591,67.32289 859.25267,67.32289 859.25267,81.49613 845.07943,81.49613 845.07943,67.32289 830.9062,67.32289 830.9062,81.49613 816.73295,81.49613 816.73295,67.32289 802.55971,67.32289 802.55971,81.49613 788.38648,81.49613 788.38648,67.32289 774.21323,67.32289 774.21323,81.49613 760.03999,81.49613 760.03999,67.32289 745.86676,67.32289 745.86676,81.49613 731.69351,81.49613 731.69351,67.32289 717.52027,67.32289 717.52027,81.49613 703.34704,81.49613 703.34704,67.32289 689.17379,67.32289 689.17379,81.49613 675.00055,81.49613 675.00055,67.32289 660.82731,67.32289 660.82731,81.49613 646.65407,81.49613 646.65407,67.32289 632.48083,67.32289 632.48083,81.49613 618.30759,81.49613 618.30759,67.32289 604.13435,67.32289 604.13435,81.49613 589.96111,81.49613 589.96111,67.32289 575.78787,67.32289 575.78787,81.49613 561.61464,81.49613 561.61464,67.32289 547.44139,67.32289 547.44139,81.49613 533.26815,81.49613 533.26815,67.32289 519.09492,67.32289 519.09492,81.49613 504.92167,81.49613 504.92167,67.32289 490.74843,67.32289 490.74843,81.49613 476.57519,81.49613 476.57519,67.32289 462.40195,67.32289 462.40195,81.49613 448.22871,81.49613 448.22871,67.32289 434.05548,67.32289 434.05548,81.49613 419.88223,81.49613 419.88223,67.32289 405.70899,67.32289 405.70899,81.49613 391.53575,81.49613 391.53575,67.32289 377.36251,67.32289 377.36251,81.49613 363.18927,81.49613 363.18927,67.32289 349.01603,67.32289 349.01603,81.49613 334.84279,81.49613 334.84279,67.32289 320.66955,67.32289 320.66955,81.49613 306.49631,81.49613 306.49631,67.32289 292.32307,67.32289 292.32307,81.49613 278.14983,81.49613 278.14983,67.32289 263.97659,67.32289 263.97659,81.49613 249.80336,81.49613 249.80336,67.32289 235.63012,67.32289 235.63012,81.49613 221.45687,81.49613 221.45687,67.32289 207.28364,67.32289 207.28364,81.49613 193.1104,81.49613 193.1104,67.32289 178.93715,67.32289 178.93715,81.49613 164.76391,81.49613 164.76391,67.32289 150.59068,67.32289 150.59068,81.49613 136.41744,81.49613 136.41744,67.32289 122.24419,67.32289 122.24419,81.49613 108.07095,81.49613 108.07095,67.32289 93.897715,67.32289 93.897715,81.49613 79.724475,81.49613 79.724475,67.32289 65.551235,67.32289 65.551235,81.49613 51.377995,81.49613 51.377995,67.32289 37.204755,67.32289 37.204755,81.49613 18.602377,81.49613 18.602377,67.32289 14.17324,67.32289 14.17324,65.196904 0,65.196904 0,48.897678 14.17324,48.897678 14.17324,32.598452 0,32.598452 0,16.299226 14.17324,16.299226 14.17324,14.17324 18.602377,14.17324 18.602377,0 37.204755,0 37.204755,14.17324 51.377995,14.17324 51.377995,0 65.551235,0 65.551235,14.17324 79.724475,14.17324 79.724475,0 93.897715,0 93.897715,14.17324 108.07095,14.17324 108.07095,0 122.24419,0 122.24419,14.17324 136.41744,14.17324 136.41744,0 150.59068,0 150.59068,14.17324 164.76391,14.17324 164.76391,0 178.93715,0 178.93715,14.17324 193.1104,14.17324 193.1104,0 207.28364,0 207.28364,14.17324 221.45687,14.17324 221.45687,0 235.63012,0 235.63012,14.17324 249.80336,14.17324 249.80336,0 263.97659,0 263.97659,14.17324 278.14983,14.17324 278.14983,0 292.32307,0 292.32307,14.17324 306.49631,14.17324 306.49631,0 320.66955,0 320.66955,14.17324 334.84279,14.17324 334.84279,0 349.01603,0 349.01603,14.17324 "
       id="polygon3125" />
  </g>
  <path
     sodipodi:type="arc"
     style="color:#000000;fill:none;stroke:#000000;stroke-width:0.14243278;stroke-linecap:butt;stroke-linejoin:miter;stroke-miterlimit:3.04999995;stroke-opacity:1;stroke-dasharray:none;stroke-dashoffset:0;marker:none;visibility:visible;display:inline;overflow:visible;enable-background:accumulate"
     id="path3194"
     sodipodi:cx="1592.2914"
     sodipodi:cy="821.11188"
     sodipodi:rx="22.192213"
     sodipodi:ry="22.192213"
     d="m 1614.4836,821.11188 a 22.192213,22.192213 0 1 1 -44.3844,0 22.192213,22.192213 0 1 1 44.3844,0 z"
     transform="matrix(0.67168084,0,0,0.67168084,563.23059,168.41324)" />
  <g
     id="g3862"
     transform="matrix(0,1.0000008,-1.0000008,0,1212.5903,1342.6908)"
     style="stroke-width:0.09566929;stroke-miterlimit:3.04999995;stroke-dasharray:none">
    <rect
       transform="matrix(0,-1,1,0,0,0)"
       y="-510.12701"
       x="243.66367"
       height="88.893425"
       width="119.198"
       id="rect3858"
       style="fill:none;stroke:#ff0000;stroke-width:0.09566929;stroke-linecap:round;stroke-linejoin:round;stroke-miterlimit:3.04999995;stroke-opacity:1;stroke-dasharray:none" />
    <rect
       y="-322.45557"
       x="-420.83359"
       height="38.385796"
       width="90.913727"
       id="rect3860"
       style="fill:none;stroke:#ff0000;stroke-width:0.09566929;stroke-linecap:round;stroke-linejoin:round;stroke-miterlimit:3.04999995;stroke-opacity:1;stroke-dasharray:none" />
  </g>
  <path
     sodipodi:type="arc"
     style="color:#000000;fill:none;stroke:#000000;stroke-width:0.11288241;stroke-linecap:butt;stroke-linejoin:miter;stroke-miterlimit:3.04999995;stroke-opacity:1;stroke-dasharray:none;stroke-dashoffset:0;marker:none;visibility:visible;display:inline;overflow:visible;enable-background:accumulate"
     id="path3220"
     sodipodi:cx="609.38293"
     sodipodi:cy="-94.437851"
     sodipodi:rx="23.538397"
     sodipodi:ry="23.538397"
     d="m 632.92133,-94.437851 a 23.538397,23.538397 0 1 1 -47.07679,0 23.538397,23.538397 0 1 1 47.07679,0 z"
     transform="matrix(0.84751351,0,0,0.84751351,999.24964,1048.6533)" />
  <path
     style="fill:none;stroke:#000000;stroke-width:0.09566937;stroke-linecap:butt;stroke-linejoin:miter;stroke-opacity:1;stroke-miterlimit:3.04999995;stroke-dasharray:none"
     d="m 1592.4647,942.95127 14.1591,0"
     id="path3260"
     inkscape:connector-curvature="0"
     transform="translate(-2.0534729e-5,0)" />
  <path
     style="fill:none;stroke:#000000;stroke-width:0.17716549;stroke-linecap:butt;stroke-linejoin:miter;stroke-opacity:1;stroke-miterlimit:4;stroke-dasharray:none"
     d="m 1592.5225,92.538701 14.1013,0.05779"
     id="path4030"
     inkscape:connector-curvature="0"
     transform="translate(-2.0534729e-5,0)" />
  <path
     style="fill:none;stroke:#000000;stroke-width:0.17716549;stroke-linecap:butt;stroke-linejoin:miter;stroke-opacity:1;stroke-miterlimit:4;stroke-dasharray:none"
     d="m 639.29757,92.596493 14.21689,-0.05779"
     id="path4032"
     inkscape:connector-curvature="0"
     transform="translate(-2.0534729e-5,0)" />
  <path
     style="fill:none;stroke:#000000;stroke-width:0.17716549;stroke-linecap:butt;stroke-linejoin:miter;stroke-opacity:1;stroke-miterlimit:4;stroke-dasharray:none"
     d="m 639.29757,942.89347 14.21689,0.0578"
     id="path4034"
     inkscape:connector-curvature="0"
     transform="translate(-2.0534729e-5,0)" />
</svg>
