<?xml version="1.0" encoding="UTF-8" standalone="no"?>
<!-- Created with Inkscape (http://www.inkscape.org/) -->

<svg
   xmlns:dc="http://purl.org/dc/elements/1.1/"
   xmlns:cc="http://creativecommons.org/ns#"
   xmlns:rdf="http://www.w3.org/1999/02/22-rdf-syntax-ns#"
   xmlns:svg="http://www.w3.org/2000/svg"
   xmlns="http://www.w3.org/2000/svg"
   xmlns:sodipodi="http://sodipodi.sourceforge.net/DTD/sodipodi-0.dtd"
   xmlns:inkscape="http://www.inkscape.org/namespaces/inkscape"
   width="744.09448819"
   height="1052.3622047"
   id="svg3014"
   version="1.1"
   inkscape:version="0.48.4 r9939"
   sodipodi:docname="caseplans_backonly_rest.dxf">
  <defs
     id="defs3016" />
  <sodipodi:namedview
     id="base"
     pagecolor="#ffffff"
     bordercolor="#666666"
     borderopacity="1.0"
     inkscape:pageopacity="0.0"
     inkscape:pageshadow="2"
     inkscape:zoom="0.35"
     inkscape:cx="375"
     inkscape:cy="520"
     inkscape:document-units="px"
     inkscape:current-layer="layer1"
     showgrid="false"
     inkscape:window-width="833"
     inkscape:window-height="541"
     inkscape:window-x="210"
     inkscape:window-y="99"
     inkscape:window-maximized="0" />
  <metadata
     id="metadata3019">
    <rdf:RDF>
      <cc:Work
         rdf:about="">
        <dc:format>image/svg+xml</dc:format>
        <dc:type
           rdf:resource="http://purl.org/dc/dcmitype/StillImage" />
        <dc:title></dc:title>
      </cc:Work>
    </rdf:RDF>
  </metadata>
  <g
     inkscape:label="Layer 1"
     inkscape:groupmode="layer"
     id="layer1">
    <g
       style="stroke:#000000;stroke-width:1.70787537;stroke-miterlimit:4;stroke-opacity:1;stroke-dasharray:none"
       id="g2998"
       transform="matrix(-0.9999992,0,0,-0.9999992,858.66143,573.11022)">
      <path
         style="fill:none;stroke:#000000"
         d="m 434.05548,14.17324 14.17323,0 0,-14.17324 14.17324,0 0,14.17324 14.17324,0 0,-14.17324 14.17324,0 0,14.17324 14.17324,0 0,-14.17324 14.17325,0 0,14.17324 14.17323,0 0,-14.17324 14.17324,0 0,14.17324 14.17325,0 0,-14.17324 14.17323,0 0,14.17324 14.17324,0 0,-14.17324 14.17324,0 0,14.17324 14.17324,0 0,-14.17324 14.17324,0 0,14.17324 14.17324,0 0,-14.17324 14.17324,0 0,14.17324 14.17324,0 0,-14.17324 14.17324,0 0,14.17324 14.17325,0 0,-14.17324 14.17323,0 0,14.17324 14.17324,0 0,-14.17324 14.17325,0 0,14.17324 14.17323,0 0,-14.17324 14.17324,0 0,14.17324 14.17325,0 0,-14.17324 14.17323,0 0,14.17324 14.17324,0 0,-14.17324 14.17325,0 0,14.17324 14.17323,0 0,-14.17324 14.17324,0 0,14.17324 14.17324,0 0,-14.17324 14.17324,0 0,14.17324 14.17324,0 0,-14.17324 14.17324,0 0,14.17324 14.17325,0 0,-14.17324 18.60237,0 0,14.17324 4.42914,0 0,2.125986 14.17324,0 0,16.299226 -14.17324,0 0,16.299226 14.17324,0 0,16.299226 -14.17324,0 0,2.125986 -4.42914,0 0,14.17324 -18.60237,0 0,-14.17324 -14.17325,0 0,14.17324 -14.17324,0 0,-14.17324 -14.17324,0 0,14.17324 -14.17324,0 0,-14.17324 -14.17324,0 0,14.17324 -14.17324,0 0,-14.17324 -14.17323,0 0,14.17324 -14.17325,0 0,-14.17324 -14.17324,0 0,14.17324 -14.17323,0 0,-14.17324 -14.17325,0 0,14.17324 -14.17324,0 0,-14.17324 -14.17323,0 0,14.17324 -14.17325,0 0,-14.17324 -14.17324,0 0,14.17324 -14.17323,0 0,-14.17324 -14.17325,0 0,14.17324 -14.17324,0 0,-14.17324 -14.17324,0 0,14.17324 -14.17324,0 0,-14.17324 -14.17324,0 0,14.17324 -14.17324,0 0,-14.17324 -14.17324,0 0,14.17324 -14.17324,0 0,-14.17324 -14.17324,0 0,14.17324 -14.17323,0 0,-14.17324 -14.17325,0 0,14.17324 -14.17324,0 0,-14.17324 -14.17323,0 0,14.17324 -14.17325,0 0,-14.17324 -14.17324,0 0,14.17324 -14.17324,0 0,-14.17324 -14.17324,0 0,14.17324 -14.17324,0 0,-14.17324 -14.17323,0 0,14.17324 -14.17325,0 0,-14.17324 -14.17324,0 0,14.17324 -14.17324,0 0,-14.17324 -14.17324,0 0,14.17324 -14.17324,0 0,-14.17324 -14.17324,0 0,14.17324 -14.17324,0 0,-14.17324 -14.17324,0 0,14.17324 -14.17324,0 0,-14.17324 -14.17324,0 0,14.17324 -14.17324,0 0,-14.17324 -14.17324,0 0,14.17324 -14.17323,0 0,-14.17324 -14.17324,0 0,14.17324 -14.17325,0 0,-14.17324 -14.17323,0 0,14.17324 -14.17324,0 0,-14.17324 -14.17325,0 0,14.17324 -14.17324,0 0,-14.17324 -14.17323,0 0,14.17324 -14.17324,0 0,-14.17324 -14.17325,0 0,14.17324 -14.17324,0 0,-14.17324 -14.173235,0 0,14.17324 -14.17324,0 0,-14.17324 -14.17324,0 0,14.17324 -14.17324,0 0,-14.17324 -14.17324,0 0,14.17324 -18.602378,0 0,-14.17324 -4.429137,0 0,-2.125986 -14.17324,0 0,-16.299226 14.17324,0 0,-16.299226 -14.17324,0 0,-16.299226 14.17324,0 0,-2.125986 4.429137,0 0,-14.17324 18.602378,0 0,14.17324 14.17324,0 0,-14.17324 14.17324,0 0,14.17324 14.17324,0 0,-14.17324 14.17324,0 0,14.17324 14.173235,0 0,-14.17324 14.17324,0 0,14.17324 14.17325,0 0,-14.17324 14.17324,0 0,14.17324 14.17323,0 0,-14.17324 14.17324,0 0,14.17324 14.17325,0 0,-14.17324 14.17324,0 0,14.17324 14.17323,0 0,-14.17324 14.17325,0 0,14.17324 14.17324,0 0,-14.17324 14.17323,0 0,14.17324 14.17324,0 0,-14.17324 14.17324,0 0,14.17324 14.17324,0 0,-14.17324 14.17324,0 0,14.17324 14.17324,0 0,-14.17324 14.17324,0 0,14.17324 14.17324,0 0,-14.17324 14.17324,0 0,14.17324 14.17324,0 0,-14.17324 14.17324,0 0,14.17324 14.17324,0 0,-14.17324 14.17325,0 z"
         id="path3000"
         inkscape:connector-curvature="0" />
    </g>
  </g>
</svg>
