  0
SECTION
  2
HEADER
  9
$ACADVER
  1
AC1014
  9
$HANDSEED
  5
FFFF
  9
$MEASUREMENT
 70
     1
  0
ENDSEC
  0
SECTION
  2
TABLES
  0
TABLE
  2
VPORT
  5
8
330
0
100
AcDbSymbolTable
 70
     4
  0
VPORT
  5
2E
330
8
100
AcDbSymbolTableRecord
100
AcDbViewportTableRecord
  2
*ACTIVE
 70
     0
 10
0.0
 20
0.0
 11
1.0
 21
1.0
 12
210.0
 22
148.5
 13
0.0
 23
0.0
 14
10.0
 24
10.0
 15
10.0
 25
10.0
 16
0.0
 26
0.0
 36
1.0
 17
0.0
 27
0.0
 37
0.0
 40
341.0
 41
1.24
 42
50.0
 43
0.0
 44
0.0
 50
0.0
 51
0.0
 71
     0
 72
   100
 73
     1
 74
     3
 75
     0
 76
     0
 77
     0
 78
     0
  0
ENDTAB
  0
TABLE
  2
LTYPE
  5
5
330
0
100
AcDbSymbolTable
 70
     1
  0
LTYPE
  5
14
330
5
100
AcDbSymbolTableRecord
100
AcDbLinetypeTableRecord
  2
BYBLOCK
 70
     0
  3

 72
    65
 73
     0
 40
0.0
  0
LTYPE
  5
15
330
5
100
AcDbSymbolTableRecord
100
AcDbLinetypeTableRecord
  2
BYLAYER
 70
     0
  3

 72
    65
 73
     0
 40
0.0
  0
LTYPE
  5
16
330
5
100
AcDbSymbolTableRecord
100
AcDbLinetypeTableRecord
  2
CONTINUOUS
 70
     0
  3
Solid line
 72
    65
 73
     0
 40
0.0
  0
ENDTAB
  0
TABLE
  2
LAYER
  5
2
100
AcDbSymbolTable
 70
2
  0
LAYER
  5
50
100
AcDbSymbolTableRecord
100
AcDbLayerTableRecord
  2
0
 70
0
  6
CONTINUOUS
  0
LAYER
  5
51
100
AcDbSymbolTableRecord
100
AcDbLayerTableRecord
  2
Layer_1
 70
0
  6
CONTINUOUS
  0
ENDTAB
  0
TABLE
  2
STYLE
  5
3
330
0
100
AcDbSymbolTable
 70
     1
  0
STYLE
  5
11
330
3
100
AcDbSymbolTableRecord
100
AcDbTextStyleTableRecord
  2
STANDARD
 70
     0
 40
0.0
 41
1.0
 50
0.0
 71
     0
 42
2.5
  3
txt
  4

  0
ENDTAB
  0
TABLE
  2
VIEW
  5
6
330
0
100
AcDbSymbolTable
 70
     0
  0
ENDTAB
  0
TABLE
  2
UCS
  5
7
330
0
100
AcDbSymbolTable
 70
     0
  0
ENDTAB
  0
TABLE
  2
APPID
  5
9
330
0
100
AcDbSymbolTable
 70
     2
  0
APPID
  5
12
330
9
100
AcDbSymbolTableRecord
100
AcDbRegAppTableRecord
  2
ACAD
 70
     0
  0
ENDTAB
  0
TABLE
  2
DIMSTYLE
  5
A
330
0
100
AcDbSymbolTable
 70
     1
  0
DIMSTYLE
105
27
330
A
100
AcDbSymbolTableRecord
100
AcDbDimStyleTableRecord
  2
ISO-25
 70
     0
  3

  4

  5

  6

  7

 40
1.0
 41
2.5
 42
0.625
 43
3.75
 44
1.25
 45
0.0
 46
0.0
 47
0.0
 48
0.0
140
2.5
141
2.5
142
0.0
143
0.03937007874016
144
1.0
145
0.0
146
1.0
147
0.625
 71
     0
 72
     0
 73
     0
 74
     0
 75
     0
 76
     0
 77
     1
 78
     8
170
     0
171
     3
172
     1
173
     0
174
     0
175
     0
176
     0
177
     0
178
     0
270
     2
271
     2
272
     2
273
     2
274
     3
340
11
275
     0
280
     0
281
     0
282
     0
283
     0
284
     8
285
     0
286
     0
287
     3
288
     0
  0
ENDTAB
  0
TABLE
  2
BLOCK_RECORD
  5
1
330
0
100
AcDbSymbolTable
 70
     1
  0
BLOCK_RECORD
  5
1F
330
1
100
AcDbSymbolTableRecord
100
AcDbBlockTableRecord
  2
*MODEL_SPACE
  0
BLOCK_RECORD
  5
1B
330
1
100
AcDbSymbolTableRecord
100
AcDbBlockTableRecord
  2
*PAPER_SPACE
  0
ENDTAB
  0
ENDSEC
  0
SECTION
  2
BLOCKS
  0
BLOCK
  5
20
330
1F
100
AcDbEntity
  8
0
100
AcDbBlockBegin
  2
*MODEL_SPACE
 70
     0
 10
0.0
 20
0.0
 30
0.0
  3
*MODEL_SPACE
  1

  0
ENDBLK
  5
21
330
1F
100
AcDbEntity
  8
0
100
AcDbBlockEnd
  0
BLOCK
  5
1C
330
1B
100
AcDbEntity
 67
     1
  8
0
100
AcDbBlockBegin
  2
*PAPER_SPACE
  1

  0
ENDBLK
  5
1D
330
1B
100
AcDbEntity
 67
     1
  8
0
100
AcDbBlockEnd
  0
ENDSEC
  0
SECTION
  2
ENTITIES
  0
LINE
  5
100
100
AcDbEntity
  8
Layer_1
 62
7
100
AcDbLine
 10
119.833333
 20
139.255560
 30
0.0
 11
115.833336
 21
139.255560
 31
0.0
  0
LINE
  5
101
100
AcDbEntity
  8
Layer_1
 62
7
100
AcDbLine
 10
115.833336
 20
139.255560
 30
0.0
 11
115.833336
 21
135.255560
 31
0.0
  0
LINE
  5
102
100
AcDbEntity
  8
Layer_1
 62
7
100
AcDbLine
 10
115.833336
 20
135.255560
 30
0.0
 11
111.833335
 21
135.255560
 31
0.0
  0
LINE
  5
103
100
AcDbEntity
  8
Layer_1
 62
7
100
AcDbLine
 10
111.833335
 20
135.255560
 30
0.0
 11
111.833335
 21
139.255560
 31
0.0
  0
LINE
  5
104
100
AcDbEntity
  8
Layer_1
 62
7
100
AcDbLine
 10
111.833335
 20
139.255560
 30
0.0
 11
107.833335
 21
139.255560
 31
0.0
  0
LINE
  5
105
100
AcDbEntity
  8
Layer_1
 62
7
100
AcDbLine
 10
107.833335
 20
139.255560
 30
0.0
 11
107.833335
 21
135.255560
 31
0.0
  0
LINE
  5
106
100
AcDbEntity
  8
Layer_1
 62
7
100
AcDbLine
 10
107.833335
 20
135.255560
 30
0.0
 11
103.833335
 21
135.255560
 31
0.0
  0
LINE
  5
107
100
AcDbEntity
  8
Layer_1
 62
7
100
AcDbLine
 10
103.833335
 20
135.255560
 30
0.0
 11
103.833335
 21
139.255560
 31
0.0
  0
LINE
  5
108
100
AcDbEntity
  8
Layer_1
 62
7
100
AcDbLine
 10
103.833335
 20
139.255560
 30
0.0
 11
99.833335
 21
139.255560
 31
0.0
  0
LINE
  5
109
100
AcDbEntity
  8
Layer_1
 62
7
100
AcDbLine
 10
99.833335
 20
139.255560
 30
0.0
 11
99.833335
 21
135.255560
 31
0.0
  0
LINE
  5
10a
100
AcDbEntity
  8
Layer_1
 62
7
100
AcDbLine
 10
99.833335
 20
135.255560
 30
0.0
 11
95.833332
 21
135.255560
 31
0.0
  0
LINE
  5
10b
100
AcDbEntity
  8
Layer_1
 62
7
100
AcDbLine
 10
95.833332
 20
135.255560
 30
0.0
 11
95.833332
 21
139.255560
 31
0.0
  0
LINE
  5
10c
100
AcDbEntity
  8
Layer_1
 62
7
100
AcDbLine
 10
95.833332
 20
139.255560
 30
0.0
 11
91.833335
 21
139.255560
 31
0.0
  0
LINE
  5
10d
100
AcDbEntity
  8
Layer_1
 62
7
100
AcDbLine
 10
91.833335
 20
139.255560
 30
0.0
 11
91.833335
 21
135.255560
 31
0.0
  0
LINE
  5
10e
100
AcDbEntity
  8
Layer_1
 62
7
100
AcDbLine
 10
91.833335
 20
135.255560
 30
0.0
 11
87.833335
 21
135.255560
 31
0.0
  0
LINE
  5
10f
100
AcDbEntity
  8
Layer_1
 62
7
100
AcDbLine
 10
87.833335
 20
135.255560
 30
0.0
 11
87.833335
 21
139.255560
 31
0.0
  0
LINE
  5
110
100
AcDbEntity
  8
Layer_1
 62
7
100
AcDbLine
 10
87.833335
 20
139.255560
 30
0.0
 11
83.833332
 21
139.255560
 31
0.0
  0
LINE
  5
111
100
AcDbEntity
  8
Layer_1
 62
7
100
AcDbLine
 10
83.833332
 20
139.255560
 30
0.0
 11
83.833332
 21
135.255560
 31
0.0
  0
LINE
  5
112
100
AcDbEntity
  8
Layer_1
 62
7
100
AcDbLine
 10
83.833332
 20
135.255560
 30
0.0
 11
79.833335
 21
135.255560
 31
0.0
  0
LINE
  5
113
100
AcDbEntity
  8
Layer_1
 62
7
100
AcDbLine
 10
79.833335
 20
135.255560
 30
0.0
 11
79.833335
 21
139.255560
 31
0.0
  0
LINE
  5
114
100
AcDbEntity
  8
Layer_1
 62
7
100
AcDbLine
 10
79.833335
 20
139.255560
 30
0.0
 11
75.833335
 21
139.255560
 31
0.0
  0
LINE
  5
115
100
AcDbEntity
  8
Layer_1
 62
7
100
AcDbLine
 10
75.833335
 20
139.255560
 30
0.0
 11
75.833335
 21
135.255560
 31
0.0
  0
LINE
  5
116
100
AcDbEntity
  8
Layer_1
 62
7
100
AcDbLine
 10
75.833335
 20
135.255560
 30
0.0
 11
71.833335
 21
135.255560
 31
0.0
  0
LINE
  5
117
100
AcDbEntity
  8
Layer_1
 62
7
100
AcDbLine
 10
71.833335
 20
135.255560
 30
0.0
 11
71.833335
 21
139.255560
 31
0.0
  0
LINE
  5
118
100
AcDbEntity
  8
Layer_1
 62
7
100
AcDbLine
 10
71.833335
 20
139.255560
 30
0.0
 11
67.833334
 21
139.255560
 31
0.0
  0
LINE
  5
119
100
AcDbEntity
  8
Layer_1
 62
7
100
AcDbLine
 10
67.833334
 20
139.255560
 30
0.0
 11
67.833334
 21
135.255560
 31
0.0
  0
LINE
  5
11a
100
AcDbEntity
  8
Layer_1
 62
7
100
AcDbLine
 10
67.833334
 20
135.255560
 30
0.0
 11
63.833334
 21
135.255560
 31
0.0
  0
LINE
  5
11b
100
AcDbEntity
  8
Layer_1
 62
7
100
AcDbLine
 10
63.833334
 20
135.255560
 30
0.0
 11
63.833334
 21
139.255560
 31
0.0
  0
LINE
  5
11c
100
AcDbEntity
  8
Layer_1
 62
7
100
AcDbLine
 10
63.833334
 20
139.255560
 30
0.0
 11
59.833334
 21
139.255560
 31
0.0
  0
LINE
  5
11d
100
AcDbEntity
  8
Layer_1
 62
7
100
AcDbLine
 10
59.833334
 20
139.255560
 30
0.0
 11
59.833334
 21
135.255560
 31
0.0
  0
LINE
  5
11e
100
AcDbEntity
  8
Layer_1
 62
7
100
AcDbLine
 10
59.833334
 20
135.255560
 30
0.0
 11
55.833334
 21
135.255560
 31
0.0
  0
LINE
  5
11f
100
AcDbEntity
  8
Layer_1
 62
7
100
AcDbLine
 10
55.833334
 20
135.255560
 30
0.0
 11
55.833334
 21
139.255560
 31
0.0
  0
LINE
  5
120
100
AcDbEntity
  8
Layer_1
 62
7
100
AcDbLine
 10
55.833334
 20
139.255560
 30
0.0
 11
51.833334
 21
139.255560
 31
0.0
  0
LINE
  5
121
100
AcDbEntity
  8
Layer_1
 62
7
100
AcDbLine
 10
51.833334
 20
139.255560
 30
0.0
 11
51.833334
 21
135.255560
 31
0.0
  0
LINE
  5
122
100
AcDbEntity
  8
Layer_1
 62
7
100
AcDbLine
 10
51.833334
 20
135.255560
 30
0.0
 11
47.833334
 21
135.255560
 31
0.0
  0
LINE
  5
123
100
AcDbEntity
  8
Layer_1
 62
7
100
AcDbLine
 10
47.833334
 20
135.255560
 30
0.0
 11
47.833334
 21
139.255560
 31
0.0
  0
LINE
  5
124
100
AcDbEntity
  8
Layer_1
 62
7
100
AcDbLine
 10
47.833334
 20
139.255560
 30
0.0
 11
43.833331
 21
139.255560
 31
0.0
  0
LINE
  5
125
100
AcDbEntity
  8
Layer_1
 62
7
100
AcDbLine
 10
43.833331
 20
139.255560
 30
0.0
 11
43.833331
 21
135.255560
 31
0.0
  0
LINE
  5
126
100
AcDbEntity
  8
Layer_1
 62
7
100
AcDbLine
 10
43.833331
 20
135.255560
 30
0.0
 11
39.833334
 21
135.255560
 31
0.0
  0
LINE
  5
127
100
AcDbEntity
  8
Layer_1
 62
7
100
AcDbLine
 10
39.833334
 20
135.255560
 30
0.0
 11
39.833334
 21
139.255560
 31
0.0
  0
LINE
  5
128
100
AcDbEntity
  8
Layer_1
 62
7
100
AcDbLine
 10
39.833334
 20
139.255560
 30
0.0
 11
35.833334
 21
139.255560
 31
0.0
  0
LINE
  5
129
100
AcDbEntity
  8
Layer_1
 62
7
100
AcDbLine
 10
35.833334
 20
139.255560
 30
0.0
 11
35.833334
 21
135.255560
 31
0.0
  0
LINE
  5
12a
100
AcDbEntity
  8
Layer_1
 62
7
100
AcDbLine
 10
35.833334
 20
135.255560
 30
0.0
 11
31.833331
 21
135.255560
 31
0.0
  0
LINE
  5
12b
100
AcDbEntity
  8
Layer_1
 62
7
100
AcDbLine
 10
31.833331
 20
135.255560
 30
0.0
 11
31.833331
 21
139.255560
 31
0.0
  0
LINE
  5
12c
100
AcDbEntity
  8
Layer_1
 62
7
100
AcDbLine
 10
31.833331
 20
139.255560
 30
0.0
 11
27.833334
 21
139.255560
 31
0.0
  0
LINE
  5
12d
100
AcDbEntity
  8
Layer_1
 62
7
100
AcDbLine
 10
27.833334
 20
139.255560
 30
0.0
 11
27.833334
 21
135.255560
 31
0.0
  0
LINE
  5
12e
100
AcDbEntity
  8
Layer_1
 62
7
100
AcDbLine
 10
27.833334
 20
135.255560
 30
0.0
 11
23.833333
 21
135.255560
 31
0.0
  0
LINE
  5
12f
100
AcDbEntity
  8
Layer_1
 62
7
100
AcDbLine
 10
23.833333
 20
135.255560
 30
0.0
 11
23.833333
 21
139.255560
 31
0.0
  0
LINE
  5
130
100
AcDbEntity
  8
Layer_1
 62
7
100
AcDbLine
 10
23.833333
 20
139.255560
 30
0.0
 11
19.833331
 21
139.255560
 31
0.0
  0
LINE
  5
131
100
AcDbEntity
  8
Layer_1
 62
7
100
AcDbLine
 10
19.833331
 20
139.255560
 30
0.0
 11
19.833331
 21
135.255560
 31
0.0
  0
LINE
  5
132
100
AcDbEntity
  8
Layer_1
 62
7
100
AcDbLine
 10
19.833331
 20
135.255560
 30
0.0
 11
15.833333
 21
135.255560
 31
0.0
  0
LINE
  5
133
100
AcDbEntity
  8
Layer_1
 62
7
100
AcDbLine
 10
15.833333
 20
135.255560
 30
0.0
 11
15.833333
 21
139.255560
 31
0.0
  0
LINE
  5
134
100
AcDbEntity
  8
Layer_1
 62
7
100
AcDbLine
 10
15.833333
 20
139.255560
 30
0.0
 11
11.833333
 21
139.255560
 31
0.0
  0
LINE
  5
135
100
AcDbEntity
  8
Layer_1
 62
7
100
AcDbLine
 10
11.833333
 20
139.255560
 30
0.0
 11
11.833333
 21
135.255560
 31
0.0
  0
LINE
  5
136
100
AcDbEntity
  8
Layer_1
 62
7
100
AcDbLine
 10
11.833333
 20
135.255560
 30
0.0
 11
7.833330
 21
135.255560
 31
0.0
  0
LINE
  5
137
100
AcDbEntity
  8
Layer_1
 62
7
100
AcDbLine
 10
7.833330
 20
135.255560
 30
0.0
 11
7.833330
 21
139.255560
 31
0.0
  0
LINE
  5
138
100
AcDbEntity
  8
Layer_1
 62
7
100
AcDbLine
 10
7.833330
 20
139.255560
 30
0.0
 11
3.833333
 21
139.255560
 31
0.0
  0
LINE
  5
139
100
AcDbEntity
  8
Layer_1
 62
7
100
AcDbLine
 10
3.833333
 20
139.255560
 30
0.0
 11
3.833333
 21
135.255560
 31
0.0
  0
LINE
  5
13a
100
AcDbEntity
  8
Layer_1
 62
7
100
AcDbLine
 10
3.833333
 20
135.255560
 30
0.0
 11
-0.166667
 21
135.255560
 31
0.0
  0
LINE
  5
13b
100
AcDbEntity
  8
Layer_1
 62
7
100
AcDbLine
 10
-0.166667
 20
135.255560
 30
0.0
 11
-0.166667
 21
139.255560
 31
0.0
  0
LINE
  5
13c
100
AcDbEntity
  8
Layer_1
 62
7
100
AcDbLine
 10
-0.166667
 20
139.255560
 30
0.0
 11
-4.166667
 21
139.255560
 31
0.0
  0
LINE
  5
13d
100
AcDbEntity
  8
Layer_1
 62
7
100
AcDbLine
 10
-4.166667
 20
139.255560
 30
0.0
 11
-4.166667
 21
135.255560
 31
0.0
  0
LINE
  5
13e
100
AcDbEntity
  8
Layer_1
 62
7
100
AcDbLine
 10
-4.166667
 20
135.255560
 30
0.0
 11
-8.166667
 21
135.255560
 31
0.0
  0
LINE
  5
13f
100
AcDbEntity
  8
Layer_1
 62
7
100
AcDbLine
 10
-8.166667
 20
135.255560
 30
0.0
 11
-8.166667
 21
139.255560
 31
0.0
  0
LINE
  5
140
100
AcDbEntity
  8
Layer_1
 62
7
100
AcDbLine
 10
-8.166667
 20
139.255560
 30
0.0
 11
-12.166667
 21
139.255560
 31
0.0
  0
LINE
  5
141
100
AcDbEntity
  8
Layer_1
 62
7
100
AcDbLine
 10
-12.166667
 20
139.255560
 30
0.0
 11
-12.166667
 21
135.255560
 31
0.0
  0
LINE
  5
142
100
AcDbEntity
  8
Layer_1
 62
7
100
AcDbLine
 10
-12.166667
 20
135.255560
 30
0.0
 11
-16.166667
 21
135.255560
 31
0.0
  0
LINE
  5
143
100
AcDbEntity
  8
Layer_1
 62
7
100
AcDbLine
 10
-16.166667
 20
135.255560
 30
0.0
 11
-16.166667
 21
139.255560
 31
0.0
  0
LINE
  5
144
100
AcDbEntity
  8
Layer_1
 62
7
100
AcDbLine
 10
-16.166667
 20
139.255560
 30
0.0
 11
-20.166670
 21
139.255560
 31
0.0
  0
LINE
  5
145
100
AcDbEntity
  8
Layer_1
 62
7
100
AcDbLine
 10
-20.166670
 20
139.255560
 30
0.0
 11
-20.166670
 21
135.255560
 31
0.0
  0
LINE
  5
146
100
AcDbEntity
  8
Layer_1
 62
7
100
AcDbLine
 10
-20.166670
 20
135.255560
 30
0.0
 11
-25.416668
 21
135.255560
 31
0.0
  0
LINE
  5
147
100
AcDbEntity
  8
Layer_1
 62
7
100
AcDbLine
 10
-25.416668
 20
135.255560
 30
0.0
 11
-25.416668
 21
139.255560
 31
0.0
  0
LINE
  5
148
100
AcDbEntity
  8
Layer_1
 62
7
100
AcDbLine
 10
-25.416668
 20
139.255560
 30
0.0
 11
-26.666669
 21
139.255560
 31
0.0
  0
LINE
  5
149
100
AcDbEntity
  8
Layer_1
 62
7
100
AcDbLine
 10
-26.666669
 20
139.255560
 30
0.0
 11
-26.666669
 21
139.855560
 31
0.0
  0
LINE
  5
14a
100
AcDbEntity
  8
Layer_1
 62
7
100
AcDbLine
 10
-26.666669
 20
139.855560
 30
0.0
 11
-30.666669
 21
139.855560
 31
0.0
  0
LINE
  5
14b
100
AcDbEntity
  8
Layer_1
 62
7
100
AcDbLine
 10
-30.666669
 20
139.855560
 30
0.0
 11
-30.666669
 21
144.455560
 31
0.0
  0
LINE
  5
14c
100
AcDbEntity
  8
Layer_1
 62
7
100
AcDbLine
 10
-30.666669
 20
144.455560
 30
0.0
 11
-26.666669
 21
144.455560
 31
0.0
  0
LINE
  5
14d
100
AcDbEntity
  8
Layer_1
 62
7
100
AcDbLine
 10
-26.666669
 20
144.455560
 30
0.0
 11
-26.666669
 21
149.055560
 31
0.0
  0
LINE
  5
14e
100
AcDbEntity
  8
Layer_1
 62
7
100
AcDbLine
 10
-26.666669
 20
149.055560
 30
0.0
 11
-30.666669
 21
149.055560
 31
0.0
  0
LINE
  5
14f
100
AcDbEntity
  8
Layer_1
 62
7
100
AcDbLine
 10
-30.666669
 20
149.055560
 30
0.0
 11
-30.666669
 21
153.655561
 31
0.0
  0
LINE
  5
150
100
AcDbEntity
  8
Layer_1
 62
7
100
AcDbLine
 10
-30.666669
 20
153.655561
 30
0.0
 11
-26.666669
 21
153.655561
 31
0.0
  0
LINE
  5
151
100
AcDbEntity
  8
Layer_1
 62
7
100
AcDbLine
 10
-26.666669
 20
153.655561
 30
0.0
 11
-26.666669
 21
154.255561
 31
0.0
  0
LINE
  5
152
100
AcDbEntity
  8
Layer_1
 62
7
100
AcDbLine
 10
-26.666669
 20
154.255561
 30
0.0
 11
-25.416668
 21
154.255561
 31
0.0
  0
LINE
  5
153
100
AcDbEntity
  8
Layer_1
 62
7
100
AcDbLine
 10
-25.416668
 20
154.255561
 30
0.0
 11
-25.416668
 21
158.255561
 31
0.0
  0
LINE
  5
154
100
AcDbEntity
  8
Layer_1
 62
7
100
AcDbLine
 10
-25.416668
 20
158.255561
 30
0.0
 11
-20.166670
 21
158.255561
 31
0.0
  0
LINE
  5
155
100
AcDbEntity
  8
Layer_1
 62
7
100
AcDbLine
 10
-20.166670
 20
158.255561
 30
0.0
 11
-20.166670
 21
154.255561
 31
0.0
  0
LINE
  5
156
100
AcDbEntity
  8
Layer_1
 62
7
100
AcDbLine
 10
-20.166670
 20
154.255561
 30
0.0
 11
-16.166667
 21
154.255561
 31
0.0
  0
LINE
  5
157
100
AcDbEntity
  8
Layer_1
 62
7
100
AcDbLine
 10
-16.166667
 20
154.255561
 30
0.0
 11
-16.166667
 21
158.255561
 31
0.0
  0
LINE
  5
158
100
AcDbEntity
  8
Layer_1
 62
7
100
AcDbLine
 10
-16.166667
 20
158.255561
 30
0.0
 11
-12.166667
 21
158.255561
 31
0.0
  0
LINE
  5
159
100
AcDbEntity
  8
Layer_1
 62
7
100
AcDbLine
 10
-12.166667
 20
158.255561
 30
0.0
 11
-12.166667
 21
154.255561
 31
0.0
  0
LINE
  5
15a
100
AcDbEntity
  8
Layer_1
 62
7
100
AcDbLine
 10
-12.166667
 20
154.255561
 30
0.0
 11
-8.166667
 21
154.255561
 31
0.0
  0
LINE
  5
15b
100
AcDbEntity
  8
Layer_1
 62
7
100
AcDbLine
 10
-8.166667
 20
154.255561
 30
0.0
 11
-8.166667
 21
158.255561
 31
0.0
  0
LINE
  5
15c
100
AcDbEntity
  8
Layer_1
 62
7
100
AcDbLine
 10
-8.166667
 20
158.255561
 30
0.0
 11
-4.166667
 21
158.255561
 31
0.0
  0
LINE
  5
15d
100
AcDbEntity
  8
Layer_1
 62
7
100
AcDbLine
 10
-4.166667
 20
158.255561
 30
0.0
 11
-4.166667
 21
154.255561
 31
0.0
  0
LINE
  5
15e
100
AcDbEntity
  8
Layer_1
 62
7
100
AcDbLine
 10
-4.166667
 20
154.255561
 30
0.0
 11
-0.166667
 21
154.255561
 31
0.0
  0
LINE
  5
15f
100
AcDbEntity
  8
Layer_1
 62
7
100
AcDbLine
 10
-0.166667
 20
154.255561
 30
0.0
 11
-0.166667
 21
158.255561
 31
0.0
  0
LINE
  5
160
100
AcDbEntity
  8
Layer_1
 62
7
100
AcDbLine
 10
-0.166667
 20
158.255561
 30
0.0
 11
3.833333
 21
158.255561
 31
0.0
  0
LINE
  5
161
100
AcDbEntity
  8
Layer_1
 62
7
100
AcDbLine
 10
3.833333
 20
158.255561
 30
0.0
 11
3.833333
 21
154.255561
 31
0.0
  0
LINE
  5
162
100
AcDbEntity
  8
Layer_1
 62
7
100
AcDbLine
 10
3.833333
 20
154.255561
 30
0.0
 11
7.833330
 21
154.255561
 31
0.0
  0
LINE
  5
163
100
AcDbEntity
  8
Layer_1
 62
7
100
AcDbLine
 10
7.833330
 20
154.255561
 30
0.0
 11
7.833330
 21
158.255561
 31
0.0
  0
LINE
  5
164
100
AcDbEntity
  8
Layer_1
 62
7
100
AcDbLine
 10
7.833330
 20
158.255561
 30
0.0
 11
11.833333
 21
158.255561
 31
0.0
  0
LINE
  5
165
100
AcDbEntity
  8
Layer_1
 62
7
100
AcDbLine
 10
11.833333
 20
158.255561
 30
0.0
 11
11.833333
 21
154.255561
 31
0.0
  0
LINE
  5
166
100
AcDbEntity
  8
Layer_1
 62
7
100
AcDbLine
 10
11.833333
 20
154.255561
 30
0.0
 11
15.833333
 21
154.255561
 31
0.0
  0
LINE
  5
167
100
AcDbEntity
  8
Layer_1
 62
7
100
AcDbLine
 10
15.833333
 20
154.255561
 30
0.0
 11
15.833333
 21
158.255561
 31
0.0
  0
LINE
  5
168
100
AcDbEntity
  8
Layer_1
 62
7
100
AcDbLine
 10
15.833333
 20
158.255561
 30
0.0
 11
19.833331
 21
158.255561
 31
0.0
  0
LINE
  5
169
100
AcDbEntity
  8
Layer_1
 62
7
100
AcDbLine
 10
19.833331
 20
158.255561
 30
0.0
 11
19.833331
 21
154.255561
 31
0.0
  0
LINE
  5
16a
100
AcDbEntity
  8
Layer_1
 62
7
100
AcDbLine
 10
19.833331
 20
154.255561
 30
0.0
 11
23.833333
 21
154.255561
 31
0.0
  0
LINE
  5
16b
100
AcDbEntity
  8
Layer_1
 62
7
100
AcDbLine
 10
23.833333
 20
154.255561
 30
0.0
 11
23.833333
 21
158.255561
 31
0.0
  0
LINE
  5
16c
100
AcDbEntity
  8
Layer_1
 62
7
100
AcDbLine
 10
23.833333
 20
158.255561
 30
0.0
 11
27.833334
 21
158.255561
 31
0.0
  0
LINE
  5
16d
100
AcDbEntity
  8
Layer_1
 62
7
100
AcDbLine
 10
27.833334
 20
158.255561
 30
0.0
 11
27.833334
 21
154.255561
 31
0.0
  0
LINE
  5
16e
100
AcDbEntity
  8
Layer_1
 62
7
100
AcDbLine
 10
27.833334
 20
154.255561
 30
0.0
 11
31.833331
 21
154.255561
 31
0.0
  0
LINE
  5
16f
100
AcDbEntity
  8
Layer_1
 62
7
100
AcDbLine
 10
31.833331
 20
154.255561
 30
0.0
 11
31.833331
 21
158.255561
 31
0.0
  0
LINE
  5
170
100
AcDbEntity
  8
Layer_1
 62
7
100
AcDbLine
 10
31.833331
 20
158.255561
 30
0.0
 11
35.833334
 21
158.255561
 31
0.0
  0
LINE
  5
171
100
AcDbEntity
  8
Layer_1
 62
7
100
AcDbLine
 10
35.833334
 20
158.255561
 30
0.0
 11
35.833334
 21
154.255561
 31
0.0
  0
LINE
  5
172
100
AcDbEntity
  8
Layer_1
 62
7
100
AcDbLine
 10
35.833334
 20
154.255561
 30
0.0
 11
39.833334
 21
154.255561
 31
0.0
  0
LINE
  5
173
100
AcDbEntity
  8
Layer_1
 62
7
100
AcDbLine
 10
39.833334
 20
154.255561
 30
0.0
 11
39.833334
 21
158.255561
 31
0.0
  0
LINE
  5
174
100
AcDbEntity
  8
Layer_1
 62
7
100
AcDbLine
 10
39.833334
 20
158.255561
 30
0.0
 11
43.833331
 21
158.255561
 31
0.0
  0
LINE
  5
175
100
AcDbEntity
  8
Layer_1
 62
7
100
AcDbLine
 10
43.833331
 20
158.255561
 30
0.0
 11
43.833331
 21
154.255561
 31
0.0
  0
LINE
  5
176
100
AcDbEntity
  8
Layer_1
 62
7
100
AcDbLine
 10
43.833331
 20
154.255561
 30
0.0
 11
47.833334
 21
154.255561
 31
0.0
  0
LINE
  5
177
100
AcDbEntity
  8
Layer_1
 62
7
100
AcDbLine
 10
47.833334
 20
154.255561
 30
0.0
 11
47.833334
 21
158.255561
 31
0.0
  0
LINE
  5
178
100
AcDbEntity
  8
Layer_1
 62
7
100
AcDbLine
 10
47.833334
 20
158.255561
 30
0.0
 11
51.833334
 21
158.255561
 31
0.0
  0
LINE
  5
179
100
AcDbEntity
  8
Layer_1
 62
7
100
AcDbLine
 10
51.833334
 20
158.255561
 30
0.0
 11
51.833334
 21
154.255561
 31
0.0
  0
LINE
  5
17a
100
AcDbEntity
  8
Layer_1
 62
7
100
AcDbLine
 10
51.833334
 20
154.255561
 30
0.0
 11
55.833334
 21
154.255561
 31
0.0
  0
LINE
  5
17b
100
AcDbEntity
  8
Layer_1
 62
7
100
AcDbLine
 10
55.833334
 20
154.255561
 30
0.0
 11
55.833334
 21
158.255561
 31
0.0
  0
LINE
  5
17c
100
AcDbEntity
  8
Layer_1
 62
7
100
AcDbLine
 10
55.833334
 20
158.255561
 30
0.0
 11
59.833334
 21
158.255561
 31
0.0
  0
LINE
  5
17d
100
AcDbEntity
  8
Layer_1
 62
7
100
AcDbLine
 10
59.833334
 20
158.255561
 30
0.0
 11
59.833334
 21
154.255561
 31
0.0
  0
LINE
  5
17e
100
AcDbEntity
  8
Layer_1
 62
7
100
AcDbLine
 10
59.833334
 20
154.255561
 30
0.0
 11
63.833334
 21
154.255561
 31
0.0
  0
LINE
  5
17f
100
AcDbEntity
  8
Layer_1
 62
7
100
AcDbLine
 10
63.833334
 20
154.255561
 30
0.0
 11
63.833334
 21
158.255561
 31
0.0
  0
LINE
  5
180
100
AcDbEntity
  8
Layer_1
 62
7
100
AcDbLine
 10
63.833334
 20
158.255561
 30
0.0
 11
67.833334
 21
158.255561
 31
0.0
  0
LINE
  5
181
100
AcDbEntity
  8
Layer_1
 62
7
100
AcDbLine
 10
67.833334
 20
158.255561
 30
0.0
 11
67.833334
 21
154.255561
 31
0.0
  0
LINE
  5
182
100
AcDbEntity
  8
Layer_1
 62
7
100
AcDbLine
 10
67.833334
 20
154.255561
 30
0.0
 11
71.833335
 21
154.255561
 31
0.0
  0
LINE
  5
183
100
AcDbEntity
  8
Layer_1
 62
7
100
AcDbLine
 10
71.833335
 20
154.255561
 30
0.0
 11
71.833335
 21
158.255561
 31
0.0
  0
LINE
  5
184
100
AcDbEntity
  8
Layer_1
 62
7
100
AcDbLine
 10
71.833335
 20
158.255561
 30
0.0
 11
75.833335
 21
158.255561
 31
0.0
  0
LINE
  5
185
100
AcDbEntity
  8
Layer_1
 62
7
100
AcDbLine
 10
75.833335
 20
158.255561
 30
0.0
 11
75.833335
 21
154.255561
 31
0.0
  0
LINE
  5
186
100
AcDbEntity
  8
Layer_1
 62
7
100
AcDbLine
 10
75.833335
 20
154.255561
 30
0.0
 11
79.833335
 21
154.255561
 31
0.0
  0
LINE
  5
187
100
AcDbEntity
  8
Layer_1
 62
7
100
AcDbLine
 10
79.833335
 20
154.255561
 30
0.0
 11
79.833335
 21
158.255561
 31
0.0
  0
LINE
  5
188
100
AcDbEntity
  8
Layer_1
 62
7
100
AcDbLine
 10
79.833335
 20
158.255561
 30
0.0
 11
83.833332
 21
158.255561
 31
0.0
  0
LINE
  5
189
100
AcDbEntity
  8
Layer_1
 62
7
100
AcDbLine
 10
83.833332
 20
158.255561
 30
0.0
 11
83.833332
 21
154.255561
 31
0.0
  0
LINE
  5
18a
100
AcDbEntity
  8
Layer_1
 62
7
100
AcDbLine
 10
83.833332
 20
154.255561
 30
0.0
 11
87.833335
 21
154.255561
 31
0.0
  0
LINE
  5
18b
100
AcDbEntity
  8
Layer_1
 62
7
100
AcDbLine
 10
87.833335
 20
154.255561
 30
0.0
 11
87.833335
 21
158.255561
 31
0.0
  0
LINE
  5
18c
100
AcDbEntity
  8
Layer_1
 62
7
100
AcDbLine
 10
87.833335
 20
158.255561
 30
0.0
 11
91.833335
 21
158.255561
 31
0.0
  0
LINE
  5
18d
100
AcDbEntity
  8
Layer_1
 62
7
100
AcDbLine
 10
91.833335
 20
158.255561
 30
0.0
 11
91.833335
 21
154.255561
 31
0.0
  0
LINE
  5
18e
100
AcDbEntity
  8
Layer_1
 62
7
100
AcDbLine
 10
91.833335
 20
154.255561
 30
0.0
 11
95.833332
 21
154.255561
 31
0.0
  0
LINE
  5
18f
100
AcDbEntity
  8
Layer_1
 62
7
100
AcDbLine
 10
95.833332
 20
154.255561
 30
0.0
 11
95.833332
 21
158.255561
 31
0.0
  0
LINE
  5
190
100
AcDbEntity
  8
Layer_1
 62
7
100
AcDbLine
 10
95.833332
 20
158.255561
 30
0.0
 11
99.833335
 21
158.255561
 31
0.0
  0
LINE
  5
191
100
AcDbEntity
  8
Layer_1
 62
7
100
AcDbLine
 10
99.833335
 20
158.255561
 30
0.0
 11
99.833335
 21
154.255561
 31
0.0
  0
LINE
  5
192
100
AcDbEntity
  8
Layer_1
 62
7
100
AcDbLine
 10
99.833335
 20
154.255561
 30
0.0
 11
103.833335
 21
154.255561
 31
0.0
  0
LINE
  5
193
100
AcDbEntity
  8
Layer_1
 62
7
100
AcDbLine
 10
103.833335
 20
154.255561
 30
0.0
 11
103.833335
 21
158.255561
 31
0.0
  0
LINE
  5
194
100
AcDbEntity
  8
Layer_1
 62
7
100
AcDbLine
 10
103.833335
 20
158.255561
 30
0.0
 11
107.833335
 21
158.255561
 31
0.0
  0
LINE
  5
195
100
AcDbEntity
  8
Layer_1
 62
7
100
AcDbLine
 10
107.833335
 20
158.255561
 30
0.0
 11
107.833335
 21
154.255561
 31
0.0
  0
LINE
  5
196
100
AcDbEntity
  8
Layer_1
 62
7
100
AcDbLine
 10
107.833335
 20
154.255561
 30
0.0
 11
111.833335
 21
154.255561
 31
0.0
  0
LINE
  5
197
100
AcDbEntity
  8
Layer_1
 62
7
100
AcDbLine
 10
111.833335
 20
154.255561
 30
0.0
 11
111.833335
 21
158.255561
 31
0.0
  0
LINE
  5
198
100
AcDbEntity
  8
Layer_1
 62
7
100
AcDbLine
 10
111.833335
 20
158.255561
 30
0.0
 11
115.833336
 21
158.255561
 31
0.0
  0
LINE
  5
199
100
AcDbEntity
  8
Layer_1
 62
7
100
AcDbLine
 10
115.833336
 20
158.255561
 30
0.0
 11
115.833336
 21
154.255561
 31
0.0
  0
LINE
  5
19a
100
AcDbEntity
  8
Layer_1
 62
7
100
AcDbLine
 10
115.833336
 20
154.255561
 30
0.0
 11
119.833333
 21
154.255561
 31
0.0
  0
LINE
  5
19b
100
AcDbEntity
  8
Layer_1
 62
7
100
AcDbLine
 10
119.833333
 20
154.255561
 30
0.0
 11
119.833333
 21
158.255561
 31
0.0
  0
LINE
  5
19c
100
AcDbEntity
  8
Layer_1
 62
7
100
AcDbLine
 10
119.833333
 20
158.255561
 30
0.0
 11
123.833336
 21
158.255561
 31
0.0
  0
LINE
  5
19d
100
AcDbEntity
  8
Layer_1
 62
7
100
AcDbLine
 10
123.833336
 20
158.255561
 30
0.0
 11
123.833336
 21
154.255561
 31
0.0
  0
LINE
  5
19e
100
AcDbEntity
  8
Layer_1
 62
7
100
AcDbLine
 10
123.833336
 20
154.255561
 30
0.0
 11
127.833336
 21
154.255561
 31
0.0
  0
LINE
  5
19f
100
AcDbEntity
  8
Layer_1
 62
7
100
AcDbLine
 10
127.833336
 20
154.255561
 30
0.0
 11
127.833336
 21
158.255561
 31
0.0
  0
LINE
  5
1a0
100
AcDbEntity
  8
Layer_1
 62
7
100
AcDbLine
 10
127.833336
 20
158.255561
 30
0.0
 11
131.833336
 21
158.255561
 31
0.0
  0
LINE
  5
1a1
100
AcDbEntity
  8
Layer_1
 62
7
100
AcDbLine
 10
131.833336
 20
158.255561
 30
0.0
 11
131.833336
 21
154.255561
 31
0.0
  0
LINE
  5
1a2
100
AcDbEntity
  8
Layer_1
 62
7
100
AcDbLine
 10
131.833336
 20
154.255561
 30
0.0
 11
135.833336
 21
154.255561
 31
0.0
  0
LINE
  5
1a3
100
AcDbEntity
  8
Layer_1
 62
7
100
AcDbLine
 10
135.833336
 20
154.255561
 30
0.0
 11
135.833336
 21
158.255561
 31
0.0
  0
LINE
  5
1a4
100
AcDbEntity
  8
Layer_1
 62
7
100
AcDbLine
 10
135.833336
 20
158.255561
 30
0.0
 11
139.833336
 21
158.255561
 31
0.0
  0
LINE
  5
1a5
100
AcDbEntity
  8
Layer_1
 62
7
100
AcDbLine
 10
139.833336
 20
158.255561
 30
0.0
 11
139.833336
 21
154.255561
 31
0.0
  0
LINE
  5
1a6
100
AcDbEntity
  8
Layer_1
 62
7
100
AcDbLine
 10
139.833336
 20
154.255561
 30
0.0
 11
143.833336
 21
154.255561
 31
0.0
  0
LINE
  5
1a7
100
AcDbEntity
  8
Layer_1
 62
7
100
AcDbLine
 10
143.833336
 20
154.255561
 30
0.0
 11
143.833336
 21
158.255561
 31
0.0
  0
LINE
  5
1a8
100
AcDbEntity
  8
Layer_1
 62
7
100
AcDbLine
 10
143.833336
 20
158.255561
 30
0.0
 11
147.833336
 21
158.255561
 31
0.0
  0
LINE
  5
1a9
100
AcDbEntity
  8
Layer_1
 62
7
100
AcDbLine
 10
147.833336
 20
158.255561
 30
0.0
 11
147.833336
 21
154.255561
 31
0.0
  0
LINE
  5
1aa
100
AcDbEntity
  8
Layer_1
 62
7
100
AcDbLine
 10
147.833336
 20
154.255561
 30
0.0
 11
151.833336
 21
154.255561
 31
0.0
  0
LINE
  5
1ab
100
AcDbEntity
  8
Layer_1
 62
7
100
AcDbLine
 10
151.833336
 20
154.255561
 30
0.0
 11
151.833336
 21
158.255561
 31
0.0
  0
LINE
  5
1ac
100
AcDbEntity
  8
Layer_1
 62
7
100
AcDbLine
 10
151.833336
 20
158.255561
 30
0.0
 11
155.833336
 21
158.255561
 31
0.0
  0
LINE
  5
1ad
100
AcDbEntity
  8
Layer_1
 62
7
100
AcDbLine
 10
155.833336
 20
158.255561
 30
0.0
 11
155.833336
 21
154.255561
 31
0.0
  0
LINE
  5
1ae
100
AcDbEntity
  8
Layer_1
 62
7
100
AcDbLine
 10
155.833336
 20
154.255561
 30
0.0
 11
159.833336
 21
154.255561
 31
0.0
  0
LINE
  5
1af
100
AcDbEntity
  8
Layer_1
 62
7
100
AcDbLine
 10
159.833336
 20
154.255561
 30
0.0
 11
159.833336
 21
158.255561
 31
0.0
  0
LINE
  5
1b0
100
AcDbEntity
  8
Layer_1
 62
7
100
AcDbLine
 10
159.833336
 20
158.255561
 30
0.0
 11
163.833337
 21
158.255561
 31
0.0
  0
LINE
  5
1b1
100
AcDbEntity
  8
Layer_1
 62
7
100
AcDbLine
 10
163.833337
 20
158.255561
 30
0.0
 11
163.833337
 21
154.255561
 31
0.0
  0
LINE
  5
1b2
100
AcDbEntity
  8
Layer_1
 62
7
100
AcDbLine
 10
163.833337
 20
154.255561
 30
0.0
 11
167.833337
 21
154.255561
 31
0.0
  0
LINE
  5
1b3
100
AcDbEntity
  8
Layer_1
 62
7
100
AcDbLine
 10
167.833337
 20
154.255561
 30
0.0
 11
167.833337
 21
158.255561
 31
0.0
  0
LINE
  5
1b4
100
AcDbEntity
  8
Layer_1
 62
7
100
AcDbLine
 10
167.833337
 20
158.255561
 30
0.0
 11
171.833334
 21
158.255561
 31
0.0
  0
LINE
  5
1b5
100
AcDbEntity
  8
Layer_1
 62
7
100
AcDbLine
 10
171.833334
 20
158.255561
 30
0.0
 11
171.833334
 21
154.255561
 31
0.0
  0
LINE
  5
1b6
100
AcDbEntity
  8
Layer_1
 62
7
100
AcDbLine
 10
171.833334
 20
154.255561
 30
0.0
 11
175.833334
 21
154.255561
 31
0.0
  0
LINE
  5
1b7
100
AcDbEntity
  8
Layer_1
 62
7
100
AcDbLine
 10
175.833334
 20
154.255561
 30
0.0
 11
175.833334
 21
158.255561
 31
0.0
  0
LINE
  5
1b8
100
AcDbEntity
  8
Layer_1
 62
7
100
AcDbLine
 10
175.833334
 20
158.255561
 30
0.0
 11
179.833337
 21
158.255561
 31
0.0
  0
LINE
  5
1b9
100
AcDbEntity
  8
Layer_1
 62
7
100
AcDbLine
 10
179.833337
 20
158.255561
 30
0.0
 11
179.833337
 21
154.255561
 31
0.0
  0
LINE
  5
1ba
100
AcDbEntity
  8
Layer_1
 62
7
100
AcDbLine
 10
179.833337
 20
154.255561
 30
0.0
 11
183.833334
 21
154.255561
 31
0.0
  0
LINE
  5
1bb
100
AcDbEntity
  8
Layer_1
 62
7
100
AcDbLine
 10
183.833334
 20
154.255561
 30
0.0
 11
183.833334
 21
158.255561
 31
0.0
  0
LINE
  5
1bc
100
AcDbEntity
  8
Layer_1
 62
7
100
AcDbLine
 10
183.833334
 20
158.255561
 30
0.0
 11
187.833334
 21
158.255561
 31
0.0
  0
LINE
  5
1bd
100
AcDbEntity
  8
Layer_1
 62
7
100
AcDbLine
 10
187.833334
 20
158.255561
 30
0.0
 11
187.833334
 21
154.255561
 31
0.0
  0
LINE
  5
1be
100
AcDbEntity
  8
Layer_1
 62
7
100
AcDbLine
 10
187.833334
 20
154.255561
 30
0.0
 11
191.833337
 21
154.255561
 31
0.0
  0
LINE
  5
1bf
100
AcDbEntity
  8
Layer_1
 62
7
100
AcDbLine
 10
191.833337
 20
154.255561
 30
0.0
 11
191.833337
 21
158.255561
 31
0.0
  0
LINE
  5
1c0
100
AcDbEntity
  8
Layer_1
 62
7
100
AcDbLine
 10
191.833337
 20
158.255561
 30
0.0
 11
195.833337
 21
158.255561
 31
0.0
  0
LINE
  5
1c1
100
AcDbEntity
  8
Layer_1
 62
7
100
AcDbLine
 10
195.833337
 20
158.255561
 30
0.0
 11
195.833337
 21
154.255561
 31
0.0
  0
LINE
  5
1c2
100
AcDbEntity
  8
Layer_1
 62
7
100
AcDbLine
 10
195.833337
 20
154.255561
 30
0.0
 11
199.833335
 21
154.255561
 31
0.0
  0
LINE
  5
1c3
100
AcDbEntity
  8
Layer_1
 62
7
100
AcDbLine
 10
199.833335
 20
154.255561
 30
0.0
 11
199.833335
 21
158.255561
 31
0.0
  0
LINE
  5
1c4
100
AcDbEntity
  8
Layer_1
 62
7
100
AcDbLine
 10
199.833335
 20
158.255561
 30
0.0
 11
203.833335
 21
158.255561
 31
0.0
  0
LINE
  5
1c5
100
AcDbEntity
  8
Layer_1
 62
7
100
AcDbLine
 10
203.833335
 20
158.255561
 30
0.0
 11
203.833335
 21
154.255561
 31
0.0
  0
LINE
  5
1c6
100
AcDbEntity
  8
Layer_1
 62
7
100
AcDbLine
 10
203.833335
 20
154.255561
 30
0.0
 11
207.833338
 21
154.255561
 31
0.0
  0
LINE
  5
1c7
100
AcDbEntity
  8
Layer_1
 62
7
100
AcDbLine
 10
207.833338
 20
154.255561
 30
0.0
 11
207.833338
 21
158.255561
 31
0.0
  0
LINE
  5
1c8
100
AcDbEntity
  8
Layer_1
 62
7
100
AcDbLine
 10
207.833338
 20
158.255561
 30
0.0
 11
211.833338
 21
158.255561
 31
0.0
  0
LINE
  5
1c9
100
AcDbEntity
  8
Layer_1
 62
7
100
AcDbLine
 10
211.833338
 20
158.255561
 30
0.0
 11
211.833338
 21
154.255561
 31
0.0
  0
LINE
  5
1ca
100
AcDbEntity
  8
Layer_1
 62
7
100
AcDbLine
 10
211.833338
 20
154.255561
 30
0.0
 11
215.833336
 21
154.255561
 31
0.0
  0
LINE
  5
1cb
100
AcDbEntity
  8
Layer_1
 62
7
100
AcDbLine
 10
215.833336
 20
154.255561
 30
0.0
 11
215.833336
 21
158.255561
 31
0.0
  0
LINE
  5
1cc
100
AcDbEntity
  8
Layer_1
 62
7
100
AcDbLine
 10
215.833336
 20
158.255561
 30
0.0
 11
219.833336
 21
158.255561
 31
0.0
  0
LINE
  5
1cd
100
AcDbEntity
  8
Layer_1
 62
7
100
AcDbLine
 10
219.833336
 20
158.255561
 30
0.0
 11
219.833336
 21
154.255561
 31
0.0
  0
LINE
  5
1ce
100
AcDbEntity
  8
Layer_1
 62
7
100
AcDbLine
 10
219.833336
 20
154.255561
 30
0.0
 11
223.833337
 21
154.255561
 31
0.0
  0
LINE
  5
1cf
100
AcDbEntity
  8
Layer_1
 62
7
100
AcDbLine
 10
223.833337
 20
154.255561
 30
0.0
 11
223.833337
 21
158.255561
 31
0.0
  0
LINE
  5
1d0
100
AcDbEntity
  8
Layer_1
 62
7
100
AcDbLine
 10
223.833337
 20
158.255561
 30
0.0
 11
227.833337
 21
158.255561
 31
0.0
  0
LINE
  5
1d1
100
AcDbEntity
  8
Layer_1
 62
7
100
AcDbLine
 10
227.833337
 20
158.255561
 30
0.0
 11
227.833337
 21
154.255561
 31
0.0
  0
LINE
  5
1d2
100
AcDbEntity
  8
Layer_1
 62
7
100
AcDbLine
 10
227.833337
 20
154.255561
 30
0.0
 11
231.833337
 21
154.255561
 31
0.0
  0
LINE
  5
1d3
100
AcDbEntity
  8
Layer_1
 62
7
100
AcDbLine
 10
231.833337
 20
154.255561
 30
0.0
 11
231.833337
 21
158.255561
 31
0.0
  0
LINE
  5
1d4
100
AcDbEntity
  8
Layer_1
 62
7
100
AcDbLine
 10
231.833337
 20
158.255561
 30
0.0
 11
237.083337
 21
158.255561
 31
0.0
  0
LINE
  5
1d5
100
AcDbEntity
  8
Layer_1
 62
7
100
AcDbLine
 10
237.083337
 20
158.255561
 30
0.0
 11
237.083337
 21
154.255561
 31
0.0
  0
LINE
  5
1d6
100
AcDbEntity
  8
Layer_1
 62
7
100
AcDbLine
 10
237.083337
 20
154.255561
 30
0.0
 11
238.333337
 21
154.255561
 31
0.0
  0
LINE
  5
1d7
100
AcDbEntity
  8
Layer_1
 62
7
100
AcDbLine
 10
238.333337
 20
154.255561
 30
0.0
 11
238.333337
 21
153.655561
 31
0.0
  0
LINE
  5
1d8
100
AcDbEntity
  8
Layer_1
 62
7
100
AcDbLine
 10
238.333337
 20
153.655561
 30
0.0
 11
242.333337
 21
153.655561
 31
0.0
  0
LINE
  5
1d9
100
AcDbEntity
  8
Layer_1
 62
7
100
AcDbLine
 10
242.333337
 20
153.655561
 30
0.0
 11
242.333337
 21
149.055560
 31
0.0
  0
LINE
  5
1da
100
AcDbEntity
  8
Layer_1
 62
7
100
AcDbLine
 10
242.333337
 20
149.055560
 30
0.0
 11
238.333337
 21
149.055560
 31
0.0
  0
LINE
  5
1db
100
AcDbEntity
  8
Layer_1
 62
7
100
AcDbLine
 10
238.333337
 20
149.055560
 30
0.0
 11
238.333337
 21
144.455560
 31
0.0
  0
LINE
  5
1dc
100
AcDbEntity
  8
Layer_1
 62
7
100
AcDbLine
 10
238.333337
 20
144.455560
 30
0.0
 11
242.333337
 21
144.455560
 31
0.0
  0
LINE
  5
1dd
100
AcDbEntity
  8
Layer_1
 62
7
100
AcDbLine
 10
242.333337
 20
144.455560
 30
0.0
 11
242.333337
 21
139.855560
 31
0.0
  0
LINE
  5
1de
100
AcDbEntity
  8
Layer_1
 62
7
100
AcDbLine
 10
242.333337
 20
139.855560
 30
0.0
 11
238.333337
 21
139.855560
 31
0.0
  0
LINE
  5
1df
100
AcDbEntity
  8
Layer_1
 62
7
100
AcDbLine
 10
238.333337
 20
139.855560
 30
0.0
 11
238.333337
 21
139.255560
 31
0.0
  0
LINE
  5
1e0
100
AcDbEntity
  8
Layer_1
 62
7
100
AcDbLine
 10
238.333337
 20
139.255560
 30
0.0
 11
237.083337
 21
139.255560
 31
0.0
  0
LINE
  5
1e1
100
AcDbEntity
  8
Layer_1
 62
7
100
AcDbLine
 10
237.083337
 20
139.255560
 30
0.0
 11
237.083337
 21
135.255560
 31
0.0
  0
LINE
  5
1e2
100
AcDbEntity
  8
Layer_1
 62
7
100
AcDbLine
 10
237.083337
 20
135.255560
 30
0.0
 11
231.833337
 21
135.255560
 31
0.0
  0
LINE
  5
1e3
100
AcDbEntity
  8
Layer_1
 62
7
100
AcDbLine
 10
231.833337
 20
135.255560
 30
0.0
 11
231.833337
 21
139.255560
 31
0.0
  0
LINE
  5
1e4
100
AcDbEntity
  8
Layer_1
 62
7
100
AcDbLine
 10
231.833337
 20
139.255560
 30
0.0
 11
227.833337
 21
139.255560
 31
0.0
  0
LINE
  5
1e5
100
AcDbEntity
  8
Layer_1
 62
7
100
AcDbLine
 10
227.833337
 20
139.255560
 30
0.0
 11
227.833337
 21
135.255560
 31
0.0
  0
LINE
  5
1e6
100
AcDbEntity
  8
Layer_1
 62
7
100
AcDbLine
 10
227.833337
 20
135.255560
 30
0.0
 11
223.833337
 21
135.255560
 31
0.0
  0
LINE
  5
1e7
100
AcDbEntity
  8
Layer_1
 62
7
100
AcDbLine
 10
223.833337
 20
135.255560
 30
0.0
 11
223.833337
 21
139.255560
 31
0.0
  0
LINE
  5
1e8
100
AcDbEntity
  8
Layer_1
 62
7
100
AcDbLine
 10
223.833337
 20
139.255560
 30
0.0
 11
219.833336
 21
139.255560
 31
0.0
  0
LINE
  5
1e9
100
AcDbEntity
  8
Layer_1
 62
7
100
AcDbLine
 10
219.833336
 20
139.255560
 30
0.0
 11
219.833336
 21
135.255560
 31
0.0
  0
LINE
  5
1ea
100
AcDbEntity
  8
Layer_1
 62
7
100
AcDbLine
 10
219.833336
 20
135.255560
 30
0.0
 11
215.833336
 21
135.255560
 31
0.0
  0
LINE
  5
1eb
100
AcDbEntity
  8
Layer_1
 62
7
100
AcDbLine
 10
215.833336
 20
135.255560
 30
0.0
 11
215.833336
 21
139.255560
 31
0.0
  0
LINE
  5
1ec
100
AcDbEntity
  8
Layer_1
 62
7
100
AcDbLine
 10
215.833336
 20
139.255560
 30
0.0
 11
211.833338
 21
139.255560
 31
0.0
  0
LINE
  5
1ed
100
AcDbEntity
  8
Layer_1
 62
7
100
AcDbLine
 10
211.833338
 20
139.255560
 30
0.0
 11
211.833338
 21
135.255560
 31
0.0
  0
LINE
  5
1ee
100
AcDbEntity
  8
Layer_1
 62
7
100
AcDbLine
 10
211.833338
 20
135.255560
 30
0.0
 11
207.833338
 21
135.255560
 31
0.0
  0
LINE
  5
1ef
100
AcDbEntity
  8
Layer_1
 62
7
100
AcDbLine
 10
207.833338
 20
135.255560
 30
0.0
 11
207.833338
 21
139.255560
 31
0.0
  0
LINE
  5
1f0
100
AcDbEntity
  8
Layer_1
 62
7
100
AcDbLine
 10
207.833338
 20
139.255560
 30
0.0
 11
203.833335
 21
139.255560
 31
0.0
  0
LINE
  5
1f1
100
AcDbEntity
  8
Layer_1
 62
7
100
AcDbLine
 10
203.833335
 20
139.255560
 30
0.0
 11
203.833335
 21
135.255560
 31
0.0
  0
LINE
  5
1f2
100
AcDbEntity
  8
Layer_1
 62
7
100
AcDbLine
 10
203.833335
 20
135.255560
 30
0.0
 11
199.833335
 21
135.255560
 31
0.0
  0
LINE
  5
1f3
100
AcDbEntity
  8
Layer_1
 62
7
100
AcDbLine
 10
199.833335
 20
135.255560
 30
0.0
 11
199.833335
 21
139.255560
 31
0.0
  0
LINE
  5
1f4
100
AcDbEntity
  8
Layer_1
 62
7
100
AcDbLine
 10
199.833335
 20
139.255560
 30
0.0
 11
195.833337
 21
139.255560
 31
0.0
  0
LINE
  5
1f5
100
AcDbEntity
  8
Layer_1
 62
7
100
AcDbLine
 10
195.833337
 20
139.255560
 30
0.0
 11
195.833337
 21
135.255560
 31
0.0
  0
LINE
  5
1f6
100
AcDbEntity
  8
Layer_1
 62
7
100
AcDbLine
 10
195.833337
 20
135.255560
 30
0.0
 11
191.833337
 21
135.255560
 31
0.0
  0
LINE
  5
1f7
100
AcDbEntity
  8
Layer_1
 62
7
100
AcDbLine
 10
191.833337
 20
135.255560
 30
0.0
 11
191.833337
 21
139.255560
 31
0.0
  0
LINE
  5
1f8
100
AcDbEntity
  8
Layer_1
 62
7
100
AcDbLine
 10
191.833337
 20
139.255560
 30
0.0
 11
187.833334
 21
139.255560
 31
0.0
  0
LINE
  5
1f9
100
AcDbEntity
  8
Layer_1
 62
7
100
AcDbLine
 10
187.833334
 20
139.255560
 30
0.0
 11
187.833334
 21
135.255560
 31
0.0
  0
LINE
  5
1fa
100
AcDbEntity
  8
Layer_1
 62
7
100
AcDbLine
 10
187.833334
 20
135.255560
 30
0.0
 11
183.833334
 21
135.255560
 31
0.0
  0
LINE
  5
1fb
100
AcDbEntity
  8
Layer_1
 62
7
100
AcDbLine
 10
183.833334
 20
135.255560
 30
0.0
 11
183.833334
 21
139.255560
 31
0.0
  0
LINE
  5
1fc
100
AcDbEntity
  8
Layer_1
 62
7
100
AcDbLine
 10
183.833334
 20
139.255560
 30
0.0
 11
179.833337
 21
139.255560
 31
0.0
  0
LINE
  5
1fd
100
AcDbEntity
  8
Layer_1
 62
7
100
AcDbLine
 10
179.833337
 20
139.255560
 30
0.0
 11
179.833337
 21
135.255560
 31
0.0
  0
LINE
  5
1fe
100
AcDbEntity
  8
Layer_1
 62
7
100
AcDbLine
 10
179.833337
 20
135.255560
 30
0.0
 11
175.833334
 21
135.255560
 31
0.0
  0
LINE
  5
1ff
100
AcDbEntity
  8
Layer_1
 62
7
100
AcDbLine
 10
175.833334
 20
135.255560
 30
0.0
 11
175.833334
 21
139.255560
 31
0.0
  0
LINE
  5
200
100
AcDbEntity
  8
Layer_1
 62
7
100
AcDbLine
 10
175.833334
 20
139.255560
 30
0.0
 11
171.833334
 21
139.255560
 31
0.0
  0
LINE
  5
201
100
AcDbEntity
  8
Layer_1
 62
7
100
AcDbLine
 10
171.833334
 20
139.255560
 30
0.0
 11
171.833334
 21
135.255560
 31
0.0
  0
LINE
  5
202
100
AcDbEntity
  8
Layer_1
 62
7
100
AcDbLine
 10
171.833334
 20
135.255560
 30
0.0
 11
167.833337
 21
135.255560
 31
0.0
  0
LINE
  5
203
100
AcDbEntity
  8
Layer_1
 62
7
100
AcDbLine
 10
167.833337
 20
135.255560
 30
0.0
 11
167.833337
 21
139.255560
 31
0.0
  0
LINE
  5
204
100
AcDbEntity
  8
Layer_1
 62
7
100
AcDbLine
 10
167.833337
 20
139.255560
 30
0.0
 11
163.833337
 21
139.255560
 31
0.0
  0
LINE
  5
205
100
AcDbEntity
  8
Layer_1
 62
7
100
AcDbLine
 10
163.833337
 20
139.255560
 30
0.0
 11
163.833337
 21
135.255560
 31
0.0
  0
LINE
  5
206
100
AcDbEntity
  8
Layer_1
 62
7
100
AcDbLine
 10
163.833337
 20
135.255560
 30
0.0
 11
159.833336
 21
135.255560
 31
0.0
  0
LINE
  5
207
100
AcDbEntity
  8
Layer_1
 62
7
100
AcDbLine
 10
159.833336
 20
135.255560
 30
0.0
 11
159.833336
 21
139.255560
 31
0.0
  0
LINE
  5
208
100
AcDbEntity
  8
Layer_1
 62
7
100
AcDbLine
 10
159.833336
 20
139.255560
 30
0.0
 11
155.833336
 21
139.255560
 31
0.0
  0
LINE
  5
209
100
AcDbEntity
  8
Layer_1
 62
7
100
AcDbLine
 10
155.833336
 20
139.255560
 30
0.0
 11
155.833336
 21
135.255560
 31
0.0
  0
LINE
  5
20a
100
AcDbEntity
  8
Layer_1
 62
7
100
AcDbLine
 10
155.833336
 20
135.255560
 30
0.0
 11
151.833336
 21
135.255560
 31
0.0
  0
LINE
  5
20b
100
AcDbEntity
  8
Layer_1
 62
7
100
AcDbLine
 10
151.833336
 20
135.255560
 30
0.0
 11
151.833336
 21
139.255560
 31
0.0
  0
LINE
  5
20c
100
AcDbEntity
  8
Layer_1
 62
7
100
AcDbLine
 10
151.833336
 20
139.255560
 30
0.0
 11
147.833336
 21
139.255560
 31
0.0
  0
LINE
  5
20d
100
AcDbEntity
  8
Layer_1
 62
7
100
AcDbLine
 10
147.833336
 20
139.255560
 30
0.0
 11
147.833336
 21
135.255560
 31
0.0
  0
LINE
  5
20e
100
AcDbEntity
  8
Layer_1
 62
7
100
AcDbLine
 10
147.833336
 20
135.255560
 30
0.0
 11
143.833336
 21
135.255560
 31
0.0
  0
LINE
  5
20f
100
AcDbEntity
  8
Layer_1
 62
7
100
AcDbLine
 10
143.833336
 20
135.255560
 30
0.0
 11
143.833336
 21
139.255560
 31
0.0
  0
LINE
  5
210
100
AcDbEntity
  8
Layer_1
 62
7
100
AcDbLine
 10
143.833336
 20
139.255560
 30
0.0
 11
139.833336
 21
139.255560
 31
0.0
  0
LINE
  5
211
100
AcDbEntity
  8
Layer_1
 62
7
100
AcDbLine
 10
139.833336
 20
139.255560
 30
0.0
 11
139.833336
 21
135.255560
 31
0.0
  0
LINE
  5
212
100
AcDbEntity
  8
Layer_1
 62
7
100
AcDbLine
 10
139.833336
 20
135.255560
 30
0.0
 11
135.833336
 21
135.255560
 31
0.0
  0
LINE
  5
213
100
AcDbEntity
  8
Layer_1
 62
7
100
AcDbLine
 10
135.833336
 20
135.255560
 30
0.0
 11
135.833336
 21
139.255560
 31
0.0
  0
LINE
  5
214
100
AcDbEntity
  8
Layer_1
 62
7
100
AcDbLine
 10
135.833336
 20
139.255560
 30
0.0
 11
131.833336
 21
139.255560
 31
0.0
  0
LINE
  5
215
100
AcDbEntity
  8
Layer_1
 62
7
100
AcDbLine
 10
131.833336
 20
139.255560
 30
0.0
 11
131.833336
 21
135.255560
 31
0.0
  0
LINE
  5
216
100
AcDbEntity
  8
Layer_1
 62
7
100
AcDbLine
 10
131.833336
 20
135.255560
 30
0.0
 11
127.833336
 21
135.255560
 31
0.0
  0
LINE
  5
217
100
AcDbEntity
  8
Layer_1
 62
7
100
AcDbLine
 10
127.833336
 20
135.255560
 30
0.0
 11
127.833336
 21
139.255560
 31
0.0
  0
LINE
  5
218
100
AcDbEntity
  8
Layer_1
 62
7
100
AcDbLine
 10
127.833336
 20
139.255560
 30
0.0
 11
123.833336
 21
139.255560
 31
0.0
  0
LINE
  5
219
100
AcDbEntity
  8
Layer_1
 62
7
100
AcDbLine
 10
123.833336
 20
139.255560
 30
0.0
 11
123.833336
 21
135.255560
 31
0.0
  0
LINE
  5
21a
100
AcDbEntity
  8
Layer_1
 62
7
100
AcDbLine
 10
123.833336
 20
135.255560
 30
0.0
 11
119.833333
 21
135.255560
 31
0.0
  0
LINE
  5
21b
100
AcDbEntity
  8
Layer_1
 62
7
100
AcDbLine
 10
119.833333
 20
135.255560
 30
0.0
 11
119.833333
 21
139.255560
 31
0.0
  0
ENDSEC
  0
SECTION
  2
OBJECTS
  0
DICTIONARY
  5
C
330
0
100
AcDbDictionary
  3
ACAD_GROUP
350
D
  3
ACAD_MLINESTYLE
350
17
  0
DICTIONARY
  5
D
330
C
100
AcDbDictionary
  0
DICTIONARY
  5
1A
330
C
100
AcDbDictionary
  0
DICTIONARY
  5
17
330
C
100
AcDbDictionary
  3
STANDARD
350
18
  0
DICTIONARY
  5
19
330
C
100
AcDbDictionary
  0
ENDSEC
  0
EOF
