<?xml version="1.0" encoding="UTF-8" standalone="no"?>
<!-- Created with Inkscape (http://www.inkscape.org/) -->

<svg
   xmlns:dc="http://purl.org/dc/elements/1.1/"
   xmlns:cc="http://creativecommons.org/ns#"
   xmlns:rdf="http://www.w3.org/1999/02/22-rdf-syntax-ns#"
   xmlns:svg="http://www.w3.org/2000/svg"
   xmlns="http://www.w3.org/2000/svg"
   xmlns:sodipodi="http://sodipodi.sourceforge.net/DTD/sodipodi-0.dtd"
   xmlns:inkscape="http://www.inkscape.org/namespaces/inkscape"
   width="1736.2205"
   height="1027.5591"
   id="svg2"
   version="1.1"
   inkscape:version="0.48.4 r9939"
   sodipodi:docname="lasercut_top.dxf">
  <defs
     id="defs4">
    <path
       transform="matrix(10,0,0,-10,260,260)"
       style="fill:#ff0000"
       id="p"
       d="M 2.8117,-1.046 A 3,3 0 0 1 0.5,2.958 V 4.5119 A 10.5,10.5 0 0 1 2,25.3078 v 0.5583 A 15,15 0 0 0 14.7975,8.5433 15,15 0 0 0 23.4007,-11.201 l -0.4835,0.2792 A 10.5,10.5 0 0 1 4.1574,-1.8229 z m 3.4148,8.871 a 10,10 0 0 1 -12.453,0 9.5,9.5 0 0 0 -2.1756,2.7417 13.5,13.5 0 0 0 16.8042,0 A 10,10 0 0 0 6.2265,7.825 z"
       inkscape:connector-curvature="0" />
  </defs>
  <sodipodi:namedview
     id="base"
     pagecolor="#ffffff"
     bordercolor="#666666"
     borderopacity="1.0"
     inkscape:pageopacity="0.0"
     inkscape:pageshadow="2"
     inkscape:zoom="0.49497475"
     inkscape:cx="683.56656"
     inkscape:cy="608.00596"
     inkscape:document-units="mm"
     inkscape:current-layer="layer1"
     showgrid="false"
     inkscape:window-width="1440"
     inkscape:window-height="840"
     inkscape:window-x="0"
     inkscape:window-y="25"
     inkscape:window-maximized="1"
     units="mm"
     showguides="true"
     inkscape:guide-bbox="true" />
  <metadata
     id="metadata7">
    <rdf:RDF>
      <cc:Work
         rdf:about="">
        <dc:format>image/svg+xml</dc:format>
        <dc:type
           rdf:resource="http://purl.org/dc/dcmitype/StillImage" />
        <dc:title></dc:title>
      </cc:Work>
    </rdf:RDF>
  </metadata>
  <g
     inkscape:label="Layer 1"
     inkscape:groupmode="layer"
     id="layer1"
     transform="translate(0,-24.802981)">
    <g
       id="g3026">
      <path
         inkscape:connector-curvature="0"
         id="path3904"
         d="M 930.2275,571.87492 A 45.02731,45.02731 0 0 0 895.53097,511.77844 V 488.45583 A 157.5956,157.5956 0 0 0 918.04461,176.32799 V 167.9484 A 225.13655,225.13655 0 0 1 1110.1236,427.9481 225.13655,225.13655 0 0 1 1239.25,724.29236 l -7.257,-4.19057 A 157.5956,157.5956 0 0 0 950.42526,583.53547 z"
         style="fill:none;stroke:#000000;stroke-width:3.19783473;stroke-miterlimit:4;stroke-opacity:1;stroke-dasharray:none" />
      <path
         inkscape:connector-curvature="0"
         id="use3062"
         d="m 946.02305,429.29332 a 150.09104,150.09104 0 0 0 -186.90837,0 142.58648,142.58648 0 0 1 -32.65382,-41.15049 202.62291,202.62291 0 0 1 252.21601,0 150.09104,150.09104 0 0 1 -32.65382,41.15049 z"
         style="fill:none;stroke:#000000;stroke-width:3.19783473;stroke-miterlimit:4;stroke-opacity:1;stroke-dasharray:none" />
      <path
         inkscape:connector-curvature="0"
         id="path3908"
         d="m 817.87212,637.40416 a 45.02731,45.02731 0 0 0 69.39334,1.5e-4 l 20.19801,11.66131 a 157.5956,157.5956 0 0 0 259.05373,175.56132 l 7.257,4.1898 A 225.13655,225.13655 0 0 1 852.56828,865.16217 225.13655,225.13655 0 0 1 531.36352,828.81674 l 7.25758,-4.1894 a 157.5956,157.5956 0 0 0 259.05379,-175.5617 z"
         style="fill:none;stroke:#000000;stroke-width:3.19783473;stroke-miterlimit:4;stroke-opacity:1;stroke-dasharray:none" />
      <path
         inkscape:connector-curvature="0"
         id="use3064"
         d="m 931.87048,731.57113 a 150.09104,150.09104 0 0 0 93.45422,-161.86742 142.58648,142.58648 0 0 1 51.9642,-7.70376 202.62291,202.62291 0 0 1 -126.10797,218.4254 150.09104,150.09104 0 0 1 -19.31045,-48.85422 z"
         style="fill:none;stroke:#000000;stroke-width:3.19783473;stroke-miterlimit:4;stroke-opacity:1;stroke-dasharray:none" />
      <path
         inkscape:connector-curvature="0"
         id="path3900"
         d="m 809.60695,511.7784 a 45.02731,45.02731 0 0 0 -34.69677,60.09631 l -20.19803,11.66132 a 157.5956,157.5956 0 0 0 -281.56743,136.5665 l -7.25692,4.18981 A 225.13655,225.13655 0 0 1 595.01465,427.94718 225.13655,225.13655 0 0 1 787.09313,167.9484 l -6.8e-4,8.3799 a 157.5956,157.5956 0 0 0 22.51399,312.12806 z"
         style="fill:none;stroke:#000000;stroke-width:3.19783473;stroke-miterlimit:4;stroke-opacity:1;stroke-dasharray:none" />
      <path
         inkscape:connector-curvature="0"
         id="use3066"
         d="m 679.81304,569.70762 a 150.09104,150.09104 0 0 0 93.45421,161.86741 142.58648,142.58648 0 0 1 -19.31046,48.85424 202.62291,202.62291 0 0 1 -126.10798,-218.42542 150.09104,150.09104 0 0 1 51.96423,7.70377 z"
         style="fill:none;stroke:#000000;stroke-width:3.19783473;stroke-miterlimit:4;stroke-opacity:1;stroke-dasharray:none" />
    </g>
    <rect
       style="fill:none;stroke:#ff0000;stroke-width:0.40000001;stroke-linecap:round;stroke-linejoin:round;stroke-miterlimit:4;stroke-opacity:1;stroke-dasharray:none"
       id="rect3850"
       width="171.72594"
       height="283.85287"
       x="-1218.5521"
       y="-708.104"
       transform="matrix(-0.97370702,0.22780397,-0.22780397,-0.97370702,0,0)" />
    <rect
       style="fill:none;stroke:#ff0000;stroke-width:0.40000001;stroke-linecap:round;stroke-linejoin:round;stroke-miterlimit:4;stroke-opacity:1;stroke-dasharray:none"
       id="rect3852"
       width="179.80716"
       height="53.538086"
       x="-159.8029"
       y="1318.8154"
       transform="matrix(0.5,-0.8660254,0.8660254,0.5,0,0)" />
    <rect
       y="226.81644"
       x="761.65497"
       height="53.538086"
       width="179.80716"
       id="rect3854"
       style="fill:none;stroke:#ff0000;stroke-width:0.40000001;stroke-linecap:round;stroke-linejoin:round;stroke-miterlimit:4;stroke-opacity:1;stroke-dasharray:none" />
    <rect
       style="fill:none;stroke:#ff0000;stroke-width:0.40000001;stroke-linecap:round;stroke-linejoin:round;stroke-miterlimit:4;stroke-opacity:1;stroke-dasharray:none"
       id="rect3856"
       width="179.80716"
       height="53.538086"
       x="829.97461"
       y="-151.37114"
       transform="matrix(0.5,0.8660254,-0.8660254,0.5,0,0)" />
    <g
       id="g3862"
       transform="matrix(0,1,-1,0,987.87173,1371.0989)">
      <rect
         transform="matrix(0,-1,1,0,0,0)"
         y="-510.12701"
         x="243.66367"
         height="88.893425"
         width="119.198"
         id="rect3858"
         style="fill:none;stroke:#ff0000;stroke-width:0.40000001;stroke-linecap:round;stroke-linejoin:round;stroke-miterlimit:4;stroke-opacity:1;stroke-dasharray:none" />
      <rect
         y="-322.45557"
         x="-420.83359"
         height="38.385796"
         width="90.913727"
         id="rect3860"
         style="fill:none;stroke:#ff0000;stroke-width:0.40000001;stroke-linecap:round;stroke-linejoin:round;stroke-miterlimit:4;stroke-opacity:1;stroke-dasharray:none" />
    </g>
    <rect
       style="fill:none;stroke:none"
       id="rect3032"
       width="1050.5586"
       height="1050.5586"
       x="323.24881"
       y="49.958542" />
    <rect
       style="fill:none;stroke:#000000;stroke-width:2.98732185;stroke-linecap:round;stroke-linejoin:round;stroke-miterlimit:4;stroke-opacity:1;stroke-dasharray:none"
       id="rect3038"
       width="1052.9181"
       height="982.05206"
       x="326.10968"
       y="51.145279" />
    <path
       sodipodi:type="arc"
       style="fill:none;stroke:#ff0000;stroke-width:2;stroke-linecap:round;stroke-linejoin:round;stroke-miterlimit:4;stroke-opacity:1;stroke-dasharray:none"
       id="path3040"
       sodipodi:cx="430.32498"
       sodipodi:cy="523.04224"
       sodipodi:rx="20.203051"
       sodipodi:ry="20.203051"
       d="m 450.52803,523.04224 c 0,11.15783 -9.04521,20.20305 -20.20305,20.20305 -11.15784,0 -20.20305,-9.04522 -20.20305,-20.20305 0,-11.15784 9.04521,-20.20305 20.20305,-20.20305 11.15784,0 20.20305,9.04521 20.20305,20.20305 z"
       transform="translate(422.24375,49.638207)" />
    <path
       style="fill:none;stroke:#ff0000;stroke-width:1px;stroke-linecap:butt;stroke-linejoin:miter;stroke-opacity:1"
       d="m 1266.7313,862.12119 c 17.1092,-27.35379 5.125,-72.51957 16.4761,-102.68884 29.1723,-124.33237 26.9009,-259.36075 25.4812,-347.94326 -5.2948,-5.97019 -8.9486,-19.80092 -17.7137,-20.09899"
       id="path3044"
       inkscape:connector-curvature="0"
       sodipodi:nodetypes="cccc" />
    <path
       style="fill:none;stroke:#ff0000;stroke-width:1px;stroke-linecap:butt;stroke-linejoin:miter;stroke-opacity:1"
       d="m 1171.7769,128.75044 c -5.7216,-2.18452 -10.4781,-2.02031 -16.1624,-2.02031 -4.5643,0 0.9035,0.30117 -6.0609,-2.0203 -1.1399,-0.37995 -4.7334,0 -6.0609,0 -5.3875,0 -10.775,0 -16.1625,0 -1.3468,0 -2.7628,0.42592 -4.0406,0 -0.9035,-0.30117 -1.0775,-1.88562 -2.0203,-2.02031 -4,-0.57142 -8.0812,0 -12.1218,0 -7.4078,0 -14.8156,0 -22.2234,0 -2.6937,0 -5.4398,0.52829 -8.0812,0 -0.9339,-0.18677 -1.0864,-1.83352 -2.0203,-2.0203 -2.6414,-0.52829 -5.3875,0 -8.0812,0 -0.6734,0 -1.3814,-0.21296 -2.0203,0 -1.4286,0.47619 -2.5348,2.0203 -4.0406,2.0203 -0.9524,0 -1.1685,-1.59438 -2.0203,-2.0203 -0.4528,-0.22641 -7.6012,0 -8.0813,0 -8.0812,0 -16.1624,0 -24.2436,0 -1.2912,0 -11.5391,0.29139 -12.1218,0 -0.6024,-0.30117 0.4761,-1.54412 0,-2.02031 -0.4762,-0.47619 -1.3469,0 -2.0203,0 -1.7146,0 -11.0081,0.37125 -12.1219,0 -0.9035,-0.30116 -1.1168,-1.71913 -2.0203,-2.0203 -1.11373,-0.37125 -10.40729,0 -12.12181,0 -4.04061,0 -8.08122,0 -12.12183,0 -1.34687,0 -2.76286,0.42592 -4.04061,0 -0.90351,-0.30117 -1.09636,-1.78932 -2.02031,-2.02031 -1.95998,-0.48999 -4.04061,0 -6.06091,0 -4.04061,0 -8.08122,0 -12.12183,0 -5.38748,0 -10.77496,0 -16.16244,0 -0.90986,0 -5.44607,-0.30742 -6.06092,0 -0.85183,0.42592 -1.16847,1.59439 -2.0203,2.02031 -0.61485,0.30742 -5.15106,0 -6.06092,0 -4.04061,0 -8.08122,0 -12.12183,0 -2.0203,0 -4.10093,-0.49 -6.06091,0 -1.46089,0.36522 -2.61204,1.54411 -4.04061,2.0203 -1.13986,0.37996 -4.73336,0 -6.06092,0 -4.71404,0 -9.42809,0 -14.14213,0 -1.34688,0 -2.73396,-0.32666 -4.04062,0 -1.46088,0.36523 -2.61203,1.54412 -4.04061,2.02031 -0.63887,0.21296 -1.38142,-0.21296 -2.0203,0 -1.42857,0.47619 -2.57972,1.65508 -4.04061,2.0203 -1.30666,0.32667 -2.73395,-0.32666 -4.04061,0 -1.40611,0.35153 -5.18077,2.28032 -6.06092,4.04061 -0.30117,0.60234 0.30117,1.41797 0,2.02031 -0.85183,1.70367 -3.18877,2.33694 -4.04061,4.04061 -0.30117,0.60234 0.47619,1.54411 0,2.02031 -1.06479,1.06479 -2.97581,0.95551 -4.04061,2.0203 -0.95238,0.95238 0.42592,2.76286 0,4.04061 -4.87797,14.63391 0.58247,-3.18523 -4.04061,6.06092 -0.30117,0.60233 0.30117,1.41796 0,2.0203 -0.42591,0.85184 -2.0203,1.06792 -2.0203,2.02031 0,0.95238 1.59439,1.16847 2.0203,2.0203 0.63728,1.27455 -0.63727,8.82698 0,10.10153 0.42592,0.85183 1.59439,1.16847 2.02031,2.0203 0.30117,0.60234 -0.30117,1.41797 0,2.02031 0.42592,0.85183 1.59439,1.16847 2.0203,2.0203 0.60234,1.20468 -0.60233,2.83594 0,4.04061 1.21219,2.42437 4.84874,3.63655 6.06092,6.06092 0.30117,0.60234 -0.47619,1.54411 0,2.0203 0.47619,0.47619 1.41797,-0.30117 2.0203,0 0.85184,0.42592 1.34687,1.34687 2.02031,2.02031 0.67343,0.67343 1.34687,1.34687 2.0203,2.0203 1.18823,1.18823 7.14566,7.61344 8.08122,8.08122 0.60234,0.30117 1.41797,-0.30117 2.02031,0 6.16104,3.08053 -3.69503,1.60163 6.06091,4.04061 1.30666,0.32667 2.76286,-0.42591 4.04062,0 0.9035,0.30117 1.22787,1.49202 2.0203,2.02031 1.25294,0.83529 2.61204,1.54411 4.04061,2.0203 0.63888,0.21296 1.34687,0 2.02031,0 3.36717,0 6.73435,0 10.10152,0 1.61212,0 8.88946,-0.40402 10.10153,0 1.42857,0.47619 2.61204,1.54412 4.04061,2.02031 1.79288,0.59763 8.77859,-0.66147 10.10152,0 0.85184,0.42592 1.16847,1.59439 2.02031,2.0203 1.29456,0.64729 10.86715,-0.62733 12.12183,0 0.85183,0.42592 1.16847,1.59439 2.0203,2.02031 0.60234,0.30117 1.54412,-0.47619 2.02031,0 0.47619,0.47619 -0.30117,1.41797 0,2.0203 0.85183,1.70367 3.18877,2.33694 4.04061,4.04061 0.30117,0.60234 -0.30117,1.41797 0,2.02031 1.21218,2.42437 4.84873,3.63655 6.06091,6.06091 0.30117,0.60234 -0.30117,1.41797 0,2.02031 0.85184,1.70367 3.18878,2.33694 4.04061,4.04061 0.60234,1.20468 -0.60234,2.83593 0,4.04061 0.42592,0.85184 1.59439,1.16847 2.02031,2.0203 0.30742,0.61485 0,5.15106 0,6.06092 0,1.05646 0.26561,7.55 0,8.08122 -0.42592,0.85184 -1.1168,1.71914 -2.02031,2.02031 -1.27775,0.42591 -2.76285,-0.42592 -4.04061,0 -0.9035,0.30116 -1.16847,1.59438 -2.0203,2.0203 -0.60234,0.30117 -2.02031,0.67344 -2.02031,0 0,-0.67343 1.34687,0 2.02031,0"
       id="path3046"
       inkscape:connector-curvature="0" />
    <path
       style="fill:none;stroke:#ff0000;stroke-width:1px;stroke-linecap:butt;stroke-linejoin:miter;stroke-opacity:1"
       d="m 763.67533,258.04997 c -7.52223,-18.37384 -38.93791,-41.69881 -6.90619,-56.07033 18.48465,-13.03654 45.22115,-11.03329 51.3529,-38.88401 27.96738,-10.05649 25.20548,-61.8215 -10.68933,-54.06884 -37.52397,-2.9645 -75.07896,3.18914 -112.27663,4.67654 -87.35562,12.92439 -199.24391,33.83557 -221.70368,110.45208 -5.6428,34.77892 -4.58428,70.37138 -13.33618,104.83368 -26.24571,102.87986 -42.4225,422.34949 -6.96679,474.12205 24.45844,7.53022 60.68613,8.93289 63.8125,-25.09839 7.27629,-31.91945 -16.7149,-56.95009 -17.47223,-87.79446 5.63387,-17.85911 -23.04712,-60.84043 5.77456,-58.23037 8.09318,7.23642 20.66317,10.52238 23.95415,22.04184"
       id="path3048"
       inkscape:connector-curvature="0"
       sodipodi:nodetypes="cccccccccccc" />
    <path
       style="fill:none;stroke:#ff0000;stroke-width:1px;stroke-linecap:butt;stroke-linejoin:miter;stroke-opacity:1"
       d="m 612.15244,815.65417 c 14.98703,16.42951 15.5579,57.54658 -14.14213,46.46702 -19.80406,1.02186 -31.35242,-8.32158 -46.46702,-18.18275 -8.0792,-3.46805 -10.79244,-24.97657 -24.22198,-26.33841 -19.25288,-5.86449 -40.8503,13.22846 -54.51873,12.8477 -19.15182,8.85515 -35.49119,27.18253 -40.45729,47.8359 5.90087,18.23866 16.62133,27.45748 25.12978,39.37778 170.21724,41.44049 591.76513,31.35584 722.38313,19.21107 18.8765,-46.10547 57.9362,-87.40331 48.4873,-137.38075 -45.0076,-53.37059 -158.7054,105.23722 -163.6447,46.46702 5.1194,-19.36193 6.968,-16.95498 12.7493,-32.50187 l -1.0153,0.46016 2.4081,-2.30348"
       id="path3052"
       inkscape:connector-curvature="0"
       sodipodi:nodetypes="ccccccccccccc" />
    <path
       style="fill:none;stroke:#ff0000;stroke-width:1px;stroke-linecap:butt;stroke-linejoin:miter;stroke-opacity:1"
       d="m 1311.178,862.12119 c -1.0973,-3.75017 13.847,-7.78607 16.1624,-10.10153 0.4762,-0.47619 -0.5387,-1.61624 0,-2.0203 2.4094,-1.80702 5.4988,-2.49111 8.0813,-4.04061 0.8166,-0.49 1.2278,-1.49202 2.0203,-2.02031 1.2529,-0.83529 2.7876,-1.18501 4.0406,-2.0203 1.5848,-1.05658 2.5168,-2.89776 4.0406,-4.04061 1.9425,-1.45687 4.344,-2.32368 6.0609,-4.04061 1.0648,-1.0648 0.9555,-2.97582 2.0203,-4.04061 2.1296,-2.12959 5.9516,-1.91103 8.0812,-4.04061 1.0648,-1.0648 1.1168,-2.83594 2.0203,-4.04061 0.5463,-0.72837 6.6356,-6.99698 8.0813,-8.08122 16.5324,-12.39933 -5.9911,5.34087 14.1421,-8.08123 1.5848,-1.05657 2.6937,-2.69374 4.0406,-4.04061 1.3469,-1.34687 2.6937,-2.69374 4.0406,-4.04061 0.6734,-0.67343 1.1168,-1.71913 2.0203,-2.0203 1.2778,-0.42592 2.8359,0.60234 4.0406,0 1.7037,-0.85184 2.337,-3.18878 4.0406,-4.04061 1.2047,-0.60234 2.734,0.32666 4.0406,0 1.4609,-0.36522 2.6938,-1.34687 4.0407,-2.02031 2.6937,-1.34687 5.3874,-2.69374 8.0811,-4.04061 1.3469,-0.67343 2.5798,-1.65508 4.0406,-2.0203 1.3067,-0.32667 2.734,0.32666 4.0406,0 1.4609,-0.36522 2.6938,-1.34687 4.0407,-2.02031 2.0203,-0.67343 3.9726,-1.60265 6.0609,-2.0203 3.3018,-0.66036 6.7682,0.47619 10.1015,0 2.7487,-0.39268 5.326,-1.67591 8.0812,-2.02031 1.3902,-0.17377 18.881,-0.22035 20.2031,0 1.4853,0.24756 2.564,1.72499 4.0406,2.02031 1.9811,0.39621 4.0609,-0.28572 6.0609,0 5.2133,-2.08921 7.9454,3.20532 12.1218,4.04061 1.9811,0.39621 4.0406,0 6.0609,0 4.0407,0 8.0813,0 12.1219,0 1.3468,0 2.712,-0.22143 4.0406,0 2.7388,0.45648 5.3325,1.62763 8.0812,2.0203 2,0.28572 4.0406,0 6.0609,0 1.3469,0 2.734,-0.32666 4.0406,0 1.4609,0.36523 2.5798,1.65509 4.0406,2.02031 3.2667,0.81666 6.7998,-0.66036 10.1016,0 1.4766,0.29532 2.5927,1.60662 4.0406,2.0203 3.3017,0.94336 6.7998,1.07696 10.1015,2.02031 9.2328,2.63795 -2.0371,2.0175 10.1015,4.04061 1.9928,0.33214 4.101,-0.49 6.0609,0 0.924,0.23099 1.1685,1.59439 2.0203,2.0203 0.6024,0.30117 1.367,-0.16333 2.0204,0 2.066,0.51651 3.9949,1.50381 6.0609,2.02031 0.6533,0.16333 1.3814,-0.21296 2.0203,0 1.4285,0.47619 2.612,1.54411 4.0406,2.0203 1.2777,0.42592 2.7628,-0.42591 4.0406,0 1.4286,0.4762 2.5797,1.65509 4.0406,2.02031 1.3067,0.32666 2.7629,-0.42592 4.0406,0 0.9035,0.30117 1.1685,1.59439 2.0203,2.0203 0.6024,0.30117 1.418,-0.30116 2.0203,0 0.8519,0.42592 1.1168,1.71914 2.0203,2.02031 1.024,0.34132 12.4906,0 14.1422,0 1.3468,0 2.7628,-0.42592 4.0406,0 0.9035,0.30117 1.1684,1.59439 2.0203,2.0203 0.7306,0.36531 8.6963,0 10.1015,0 6.7344,0 13.4687,0 20.2031,0 4.714,0 9.428,0 14.1421,0 2.0203,0 4.1009,0.49 6.0609,0 10.4906,-2.62264 -2.1568,-2.0203 8.0812,-2.0203"
       id="path3830"
       inkscape:connector-curvature="0" />
    <rect
       y="1152.7474"
       x="398.09329"
       height="78.479515"
       width="967.84961"
       id="rect3839"
       style="fill:none;stroke:#000000;stroke-width:3.01654792;stroke-linecap:round;stroke-linejoin:round;stroke-miterlimit:4;stroke-opacity:1;stroke-dasharray:none" />
    <text
       xml:space="preserve"
       style="font-size:32px;font-style:normal;font-variant:normal;font-weight:normal;font-stretch:normal;line-height:125%;letter-spacing:0px;word-spacing:0px;fill:#800000;fill-opacity:1;stroke:none;font-family:Ubuntu;-inkscape-font-specification:Ubuntu"
       x="1594.0208"
       y="5.511826"
       id="text3841"
       sodipodi:linespacing="125%"><tspan
         sodipodi:role="line"
         id="tspan3843"
         x="1594.0208"
         y="5.511826">TODO:</tspan><tspan
         sodipodi:role="line"
         x="1594.0208"
         y="45.511826"
         id="tspan3845">Laschen und Ausnehmungen</tspan><tspan
         sodipodi:role="line"
         x="1594.0208"
         y="85.511826"
         id="tspan3847">zeichnen sowie Materialstärke</tspan><tspan
         sodipodi:role="line"
         x="1594.0208"
         y="125.51183"
         id="tspan3849">bekannt ist</tspan></text>
    <g
       transform="translate(-930.0535,160.19322)"
       id="g3103">
      <path
         sodipodi:type="inkscape:offset"
         inkscape:radius="0"
         inkscape:original="M 18.59375 0 L 18.59375 14.1875 L 37.21875 14.1875 L 37.21875 0 L 18.59375 0 z M 51.375 0 L 51.375 14.1875 L 65.5625 14.1875 L 65.5625 0 L 51.375 0 z M 79.71875 0 L 79.71875 14.1875 L 93.90625 14.1875 L 93.90625 0 L 79.71875 0 z M 108.0625 0 L 108.0625 14.1875 L 122.25 14.1875 L 122.25 0 L 108.0625 0 z M 136.40625 0 L 136.40625 14.1875 L 150.59375 14.1875 L 150.59375 0 L 136.40625 0 z M 164.75 0 L 164.75 14.1875 L 178.9375 14.1875 L 178.9375 0 L 164.75 0 z M 193.125 0 L 193.125 14.1875 L 207.28125 14.1875 L 207.28125 0 L 193.125 0 z M 221.46875 0 L 221.46875 14.1875 L 235.625 14.1875 L 235.625 0 L 221.46875 0 z M 249.8125 0 L 249.8125 14.1875 L 263.96875 14.1875 L 263.96875 0 L 249.8125 0 z M 278.15625 0 L 278.15625 14.1875 L 292.3125 14.1875 L 292.3125 0 L 278.15625 0 z M 306.5 0 L 306.5 14.1875 L 320.65625 14.1875 L 320.65625 0 L 306.5 0 z M 334.84375 0 L 334.84375 14.1875 L 349.03125 14.1875 L 349.03125 0 L 334.84375 0 z M 363.1875 0 L 363.1875 14.1875 L 377.375 14.1875 L 377.375 0 L 363.1875 0 z M 391.53125 0 L 391.53125 14.1875 L 405.71875 14.1875 L 405.71875 0 L 391.53125 0 z M 419.875 0 L 419.875 14.1875 L 434.0625 14.1875 L 434.0625 0 L 419.875 0 z M 448.21875 0 L 448.21875 14.1875 L 462.40625 14.1875 L 462.40625 0 L 448.21875 0 z M 476.5625 0 L 476.5625 14.1875 L 490.75 14.1875 L 490.75 0 L 476.5625 0 z M 504.90625 0 L 504.90625 14.1875 L 519.09375 14.1875 L 519.09375 0 L 504.90625 0 z M 533.28125 0 L 533.28125 14.1875 L 547.4375 14.1875 L 547.4375 0 L 533.28125 0 z M 561.625 0 L 561.625 14.1875 L 575.78125 14.1875 L 575.78125 0 L 561.625 0 z M 589.96875 0 L 589.96875 14.1875 L 604.125 14.1875 L 604.125 0 L 589.96875 0 z M 618.3125 0 L 618.3125 14.1875 L 632.46875 14.1875 L 632.46875 0 L 618.3125 0 z M 646.65625 0 L 646.65625 14.1875 L 660.8125 14.1875 L 660.8125 0 L 646.65625 0 z M 675 0 L 675 14.1875 L 689.1875 14.1875 L 689.1875 0 L 675 0 z M 703.34375 0 L 703.34375 14.1875 L 717.53125 14.1875 L 717.53125 0 L 703.34375 0 z M 731.6875 0 L 731.6875 14.1875 L 745.875 14.1875 L 745.875 0 L 731.6875 0 z M 760.03125 0 L 760.03125 14.1875 L 774.21875 14.1875 L 774.21875 0 L 760.03125 0 z M 788.375 0 L 788.375 14.1875 L 802.5625 14.1875 L 802.5625 0 L 788.375 0 z M 816.71875 0 L 816.71875 14.1875 L 830.90625 14.1875 L 830.90625 0 L 816.71875 0 z M 845.09375 0 L 845.09375 14.1875 L 859.25 14.1875 L 859.25 0 L 845.09375 0 z M 873.4375 0 L 873.4375 14.1875 L 887.59375 14.1875 L 887.59375 0 L 873.4375 0 z M 901.78125 0 L 901.78125 14.1875 L 915.9375 14.1875 L 915.9375 0 L 901.78125 0 z M 930.125 0 L 930.125 14.1875 L 948.71875 14.1875 L 948.71875 0 L 930.125 0 z M 0 17.71875 L 0 35.4375 L 14.1875 35.4375 L 14.1875 17.71875 L 0 17.71875 z M 953.15625 17.71875 L 953.15625 35.4375 L 967.3125 35.4375 L 967.3125 17.71875 L 953.15625 17.71875 z M 0 49.59375 L 0 63.78125 L 14.1875 63.78125 L 14.1875 49.59375 L 0 49.59375 z M 953.15625 49.59375 L 953.15625 63.78125 L 967.3125 63.78125 L 967.3125 49.59375 L 953.15625 49.59375 z M 0 77.9375 L 0 92.125 L 14.1875 92.125 L 14.1875 77.9375 L 0 77.9375 z M 953.15625 77.9375 L 953.15625 92.125 L 967.3125 92.125 L 967.3125 77.9375 L 953.15625 77.9375 z M 0 106.3125 L 0 120.46875 L 14.1875 120.46875 L 14.1875 106.3125 L 0 106.3125 z M 953.15625 106.3125 L 953.15625 120.46875 L 967.3125 120.46875 L 967.3125 106.3125 L 953.15625 106.3125 z M 0 134.65625 L 0 148.8125 L 14.1875 148.8125 L 14.1875 134.65625 L 0 134.65625 z M 953.15625 134.65625 L 953.15625 148.8125 L 967.3125 148.8125 L 967.3125 134.65625 L 953.15625 134.65625 z M 0 163 L 0 177.15625 L 14.1875 177.15625 L 14.1875 163 L 0 163 z M 953.15625 163 L 953.15625 177.15625 L 967.3125 177.15625 L 967.3125 163 L 953.15625 163 z M 0 191.34375 L 0 205.5 L 14.1875 205.5 L 14.1875 191.34375 L 0 191.34375 z M 953.15625 191.34375 L 953.15625 205.5 L 967.3125 205.5 L 967.3125 191.34375 L 953.15625 191.34375 z M 0 219.6875 L 0 233.84375 L 14.1875 233.84375 L 14.1875 219.6875 L 0 219.6875 z M 953.15625 219.6875 L 953.15625 233.84375 L 967.3125 233.84375 L 967.3125 219.6875 L 953.15625 219.6875 z M 0 248.03125 L 0 262.21875 L 14.1875 262.21875 L 14.1875 248.03125 L 0 248.03125 z M 953.15625 248.03125 L 953.15625 262.21875 L 967.3125 262.21875 L 967.3125 248.03125 L 953.15625 248.03125 z M 0 276.375 L 0 290.5625 L 14.1875 290.5625 L 14.1875 276.375 L 0 276.375 z M 953.15625 276.375 L 953.15625 290.5625 L 967.3125 290.5625 L 967.3125 276.375 L 953.15625 276.375 z M 0 304.71875 L 0 318.90625 L 14.1875 318.90625 L 14.1875 304.71875 L 0 304.71875 z M 953.15625 304.71875 L 953.15625 318.90625 L 967.3125 318.90625 L 967.3125 304.71875 L 953.15625 304.71875 z M 0 333.0625 L 0 347.25 L 14.1875 347.25 L 14.1875 333.0625 L 0 333.0625 z M 953.15625 333.0625 L 953.15625 347.25 L 967.3125 347.25 L 967.3125 333.0625 L 953.15625 333.0625 z M 0 361.40625 L 0 375.59375 L 14.1875 375.59375 L 14.1875 361.40625 L 0 361.40625 z M 953.15625 361.40625 L 953.15625 375.59375 L 967.3125 375.59375 L 967.3125 361.40625 L 953.15625 361.40625 z M 0 389.75 L 0 403.9375 L 14.1875 403.9375 L 14.1875 389.75 L 0 389.75 z M 953.15625 389.75 L 953.15625 403.9375 L 967.3125 403.9375 L 967.3125 389.75 L 953.15625 389.75 z M 0 418.125 L 0 432.28125 L 14.1875 432.28125 L 14.1875 418.125 L 0 418.125 z M 953.15625 418.125 L 953.15625 432.28125 L 967.3125 432.28125 L 967.3125 418.125 L 953.15625 418.125 z M 0 446.46875 L 0 460.625 L 14.1875 460.625 L 14.1875 446.46875 L 0 446.46875 z M 953.15625 446.46875 L 953.15625 460.625 L 967.3125 460.625 L 967.3125 446.46875 L 953.15625 446.46875 z M 0 474.8125 L 0 488.96875 L 14.1875 488.96875 L 14.1875 474.8125 L 0 474.8125 z M 953.15625 474.8125 L 953.15625 488.96875 L 967.3125 488.96875 L 967.3125 474.8125 L 953.15625 474.8125 z M 0 503.15625 L 0 517.3125 L 14.1875 517.3125 L 14.1875 503.15625 L 0 503.15625 z M 953.15625 503.15625 L 953.15625 517.3125 L 967.3125 517.3125 L 967.3125 503.15625 L 953.15625 503.15625 z M 0 531.5 L 0 545.65625 L 14.1875 545.65625 L 14.1875 531.5 L 0 531.5 z M 953.15625 531.5 L 953.15625 545.65625 L 967.3125 545.65625 L 967.3125 531.5 L 953.15625 531.5 z M 0 559.84375 L 0 574.03125 L 14.1875 574.03125 L 14.1875 559.84375 L 0 559.84375 z M 953.15625 559.84375 L 953.15625 574.03125 L 967.3125 574.03125 L 967.3125 559.84375 L 953.15625 559.84375 z M 0 588.1875 L 0 602.375 L 14.1875 602.375 L 14.1875 588.1875 L 0 588.1875 z M 953.15625 588.1875 L 953.15625 602.375 L 967.3125 602.375 L 967.3125 588.1875 L 953.15625 588.1875 z M 0 616.53125 L 0 630.71875 L 14.1875 630.71875 L 14.1875 616.53125 L 0 616.53125 z M 953.15625 616.53125 L 953.15625 630.71875 L 967.3125 630.71875 L 967.3125 616.53125 L 953.15625 616.53125 z M 0 644.875 L 0 659.0625 L 14.1875 659.0625 L 14.1875 644.875 L 0 644.875 z M 953.15625 644.875 L 953.15625 659.0625 L 967.3125 659.0625 L 967.3125 644.875 L 953.15625 644.875 z M 0 673.21875 L 0 687.40625 L 14.1875 687.40625 L 14.1875 673.21875 L 0 673.21875 z M 953.15625 673.21875 L 953.15625 687.40625 L 967.3125 687.40625 L 967.3125 673.21875 L 953.15625 673.21875 z M 0 701.5625 L 0 715.75 L 14.1875 715.75 L 14.1875 701.5625 L 0 701.5625 z M 953.15625 701.5625 L 953.15625 715.75 L 967.3125 715.75 L 967.3125 701.5625 L 953.15625 701.5625 z M 0 729.90625 L 0 744.09375 L 14.1875 744.09375 L 14.1875 729.90625 L 0 729.90625 z M 953.15625 729.90625 L 953.15625 744.09375 L 967.3125 744.09375 L 967.3125 729.90625 L 953.15625 729.90625 z M 0 758.28125 L 0 772.4375 L 14.1875 772.4375 L 14.1875 758.28125 L 0 758.28125 z M 953.15625 758.28125 L 953.15625 772.4375 L 967.3125 772.4375 L 967.3125 758.28125 L 953.15625 758.28125 z M 0 786.625 L 0 800.78125 L 14.1875 800.78125 L 14.1875 786.625 L 0 786.625 z M 953.15625 786.625 L 953.15625 800.78125 L 967.3125 800.78125 L 967.3125 786.625 L 953.15625 786.625 z M 0 814.96875 L 0 832.6875 L 14.1875 832.6875 L 14.1875 814.96875 L 0 814.96875 z M 953.15625 814.96875 L 953.15625 832.6875 L 967.3125 832.6875 L 967.3125 814.96875 L 953.15625 814.96875 z M 18.59375 836.21875 L 18.59375 850.40625 L 37.21875 850.40625 L 37.21875 836.21875 L 18.59375 836.21875 z M 51.375 836.21875 L 51.375 850.40625 L 65.5625 850.40625 L 65.5625 836.21875 L 51.375 836.21875 z M 79.71875 836.21875 L 79.71875 850.40625 L 93.90625 850.40625 L 93.90625 836.21875 L 79.71875 836.21875 z M 108.0625 836.21875 L 108.0625 850.40625 L 122.25 850.40625 L 122.25 836.21875 L 108.0625 836.21875 z M 136.40625 836.21875 L 136.40625 850.40625 L 150.59375 850.40625 L 150.59375 836.21875 L 136.40625 836.21875 z M 164.75 836.21875 L 164.75 850.40625 L 178.9375 850.40625 L 178.9375 836.21875 L 164.75 836.21875 z M 193.125 836.21875 L 193.125 850.40625 L 207.28125 850.40625 L 207.28125 836.21875 L 193.125 836.21875 z M 221.46875 836.21875 L 221.46875 850.40625 L 235.625 850.40625 L 235.625 836.21875 L 221.46875 836.21875 z M 249.8125 836.21875 L 249.8125 850.40625 L 263.96875 850.40625 L 263.96875 836.21875 L 249.8125 836.21875 z M 278.15625 836.21875 L 278.15625 850.40625 L 292.3125 850.40625 L 292.3125 836.21875 L 278.15625 836.21875 z M 306.5 836.21875 L 306.5 850.40625 L 320.65625 850.40625 L 320.65625 836.21875 L 306.5 836.21875 z M 334.84375 836.21875 L 334.84375 850.40625 L 349.03125 850.40625 L 349.03125 836.21875 L 334.84375 836.21875 z M 363.1875 836.21875 L 363.1875 850.40625 L 377.375 850.40625 L 377.375 836.21875 L 363.1875 836.21875 z M 391.53125 836.21875 L 391.53125 850.40625 L 405.71875 850.40625 L 405.71875 836.21875 L 391.53125 836.21875 z M 419.875 836.21875 L 419.875 850.40625 L 434.0625 850.40625 L 434.0625 836.21875 L 419.875 836.21875 z M 448.21875 836.21875 L 448.21875 850.40625 L 462.40625 850.40625 L 462.40625 836.21875 L 448.21875 836.21875 z M 476.5625 836.21875 L 476.5625 850.40625 L 490.75 850.40625 L 490.75 836.21875 L 476.5625 836.21875 z M 504.90625 836.21875 L 504.90625 850.40625 L 519.09375 850.40625 L 519.09375 836.21875 L 504.90625 836.21875 z M 533.28125 836.21875 L 533.28125 850.40625 L 547.4375 850.40625 L 547.4375 836.21875 L 533.28125 836.21875 z M 561.625 836.21875 L 561.625 850.40625 L 575.78125 850.40625 L 575.78125 836.21875 L 561.625 836.21875 z M 589.96875 836.21875 L 589.96875 850.40625 L 604.125 850.40625 L 604.125 836.21875 L 589.96875 836.21875 z M 618.3125 836.21875 L 618.3125 850.40625 L 632.46875 850.40625 L 632.46875 836.21875 L 618.3125 836.21875 z M 646.65625 836.21875 L 646.65625 850.40625 L 660.8125 850.40625 L 660.8125 836.21875 L 646.65625 836.21875 z M 675 836.21875 L 675 850.40625 L 689.1875 850.40625 L 689.1875 836.21875 L 675 836.21875 z M 703.34375 836.21875 L 703.34375 850.40625 L 717.53125 850.40625 L 717.53125 836.21875 L 703.34375 836.21875 z M 731.6875 836.21875 L 731.6875 850.40625 L 745.875 850.40625 L 745.875 836.21875 L 731.6875 836.21875 z M 760.03125 836.21875 L 760.03125 850.40625 L 774.21875 850.40625 L 774.21875 836.21875 L 760.03125 836.21875 z M 788.375 836.21875 L 788.375 850.40625 L 802.5625 850.40625 L 802.5625 836.21875 L 788.375 836.21875 z M 816.71875 836.21875 L 816.71875 850.40625 L 830.90625 850.40625 L 830.90625 836.21875 L 816.71875 836.21875 z M 845.09375 836.21875 L 845.09375 850.40625 L 859.25 850.40625 L 859.25 836.21875 L 845.09375 836.21875 z M 873.4375 836.21875 L 873.4375 850.40625 L 887.59375 850.40625 L 887.59375 836.21875 L 873.4375 836.21875 z M 901.78125 836.21875 L 901.78125 850.40625 L 915.9375 850.40625 L 915.9375 836.21875 L 901.78125 836.21875 z M 930.125 836.21875 L 930.125 850.40625 L 948.71875 850.40625 L 948.71875 836.21875 L 930.125 836.21875 z "
         style="fill:none;stroke:#000000;stroke-width:0.0354331"
         id="path3192"
         d="m 18.59375,0 0,14.1875 18.625,0 0,-14.1875 -18.625,0 z m 32.78125,0 0,14.1875 14.1875,0 L 65.5625,0 51.375,0 z m 28.34375,0 0,14.1875 14.1875,0 0,-14.1875 -14.1875,0 z m 28.34375,0 0,14.1875 14.1875,0 0,-14.1875 -14.1875,0 z m 28.34375,0 0,14.1875 14.1875,0 0,-14.1875 -14.1875,0 z m 28.34375,0 0,14.1875 14.1875,0 0,-14.1875 -14.1875,0 z m 28.375,0 0,14.1875 14.15625,0 0,-14.1875 -14.15625,0 z m 28.34375,0 0,14.1875 14.15625,0 0,-14.1875 -14.15625,0 z m 28.34375,0 0,14.1875 14.15625,0 0,-14.1875 -14.15625,0 z m 28.34375,0 0,14.1875 14.15625,0 0,-14.1875 -14.15625,0 z M 306.5,0 l 0,14.1875 14.15625,0 0,-14.1875 L 306.5,0 z m 28.34375,0 0,14.1875 14.1875,0 0,-14.1875 -14.1875,0 z m 28.34375,0 0,14.1875 14.1875,0 0,-14.1875 -14.1875,0 z m 28.34375,0 0,14.1875 14.1875,0 0,-14.1875 -14.1875,0 z m 28.34375,0 0,14.1875 14.1875,0 0,-14.1875 -14.1875,0 z m 28.34375,0 0,14.1875 14.1875,0 0,-14.1875 -14.1875,0 z m 28.34375,0 0,14.1875 14.1875,0 0,-14.1875 -14.1875,0 z m 28.34375,0 0,14.1875 14.1875,0 0,-14.1875 -14.1875,0 z m 28.375,0 0,14.1875 14.15625,0 0,-14.1875 -14.15625,0 z m 28.34375,0 0,14.1875 14.15625,0 0,-14.1875 -14.15625,0 z m 28.34375,0 0,14.1875 14.15625,0 0,-14.1875 -14.15625,0 z m 28.34375,0 0,14.1875 14.15625,0 0,-14.1875 -14.15625,0 z m 28.34375,0 0,14.1875 14.15625,0 0,-14.1875 -14.15625,0 z M 675,0 l 0,14.1875 14.1875,0 L 689.1875,0 675,0 z m 28.34375,0 0,14.1875 14.1875,0 0,-14.1875 -14.1875,0 z m 28.34375,0 0,14.1875 14.1875,0 0,-14.1875 -14.1875,0 z m 28.34375,0 0,14.1875 14.1875,0 0,-14.1875 -14.1875,0 z m 28.34375,0 0,14.1875 14.1875,0 0,-14.1875 -14.1875,0 z m 28.34375,0 0,14.1875 14.1875,0 0,-14.1875 -14.1875,0 z m 28.375,0 0,14.1875 14.15625,0 0,-14.1875 -14.15625,0 z m 28.34375,0 0,14.1875 14.15625,0 0,-14.1875 -14.15625,0 z m 28.34375,0 0,14.1875 14.15625,0 0,-14.1875 -14.15625,0 z m 28.34375,0 0,14.1875 18.59375,0 0,-14.1875 L 930.125,0 z M 0,17.71875 0,35.4375 l 14.1875,0 0,-17.71875 -14.1875,0 z m 953.15625,0 0,17.71875 14.15625,0 0,-17.71875 -14.15625,0 z M 0,49.59375 l 0,14.1875 14.1875,0 0,-14.1875 -14.1875,0 z m 953.15625,0 0,14.1875 14.15625,0 0,-14.1875 -14.15625,0 z M 0,77.9375 0,92.125 l 14.1875,0 0,-14.1875 -14.1875,0 z m 953.15625,0 0,14.1875 14.15625,0 0,-14.1875 -14.15625,0 z M 0,106.3125 l 0,14.15625 14.1875,0 0,-14.15625 -14.1875,0 z m 953.15625,0 0,14.15625 14.15625,0 0,-14.15625 -14.15625,0 z M 0,134.65625 l 0,14.15625 14.1875,0 0,-14.15625 -14.1875,0 z m 953.15625,0 0,14.15625 14.15625,0 0,-14.15625 -14.15625,0 z M 0,163 l 0,14.15625 14.1875,0 L 14.1875,163 0,163 z m 953.15625,0 0,14.15625 14.15625,0 0,-14.15625 -14.15625,0 z M 0,191.34375 0,205.5 l 14.1875,0 0,-14.15625 -14.1875,0 z m 953.15625,0 0,14.15625 14.15625,0 0,-14.15625 -14.15625,0 z M 0,219.6875 l 0,14.15625 14.1875,0 0,-14.15625 -14.1875,0 z m 953.15625,0 0,14.15625 14.15625,0 0,-14.15625 -14.15625,0 z M 0,248.03125 l 0,14.1875 14.1875,0 0,-14.1875 -14.1875,0 z m 953.15625,0 0,14.1875 14.15625,0 0,-14.1875 -14.15625,0 z M 0,276.375 l 0,14.1875 14.1875,0 0,-14.1875 -14.1875,0 z m 953.15625,0 0,14.1875 14.15625,0 0,-14.1875 -14.15625,0 z M 0,304.71875 l 0,14.1875 14.1875,0 0,-14.1875 -14.1875,0 z m 953.15625,0 0,14.1875 14.15625,0 0,-14.1875 -14.15625,0 z M 0,333.0625 0,347.25 l 14.1875,0 0,-14.1875 -14.1875,0 z m 953.15625,0 0,14.1875 14.15625,0 0,-14.1875 -14.15625,0 z M 0,361.40625 l 0,14.1875 14.1875,0 0,-14.1875 -14.1875,0 z m 953.15625,0 0,14.1875 14.15625,0 0,-14.1875 -14.15625,0 z M 0,389.75 l 0,14.1875 14.1875,0 0,-14.1875 -14.1875,0 z m 953.15625,0 0,14.1875 14.15625,0 0,-14.1875 -14.15625,0 z M 0,418.125 l 0,14.15625 14.1875,0 0,-14.15625 -14.1875,0 z m 953.15625,0 0,14.15625 14.15625,0 0,-14.15625 -14.15625,0 z M 0,446.46875 0,460.625 l 14.1875,0 0,-14.15625 -14.1875,0 z m 953.15625,0 0,14.15625 14.15625,0 0,-14.15625 -14.15625,0 z M 0,474.8125 l 0,14.15625 14.1875,0 0,-14.15625 -14.1875,0 z m 953.15625,0 0,14.15625 14.15625,0 0,-14.15625 -14.15625,0 z M 0,503.15625 l 0,14.15625 14.1875,0 0,-14.15625 -14.1875,0 z m 953.15625,0 0,14.15625 14.15625,0 0,-14.15625 -14.15625,0 z M 0,531.5 l 0,14.15625 14.1875,0 0,-14.15625 L 0,531.5 z m 953.15625,0 0,14.15625 14.15625,0 0,-14.15625 -14.15625,0 z M 0,559.84375 l 0,14.1875 14.1875,0 0,-14.1875 -14.1875,0 z m 953.15625,0 0,14.1875 14.15625,0 0,-14.1875 -14.15625,0 z M 0,588.1875 l 0,14.1875 14.1875,0 0,-14.1875 -14.1875,0 z m 953.15625,0 0,14.1875 14.15625,0 0,-14.1875 -14.15625,0 z M 0,616.53125 l 0,14.1875 14.1875,0 0,-14.1875 -14.1875,0 z m 953.15625,0 0,14.1875 14.15625,0 0,-14.1875 -14.15625,0 z M 0,644.875 l 0,14.1875 14.1875,0 0,-14.1875 -14.1875,0 z m 953.15625,0 0,14.1875 14.15625,0 0,-14.1875 -14.15625,0 z M 0,673.21875 l 0,14.1875 14.1875,0 0,-14.1875 -14.1875,0 z m 953.15625,0 0,14.1875 14.15625,0 0,-14.1875 -14.15625,0 z M 0,701.5625 0,715.75 l 14.1875,0 0,-14.1875 -14.1875,0 z m 953.15625,0 0,14.1875 14.15625,0 0,-14.1875 -14.15625,0 z M 0,729.90625 l 0,14.1875 14.1875,0 0,-14.1875 -14.1875,0 z m 953.15625,0 0,14.1875 14.15625,0 0,-14.1875 -14.15625,0 z M 0,758.28125 l 0,14.15625 14.1875,0 0,-14.15625 -14.1875,0 z m 953.15625,0 0,14.15625 14.15625,0 0,-14.15625 -14.15625,0 z M 0,786.625 l 0,14.15625 14.1875,0 0,-14.15625 -14.1875,0 z m 953.15625,0 0,14.15625 14.15625,0 0,-14.15625 -14.15625,0 z M 0,814.96875 l 0,17.71875 14.1875,0 0,-17.71875 -14.1875,0 z m 953.15625,0 0,17.71875 14.15625,0 0,-17.71875 -14.15625,0 z m -934.5625,21.25 0,14.1875 18.625,0 0,-14.1875 -18.625,0 z m 32.78125,0 0,14.1875 14.1875,0 0,-14.1875 -14.1875,0 z m 28.34375,0 0,14.1875 14.1875,0 0,-14.1875 -14.1875,0 z m 28.34375,0 0,14.1875 14.1875,0 0,-14.1875 -14.1875,0 z m 28.34375,0 0,14.1875 14.1875,0 0,-14.1875 -14.1875,0 z m 28.34375,0 0,14.1875 14.1875,0 0,-14.1875 -14.1875,0 z m 28.375,0 0,14.1875 14.15625,0 0,-14.1875 -14.15625,0 z m 28.34375,0 0,14.1875 14.15625,0 0,-14.1875 -14.15625,0 z m 28.34375,0 0,14.1875 14.15625,0 0,-14.1875 -14.15625,0 z m 28.34375,0 0,14.1875 14.15625,0 0,-14.1875 -14.15625,0 z m 28.34375,0 0,14.1875 14.15625,0 0,-14.1875 -14.15625,0 z m 28.34375,0 0,14.1875 14.1875,0 0,-14.1875 -14.1875,0 z m 28.34375,0 0,14.1875 14.1875,0 0,-14.1875 -14.1875,0 z m 28.34375,0 0,14.1875 14.1875,0 0,-14.1875 -14.1875,0 z m 28.34375,0 0,14.1875 14.1875,0 0,-14.1875 -14.1875,0 z m 28.34375,0 0,14.1875 14.1875,0 0,-14.1875 -14.1875,0 z m 28.34375,0 0,14.1875 14.1875,0 0,-14.1875 -14.1875,0 z m 28.34375,0 0,14.1875 14.1875,0 0,-14.1875 -14.1875,0 z m 28.375,0 0,14.1875 14.15625,0 0,-14.1875 -14.15625,0 z m 28.34375,0 0,14.1875 14.15625,0 0,-14.1875 -14.15625,0 z m 28.34375,0 0,14.1875 14.15625,0 0,-14.1875 -14.15625,0 z m 28.34375,0 0,14.1875 14.15625,0 0,-14.1875 -14.15625,0 z m 28.34375,0 0,14.1875 14.15625,0 0,-14.1875 -14.15625,0 z m 28.34375,0 0,14.1875 14.1875,0 0,-14.1875 -14.1875,0 z m 28.34375,0 0,14.1875 14.1875,0 0,-14.1875 -14.1875,0 z m 28.34375,0 0,14.1875 14.1875,0 0,-14.1875 -14.1875,0 z m 28.34375,0 0,14.1875 14.1875,0 0,-14.1875 -14.1875,0 z m 28.34375,0 0,14.1875 14.1875,0 0,-14.1875 -14.1875,0 z m 28.34375,0 0,14.1875 14.1875,0 0,-14.1875 -14.1875,0 z m 28.375,0 0,14.1875 14.15625,0 0,-14.1875 -14.15625,0 z m 28.34375,0 0,14.1875 14.15625,0 0,-14.1875 -14.15625,0 z m 28.34375,0 0,14.1875 14.15625,0 0,-14.1875 -14.15625,0 z m 28.34375,0 0,14.1875 18.59375,0 0,-14.1875 -18.59375,0 z"
         transform="translate(1332.966,-43.225036)" />
    </g>
  </g>
</svg>
