  0
SECTION
  2
HEADER
  9
$ACADVER
  1
AC1014
  9
$HANDSEED
  5
FFFF
  9
$MEASUREMENT
 70
     1
  0
ENDSEC
  0
SECTION
  2
TABLES
  0
TABLE
  2
VPORT
  5
8
330
0
100
AcDbSymbolTable
 70
     4
  0
VPORT
  5
2E
330
8
100
AcDbSymbolTableRecord
100
AcDbViewportTableRecord
  2
*ACTIVE
 70
     0
 10
0.0
 20
0.0
 11
1.0
 21
1.0
 12
210.0
 22
148.5
 13
0.0
 23
0.0
 14
10.0
 24
10.0
 15
10.0
 25
10.0
 16
0.0
 26
0.0
 36
1.0
 17
0.0
 27
0.0
 37
0.0
 40
341.0
 41
1.24
 42
50.0
 43
0.0
 44
0.0
 50
0.0
 51
0.0
 71
     0
 72
   100
 73
     1
 74
     3
 75
     0
 76
     0
 77
     0
 78
     0
  0
ENDTAB
  0
TABLE
  2
LTYPE
  5
5
330
0
100
AcDbSymbolTable
 70
     1
  0
LTYPE
  5
14
330
5
100
AcDbSymbolTableRecord
100
AcDbLinetypeTableRecord
  2
BYBLOCK
 70
     0
  3

 72
    65
 73
     0
 40
0.0
  0
LTYPE
  5
15
330
5
100
AcDbSymbolTableRecord
100
AcDbLinetypeTableRecord
  2
BYLAYER
 70
     0
  3

 72
    65
 73
     0
 40
0.0
  0
LTYPE
  5
16
330
5
100
AcDbSymbolTableRecord
100
AcDbLinetypeTableRecord
  2
CONTINUOUS
 70
     0
  3
Solid line
 72
    65
 73
     0
 40
0.0
  0
ENDTAB
  0
TABLE
  2
LAYER
  5
2
100
AcDbSymbolTable
 70
2
  0
LAYER
  5
50
100
AcDbSymbolTableRecord
100
AcDbLayerTableRecord
  2
0
 70
0
  6
CONTINUOUS
  0
LAYER
  5
51
100
AcDbSymbolTableRecord
100
AcDbLayerTableRecord
  2
Layer_1
 70
0
  6
CONTINUOUS
  0
ENDTAB
  0
TABLE
  2
STYLE
  5
3
330
0
100
AcDbSymbolTable
 70
     1
  0
STYLE
  5
11
330
3
100
AcDbSymbolTableRecord
100
AcDbTextStyleTableRecord
  2
STANDARD
 70
     0
 40
0.0
 41
1.0
 50
0.0
 71
     0
 42
2.5
  3
txt
  4

  0
ENDTAB
  0
TABLE
  2
VIEW
  5
6
330
0
100
AcDbSymbolTable
 70
     0
  0
ENDTAB
  0
TABLE
  2
UCS
  5
7
330
0
100
AcDbSymbolTable
 70
     0
  0
ENDTAB
  0
TABLE
  2
APPID
  5
9
330
0
100
AcDbSymbolTable
 70
     2
  0
APPID
  5
12
330
9
100
AcDbSymbolTableRecord
100
AcDbRegAppTableRecord
  2
ACAD
 70
     0
  0
ENDTAB
  0
TABLE
  2
DIMSTYLE
  5
A
330
0
100
AcDbSymbolTable
 70
     1
  0
DIMSTYLE
105
27
330
A
100
AcDbSymbolTableRecord
100
AcDbDimStyleTableRecord
  2
ISO-25
 70
     0
  3

  4

  5

  6

  7

 40
1.0
 41
2.5
 42
0.625
 43
3.75
 44
1.25
 45
0.0
 46
0.0
 47
0.0
 48
0.0
140
2.5
141
2.5
142
0.0
143
0.03937007874016
144
1.0
145
0.0
146
1.0
147
0.625
 71
     0
 72
     0
 73
     0
 74
     0
 75
     0
 76
     0
 77
     1
 78
     8
170
     0
171
     3
172
     1
173
     0
174
     0
175
     0
176
     0
177
     0
178
     0
270
     2
271
     2
272
     2
273
     2
274
     3
340
11
275
     0
280
     0
281
     0
282
     0
283
     0
284
     8
285
     0
286
     0
287
     3
288
     0
  0
ENDTAB
  0
TABLE
  2
BLOCK_RECORD
  5
1
330
0
100
AcDbSymbolTable
 70
     1
  0
BLOCK_RECORD
  5
1F
330
1
100
AcDbSymbolTableRecord
100
AcDbBlockTableRecord
  2
*MODEL_SPACE
  0
BLOCK_RECORD
  5
1B
330
1
100
AcDbSymbolTableRecord
100
AcDbBlockTableRecord
  2
*PAPER_SPACE
  0
ENDTAB
  0
ENDSEC
  0
SECTION
  2
BLOCKS
  0
BLOCK
  5
20
330
1F
100
AcDbEntity
  8
0
100
AcDbBlockBegin
  2
*MODEL_SPACE
 70
     0
 10
0.0
 20
0.0
 30
0.0
  3
*MODEL_SPACE
  1

  0
ENDBLK
  5
21
330
1F
100
AcDbEntity
  8
0
100
AcDbBlockEnd
  0
BLOCK
  5
1C
330
1B
100
AcDbEntity
 67
     1
  8
0
100
AcDbBlockBegin
  2
*PAPER_SPACE
  1

  0
ENDBLK
  5
1D
330
1B
100
AcDbEntity
 67
     1
  8
0
100
AcDbBlockEnd
  0
ENDSEC
  0
SECTION
  2
ENTITIES
  0
SPLINE
  5
100
100
AcDbEntity
  8
Layer_1
 62
7
100
AcDbSpline
 70
8
 71
3
 72
8
 73
4
 74
0
 40
0
 40
0
 40
0
 40
0
 40
1
 40
1
 40
1
 40
1
 10
262.530872
 20
135.604154
 30
0.0
 10
263.851494
 20
139.154213
 30
0.0
 10
263.519642
 20
143.108331
 30
0.0
 10
261.625781
 20
146.388613
 30
0.0
  0
SPLINE
  5
101
100
AcDbEntity
  8
Layer_1
 62
7
100
AcDbSpline
 70
8
 71
3
 72
8
 73
4
 74
0
 40
0
 40
0
 40
0
 40
0
 40
1
 40
1
 40
1
 40
1
 10
261.625781
 20
146.388613
 30
0.0
 10
259.731919
 20
149.668895
 30
0.0
 10
256.473489
 20
151.933361
 30
0.0
 10
252.738740
 20
152.564716
 30
0.0
  0
SPLINE
  5
102
100
AcDbEntity
  8
Layer_1
 62
7
100
AcDbSpline
 70
8
 71
3
 72
8
 73
4
 74
0
 40
0
 40
0
 40
0
 40
0
 40
1
 40
1
 40
1
 40
1
 10
252.738740
 20
152.564716
 30
0.0
 10
252.738740
 20
152.564716
 30
0.0
 10
252.738740
 20
159.146875
 30
0.0
 10
252.738740
 20
159.146875
 30
0.0
  0
SPLINE
  5
103
100
AcDbEntity
  8
Layer_1
 62
7
100
AcDbSpline
 70
8
 71
3
 72
8
 73
4
 74
0
 40
0
 40
0
 40
0
 40
0
 40
1
 40
1
 40
1
 40
1
 10
252.738740
 20
159.146875
 30
0.0
 10
275.224222
 20
160.218410
 30
0.0
 10
293.363844
 20
177.920980
 30
0.0
 10
294.983345
 20
200.373647
 30
0.0
  0
SPLINE
  5
104
100
AcDbEntity
  8
Layer_1
 62
7
100
AcDbSpline
 70
8
 71
3
 72
8
 73
4
 74
0
 40
0
 40
0
 40
0
 40
0
 40
1
 40
1
 40
1
 40
1
 10
294.983345
 20
200.373647
 30
0.0
 10
296.602846
 20
222.826315
 30
0.0
 10
281.191534
 20
242.948899
 30
0.0
 10
259.092590
 20
247.236288
 30
0.0
  0
SPLINE
  5
105
100
AcDbEntity
  8
Layer_1
 62
7
100
AcDbSpline
 70
8
 71
3
 72
8
 73
4
 74
0
 40
0
 40
0
 40
0
 40
0
 40
1
 40
1
 40
1
 40
1
 10
259.092590
 20
247.236288
 30
0.0
 10
259.092590
 20
247.236288
 30
0.0
 10
259.092590
 20
249.601194
 30
0.0
 10
259.092590
 20
249.601194
 30
0.0
  0
SPLINE
  5
106
100
AcDbEntity
  8
Layer_1
 62
7
100
AcDbSpline
 70
8
 71
3
 72
8
 73
4
 74
0
 40
0
 40
0
 40
0
 40
0
 40
1
 40
1
 40
1
 40
1
 10
259.092590
 20
249.601194
 30
0.0
 10
276.129846
 20
247.309153
 30
0.0
 10
291.511304
 20
238.211438
 30
0.0
 10
301.726069
 20
224.384648
 30
0.0
  0
SPLINE
  5
107
100
AcDbEntity
  8
Layer_1
 62
7
100
AcDbSpline
 70
8
 71
3
 72
8
 73
4
 74
0
 40
0
 40
0
 40
0
 40
0
 40
1
 40
1
 40
1
 40
1
 10
301.726069
 20
224.384648
 30
0.0
 10
311.940834
 20
210.557858
 30
0.0
 10
316.117077
 20
193.182108
 30
0.0
 10
313.301549
 20
176.223501
 30
0.0
  0
SPLINE
  5
108
100
AcDbEntity
  8
Layer_1
 62
7
100
AcDbSpline
 70
8
 71
3
 72
8
 73
4
 74
0
 40
0
 40
0
 40
0
 40
0
 40
1
 40
1
 40
1
 40
1
 10
313.301549
 20
176.223501
 30
0.0
 10
329.395813
 20
170.182487
 30
0.0
 10
342.355455
 20
157.877910
 30
0.0
 10
349.222393
 20
142.118331
 30
0.0
  0
SPLINE
  5
109
100
AcDbEntity
  8
Layer_1
 62
7
100
AcDbSpline
 70
8
 71
3
 72
8
 73
4
 74
0
 40
0
 40
0
 40
0
 40
0
 40
1
 40
1
 40
1
 40
1
 10
349.222393
 20
142.118331
 30
0.0
 10
356.089331
 20
126.358752
 30
0.0
 10
356.277478
 20
108.489238
 30
0.0
 10
349.743889
 20
92.588566
 30
0.0
  0
SPLINE
  5
10a
100
AcDbEntity
  8
Layer_1
 62
7
100
AcDbSpline
 70
8
 71
3
 72
8
 73
4
 74
0
 40
0
 40
0
 40
0
 40
0
 40
1
 40
1
 40
1
 40
1
 10
349.743889
 20
92.588566
 30
0.0
 10
349.743889
 20
92.588566
 30
0.0
 10
347.695802
 20
93.771238
 30
0.0
 10
347.695802
 20
93.771238
 30
0.0
  0
SPLINE
  5
10b
100
AcDbEntity
  8
Layer_1
 62
7
100
AcDbSpline
 70
8
 71
3
 72
8
 73
4
 74
0
 40
0
 40
0
 40
0
 40
0
 40
1
 40
1
 40
1
 40
1
 10
347.695802
 20
93.771238
 30
0.0
 10
355.032379
 20
115.053224
 30
0.0
 10
345.311354
 20
138.461203
 30
0.0
 10
325.056949
 20
148.285018
 30
0.0
  0
SPLINE
  5
10c
100
AcDbEntity
  8
Layer_1
 62
7
100
AcDbSpline
 70
8
 71
3
 72
8
 73
4
 74
0
 40
0
 40
0
 40
0
 40
0
 40
1
 40
1
 40
1
 40
1
 10
325.056949
 20
148.285018
 30
0.0
 10
304.802544
 20
158.108834
 30
0.0
 10
280.401785
 20
151.250643
 30
0.0
 10
268.231129
 20
132.313288
 30
0.0
  0
SPLINE
  5
10d
100
AcDbEntity
  8
Layer_1
 62
7
100
AcDbSpline
 70
8
 71
3
 72
8
 73
4
 74
0
 40
0
 40
0
 40
0
 40
0
 40
1
 40
1
 40
1
 40
1
 10
266.988727
 20
175.843850
 30
0.0
 10
251.550990
 20
188.127942
 30
0.0
 10
229.676769
 20
188.127942
 30
0.0
 10
214.239032
 20
175.843850
 30
0.0
  0
SPLINE
  5
10e
100
AcDbEntity
  8
Layer_1
 62
7
100
AcDbSpline
 70
8
 71
3
 72
8
 73
4
 74
0
 40
0
 40
0
 40
0
 40
0
 40
1
 40
1
 40
1
 40
1
 10
214.239032
 20
175.843850
 30
0.0
 10
210.474392
 20
179.110874
 30
0.0
 10
207.349490
 20
183.048889
 30
0.0
 10
205.023398
 20
187.457433
 30
0.0
  0
SPLINE
  5
10f
100
AcDbEntity
  8
Layer_1
 62
7
100
AcDbSpline
 70
8
 71
3
 72
8
 73
4
 74
0
 40
0
 40
0
 40
0
 40
0
 40
1
 40
1
 40
1
 40
1
 10
205.023398
 20
187.457433
 30
0.0
 10
225.858468
 20
204.024450
 30
0.0
 10
255.369292
 20
204.024450
 30
0.0
 10
276.204361
 20
187.457433
 30
0.0
  0
SPLINE
  5
110
100
AcDbEntity
  8
Layer_1
 62
7
100
AcDbSpline
 70
8
 71
3
 72
8
 73
4
 74
0
 40
0
 40
0
 40
0
 40
0
 40
1
 40
1
 40
1
 40
1
 10
276.204361
 20
187.457433
 30
0.0
 10
273.839101
 20
183.074578
 30
0.0
 10
270.719450
 20
179.143180
 30
0.0
 10
266.988727
 20
175.843850
 30
0.0
  0
LWPOLYLINE
  5
111
100
AcDbEntity
  8
Layer_1
 62
7
100
AcDbPolyline
 90
2
 70
0
 10
268.231129
 20
132.313288
 30
0.0
 10
262.530872
 20
135.604154
 30
0.0
  0
SPLINE
  5
112
100
AcDbEntity
  8
Layer_1
 62
7
100
AcDbSpline
 70
8
 71
3
 72
8
 73
4
 74
0
 40
0
 40
0
 40
0
 40
0
 40
1
 40
1
 40
1
 40
1
 10
230.821687
 20
117.110347
 30
0.0
 10
233.235818
 20
114.191626
 30
0.0
 10
236.826111
 20
112.501960
 30
0.0
 10
240.613849
 20
112.501952
 30
0.0
  0
SPLINE
  5
113
100
AcDbEntity
  8
Layer_1
 62
7
100
AcDbSpline
 70
8
 71
3
 72
8
 73
4
 74
0
 40
0
 40
0
 40
0
 40
0
 40
1
 40
1
 40
1
 40
1
 10
240.613849
 20
112.501952
 30
0.0
 10
244.401586
 20
112.501944
 30
0.0
 10
247.991886
 20
114.191594
 30
0.0
 10
250.406030
 20
117.110304
 30
0.0
  0
SPLINE
  5
114
100
AcDbEntity
  8
Layer_1
 62
7
100
AcDbSpline
 70
8
 71
3
 72
8
 73
4
 74
0
 40
0
 40
0
 40
0
 40
0
 40
1
 40
1
 40
1
 40
1
 10
250.406030
 20
117.110304
 30
0.0
 10
250.406030
 20
117.110304
 30
0.0
 10
256.106357
 20
113.819223
 30
0.0
 10
256.106357
 20
113.819223
 30
0.0
  0
SPLINE
  5
115
100
AcDbEntity
  8
Layer_1
 62
7
100
AcDbSpline
 70
8
 71
3
 72
8
 73
4
 74
0
 40
0
 40
0
 40
0
 40
0
 40
1
 40
1
 40
1
 40
1
 10
256.106357
 20
113.819223
 30
0.0
 10
245.791636
 20
93.810469
 30
0.0
 10
252.052707
 20
69.249851
 30
0.0
 10
270.687510
 20
56.621001
 30
0.0
  0
SPLINE
  5
116
100
AcDbEntity
  8
Layer_1
 62
7
100
AcDbSpline
 70
8
 71
3
 72
8
 73
4
 74
0
 40
0
 40
0
 40
0
 40
0
 40
1
 40
1
 40
1
 40
1
 10
270.687510
 20
56.621001
 30
0.0
 10
289.322314
 20
43.992151
 30
0.0
 10
314.454603
 20
47.277415
 30
0.0
 10
329.217076
 20
64.271918
 30
0.0
  0
SPLINE
  5
117
100
AcDbEntity
  8
Layer_1
 62
7
100
AcDbSpline
 70
8
 71
3
 72
8
 73
4
 74
0
 40
0
 40
0
 40
0
 40
0
 40
1
 40
1
 40
1
 40
1
 10
329.217076
 20
64.271918
 30
0.0
 10
329.217076
 20
64.271918
 30
0.0
 10
331.265163
 20
63.089463
 30
0.0
 10
331.265163
 20
63.089463
 30
0.0
  0
SPLINE
  5
118
100
AcDbEntity
  8
Layer_1
 62
7
100
AcDbSpline
 70
8
 71
3
 72
8
 73
4
 74
0
 40
0
 40
0
 40
0
 40
0
 40
1
 40
1
 40
1
 40
1
 10
331.265163
 20
63.089463
 30
0.0
 10
320.761569
 20
49.480781
 30
0.0
 10
305.191982
 20
40.708900
 30
0.0
 10
288.110243
 20
38.776049
 30
0.0
  0
SPLINE
  5
119
100
AcDbEntity
  8
Layer_1
 62
7
100
AcDbSpline
 70
8
 71
3
 72
8
 73
4
 74
0
 40
0
 40
0
 40
0
 40
0
 40
1
 40
1
 40
1
 40
1
 10
288.110243
 20
38.776049
 30
0.0
 10
271.028503
 20
36.843198
 30
0.0
 10
253.892536
 20
41.914345
 30
0.0
 10
240.613715
 20
52.831975
 30
0.0
  0
SPLINE
  5
11a
100
AcDbEntity
  8
Layer_1
 62
7
100
AcDbSpline
 70
8
 71
3
 72
8
 73
4
 74
0
 40
0
 40
0
 40
0
 40
0
 40
1
 40
1
 40
1
 40
1
 10
240.613715
 20
52.831975
 30
0.0
 10
227.334911
 20
41.914451
 30
0.0
 10
210.199019
 20
36.843368
 30
0.0
 10
193.117361
 20
38.776217
 30
0.0
  0
SPLINE
  5
11b
100
AcDbEntity
  8
Layer_1
 62
7
100
AcDbSpline
 70
8
 71
3
 72
8
 73
4
 74
0
 40
0
 40
0
 40
0
 40
0
 40
1
 40
1
 40
1
 40
1
 10
193.117361
 20
38.776217
 30
0.0
 10
176.035703
 20
40.709065
 30
0.0
 10
160.466183
 20
49.480879
 30
0.0
 10
149.962593
 20
63.089463
 30
0.0
  0
SPLINE
  5
11c
100
AcDbEntity
  8
Layer_1
 62
7
100
AcDbSpline
 70
8
 71
3
 72
8
 73
4
 74
0
 40
0
 40
0
 40
0
 40
0
 40
1
 40
1
 40
1
 40
1
 10
149.962593
 20
63.089463
 30
0.0
 10
149.962593
 20
63.089463
 30
0.0
 10
152.010844
 20
64.271805
 30
0.0
 10
152.010844
 20
64.271805
 30
0.0
  0
SPLINE
  5
11d
100
AcDbEntity
  8
Layer_1
 62
7
100
AcDbSpline
 70
8
 71
3
 72
8
 73
4
 74
0
 40
0
 40
0
 40
0
 40
0
 40
1
 40
1
 40
1
 40
1
 10
152.010844
 20
64.271805
 30
0.0
 10
166.773291
 20
47.277123
 30
0.0
 10
191.905731
 20
43.991773
 30
0.0
 10
210.540621
 20
56.620706
 30
0.0
  0
SPLINE
  5
11e
100
AcDbEntity
  8
Layer_1
 62
7
100
AcDbSpline
 70
8
 71
3
 72
8
 73
4
 74
0
 40
0
 40
0
 40
0
 40
0
 40
1
 40
1
 40
1
 40
1
 10
210.540621
 20
56.620706
 30
0.0
 10
229.175511
 20
69.249639
 30
0.0
 10
235.436513
 20
93.810439
 30
0.0
 10
225.121580
 20
113.819218
 30
0.0
  0
LWPOLYLINE
  5
11f
100
AcDbEntity
  8
Layer_1
 62
7
100
AcDbPolyline
 90
2
 70
0
 10
266.988727
 20
175.843850
 30
0.0
 10
266.988727
 20
175.843850
 30
0.0
  0
SPLINE
  5
120
100
AcDbEntity
  8
Layer_1
 62
7
100
AcDbSpline
 70
8
 71
3
 72
8
 73
4
 74
0
 40
0
 40
0
 40
0
 40
0
 40
1
 40
1
 40
1
 40
1
 10
262.994558
 20
90.534335
 30
0.0
 10
281.351768
 20
97.761759
 30
0.0
 10
292.288884
 20
116.705395
 30
0.0
 10
289.369415
 20
136.216918
 30
0.0
  0
SPLINE
  5
121
100
AcDbEntity
  8
Layer_1
 62
7
100
AcDbSpline
 70
8
 71
3
 72
8
 73
4
 74
0
 40
0
 40
0
 40
0
 40
0
 40
1
 40
1
 40
1
 40
1
 10
289.369415
 20
136.216918
 30
0.0
 10
294.081054
 20
137.843674
 30
0.0
 10
299.053919
 20
138.580908
 30
0.0
 10
304.034867
 20
138.391090
 30
0.0
  0
SPLINE
  5
122
100
AcDbEntity
  8
Layer_1
 62
7
100
AcDbSpline
 70
8
 71
3
 72
8
 73
4
 74
0
 40
0
 40
0
 40
0
 40
0
 40
1
 40
1
 40
1
 40
1
 10
304.034867
 20
138.391090
 30
0.0
 10
307.964781
 20
112.063892
 30
0.0
 10
293.209375
 20
86.506781
 30
0.0
 10
268.444396
 20
76.746589
 30
0.0
  0
SPLINE
  5
123
100
AcDbEntity
  8
Layer_1
 62
7
100
AcDbSpline
 70
8
 71
3
 72
8
 73
4
 74
0
 40
0
 40
0
 40
0
 40
0
 40
1
 40
1
 40
1
 40
1
 10
268.444396
 20
76.746589
 30
0.0
 10
265.831365
 20
80.986386
 30
0.0
 10
263.986501
 20
85.653776
 30
0.0
 10
262.994558
 20
90.534335
 30
0.0
  0
LWPOLYLINE
  5
124
100
AcDbEntity
  8
Layer_1
 62
7
100
AcDbPolyline
 90
2
 70
0
 10
225.121580
 20
113.819218
 30
0.0
 10
230.821687
 20
117.110347
 30
0.0
  0
SPLINE
  5
125
100
AcDbEntity
  8
Layer_1
 62
7
100
AcDbSpline
 70
8
 71
3
 72
8
 73
4
 74
0
 40
0
 40
0
 40
0
 40
0
 40
1
 40
1
 40
1
 40
1
 10
228.489073
 20
152.564728
 30
0.0
 10
224.754323
 20
151.933387
 30
0.0
 10
221.495886
 20
149.668935
 30
0.0
 10
219.602012
 20
146.388663
 30
0.0
  0
SPLINE
  5
126
100
AcDbEntity
  8
Layer_1
 62
7
100
AcDbSpline
 70
8
 71
3
 72
8
 73
4
 74
0
 40
0
 40
0
 40
0
 40
0
 40
1
 40
1
 40
1
 40
1
 10
219.602012
 20
146.388663
 30
0.0
 10
217.708138
 20
143.108391
 30
0.0
 10
217.376269
 20
139.154277
 30
0.0
 10
218.696873
 20
135.604214
 30
0.0
  0
SPLINE
  5
127
100
AcDbEntity
  8
Layer_1
 62
7
100
AcDbSpline
 70
8
 71
3
 72
8
 73
4
 74
0
 40
0
 40
0
 40
0
 40
0
 40
1
 40
1
 40
1
 40
1
 10
218.696873
 20
135.604214
 30
0.0
 10
218.696873
 20
135.604214
 30
0.0
 10
212.996540
 20
132.313130
 30
0.0
 10
212.996540
 20
132.313130
 30
0.0
  0
SPLINE
  5
128
100
AcDbEntity
  8
Layer_1
 62
7
100
AcDbSpline
 70
8
 71
3
 72
8
 73
4
 74
0
 40
0
 40
0
 40
0
 40
0
 40
1
 40
1
 40
1
 40
1
 10
212.996540
 20
132.313130
 30
0.0
 10
200.825814
 20
151.250332
 30
0.0
 10
176.425148
 20
158.108403
 30
0.0
 10
156.170833
 20
148.284607
 30
0.0
  0
SPLINE
  5
129
100
AcDbEntity
  8
Layer_1
 62
7
100
AcDbSpline
 70
8
 71
3
 72
8
 73
4
 74
0
 40
0
 40
0
 40
0
 40
0
 40
1
 40
1
 40
1
 40
1
 10
156.170833
 20
148.284607
 30
0.0
 10
135.916519
 20
138.460812
 30
0.0
 10
126.195501
 20
115.052961
 30
0.0
 10
133.531954
 20
93.771029
 30
0.0
  0
SPLINE
  5
12a
100
AcDbEntity
  8
Layer_1
 62
7
100
AcDbSpline
 70
8
 71
3
 72
8
 73
4
 74
0
 40
0
 40
0
 40
0
 40
0
 40
1
 40
1
 40
1
 40
1
 10
133.531954
 20
93.771029
 30
0.0
 10
133.531954
 20
93.771029
 30
0.0
 10
131.483890
 20
92.588571
 30
0.0
 10
131.483890
 20
92.588571
 30
0.0
  0
SPLINE
  5
12b
100
AcDbEntity
  8
Layer_1
 62
7
100
AcDbSpline
 70
8
 71
3
 72
8
 73
4
 74
0
 40
0
 40
0
 40
0
 40
0
 40
1
 40
1
 40
1
 40
1
 10
131.483890
 20
92.588571
 30
0.0
 10
124.950226
 20
108.489289
 30
0.0
 10
125.138348
 20
126.358883
 30
0.0
 10
132.005317
 20
142.118525
 30
0.0
  0
SPLINE
  5
12c
100
AcDbEntity
  8
Layer_1
 62
7
100
AcDbSpline
 70
8
 71
3
 72
8
 73
4
 74
0
 40
0
 40
0
 40
0
 40
0
 40
1
 40
1
 40
1
 40
1
 10
132.005317
 20
142.118525
 30
0.0
 10
138.872286
 20
157.878168
 30
0.0
 10
151.832007
 20
170.182776
 30
0.0
 10
167.926357
 20
176.223761
 30
0.0
  0
SPLINE
  5
12d
100
AcDbEntity
  8
Layer_1
 62
7
100
AcDbSpline
 70
8
 71
3
 72
8
 73
4
 74
0
 40
0
 40
0
 40
0
 40
0
 40
1
 40
1
 40
1
 40
1
 10
167.926357
 20
176.223761
 30
0.0
 10
165.110905
 20
193.182306
 30
0.0
 10
169.287165
 20
210.557968
 30
0.0
 10
179.501892
 20
224.384694
 30
0.0
  0
SPLINE
  5
12e
100
AcDbEntity
  8
Layer_1
 62
7
100
AcDbSpline
 70
8
 71
3
 72
8
 73
4
 74
0
 40
0
 40
0
 40
0
 40
0
 40
1
 40
1
 40
1
 40
1
 10
179.501892
 20
224.384694
 30
0.0
 10
189.716619
 20
238.211421
 30
0.0
 10
205.097996
 20
247.309113
 30
0.0
 10
222.135172
 20
249.601194
 30
0.0
  0
LWPOLYLINE
  5
12f
100
AcDbEntity
  8
Layer_1
 62
7
100
AcDbPolyline
 90
2
 70
0
 10
262.994558
 20
90.534335
 30
0.0
 10
262.994558
 20
90.534335
 30
0.0
  0
SPLINE
  5
130
100
AcDbEntity
  8
Layer_1
 62
7
100
AcDbSpline
 70
8
 71
3
 72
8
 73
4
 74
0
 40
0
 40
0
 40
0
 40
0
 40
1
 40
1
 40
1
 40
1
 10
222.134980
 20
247.236200
 30
0.0
 10
200.035904
 20
242.948911
 30
0.0
 10
184.624458
 20
222.826242
 30
0.0
 10
186.243991
 20
200.373467
 30
0.0
  0
SPLINE
  5
131
100
AcDbEntity
  8
Layer_1
 62
7
100
AcDbSpline
 70
8
 71
3
 72
8
 73
4
 74
0
 40
0
 40
0
 40
0
 40
0
 40
1
 40
1
 40
1
 40
1
 10
186.243991
 20
200.373467
 30
0.0
 10
187.863524
 20
177.920691
 30
0.0
 10
206.003329
 20
160.218095
 30
0.0
 10
228.488929
 20
159.146726
 30
0.0
  0
LWPOLYLINE
  5
132
100
AcDbEntity
  8
Layer_1
 62
7
100
AcDbPolyline
 90
2
 70
0
 10
222.135172
 20
249.601194
 30
0.0
 10
222.134980
 20
247.236200
 30
0.0
  0
SPLINE
  5
133
100
AcDbEntity
  8
Layer_1
 62
7
100
AcDbSpline
 70
8
 71
3
 72
8
 73
4
 74
0
 40
0
 40
0
 40
0
 40
0
 40
1
 40
1
 40
1
 40
1
 10
191.858347
 20
136.215815
 30
0.0
 10
188.938880
 20
116.704293
 30
0.0
 10
199.875994
 20
97.760659
 30
0.0
 10
218.233202
 20
90.533234
 30
0.0
  0
SPLINE
  5
134
100
AcDbEntity
  8
Layer_1
 62
7
100
AcDbSpline
 70
8
 71
3
 72
8
 73
4
 74
0
 40
0
 40
0
 40
0
 40
0
 40
1
 40
1
 40
1
 40
1
 10
218.233202
 20
90.533234
 30
0.0
 10
217.286195
 20
85.639453
 30
0.0
 10
215.438224
 20
80.964205
 30
0.0
 10
212.783361
 20
76.745482
 30
0.0
  0
SPLINE
  5
135
100
AcDbEntity
  8
Layer_1
 62
7
100
AcDbSpline
 70
8
 71
3
 72
8
 73
4
 74
0
 40
0
 40
0
 40
0
 40
0
 40
1
 40
1
 40
1
 40
1
 10
212.783361
 20
76.745482
 30
0.0
 10
188.018378
 20
86.505674
 30
0.0
 10
173.262970
 20
112.062789
 30
0.0
 10
177.192886
 20
138.389990
 30
0.0
  0
SPLINE
  5
136
100
AcDbEntity
  8
Layer_1
 62
7
100
AcDbSpline
 70
8
 71
3
 72
8
 73
4
 74
0
 40
0
 40
0
 40
0
 40
0
 40
1
 40
1
 40
1
 40
1
 10
177.192886
 20
138.389990
 30
0.0
 10
182.171175
 20
138.533042
 30
0.0
 10
187.135686
 20
137.797047
 30
0.0
 10
191.858347
 20
136.215815
 30
0.0
  0
LWPOLYLINE
  5
137
100
AcDbEntity
  8
Layer_1
 62
7
100
AcDbPolyline
 90
2
 70
0
 10
228.488929
 20
159.146726
 30
0.0
 10
228.489073
 20
152.564728
 30
0.0
  0
LWPOLYLINE
  5
138
100
AcDbEntity
  8
Layer_1
 62
7
100
AcDbPolyline
 90
2
 70
0
 10
191.858347
 20
136.215815
 30
0.0
 10
191.858347
 20
136.215815
 30
0.0
  0
LWPOLYLINE
  5
139
100
AcDbEntity
  8
Layer_1
 62
1
100
AcDbPolyline
 90
5
 70
0
 10
380.385217
 20
180.754091
 30
0.0
 10
333.194627
 20
169.713600
 30
0.0
 10
314.945345
 20
247.716868
 30
0.0
 10
362.135935
 20
258.757359
 30
0.0
 10
380.385217
 20
180.754091
 30
0.0
  0
LWPOLYLINE
  5
13a
100
AcDbEntity
  8
Layer_1
 62
1
100
AcDbPolyline
 90
5
 70
0
 10
299.783834
 20
71.842774
 30
0.0
 10
325.156622
 20
115.789732
 30
0.0
 10
338.241952
 20
108.234913
 30
0.0
 10
312.869164
 20
64.287955
 30
0.0
 10
299.783834
 20
71.842774
 30
0.0
  0
LWPOLYLINE
  5
13b
100
AcDbEntity
  8
Layer_1
 62
1
100
AcDbPolyline
 90
5
 70
0
 10
214.955958
 20
232.987325
 30
0.0
 10
265.701534
 20
232.987325
 30
0.0
 10
265.701534
 20
217.877688
 30
0.0
 10
214.955958
 20
217.877688
 30
0.0
 10
214.955958
 20
232.987325
 30
0.0
  0
LWPOLYLINE
  5
13c
100
AcDbEntity
  8
Layer_1
 62
1
100
AcDbPolyline
 90
5
 70
0
 10
154.115504
 20
115.504682
 30
0.0
 10
179.488292
 20
71.557724
 30
0.0
 10
166.402962
 20
64.002905
 30
0.0
 10
141.030174
 20
107.949863
 30
0.0
 10
154.115504
 20
115.504682
 30
0.0
  0
LWPOLYLINE
  5
13d
100
AcDbEntity
  8
Layer_1
 62
1
100
AcDbPolyline
 90
5
 70
0
 10
347.566657
 20
54.014565
 30
0.0
 10
381.206982
 20
54.014565
 30
0.0
 10
381.206982
 20
28.926865
 30
0.0
 10
347.566657
 20
28.926865
 30
0.0
 10
347.566657
 20
54.014565
 30
0.0
  0
LWPOLYLINE
  5
13e
100
AcDbEntity
  8
Layer_1
 62
1
100
AcDbPolyline
 90
5
 70
0
 10
369.803482
 20
28.813978
 30
0.0
 10
369.803482
 20
3.156104
 30
0.0
 10
358.970158
 20
3.156104
 30
0.0
 10
358.970158
 20
28.813978
 30
0.0
 10
369.803482
 20
28.813978
 30
0.0
  0
LWPOLYLINE
  5
13f
100
AcDbEntity
  8
Layer_1
 62
7
100
AcDbPolyline
 90
5
 70
0
 10
91.227997
 20
282.900554
 30
0.0
 10
387.718980
 20
282.900554
 30
0.0
 10
387.718980
 20
-13.590428
 30
0.0
 10
91.227997
 20
-13.590428
 30
0.0
 10
91.227997
 20
282.900554
 30
0.0
  0
SPLINE
  5
140
100
AcDbEntity
  8
Layer_1
 62
1
100
AcDbSpline
 70
8
 71
3
 72
8
 73
4
 74
0
 40
0
 40
0
 40
0
 40
0
 40
1
 40
1
 40
1
 40
1
 10
246.315591
 20
135.376817
 30
0.0
 10
246.315591
 20
132.227829
 30
0.0
 10
243.762832
 20
129.675067
 30
0.0
 10
240.613842
 20
129.675067
 30
0.0
  0
SPLINE
  5
141
100
AcDbEntity
  8
Layer_1
 62
1
100
AcDbSpline
 70
8
 71
3
 72
8
 73
4
 74
0
 40
0
 40
0
 40
0
 40
0
 40
1
 40
1
 40
1
 40
1
 10
240.613842
 20
129.675067
 30
0.0
 10
237.464851
 20
129.675067
 30
0.0
 10
234.912092
 20
132.227829
 30
0.0
 10
234.912092
 20
135.376817
 30
0.0
  0
SPLINE
  5
142
100
AcDbEntity
  8
Layer_1
 62
1
100
AcDbSpline
 70
8
 71
3
 72
8
 73
4
 74
0
 40
0
 40
0
 40
0
 40
0
 40
1
 40
1
 40
1
 40
1
 10
234.912092
 20
135.376817
 30
0.0
 10
234.912092
 20
138.525807
 30
0.0
 10
237.464851
 20
141.078566
 30
0.0
 10
240.613842
 20
141.078566
 30
0.0
  0
SPLINE
  5
143
100
AcDbEntity
  8
Layer_1
 62
1
100
AcDbSpline
 70
8
 71
3
 72
8
 73
4
 74
0
 40
0
 40
0
 40
0
 40
0
 40
1
 40
1
 40
1
 40
1
 10
240.613842
 20
141.078566
 30
0.0
 10
243.762832
 20
141.078566
 30
0.0
 10
246.315591
 20
138.525807
 30
0.0
 10
246.315591
 20
135.376817
 30
0.0
  0
LWPOLYLINE
  5
144
100
AcDbEntity
  8
Layer_1
 62
7
100
AcDbPolyline
 90
5
 70
0
 10
92.035399
 20
282.565631
 30
0.0
 10
389.192285
 20
282.565631
 30
0.0
 10
389.192285
 20
5.408716
 30
0.0
 10
92.035399
 20
5.408716
 30
0.0
 10
92.035399
 20
282.565631
 30
0.0
  0
SPLINE
  5
145
100
AcDbEntity
  8
Layer_1
 62
1
100
AcDbSpline
 70
8
 71
3
 72
8
 73
4
 74
0
 40
0
 40
0
 40
0
 40
0
 40
1
 40
1
 40
1
 40
1
 10
357.499722
 20
53.690207
 30
0.0
 10
362.328319
 20
61.410054
 30
0.0
 10
358.946111
 20
74.156841
 30
0.0
 10
362.149644
 20
82.671280
 30
0.0
  0
SPLINE
  5
146
100
AcDbEntity
  8
Layer_1
 62
1
100
AcDbSpline
 70
8
 71
3
 72
8
 73
4
 74
0
 40
0
 40
0
 40
0
 40
0
 40
1
 40
1
 40
1
 40
1
 10
362.149644
 20
82.671280
 30
0.0
 10
370.382715
 20
117.760637
 30
0.0
 10
369.741676
 20
155.868647
 30
0.0
 10
369.341005
 20
180.868600
 30
0.0
  0
SPLINE
  5
147
100
AcDbEntity
  8
Layer_1
 62
1
100
AcDbSpline
 70
8
 71
3
 72
8
 73
4
 74
0
 40
0
 40
0
 40
0
 40
0
 40
1
 40
1
 40
1
 40
1
 10
369.341005
 20
180.868600
 30
0.0
 10
367.846695
 20
182.553520
 30
0.0
 10
366.815511
 20
186.456859
 30
0.0
 10
364.341805
 20
186.540981
 30
0.0
  0
SPLINE
  5
148
100
AcDbEntity
  8
Layer_1
 62
1
100
AcDbSpline
 70
8
 71
3
 72
8
 73
4
 74
0
 40
0
 40
0
 40
0
 40
0
 40
1
 40
1
 40
1
 40
1
 10
330.701481
 20
260.663730
 30
0.0
 10
329.086718
 20
261.280250
 30
0.0
 10
327.744328
 20
261.233906
 30
0.0
 10
326.140092
 20
261.233906
 30
0.0
  0
SPLINE
  5
149
100
AcDbEntity
  8
Layer_1
 62
1
100
AcDbSpline
 70
8
 71
3
 72
8
 73
4
 74
0
 40
0
 40
0
 40
0
 40
0
 40
1
 40
1
 40
1
 40
1
 10
326.140092
 20
261.233906
 30
0.0
 10
324.851945
 20
261.233906
 30
0.0
 10
326.395080
 20
261.148909
 30
0.0
 10
324.429572
 20
261.804080
 30
0.0
  0
SPLINE
  5
14a
100
AcDbEntity
  8
Layer_1
 62
1
100
AcDbSpline
 70
8
 71
3
 72
8
 73
4
 74
0
 40
0
 40
0
 40
0
 40
0
 40
1
 40
1
 40
1
 40
1
 10
324.429572
 20
261.804080
 30
0.0
 10
324.107866
 20
261.911310
 30
0.0
 10
323.093701
 20
261.804080
 30
0.0
 10
322.719051
 20
261.804080
 30
0.0
  0
SPLINE
  5
14b
100
AcDbEntity
  8
Layer_1
 62
1
100
AcDbSpline
 70
8
 71
3
 72
8
 73
4
 74
0
 40
0
 40
0
 40
0
 40
0
 40
1
 40
1
 40
1
 40
1
 10
322.719051
 20
261.804080
 30
0.0
 10
321.198579
 20
261.804080
 30
0.0
 10
319.678106
 20
261.804080
 30
0.0
 10
318.157634
 20
261.804080
 30
0.0
  0
SPLINE
  5
14c
100
AcDbEntity
  8
Layer_1
 62
1
100
AcDbSpline
 70
8
 71
3
 72
8
 73
4
 74
0
 40
0
 40
0
 40
0
 40
0
 40
1
 40
1
 40
1
 40
1
 10
318.157634
 20
261.804080
 30
0.0
 10
317.777537
 20
261.804080
 30
0.0
 10
317.377911
 20
261.683876
 30
0.0
 10
317.017287
 20
261.804080
 30
0.0
  0
SPLINE
  5
14d
100
AcDbEntity
  8
Layer_1
 62
1
100
AcDbSpline
 70
8
 71
3
 72
8
 73
4
 74
0
 40
0
 40
0
 40
0
 40
0
 40
1
 40
1
 40
1
 40
1
 10
317.017287
 20
261.804080
 30
0.0
 10
316.762299
 20
261.889077
 30
0.0
 10
316.713193
 20
262.336244
 30
0.0
 10
316.447114
 20
262.374256
 30
0.0
  0
SPLINE
  5
14e
100
AcDbEntity
  8
Layer_1
 62
1
100
AcDbSpline
 70
8
 71
3
 72
8
 73
4
 74
0
 40
0
 40
0
 40
0
 40
0
 40
1
 40
1
 40
1
 40
1
 10
316.447114
 20
262.374256
 30
0.0
 10
315.318225
 20
262.535524
 30
0.0
 10
314.166419
 20
262.374256
 30
0.0
 10
313.026072
 20
262.374256
 30
0.0
  0
SPLINE
  5
14f
100
AcDbEntity
  8
Layer_1
 62
1
100
AcDbSpline
 70
8
 71
3
 72
8
 73
4
 74
0
 40
0
 40
0
 40
0
 40
0
 40
1
 40
1
 40
1
 40
1
 10
313.026072
 20
262.374256
 30
0.0
 10
310.935426
 20
262.374256
 30
0.0
 10
308.844781
 20
262.374256
 30
0.0
 10
306.754135
 20
262.374256
 30
0.0
  0
SPLINE
  5
150
100
AcDbEntity
  8
Layer_1
 62
1
100
AcDbSpline
 70
8
 71
3
 72
8
 73
4
 74
0
 40
0
 40
0
 40
0
 40
0
 40
1
 40
1
 40
1
 40
1
 10
306.754135
 20
262.374256
 30
0.0
 10
305.993913
 20
262.374256
 30
0.0
 10
305.218902
 20
262.225161
 30
0.0
 10
304.473441
 20
262.374256
 30
0.0
  0
SPLINE
  5
151
100
AcDbEntity
  8
Layer_1
 62
1
100
AcDbSpline
 70
8
 71
3
 72
8
 73
4
 74
0
 40
0
 40
0
 40
0
 40
0
 40
1
 40
1
 40
1
 40
1
 10
304.473441
 20
262.374256
 30
0.0
 10
304.209873
 20
262.426967
 30
0.0
 10
304.166834
 20
262.891716
 30
0.0
 10
303.903267
 20
262.944430
 30
0.0
  0
SPLINE
  5
152
100
AcDbEntity
  8
Layer_1
 62
1
100
AcDbSpline
 70
8
 71
3
 72
8
 73
4
 74
0
 40
0
 40
0
 40
0
 40
0
 40
1
 40
1
 40
1
 40
1
 10
303.903267
 20
262.944430
 30
0.0
 10
303.157805
 20
263.093525
 30
0.0
 10
302.382795
 20
262.944430
 30
0.0
 10
301.622573
 20
262.944430
 30
0.0
  0
SPLINE
  5
153
100
AcDbEntity
  8
Layer_1
 62
1
100
AcDbSpline
 70
8
 71
3
 72
8
 73
4
 74
0
 40
0
 40
0
 40
0
 40
0
 40
1
 40
1
 40
1
 40
1
 10
301.622573
 20
262.944430
 30
0.0
 10
301.432524
 20
262.944430
 30
0.0
 10
301.232711
 20
263.004532
 30
0.0
 10
301.052399
 20
262.944430
 30
0.0
  0
SPLINE
  5
154
100
AcDbEntity
  8
Layer_1
 62
1
100
AcDbSpline
 70
8
 71
3
 72
8
 73
4
 74
0
 40
0
 40
0
 40
0
 40
0
 40
1
 40
1
 40
1
 40
1
 10
301.052399
 20
262.944430
 30
0.0
 10
300.649217
 20
262.810038
 30
0.0
 10
300.337022
 20
262.374256
 30
0.0
 10
299.912052
 20
262.374256
 30
0.0
  0
SPLINE
  5
155
100
AcDbEntity
  8
Layer_1
 62
1
100
AcDbSpline
 70
8
 71
3
 72
8
 73
4
 74
0
 40
0
 40
0
 40
0
 40
0
 40
1
 40
1
 40
1
 40
1
 10
299.912052
 20
262.374256
 30
0.0
 10
299.643264
 20
262.374256
 30
0.0
 10
299.582276
 20
262.824226
 30
0.0
 10
299.341879
 20
262.944430
 30
0.0
  0
SPLINE
  5
156
100
AcDbEntity
  8
Layer_1
 62
1
100
AcDbSpline
 70
8
 71
3
 72
8
 73
4
 74
0
 40
0
 40
0
 40
0
 40
0
 40
1
 40
1
 40
1
 40
1
 10
299.341879
 20
262.944430
 30
0.0
 10
299.214088
 20
263.008328
 30
0.0
 10
297.196651
 20
262.944430
 30
0.0
 10
297.061156
 20
262.944430
 30
0.0
  0
SPLINE
  5
157
100
AcDbEntity
  8
Layer_1
 62
1
100
AcDbSpline
 70
8
 71
3
 72
8
 73
4
 74
0
 40
0
 40
0
 40
0
 40
0
 40
1
 40
1
 40
1
 40
1
 10
297.061156
 20
262.944430
 30
0.0
 10
294.780462
 20
262.944430
 30
0.0
 10
292.499768
 20
262.944430
 30
0.0
 10
290.219074
 20
262.944430
 30
0.0
  0
SPLINE
  5
158
100
AcDbEntity
  8
Layer_1
 62
1
100
AcDbSpline
 70
8
 71
3
 72
8
 73
4
 74
0
 40
0
 40
0
 40
0
 40
0
 40
1
 40
1
 40
1
 40
1
 10
290.219074
 20
262.944430
 30
0.0
 10
289.854668
 20
262.944430
 30
0.0
 10
286.962483
 20
262.862193
 30
0.0
 10
286.798032
 20
262.944430
 30
0.0
  0
SPLINE
  5
159
100
AcDbEntity
  8
Layer_1
 62
1
100
AcDbSpline
 70
8
 71
3
 72
8
 73
4
 74
0
 40
0
 40
0
 40
0
 40
0
 40
1
 40
1
 40
1
 40
1
 10
286.798032
 20
262.944430
 30
0.0
 10
286.628022
 20
263.029427
 30
0.0
 10
286.932398
 20
263.380215
 30
0.0
 10
286.798032
 20
263.514606
 30
0.0
  0
SPLINE
  5
15a
100
AcDbEntity
  8
Layer_1
 62
1
100
AcDbSpline
 70
8
 71
3
 72
8
 73
4
 74
0
 40
0
 40
0
 40
0
 40
0
 40
1
 40
1
 40
1
 40
1
 10
286.798032
 20
263.514606
 30
0.0
 10
286.663638
 20
263.648997
 30
0.0
 10
286.417907
 20
263.514606
 30
0.0
 10
286.227859
 20
263.514606
 30
0.0
  0
SPLINE
  5
15b
100
AcDbEntity
  8
Layer_1
 62
1
100
AcDbSpline
 70
8
 71
3
 72
8
 73
4
 74
0
 40
0
 40
0
 40
0
 40
0
 40
1
 40
1
 40
1
 40
1
 10
286.227859
 20
263.514606
 30
0.0
 10
285.743960
 20
263.514606
 30
0.0
 10
283.121128
 20
263.409831
 30
0.0
 10
282.806789
 20
263.514606
 30
0.0
  0
SPLINE
  5
15c
100
AcDbEntity
  8
Layer_1
 62
1
100
AcDbSpline
 70
8
 71
3
 72
8
 73
4
 74
0
 40
0
 40
0
 40
0
 40
0
 40
1
 40
1
 40
1
 40
1
 10
282.806789
 20
263.514606
 30
0.0
 10
282.551801
 20
263.599600
 30
0.0
 10
282.491603
 20
263.999783
 30
0.0
 10
282.236616
 20
264.084780
 30
0.0
  0
SPLINE
  5
15d
100
AcDbEntity
  8
Layer_1
 62
1
100
AcDbSpline
 70
8
 71
3
 72
8
 73
4
 74
0
 40
0
 40
0
 40
0
 40
0
 40
1
 40
1
 40
1
 40
1
 10
282.236616
 20
264.084780
 30
0.0
 10
281.922296
 20
264.189555
 30
0.0
 10
279.299447
 20
264.084780
 30
0.0
 10
278.815571
 20
264.084780
 30
0.0
  0
SPLINE
  5
15e
100
AcDbEntity
  8
Layer_1
 62
1
100
AcDbSpline
 70
8
 71
3
 72
8
 73
4
 74
0
 40
0
 40
0
 40
0
 40
0
 40
1
 40
1
 40
1
 40
1
 10
278.815571
 20
264.084780
 30
0.0
 10
277.675221
 20
264.084780
 30
0.0
 10
276.534872
 20
264.084780
 30
0.0
 10
275.394522
 20
264.084780
 30
0.0
  0
SPLINE
  5
15f
100
AcDbEntity
  8
Layer_1
 62
1
100
AcDbSpline
 70
8
 71
3
 72
8
 73
4
 74
0
 40
0
 40
0
 40
0
 40
0
 40
1
 40
1
 40
1
 40
1
 10
275.394522
 20
264.084780
 30
0.0
 10
275.014405
 20
264.084780
 30
0.0
 10
274.614781
 20
263.964576
 30
0.0
 10
274.254172
 20
264.084780
 30
0.0
  0
SPLINE
  5
160
100
AcDbEntity
  8
Layer_1
 62
1
100
AcDbSpline
 70
8
 71
3
 72
8
 73
4
 74
0
 40
0
 40
0
 40
0
 40
0
 40
1
 40
1
 40
1
 40
1
 10
274.254172
 20
264.084780
 30
0.0
 10
273.999181
 20
264.169776
 30
0.0
 10
273.944755
 20
264.589765
 30
0.0
 10
273.683995
 20
264.654956
 30
0.0
  0
SPLINE
  5
161
100
AcDbEntity
  8
Layer_1
 62
1
100
AcDbSpline
 70
8
 71
3
 72
8
 73
4
 74
0
 40
0
 40
0
 40
0
 40
0
 40
1
 40
1
 40
1
 40
1
 10
273.683995
 20
264.654956
 30
0.0
 10
273.130845
 20
264.793242
 30
0.0
 10
272.543645
 20
264.654956
 30
0.0
 10
271.973472
 20
264.654956
 30
0.0
  0
SPLINE
  5
162
100
AcDbEntity
  8
Layer_1
 62
1
100
AcDbSpline
 70
8
 71
3
 72
8
 73
4
 74
0
 40
0
 40
0
 40
0
 40
0
 40
1
 40
1
 40
1
 40
1
 10
271.973472
 20
264.654956
 30
0.0
 10
270.833122
 20
264.654956
 30
0.0
 10
269.692772
 20
264.654956
 30
0.0
 10
268.552422
 20
264.654956
 30
0.0
  0
SPLINE
  5
163
100
AcDbEntity
  8
Layer_1
 62
1
100
AcDbSpline
 70
8
 71
3
 72
8
 73
4
 74
0
 40
0
 40
0
 40
0
 40
0
 40
1
 40
1
 40
1
 40
1
 10
268.552422
 20
264.654956
 30
0.0
 10
267.031955
 20
264.654956
 30
0.0
 10
265.511489
 20
264.654956
 30
0.0
 10
263.991022
 20
264.654956
 30
0.0
  0
SPLINE
  5
164
100
AcDbEntity
  8
Layer_1
 62
1
100
AcDbSpline
 70
8
 71
3
 72
8
 73
4
 74
0
 40
0
 40
0
 40
0
 40
0
 40
1
 40
1
 40
1
 40
1
 10
263.991022
 20
264.654956
 30
0.0
 10
263.734240
 20
264.654956
 30
0.0
 10
262.454020
 20
264.741717
 30
0.0
 10
262.280496
 20
264.654956
 30
0.0
  0
SPLINE
  5
165
100
AcDbEntity
  8
Layer_1
 62
1
100
AcDbSpline
 70
8
 71
3
 72
8
 73
4
 74
0
 40
0
 40
0
 40
0
 40
0
 40
1
 40
1
 40
1
 40
1
 10
262.280496
 20
264.654956
 30
0.0
 10
262.040091
 20
264.534752
 30
0.0
 10
261.950728
 20
264.204984
 30
0.0
 10
261.710322
 20
264.084780
 30
0.0
  0
SPLINE
  5
166
100
AcDbEntity
  8
Layer_1
 62
1
100
AcDbSpline
 70
8
 71
3
 72
8
 73
4
 74
0
 40
0
 40
0
 40
0
 40
0
 40
1
 40
1
 40
1
 40
1
 10
261.710322
 20
264.084780
 30
0.0
 10
261.536798
 20
263.998019
 30
0.0
 10
260.256579
 20
264.084780
 30
0.0
 10
259.999796
 20
264.084780
 30
0.0
  0
SPLINE
  5
167
100
AcDbEntity
  8
Layer_1
 62
1
100
AcDbSpline
 70
8
 71
3
 72
8
 73
4
 74
0
 40
0
 40
0
 40
0
 40
0
 40
1
 40
1
 40
1
 40
1
 10
259.999796
 20
264.084780
 30
0.0
 10
258.859446
 20
264.084780
 30
0.0
 10
257.719096
 20
264.084780
 30
0.0
 10
256.578746
 20
264.084780
 30
0.0
  0
SPLINE
  5
168
100
AcDbEntity
  8
Layer_1
 62
1
100
AcDbSpline
 70
8
 71
3
 72
8
 73
4
 74
0
 40
0
 40
0
 40
0
 40
0
 40
1
 40
1
 40
1
 40
1
 10
256.578746
 20
264.084780
 30
0.0
 10
256.008573
 20
264.084780
 30
0.0
 10
255.421373
 20
264.223068
 30
0.0
 10
254.868223
 20
264.084780
 30
0.0
  0
SPLINE
  5
169
100
AcDbEntity
  8
Layer_1
 62
1
100
AcDbSpline
 70
8
 71
3
 72
8
 73
4
 74
0
 40
0
 40
0
 40
0
 40
0
 40
1
 40
1
 40
1
 40
1
 10
254.868223
 20
264.084780
 30
0.0
 10
254.455927
 20
263.981706
 30
0.0
 10
254.131047
 20
263.648997
 30
0.0
 10
253.727873
 20
263.514606
 30
0.0
  0
SPLINE
  5
16a
100
AcDbEntity
  8
Layer_1
 62
1
100
AcDbSpline
 70
8
 71
3
 72
8
 73
4
 74
0
 40
0
 40
0
 40
0
 40
0
 40
1
 40
1
 40
1
 40
1
 10
253.727873
 20
263.514606
 30
0.0
 10
253.406179
 20
263.407373
 30
0.0
 10
252.392013
 20
263.514606
 30
0.0
 10
252.017347
 20
263.514606
 30
0.0
  0
SPLINE
  5
16b
100
AcDbEntity
  8
Layer_1
 62
1
100
AcDbSpline
 70
8
 71
3
 72
8
 73
4
 74
0
 40
0
 40
0
 40
0
 40
0
 40
1
 40
1
 40
1
 40
1
 10
252.017347
 20
263.514606
 30
0.0
 10
250.686940
 20
263.514606
 30
0.0
 10
249.356530
 20
263.514606
 30
0.0
 10
248.026123
 20
263.514606
 30
0.0
  0
SPLINE
  5
16c
100
AcDbEntity
  8
Layer_1
 62
1
100
AcDbSpline
 70
8
 71
3
 72
8
 73
4
 74
0
 40
0
 40
0
 40
0
 40
0
 40
1
 40
1
 40
1
 40
1
 10
248.026123
 20
263.514606
 30
0.0
 10
247.646004
 20
263.514606
 30
0.0
 10
247.254539
 20
263.606797
 30
0.0
 10
246.885770
 20
263.514606
 30
0.0
  0
SPLINE
  5
16d
100
AcDbEntity
  8
Layer_1
 62
1
100
AcDbSpline
 70
8
 71
3
 72
8
 73
4
 74
0
 40
0
 40
0
 40
0
 40
0
 40
1
 40
1
 40
1
 40
1
 10
246.885770
 20
263.514606
 30
0.0
 10
246.473478
 20
263.411530
 30
0.0
 10
246.148598
 20
263.078821
 30
0.0
 10
245.745421
 20
262.944430
 30
0.0
  0
SPLINE
  5
16e
100
AcDbEntity
  8
Layer_1
 62
1
100
AcDbSpline
 70
8
 71
3
 72
8
 73
4
 74
0
 40
0
 40
0
 40
0
 40
0
 40
1
 40
1
 40
1
 40
1
 10
245.745421
 20
262.944430
 30
0.0
 10
245.565117
 20
262.884328
 30
0.0
 10
245.355553
 20
263.004532
 30
0.0
 10
245.175247
 20
262.944430
 30
0.0
  0
SPLINE
  5
16f
100
AcDbEntity
  8
Layer_1
 62
1
100
AcDbSpline
 70
8
 71
3
 72
8
 73
4
 74
0
 40
0
 40
0
 40
0
 40
0
 40
1
 40
1
 40
1
 40
1
 10
245.175247
 20
262.944430
 30
0.0
 10
244.772073
 20
262.810038
 30
0.0
 10
244.447193
 20
262.477329
 30
0.0
 10
244.034897
 20
262.374256
 30
0.0
  0
SPLINE
  5
170
100
AcDbEntity
  8
Layer_1
 62
1
100
AcDbSpline
 70
8
 71
3
 72
8
 73
4
 74
0
 40
0
 40
0
 40
0
 40
0
 40
1
 40
1
 40
1
 40
1
 10
244.034897
 20
262.374256
 30
0.0
 10
243.666129
 20
262.282063
 30
0.0
 10
243.263316
 20
262.466447
 30
0.0
 10
242.894547
 20
262.374256
 30
0.0
  0
SPLINE
  5
171
100
AcDbEntity
  8
Layer_1
 62
1
100
AcDbSpline
 70
8
 71
3
 72
8
 73
4
 74
0
 40
0
 40
0
 40
0
 40
0
 40
1
 40
1
 40
1
 40
1
 10
242.894547
 20
262.374256
 30
0.0
 10
242.497712
 20
262.275047
 30
0.0
 10
241.432419
 20
261.730699
 30
0.0
 10
241.184021
 20
261.233906
 30
0.0
  0
SPLINE
  5
172
100
AcDbEntity
  8
Layer_1
 62
1
100
AcDbSpline
 70
8
 71
3
 72
8
 73
4
 74
0
 40
0
 40
0
 40
0
 40
0
 40
1
 40
1
 40
1
 40
1
 10
241.184021
 20
261.233906
 30
0.0
 10
241.099024
 20
261.063912
 30
0.0
 10
241.269018
 20
260.833724
 30
0.0
 10
241.184021
 20
260.663730
 30
0.0
  0
SPLINE
  5
173
100
AcDbEntity
  8
Layer_1
 62
1
100
AcDbSpline
 70
8
 71
3
 72
8
 73
4
 74
0
 40
0
 40
0
 40
0
 40
0
 40
1
 40
1
 40
1
 40
1
 10
241.184021
 20
260.663730
 30
0.0
 10
240.943615
 20
260.182916
 30
0.0
 10
240.284079
 20
260.004193
 30
0.0
 10
240.043671
 20
259.523380
 30
0.0
  0
SPLINE
  5
174
100
AcDbEntity
  8
Layer_1
 62
1
100
AcDbSpline
 70
8
 71
3
 72
8
 73
4
 74
0
 40
0
 40
0
 40
0
 40
0
 40
1
 40
1
 40
1
 40
1
 10
240.043671
 20
259.523380
 30
0.0
 10
239.958674
 20
259.353386
 30
0.0
 10
240.178062
 20
259.087598
 30
0.0
 10
240.043671
 20
258.953203
 30
0.0
  0
SPLINE
  5
175
100
AcDbEntity
  8
Layer_1
 62
1
100
AcDbSpline
 70
8
 71
3
 72
8
 73
4
 74
0
 40
0
 40
0
 40
0
 40
0
 40
1
 40
1
 40
1
 40
1
 10
240.043671
 20
258.953203
 30
0.0
 10
239.743163
 20
258.652696
 30
0.0
 10
239.203831
 20
258.683537
 30
0.0
 10
238.903321
 20
258.383030
 30
0.0
  0
SPLINE
  5
176
100
AcDbEntity
  8
Layer_1
 62
1
100
AcDbSpline
 70
8
 71
3
 72
8
 73
4
 74
0
 40
0
 40
0
 40
0
 40
0
 40
1
 40
1
 40
1
 40
1
 10
238.903321
 20
258.383030
 30
0.0
 10
238.634538
 20
258.114247
 30
0.0
 10
239.023525
 20
257.603289
 30
0.0
 10
238.903321
 20
257.242680
 30
0.0
  0
SPLINE
  5
177
100
AcDbEntity
  8
Layer_1
 62
1
100
AcDbSpline
 70
8
 71
3
 72
8
 73
4
 74
0
 40
0
 40
0
 40
0
 40
0
 40
1
 40
1
 40
1
 40
1
 10
238.903321
 20
257.242680
 30
0.0
 10
237.526649
 20
253.112665
 30
0.0
 10
239.067707
 20
258.141623
 30
0.0
 10
237.762971
 20
255.532154
 30
0.0
  0
SPLINE
  5
178
100
AcDbEntity
  8
Layer_1
 62
1
100
AcDbSpline
 70
8
 71
3
 72
8
 73
4
 74
0
 40
0
 40
0
 40
0
 40
0
 40
1
 40
1
 40
1
 40
1
 10
237.762971
 20
255.532154
 30
0.0
 10
237.677974
 20
255.362163
 30
0.0
 10
237.847968
 20
255.131974
 30
0.0
 10
237.762971
 20
254.961980
 30
0.0
  0
SPLINE
  5
179
100
AcDbEntity
  8
Layer_1
 62
1
100
AcDbSpline
 70
8
 71
3
 72
8
 73
4
 74
0
 40
0
 40
0
 40
0
 40
0
 40
1
 40
1
 40
1
 40
1
 10
237.762971
 20
254.961980
 30
0.0
 10
237.642770
 20
254.721572
 30
0.0
 10
237.192797
 20
254.660589
 30
0.0
 10
237.192797
 20
254.391804
 30
0.0
  0
SPLINE
  5
17a
100
AcDbEntity
  8
Layer_1
 62
1
100
AcDbSpline
 70
8
 71
3
 72
8
 73
4
 74
0
 40
0
 40
0
 40
0
 40
0
 40
1
 40
1
 40
1
 40
1
 10
237.192797
 20
254.391804
 30
0.0
 10
237.192797
 20
254.123021
 30
0.0
 10
237.642770
 20
254.062036
 30
0.0
 10
237.762971
 20
253.821630
 30
0.0
  0
SPLINE
  5
17b
100
AcDbEntity
  8
Layer_1
 62
1
100
AcDbSpline
 70
8
 71
3
 72
8
 73
4
 74
0
 40
0
 40
0
 40
0
 40
0
 40
1
 40
1
 40
1
 40
1
 10
237.762971
 20
253.821630
 30
0.0
 10
237.942826
 20
253.461924
 30
0.0
 10
237.583119
 20
251.330460
 30
0.0
 10
237.762971
 20
250.970754
 30
0.0
  0
SPLINE
  5
17c
100
AcDbEntity
  8
Layer_1
 62
1
100
AcDbSpline
 70
8
 71
3
 72
8
 73
4
 74
0
 40
0
 40
0
 40
0
 40
0
 40
1
 40
1
 40
1
 40
1
 10
237.762971
 20
250.970754
 30
0.0
 10
237.883175
 20
250.730349
 30
0.0
 10
238.212943
 20
250.640986
 30
0.0
 10
238.333147
 20
250.400580
 30
0.0
  0
SPLINE
  5
17d
100
AcDbEntity
  8
Layer_1
 62
1
100
AcDbSpline
 70
8
 71
3
 72
8
 73
4
 74
0
 40
0
 40
0
 40
0
 40
0
 40
1
 40
1
 40
1
 40
1
 10
238.333147
 20
250.400580
 30
0.0
 10
238.418144
 20
250.230587
 30
0.0
 10
238.248150
 20
250.000398
 30
0.0
 10
238.333147
 20
249.830404
 30
0.0
  0
SPLINE
  5
17e
100
AcDbEntity
  8
Layer_1
 62
1
100
AcDbSpline
 70
8
 71
3
 72
8
 73
4
 74
0
 40
0
 40
0
 40
0
 40
0
 40
1
 40
1
 40
1
 40
1
 10
238.333147
 20
249.830404
 30
0.0
 10
238.453351
 20
249.589999
 30
0.0
 10
238.783120
 20
249.500636
 30
0.0
 10
238.903321
 20
249.260230
 30
0.0
  0
SPLINE
  5
17f
100
AcDbEntity
  8
Layer_1
 62
1
100
AcDbSpline
 70
8
 71
3
 72
8
 73
4
 74
0
 40
0
 40
0
 40
0
 40
0
 40
1
 40
1
 40
1
 40
1
 10
238.903321
 20
249.260230
 30
0.0
 10
239.073315
 20
248.920243
 30
0.0
 10
238.733330
 20
248.459865
 30
0.0
 10
238.903321
 20
248.119881
 30
0.0
  0
SPLINE
  5
180
100
AcDbEntity
  8
Layer_1
 62
1
100
AcDbSpline
 70
8
 71
3
 72
8
 73
4
 74
0
 40
0
 40
0
 40
0
 40
0
 40
1
 40
1
 40
1
 40
1
 10
238.903321
 20
248.119881
 30
0.0
 10
239.245428
 20
247.435669
 30
0.0
 10
240.271743
 20
247.093565
 30
0.0
 10
240.613847
 20
246.409354
 30
0.0
  0
SPLINE
  5
181
100
AcDbEntity
  8
Layer_1
 62
1
100
AcDbSpline
 70
8
 71
3
 72
8
 73
4
 74
0
 40
0
 40
0
 40
0
 40
0
 40
1
 40
1
 40
1
 40
1
 10
240.613847
 20
246.409354
 30
0.0
 10
240.698844
 20
246.239360
 30
0.0
 10
240.479456
 20
245.973572
 30
0.0
 10
240.613847
 20
245.839181
 30
0.0
  0
SPLINE
  5
182
100
AcDbEntity
  8
Layer_1
 62
1
100
AcDbSpline
 70
8
 71
3
 72
8
 73
4
 74
0
 40
0
 40
0
 40
0
 40
0
 40
1
 40
1
 40
1
 40
1
 10
240.613847
 20
245.839181
 30
0.0
 10
240.748239
 20
245.704789
 30
0.0
 10
241.014030
 20
245.924178
 30
0.0
 10
241.184021
 20
245.839181
 30
0.0
  0
SPLINE
  5
183
100
AcDbEntity
  8
Layer_1
 62
1
100
AcDbSpline
 70
8
 71
3
 72
8
 73
4
 74
0
 40
0
 40
0
 40
0
 40
0
 40
1
 40
1
 40
1
 40
1
 10
241.184021
 20
245.839181
 30
0.0
 10
241.424429
 20
245.718977
 30
0.0
 10
241.564137
 20
245.459064
 30
0.0
 10
241.754197
 20
245.269004
 30
0.0
  0
SPLINE
  5
184
100
AcDbEntity
  8
Layer_1
 62
1
100
AcDbSpline
 70
8
 71
3
 72
8
 73
4
 74
0
 40
0
 40
0
 40
0
 40
0
 40
1
 40
1
 40
1
 40
1
 10
241.754197
 20
245.269004
 30
0.0
 10
241.944254
 20
245.078947
 30
0.0
 10
242.134314
 20
244.888888
 30
0.0
 10
242.324371
 20
244.698831
 30
0.0
  0
SPLINE
  5
185
100
AcDbEntity
  8
Layer_1
 62
1
100
AcDbSpline
 70
8
 71
3
 72
8
 73
4
 74
0
 40
0
 40
0
 40
0
 40
0
 40
1
 40
1
 40
1
 40
1
 10
242.324371
 20
244.698831
 30
0.0
 10
242.659716
 20
244.363486
 30
0.0
 10
244.341035
 20
242.550149
 30
0.0
 10
244.605071
 20
242.418131
 30
0.0
  0
SPLINE
  5
186
100
AcDbEntity
  8
Layer_1
 62
1
100
AcDbSpline
 70
8
 71
3
 72
8
 73
4
 74
0
 40
0
 40
0
 40
0
 40
0
 40
1
 40
1
 40
1
 40
1
 10
244.605071
 20
242.418131
 30
0.0
 10
244.775064
 20
242.333134
 30
0.0
 10
245.005253
 20
242.503128
 30
0.0
 10
245.175247
 20
242.418131
 30
0.0
  0
SPLINE
  5
187
100
AcDbEntity
  8
Layer_1
 62
1
100
AcDbSpline
 70
8
 71
3
 72
8
 73
4
 74
0
 40
0
 40
0
 40
0
 40
0
 40
1
 40
1
 40
1
 40
1
 10
245.175247
 20
242.418131
 30
0.0
 10
246.914029
 20
241.548737
 30
0.0
 10
244.132427
 20
241.966115
 30
0.0
 10
246.885770
 20
241.277781
 30
0.0
  0
SPLINE
  5
188
100
AcDbEntity
  8
Layer_1
 62
1
100
AcDbSpline
 70
8
 71
3
 72
8
 73
4
 74
0
 40
0
 40
0
 40
0
 40
0
 40
1
 40
1
 40
1
 40
1
 10
246.885770
 20
241.277781
 30
0.0
 10
247.254539
 20
241.185587
 30
0.0
 10
247.665511
 20
241.397982
 30
0.0
 10
248.026123
 20
241.277781
 30
0.0
  0
SPLINE
  5
189
100
AcDbEntity
  8
Layer_1
 62
1
100
AcDbSpline
 70
8
 71
3
 72
8
 73
4
 74
0
 40
0
 40
0
 40
0
 40
0
 40
1
 40
1
 40
1
 40
1
 10
248.026123
 20
241.277781
 30
0.0
 10
248.281111
 20
241.192784
 30
0.0
 10
248.372655
 20
240.856700
 30
0.0
 10
248.596297
 20
240.707605
 30
0.0
  0
SPLINE
  5
18a
100
AcDbEntity
  8
Layer_1
 62
1
100
AcDbSpline
 70
8
 71
3
 72
8
 73
4
 74
0
 40
0
 40
0
 40
0
 40
0
 40
1
 40
1
 40
1
 40
1
 10
248.596297
 20
240.707605
 30
0.0
 10
248.949904
 20
240.471867
 30
0.0
 10
249.333472
 20
240.271822
 30
0.0
 10
249.736647
 20
240.137431
 30
0.0
  0
SPLINE
  5
18b
100
AcDbEntity
  8
Layer_1
 62
1
100
AcDbSpline
 70
8
 71
3
 72
8
 73
4
 74
0
 40
0
 40
0
 40
0
 40
0
 40
1
 40
1
 40
1
 40
1
 10
249.736647
 20
240.137431
 30
0.0
 10
249.916953
 20
240.077329
 30
0.0
 10
250.116763
 20
240.137431
 30
0.0
 10
250.306823
 20
240.137431
 30
0.0
  0
SPLINE
  5
18c
100
AcDbEntity
  8
Layer_1
 62
1
100
AcDbSpline
 70
8
 71
3
 72
8
 73
4
 74
0
 40
0
 40
0
 40
0
 40
0
 40
1
 40
1
 40
1
 40
1
 10
250.306823
 20
240.137431
 30
0.0
 10
251.257113
 20
240.137431
 30
0.0
 10
252.207406
 20
240.137431
 30
0.0
 10
253.157696
 20
240.137431
 30
0.0
  0
SPLINE
  5
18d
100
AcDbEntity
  8
Layer_1
 62
1
100
AcDbSpline
 70
8
 71
3
 72
8
 73
4
 74
0
 40
0
 40
0
 40
0
 40
0
 40
1
 40
1
 40
1
 40
1
 10
253.157696
 20
240.137431
 30
0.0
 10
253.612673
 20
240.137431
 30
0.0
 10
255.666500
 20
240.251454
 30
0.0
 10
256.008573
 20
240.137431
 30
0.0
  0
SPLINE
  5
18e
100
AcDbEntity
  8
Layer_1
 62
1
100
AcDbSpline
 70
8
 71
3
 72
8
 73
4
 74
0
 40
0
 40
0
 40
0
 40
0
 40
1
 40
1
 40
1
 40
1
 10
256.008573
 20
240.137431
 30
0.0
 10
256.411747
 20
240.003040
 30
0.0
 10
256.745748
 20
239.701646
 30
0.0
 10
257.148923
 20
239.567255
 30
0.0
  0
SPLINE
  5
18f
100
AcDbEntity
  8
Layer_1
 62
1
100
AcDbSpline
 70
8
 71
3
 72
8
 73
4
 74
0
 40
0
 40
0
 40
0
 40
0
 40
1
 40
1
 40
1
 40
1
 10
257.148923
 20
239.567255
 30
0.0
 10
257.654913
 20
239.398590
 30
0.0
 10
259.626436
 20
239.753936
 30
0.0
 10
259.999796
 20
239.567255
 30
0.0
  0
SPLINE
  5
190
100
AcDbEntity
  8
Layer_1
 62
1
100
AcDbSpline
 70
8
 71
3
 72
8
 73
4
 74
0
 40
0
 40
0
 40
0
 40
0
 40
1
 40
1
 40
1
 40
1
 10
259.999796
 20
239.567255
 30
0.0
 10
260.240204
 20
239.447051
 30
0.0
 10
260.329564
 20
239.117282
 30
0.0
 10
260.569972
 20
238.997081
 30
0.0
  0
SPLINE
  5
191
100
AcDbEntity
  8
Layer_1
 62
1
100
AcDbSpline
 70
8
 71
3
 72
8
 73
4
 74
0
 40
0
 40
0
 40
0
 40
0
 40
1
 40
1
 40
1
 40
1
 10
260.569972
 20
238.997081
 30
0.0
 10
260.935326
 20
238.814401
 30
0.0
 10
263.636924
 20
239.174128
 30
0.0
 10
263.991022
 20
238.997081
 30
0.0
  0
SPLINE
  5
192
100
AcDbEntity
  8
Layer_1
 62
1
100
AcDbSpline
 70
8
 71
3
 72
8
 73
4
 74
0
 40
0
 40
0
 40
0
 40
0
 40
1
 40
1
 40
1
 40
1
 10
263.991022
 20
238.997081
 30
0.0
 10
264.231428
 20
238.876877
 30
0.0
 10
264.320790
 20
238.547109
 30
0.0
 10
264.561196
 20
238.426905
 30
0.0
  0
SPLINE
  5
193
100
AcDbEntity
  8
Layer_1
 62
1
100
AcDbSpline
 70
8
 71
3
 72
8
 73
4
 74
0
 40
0
 40
0
 40
0
 40
0
 40
1
 40
1
 40
1
 40
1
 10
264.561196
 20
238.426905
 30
0.0
 10
264.731190
 20
238.341908
 30
0.0
 10
264.996981
 20
238.561296
 30
0.0
 10
265.131372
 20
238.426905
 30
0.0
  0
SPLINE
  5
194
100
AcDbEntity
  8
Layer_1
 62
1
100
AcDbSpline
 70
8
 71
3
 72
8
 73
4
 74
0
 40
0
 40
0
 40
0
 40
0
 40
1
 40
1
 40
1
 40
1
 10
265.131372
 20
238.426905
 30
0.0
 10
265.265764
 20
238.292513
 30
0.0
 10
265.046375
 20
238.026722
 30
0.0
 10
265.131372
 20
237.856731
 30
0.0
  0
SPLINE
  5
195
100
AcDbEntity
  8
Layer_1
 62
1
100
AcDbSpline
 70
8
 71
3
 72
8
 73
4
 74
0
 40
0
 40
0
 40
0
 40
0
 40
1
 40
1
 40
1
 40
1
 10
265.131372
 20
237.856731
 30
0.0
 10
265.371778
 20
237.375918
 30
0.0
 10
266.031314
 20
237.197195
 30
0.0
 10
266.271722
 20
236.716381
 30
0.0
  0
SPLINE
  5
196
100
AcDbEntity
  8
Layer_1
 62
1
100
AcDbSpline
 70
8
 71
3
 72
8
 73
4
 74
0
 40
0
 40
0
 40
0
 40
0
 40
1
 40
1
 40
1
 40
1
 10
266.271722
 20
236.716381
 30
0.0
 10
266.356719
 20
236.546387
 30
0.0
 10
266.186725
 20
236.316199
 30
0.0
 10
266.271722
 20
236.146205
 30
0.0
  0
SPLINE
  5
197
100
AcDbEntity
  8
Layer_1
 62
1
100
AcDbSpline
 70
8
 71
3
 72
8
 73
4
 74
0
 40
0
 40
0
 40
0
 40
0
 40
1
 40
1
 40
1
 40
1
 10
266.271722
 20
236.146205
 30
0.0
 10
266.613826
 20
235.461994
 30
0.0
 10
267.640141
 20
235.119890
 30
0.0
 10
267.982246
 20
234.435681
 30
0.0
  0
SPLINE
  5
198
100
AcDbEntity
  8
Layer_1
 62
1
100
AcDbSpline
 70
8
 71
3
 72
8
 73
4
 74
0
 40
0
 40
0
 40
0
 40
0
 40
1
 40
1
 40
1
 40
1
 10
267.982246
 20
234.435681
 30
0.0
 10
268.067242
 20
234.265688
 30
0.0
 10
267.897249
 20
234.035499
 30
0.0
 10
267.982246
 20
233.865505
 30
0.0
  0
SPLINE
  5
199
100
AcDbEntity
  8
Layer_1
 62
1
100
AcDbSpline
 70
8
 71
3
 72
8
 73
4
 74
0
 40
0
 40
0
 40
0
 40
0
 40
1
 40
1
 40
1
 40
1
 10
267.982246
 20
233.865505
 30
0.0
 10
268.222654
 20
233.384691
 30
0.0
 10
268.882190
 20
233.205969
 30
0.0
 10
269.122596
 20
232.725155
 30
0.0
  0
SPLINE
  5
19a
100
AcDbEntity
  8
Layer_1
 62
1
100
AcDbSpline
 70
8
 71
3
 72
8
 73
4
 74
0
 40
0
 40
0
 40
0
 40
0
 40
1
 40
1
 40
1
 40
1
 10
269.122596
 20
232.725155
 30
0.0
 10
269.292589
 20
232.385168
 30
0.0
 10
268.952602
 20
231.924793
 30
0.0
 10
269.122596
 20
231.584805
 30
0.0
  0
SPLINE
  5
19b
100
AcDbEntity
  8
Layer_1
 62
1
100
AcDbSpline
 70
8
 71
3
 72
8
 73
4
 74
0
 40
0
 40
0
 40
0
 40
0
 40
1
 40
1
 40
1
 40
1
 10
269.122596
 20
231.584805
 30
0.0
 10
269.242800
 20
231.344397
 30
0.0
 10
269.572568
 20
231.255037
 30
0.0
 10
269.692772
 20
231.014632
 30
0.0
  0
SPLINE
  5
19c
100
AcDbEntity
  8
Layer_1
 62
1
100
AcDbSpline
 70
8
 71
3
 72
8
 73
4
 74
0
 40
0
 40
0
 40
0
 40
0
 40
1
 40
1
 40
1
 40
1
 10
269.692772
 20
231.014632
 30
0.0
 10
269.779533
 20
230.841107
 30
0.0
 10
269.692772
 20
229.560888
 30
0.0
 10
269.692772
 20
229.304105
 30
0.0
  0
SPLINE
  5
19d
100
AcDbEntity
  8
Layer_1
 62
1
100
AcDbSpline
 70
8
 71
3
 72
8
 73
4
 74
0
 40
0
 40
0
 40
0
 40
0
 40
1
 40
1
 40
1
 40
1
 10
269.692772
 20
229.304105
 30
0.0
 10
269.692772
 20
229.005949
 30
0.0
 10
269.767733
 20
227.173327
 30
0.0
 10
269.692772
 20
227.023405
 30
0.0
  0
SPLINE
  5
19e
100
AcDbEntity
  8
Layer_1
 62
1
100
AcDbSpline
 70
8
 71
3
 72
8
 73
4
 74
0
 40
0
 40
0
 40
0
 40
0
 40
1
 40
1
 40
1
 40
1
 10
269.692772
 20
227.023405
 30
0.0
 10
269.572568
 20
226.782997
 30
0.0
 10
269.377586
 20
226.538226
 30
0.0
 10
269.122596
 20
226.453229
 30
0.0
  0
SPLINE
  5
19f
100
AcDbEntity
  8
Layer_1
 62
1
100
AcDbSpline
 70
8
 71
3
 72
8
 73
4
 74
0
 40
0
 40
0
 40
0
 40
0
 40
1
 40
1
 40
1
 40
1
 10
269.122596
 20
226.453229
 30
0.0
 10
268.761986
 20
226.333028
 30
0.0
 10
268.342858
 20
226.573433
 30
0.0
 10
267.982246
 20
226.453229
 30
0.0
  0
SPLINE
  5
1a0
100
AcDbEntity
  8
Layer_1
 62
1
100
AcDbSpline
 70
8
 71
3
 72
8
 73
4
 74
0
 40
0
 40
0
 40
0
 40
0
 40
1
 40
1
 40
1
 40
1
 10
267.982246
 20
226.453229
 30
0.0
 10
267.727258
 20
226.368235
 30
0.0
 10
267.652477
 20
226.003260
 30
0.0
 10
267.412072
 20
225.883055
 30
0.0
  0
SPLINE
  5
1a1
100
AcDbEntity
  8
Layer_1
 62
1
100
AcDbSpline
 70
8
 71
3
 72
8
 73
4
 74
0
 40
0
 40
0
 40
0
 40
0
 40
1
 40
1
 40
1
 40
1
 10
267.412072
 20
225.883055
 30
0.0
 10
267.242078
 20
225.798059
 30
0.0
 10
266.841896
 20
225.692996
 30
0.0
 10
266.841896
 20
225.883055
 30
0.0
  0
SPLINE
  5
1a2
100
AcDbEntity
  8
Layer_1
 62
1
100
AcDbSpline
 70
8
 71
3
 72
8
 73
4
 74
0
 40
0
 40
0
 40
0
 40
0
 40
1
 40
1
 40
1
 40
1
 10
266.841896
 20
225.883055
 30
0.0
 10
266.841896
 20
226.073112
 30
0.0
 10
267.222012
 20
225.883055
 30
0.0
 10
267.412072
 20
225.883055
 30
0.0
  0
SPLINE
  5
1a3
100
AcDbEntity
  8
Layer_1
 62
1
100
AcDbSpline
 70
8
 71
3
 72
8
 73
4
 74
0
 40
0
 40
0
 40
0
 40
0
 40
1
 40
1
 40
1
 40
1
 10
215.526149
 20
224.172529
 30
0.0
 10
213.403208
 20
229.358035
 30
0.0
 10
204.537005
 20
235.940860
 30
0.0
 10
213.577068
 20
239.996822
 30
0.0
  0
SPLINE
  5
1a4
100
AcDbEntity
  8
Layer_1
 62
1
100
AcDbSpline
 70
8
 71
3
 72
8
 73
4
 74
0
 40
0
 40
0
 40
0
 40
0
 40
1
 40
1
 40
1
 40
1
 10
213.577068
 20
239.996822
 30
0.0
 10
218.793847
 20
243.676024
 30
0.0
 10
226.339482
 20
243.110662
 30
0.0
 10
228.069998
 20
250.970754
 30
0.0
  0
SPLINE
  5
1a5
100
AcDbEntity
  8
Layer_1
 62
1
100
AcDbSpline
 70
8
 71
3
 72
8
 73
4
 74
0
 40
0
 40
0
 40
0
 40
0
 40
1
 40
1
 40
1
 40
1
 10
228.069998
 20
250.970754
 30
0.0
 10
235.963014
 20
253.808919
 30
0.0
 10
235.183545
 20
268.418155
 30
0.0
 10
225.053231
 20
266.230182
 30
0.0
  0
SPLINE
  5
1a6
100
AcDbEntity
  8
Layer_1
 62
1
100
AcDbSpline
 70
8
 71
3
 72
8
 73
4
 74
0
 40
0
 40
0
 40
0
 40
0
 40
1
 40
1
 40
1
 40
1
 10
225.053231
 20
266.230182
 30
0.0
 10
214.463133
 20
267.066830
 30
0.0
 10
203.864281
 20
265.330136
 30
0.0
 10
193.366271
 20
264.910359
 30
0.0
  0
SPLINE
  5
1a7
100
AcDbEntity
  8
Layer_1
 62
1
100
AcDbSpline
 70
8
 71
3
 72
8
 73
4
 74
0
 40
0
 40
0
 40
0
 40
0
 40
1
 40
1
 40
1
 40
1
 10
193.366271
 20
264.910359
 30
0.0
 10
168.712574
 20
261.262809
 30
0.0
 10
137.135212
 20
255.361209
 30
0.0
 10
130.796566
 20
233.738327
 30
0.0
  0
SPLINE
  5
1a8
100
AcDbEntity
  8
Layer_1
 62
1
100
AcDbSpline
 70
8
 71
3
 72
8
 73
4
 74
0
 40
0
 40
0
 40
0
 40
0
 40
1
 40
1
 40
1
 40
1
 10
130.796566
 20
233.738327
 30
0.0
 10
129.204043
 20
223.922943
 30
0.0
 10
129.502781
 20
213.877960
 30
0.0
 10
127.032800
 20
204.151933
 30
0.0
  0
SPLINE
  5
1a9
100
AcDbEntity
  8
Layer_1
 62
1
100
AcDbSpline
 70
8
 71
3
 72
8
 73
4
 74
0
 40
0
 40
0
 40
0
 40
0
 40
1
 40
1
 40
1
 40
1
 10
127.032800
 20
204.151933
 30
0.0
 10
119.625677
 20
175.116950
 30
0.0
 10
115.060228
 20
84.955521
 30
0.0
 10
125.066617
 20
70.344154
 30
0.0
  0
SPLINE
  5
1aa
100
AcDbEntity
  8
Layer_1
 62
1
100
AcDbSpline
 70
8
 71
3
 72
8
 73
4
 74
0
 40
0
 40
0
 40
0
 40
0
 40
1
 40
1
 40
1
 40
1
 10
125.066617
 20
70.344154
 30
0.0
 10
131.969332
 20
68.218959
 30
0.0
 10
142.193591
 20
67.823094
 30
0.0
 10
143.075922
 20
77.427478
 30
0.0
  0
SPLINE
  5
1ab
100
AcDbEntity
  8
Layer_1
 62
1
100
AcDbSpline
 70
8
 71
3
 72
8
 73
4
 74
0
 40
0
 40
0
 40
0
 40
0
 40
1
 40
1
 40
1
 40
1
 10
143.075922
 20
77.427478
 30
0.0
 10
145.129453
 20
86.435856
 30
0.0
 10
138.358606
 20
93.500059
 30
0.0
 10
138.144871
 20
102.205025
 30
0.0
  0
SPLINE
  5
1ac
100
AcDbEntity
  8
Layer_1
 62
1
100
AcDbSpline
 70
8
 71
3
 72
8
 73
4
 74
0
 40
0
 40
0
 40
0
 40
0
 40
1
 40
1
 40
1
 40
1
 10
138.144871
 20
102.205025
 30
0.0
 10
139.734874
 20
107.245263
 30
0.0
 10
131.640461
 20
119.375547
 30
0.0
 10
139.774580
 20
118.638930
 30
0.0
  0
SPLINE
  5
1ad
100
AcDbEntity
  8
Layer_1
 62
1
100
AcDbSpline
 70
8
 71
3
 72
8
 73
4
 74
0
 40
0
 40
0
 40
0
 40
0
 40
1
 40
1
 40
1
 40
1
 10
139.774580
 20
118.638930
 30
0.0
 10
142.058655
 20
116.596651
 30
0.0
 10
145.606186
 20
115.669280
 30
0.0
 10
146.534973
 20
112.418233
 30
0.0
  0
SPLINE
  5
1ae
100
AcDbEntity
  8
Layer_1
 62
1
100
AcDbSpline
 70
8
 71
3
 72
8
 73
4
 74
0
 40
0
 40
0
 40
0
 40
0
 40
1
 40
1
 40
1
 40
1
 10
172.763022
 20
66.804233
 30
0.0
 10
176.992695
 20
62.167460
 30
0.0
 10
177.153807
 20
50.563309
 30
0.0
 10
168.771799
 20
53.690207
 30
0.0
  0
SPLINE
  5
1af
100
AcDbEntity
  8
Layer_1
 62
1
100
AcDbSpline
 70
8
 71
3
 72
8
 73
4
 74
0
 40
0
 40
0
 40
0
 40
0
 40
1
 40
1
 40
1
 40
1
 10
168.771799
 20
53.690207
 30
0.0
 10
163.182653
 20
53.401815
 30
0.0
 10
159.923449
 20
56.038742
 30
0.0
 10
155.657773
 20
58.821783
 30
0.0
  0
SPLINE
  5
1b0
100
AcDbEntity
  8
Layer_1
 62
1
100
AcDbSpline
 70
8
 71
3
 72
8
 73
4
 74
0
 40
0
 40
0
 40
0
 40
0
 40
1
 40
1
 40
1
 40
1
 10
155.657773
 20
58.821783
 30
0.0
 10
153.377643
 20
59.800544
 30
0.0
 10
152.611907
 20
65.870726
 30
0.0
 10
148.821792
 20
66.255068
 30
0.0
  0
SPLINE
  5
1b1
100
AcDbEntity
  8
Layer_1
 62
1
100
AcDbSpline
 70
8
 71
3
 72
8
 73
4
 74
0
 40
0
 40
0
 40
0
 40
0
 40
1
 40
1
 40
1
 40
1
 10
148.821792
 20
66.255068
 30
0.0
 10
143.388201
 20
67.910157
 30
0.0
 10
137.292929
 20
62.521702
 30
0.0
 10
133.435395
 20
62.629161
 30
0.0
  0
SPLINE
  5
1b2
100
AcDbEntity
  8
Layer_1
 62
1
100
AcDbSpline
 70
8
 71
3
 72
8
 73
4
 74
0
 40
0
 40
0
 40
0
 40
0
 40
1
 40
1
 40
1
 40
1
 10
133.435395
 20
62.629161
 30
0.0
 10
128.030326
 20
60.130041
 30
0.0
 10
123.418992
 20
54.957647
 30
0.0
 10
122.017449
 20
49.128807
 30
0.0
  0
SPLINE
  5
1b3
100
AcDbEntity
  8
Layer_1
 62
1
100
AcDbSpline
 70
8
 71
3
 72
8
 73
4
 74
0
 40
0
 40
0
 40
0
 40
0
 40
1
 40
1
 40
1
 40
1
 10
122.017449
 20
49.128807
 30
0.0
 10
123.682805
 20
43.981452
 30
0.0
 10
126.708357
 20
41.379696
 30
0.0
 10
129.109631
 20
38.015523
 30
0.0
  0
SPLINE
  5
1b4
100
AcDbEntity
  8
Layer_1
 62
1
100
AcDbSpline
 70
8
 71
3
 72
8
 73
4
 74
0
 40
0
 40
0
 40
0
 40
0
 40
1
 40
1
 40
1
 40
1
 10
129.109631
 20
38.015523
 30
0.0
 10
177.148719
 20
26.320096
 30
0.0
 10
296.118901
 20
29.166208
 30
0.0
 10
332.982203
 20
32.593732
 30
0.0
  0
SPLINE
  5
1b5
100
AcDbEntity
  8
Layer_1
 62
1
100
AcDbSpline
 70
8
 71
3
 72
8
 73
4
 74
0
 40
0
 40
0
 40
0
 40
0
 40
1
 40
1
 40
1
 40
1
 10
332.982203
 20
32.593732
 30
0.0
 10
338.309571
 20
45.605720
 30
0.0
 10
349.333086
 20
57.260888
 30
0.0
 10
346.666397
 20
71.365632
 30
0.0
  0
SPLINE
  5
1b6
100
AcDbEntity
  8
Layer_1
 62
1
100
AcDbSpline
 70
8
 71
3
 72
8
 73
4
 74
0
 40
0
 40
0
 40
0
 40
0
 40
1
 40
1
 40
1
 40
1
 10
346.666397
 20
71.365632
 30
0.0
 10
333.964252
 20
86.427999
 30
0.0
 10
301.876206
 20
41.665350
 30
0.0
 10
300.482226
 20
58.251607
 30
0.0
  0
SPLINE
  5
1b7
100
AcDbEntity
  8
Layer_1
 62
1
100
AcDbSpline
 70
8
 71
3
 72
8
 73
4
 74
0
 40
0
 40
0
 40
0
 40
0
 40
1
 40
1
 40
1
 40
1
 10
300.482226
 20
58.251607
 30
0.0
 10
301.927034
 20
63.715974
 30
0.0
 10
302.448750
 20
63.036679
 30
0.0
 10
304.080362
 20
67.424357
 30
0.0
  0
LWPOLYLINE
  5
1b8
100
AcDbEntity
  8
Layer_1
 62
1
100
AcDbPolyline
 90
2
 70
0
 10
246.315591
 20
135.376817
 30
0.0
 10
246.315591
 20
135.376817
 30
0.0
  0
SPLINE
  5
1b9
100
AcDbEntity
  8
Layer_1
 62
1
100
AcDbSpline
 70
8
 71
3
 72
8
 73
4
 74
0
 40
0
 40
0
 40
0
 40
0
 40
1
 40
1
 40
1
 40
1
 10
370.043569
 20
53.690207
 30
0.0
 10
369.733886
 20
54.748588
 30
0.0
 10
373.951500
 20
55.887609
 30
0.0
 10
374.604957
 20
56.541083
 30
0.0
  0
SPLINE
  5
1ba
100
AcDbEntity
  8
Layer_1
 62
1
100
AcDbSpline
 70
8
 71
3
 72
8
 73
4
 74
0
 40
0
 40
0
 40
0
 40
0
 40
1
 40
1
 40
1
 40
1
 10
374.604957
 20
56.541083
 30
0.0
 10
374.739352
 20
56.675475
 30
0.0
 10
374.452924
 20
56.997222
 30
0.0
 10
374.604957
 20
57.111257
 30
0.0
  0
SPLINE
  5
1bb
100
AcDbEntity
  8
Layer_1
 62
1
100
AcDbSpline
 70
8
 71
3
 72
8
 73
4
 74
0
 40
0
 40
0
 40
0
 40
0
 40
1
 40
1
 40
1
 40
1
 10
374.604957
 20
57.111257
 30
0.0
 10
375.284944
 20
57.621238
 30
0.0
 10
376.156841
 20
57.814303
 30
0.0
 10
376.885680
 20
58.251607
 30
0.0
  0
SPLINE
  5
1bc
100
AcDbEntity
  8
Layer_1
 62
1
100
AcDbSpline
 70
8
 71
3
 72
8
 73
4
 74
0
 40
0
 40
0
 40
0
 40
0
 40
1
 40
1
 40
1
 40
1
 10
376.885680
 20
58.251607
 30
0.0
 10
377.116142
 20
58.389896
 30
0.0
 10
377.232192
 20
58.672688
 30
0.0
 10
377.455853
 20
58.821783
 30
0.0
  0
SPLINE
  5
1bd
100
AcDbEntity
  8
Layer_1
 62
1
100
AcDbSpline
 70
8
 71
3
 72
8
 73
4
 74
0
 40
0
 40
0
 40
0
 40
0
 40
1
 40
1
 40
1
 40
1
 10
377.455853
 20
58.821783
 30
0.0
 10
377.809450
 20
59.057521
 30
0.0
 10
378.242576
 20
59.156219
 30
0.0
 10
378.596200
 20
59.391957
 30
0.0
  0
SPLINE
  5
1be
100
AcDbEntity
  8
Layer_1
 62
1
100
AcDbSpline
 70
8
 71
3
 72
8
 73
4
 74
0
 40
0
 40
0
 40
0
 40
0
 40
1
 40
1
 40
1
 40
1
 10
378.596200
 20
59.391957
 30
0.0
 10
379.043466
 20
59.690147
 30
0.0
 10
379.306497
 20
60.209769
 30
0.0
 10
379.736548
 20
60.532307
 30
0.0
  0
SPLINE
  5
1bf
100
AcDbEntity
  8
Layer_1
 62
1
100
AcDbSpline
 70
8
 71
3
 72
8
 73
4
 74
0
 40
0
 40
0
 40
0
 40
0
 40
1
 40
1
 40
1
 40
1
 10
379.736548
 20
60.532307
 30
0.0
 10
380.284764
 20
60.943468
 30
0.0
 10
380.962521
 20
61.188101
 30
0.0
 10
381.447068
 20
61.672657
 30
0.0
  0
SPLINE
  5
1c0
100
AcDbEntity
  8
Layer_1
 62
1
100
AcDbSpline
 70
8
 71
3
 72
8
 73
4
 74
0
 40
0
 40
0
 40
0
 40
0
 40
1
 40
1
 40
1
 40
1
 10
381.447068
 20
61.672657
 30
0.0
 10
381.747578
 20
61.973167
 30
0.0
 10
381.716732
 20
62.512499
 30
0.0
 10
382.017242
 20
62.813006
 30
0.0
  0
SPLINE
  5
1c1
100
AcDbEntity
  8
Layer_1
 62
1
100
AcDbSpline
 70
8
 71
3
 72
8
 73
4
 74
0
 40
0
 40
0
 40
0
 40
0
 40
1
 40
1
 40
1
 40
1
 10
382.017242
 20
62.813006
 30
0.0
 10
382.618262
 20
63.414024
 30
0.0
 10
383.696916
 20
63.352342
 30
0.0
 10
384.297936
 20
63.953356
 30
0.0
  0
SPLINE
  5
1c2
100
AcDbEntity
  8
Layer_1
 62
1
100
AcDbSpline
 70
8
 71
3
 72
8
 73
4
 74
0
 40
0
 40
0
 40
0
 40
0
 40
1
 40
1
 40
1
 40
1
 10
384.297936
 20
63.953356
 30
0.0
 10
384.598446
 20
64.253867
 30
0.0
 10
384.613122
 20
64.753722
 30
0.0
 10
384.868110
 20
65.093706
 30
0.0
  0
SPLINE
  5
1c3
100
AcDbEntity
  8
Layer_1
 62
1
100
AcDbSpline
 70
8
 71
3
 72
8
 73
4
 74
0
 40
0
 40
0
 40
0
 40
0
 40
1
 40
1
 40
1
 40
1
 10
384.868110
 20
65.093706
 30
0.0
 10
385.022288
 20
65.299269
 30
0.0
 10
386.740823
 20
67.068410
 30
0.0
 10
387.148832
 20
67.374406
 30
0.0
  0
SPLINE
  5
1c4
100
AcDbEntity
  8
Layer_1
 62
1
100
AcDbSpline
 70
8
 71
3
 72
8
 73
4
 74
0
 40
0
 40
0
 40
0
 40
0
 40
1
 40
1
 40
1
 40
1
 10
387.148832
 20
67.374406
 30
0.0
 10
391.814643
 20
70.873773
 30
0.0
 10
385.458010
 20
65.867094
 30
0.0
 10
391.140047
 20
69.655109
 30
0.0
  0
SPLINE
  5
1c5
100
AcDbEntity
  8
Layer_1
 62
1
100
AcDbSpline
 70
8
 71
3
 72
8
 73
4
 74
0
 40
0
 40
0
 40
0
 40
0
 40
1
 40
1
 40
1
 40
1
 10
391.140047
 20
69.655109
 30
0.0
 10
391.587313
 20
69.953296
 30
0.0
 10
391.900269
 20
70.415342
 30
0.0
 10
392.280394
 20
70.795459
 30
0.0
  0
SPLINE
  5
1c6
100
AcDbEntity
  8
Layer_1
 62
1
100
AcDbSpline
 70
8
 71
3
 72
8
 73
4
 74
0
 40
0
 40
0
 40
0
 40
0
 40
1
 40
1
 40
1
 40
1
 10
392.280394
 20
70.795459
 30
0.0
 10
392.660519
 20
71.175575
 30
0.0
 10
393.040616
 20
71.555692
 30
0.0
 10
393.420741
 20
71.935809
 30
0.0
  0
SPLINE
  5
1c7
100
AcDbEntity
  8
Layer_1
 62
1
100
AcDbSpline
 70
8
 71
3
 72
8
 73
4
 74
0
 40
0
 40
0
 40
0
 40
0
 40
1
 40
1
 40
1
 40
1
 10
393.420741
 20
71.935809
 30
0.0
 10
393.610790
 20
72.125866
 30
0.0
 10
393.735927
 20
72.420985
 30
0.0
 10
393.990915
 20
72.505982
 30
0.0
  0
SPLINE
  5
1c8
100
AcDbEntity
  8
Layer_1
 62
1
100
AcDbSpline
 70
8
 71
3
 72
8
 73
4
 74
0
 40
0
 40
0
 40
0
 40
0
 40
1
 40
1
 40
1
 40
1
 10
393.990915
 20
72.505982
 30
0.0
 10
394.351538
 20
72.626186
 30
0.0
 10
394.791269
 20
72.335989
 30
0.0
 10
395.131262
 20
72.505982
 30
0.0
  0
SPLINE
  5
1c9
100
AcDbEntity
  8
Layer_1
 62
1
100
AcDbSpline
 70
8
 71
3
 72
8
 73
4
 74
0
 40
0
 40
0
 40
0
 40
0
 40
1
 40
1
 40
1
 40
1
 10
395.131262
 20
72.505982
 30
0.0
 10
395.612084
 20
72.746391
 30
0.0
 10
395.790815
 20
73.405927
 30
0.0
 10
396.271609
 20
73.646332
 30
0.0
  0
SPLINE
  5
1ca
100
AcDbEntity
  8
Layer_1
 62
1
100
AcDbSpline
 70
8
 71
3
 72
8
 73
4
 74
0
 40
0
 40
0
 40
0
 40
0
 40
1
 40
1
 40
1
 40
1
 10
396.271609
 20
73.646332
 30
0.0
 10
396.611602
 20
73.816326
 30
0.0
 10
397.043204
 20
73.554142
 30
0.0
 10
397.411956
 20
73.646332
 30
0.0
  0
SPLINE
  5
1cb
100
AcDbEntity
  8
Layer_1
 62
1
100
AcDbSpline
 70
8
 71
3
 72
8
 73
4
 74
0
 40
0
 40
0
 40
0
 40
0
 40
1
 40
1
 40
1
 40
1
 10
397.411956
 20
73.646332
 30
0.0
 10
397.824254
 20
73.749405
 30
0.0
 10
398.172206
 20
74.026449
 30
0.0
 10
398.552331
 20
74.216509
 30
0.0
  0
SPLINE
  5
1cc
100
AcDbEntity
  8
Layer_1
 62
1
100
AcDbSpline
 70
8
 71
3
 72
8
 73
4
 74
0
 40
0
 40
0
 40
0
 40
0
 40
1
 40
1
 40
1
 40
1
 10
398.552331
 20
74.216509
 30
0.0
 10
399.312553
 20
74.596625
 30
0.0
 10
400.072775
 20
74.976742
 30
0.0
 10
400.832997
 20
75.356859
 30
0.0
  0
SPLINE
  5
1cd
100
AcDbEntity
  8
Layer_1
 62
1
100
AcDbSpline
 70
8
 71
3
 72
8
 73
4
 74
0
 40
0
 40
0
 40
0
 40
0
 40
1
 40
1
 40
1
 40
1
 10
400.832997
 20
75.356859
 30
0.0
 10
401.213122
 20
75.546915
 30
0.0
 10
401.561074
 20
75.823959
 30
0.0
 10
401.973344
 20
75.927032
 30
0.0
  0
SPLINE
  5
1ce
100
AcDbEntity
  8
Layer_1
 62
1
100
AcDbSpline
 70
8
 71
3
 72
8
 73
4
 74
0
 40
0
 40
0
 40
0
 40
0
 40
1
 40
1
 40
1
 40
1
 10
401.973344
 20
75.927032
 30
0.0
 10
402.342124
 20
76.019226
 30
0.0
 10
402.744940
 20
75.834841
 30
0.0
 10
403.113692
 20
75.927032
 30
0.0
  0
SPLINE
  5
1cf
100
AcDbEntity
  8
Layer_1
 62
1
100
AcDbSpline
 70
8
 71
3
 72
8
 73
4
 74
0
 40
0
 40
0
 40
0
 40
0
 40
1
 40
1
 40
1
 40
1
 10
403.113692
 20
75.927032
 30
0.0
 10
403.525990
 20
76.030105
 30
0.0
 10
403.873942
 20
76.307149
 30
0.0
 10
404.254067
 20
76.497209
 30
0.0
  0
SPLINE
  5
1d0
100
AcDbEntity
  8
Layer_1
 62
1
100
AcDbSpline
 70
8
 71
3
 72
8
 73
4
 74
0
 40
0
 40
0
 40
0
 40
0
 40
1
 40
1
 40
1
 40
1
 10
404.254067
 20
76.497209
 30
0.0
 10
404.824240
 20
76.687265
 30
0.0
 10
405.375223
 20
76.949512
 30
0.0
 10
405.964588
 20
77.067382
 30
0.0
  0
SPLINE
  5
1d1
100
AcDbEntity
  8
Layer_1
 62
1
100
AcDbSpline
 70
8
 71
3
 72
8
 73
4
 74
0
 40
0
 40
0
 40
0
 40
0
 40
1
 40
1
 40
1
 40
1
 10
405.964588
 20
77.067382
 30
0.0
 10
406.896429
 20
77.253750
 30
0.0
 10
407.874724
 20
76.932991
 30
0.0
 10
408.815455
 20
77.067382
 30
0.0
  0
SPLINE
  5
1d2
100
AcDbEntity
  8
Layer_1
 62
1
100
AcDbSpline
 70
8
 71
3
 72
8
 73
4
 74
0
 40
0
 40
0
 40
0
 40
0
 40
1
 40
1
 40
1
 40
1
 10
408.815455
 20
77.067382
 30
0.0
 10
409.591200
 20
77.178205
 30
0.0
 10
410.318571
 20
77.540361
 30
0.0
 10
411.096150
 20
77.637558
 30
0.0
  0
SPLINE
  5
1d3
100
AcDbEntity
  8
Layer_1
 62
1
100
AcDbSpline
 70
8
 71
3
 72
8
 73
4
 74
0
 40
0
 40
0
 40
0
 40
0
 40
1
 40
1
 40
1
 40
1
 10
411.096150
 20
77.637558
 30
0.0
 10
411.488495
 20
77.686600
 30
0.0
 10
416.424787
 20
77.699746
 30
0.0
 10
416.797913
 20
77.637558
 30
0.0
  0
SPLINE
  5
1d4
100
AcDbEntity
  8
Layer_1
 62
1
100
AcDbSpline
 70
8
 71
3
 72
8
 73
4
 74
0
 40
0
 40
0
 40
0
 40
0
 40
1
 40
1
 40
1
 40
1
 10
416.797913
 20
77.637558
 30
0.0
 10
417.217098
 20
77.567692
 30
0.0
 10
417.521531
 20
77.150728
 30
0.0
 10
417.938260
 20
77.067382
 30
0.0
  0
SPLINE
  5
1d5
100
AcDbEntity
  8
Layer_1
 62
1
100
AcDbSpline
 70
8
 71
3
 72
8
 73
4
 74
0
 40
0
 40
0
 40
0
 40
0
 40
1
 40
1
 40
1
 40
1
 10
417.938260
 20
77.067382
 30
0.0
 10
418.497371
 20
76.955563
 30
0.0
 10
419.084337
 20
77.148019
 30
0.0
 10
419.648781
 20
77.067382
 30
0.0
  0
SPLINE
  5
1d6
100
AcDbEntity
  8
Layer_1
 62
1
100
AcDbSpline
 70
8
 71
3
 72
8
 73
4
 74
0
 40
0
 40
0
 40
0
 40
0
 40
1
 40
1
 40
1
 40
1
 10
419.648781
 20
77.067382
 30
0.0
 10
421.120090
 20
77.657004
 30
0.0
 10
421.891150
 20
76.162770
 30
0.0
 10
423.069822
 20
75.927032
 30
0.0
  0
SPLINE
  5
1d7
100
AcDbEntity
  8
Layer_1
 62
1
100
AcDbSpline
 70
8
 71
3
 72
8
 73
4
 74
0
 40
0
 40
0
 40
0
 40
0
 40
1
 40
1
 40
1
 40
1
 10
423.069822
 20
75.927032
 30
0.0
 10
423.628933
 20
75.815213
 30
0.0
 10
424.210170
 20
75.927032
 30
0.0
 10
424.780343
 20
75.927032
 30
0.0
  0
SPLINE
  5
1d8
100
AcDbEntity
  8
Layer_1
 62
1
100
AcDbSpline
 70
8
 71
3
 72
8
 73
4
 74
0
 40
0
 40
0
 40
0
 40
0
 40
1
 40
1
 40
1
 40
1
 10
424.780343
 20
75.927032
 30
0.0
 10
425.920718
 20
75.927032
 30
0.0
 10
427.061066
 20
75.927032
 30
0.0
 10
428.201413
 20
75.927032
 30
0.0
  0
SPLINE
  5
1d9
100
AcDbEntity
  8
Layer_1
 62
1
100
AcDbSpline
 70
8
 71
3
 72
8
 73
4
 74
0
 40
0
 40
0
 40
0
 40
0
 40
1
 40
1
 40
1
 40
1
 10
428.201413
 20
75.927032
 30
0.0
 10
428.581510
 20
75.927032
 30
0.0
 10
428.966799
 20
75.989525
 30
0.0
 10
429.341760
 20
75.927032
 30
0.0
  0
SPLINE
  5
1da
100
AcDbEntity
  8
Layer_1
 62
1
100
AcDbSpline
 70
8
 71
3
 72
8
 73
4
 74
0
 40
0
 40
0
 40
0
 40
0
 40
1
 40
1
 40
1
 40
1
 10
429.341760
 20
75.927032
 30
0.0
 10
430.114710
 20
75.798203
 30
0.0
 10
430.846710
 20
75.467679
 30
0.0
 10
431.622454
 20
75.356859
 30
0.0
  0
SPLINE
  5
1db
100
AcDbEntity
  8
Layer_1
 62
1
100
AcDbSpline
 70
8
 71
3
 72
8
 73
4
 74
0
 40
0
 40
0
 40
0
 40
0
 40
1
 40
1
 40
1
 40
1
 10
431.622454
 20
75.356859
 30
0.0
 10
432.186898
 20
75.276222
 30
0.0
 10
432.762801
 20
75.356859
 30
0.0
 10
433.332975
 20
75.356859
 30
0.0
  0
SPLINE
  5
1dc
100
AcDbEntity
  8
Layer_1
 62
1
100
AcDbSpline
 70
8
 71
3
 72
8
 73
4
 74
0
 40
0
 40
0
 40
0
 40
0
 40
1
 40
1
 40
1
 40
1
 10
433.332975
 20
75.356859
 30
0.0
 10
433.713100
 20
75.356859
 30
0.0
 10
434.104570
 20
75.449049
 30
0.0
 10
434.473322
 20
75.356859
 30
0.0
  0
SPLINE
  5
1dd
100
AcDbEntity
  8
Layer_1
 62
1
100
AcDbSpline
 70
8
 71
3
 72
8
 73
4
 74
0
 40
0
 40
0
 40
0
 40
0
 40
1
 40
1
 40
1
 40
1
 10
434.473322
 20
75.356859
 30
0.0
 10
434.885620
 20
75.253783
 30
0.0
 10
435.201399
 20
74.889755
 30
0.0
 10
435.613669
 20
74.786682
 30
0.0
  0
SPLINE
  5
1de
100
AcDbEntity
  8
Layer_1
 62
1
100
AcDbSpline
 70
8
 71
3
 72
8
 73
4
 74
0
 40
0
 40
0
 40
0
 40
0
 40
1
 40
1
 40
1
 40
1
 10
435.613669
 20
74.786682
 30
0.0
 10
436.535604
 20
74.556203
 30
0.0
 10
437.532724
 20
74.973050
 30
0.0
 10
438.464565
 20
74.786682
 30
0.0
  0
SPLINE
  5
1df
100
AcDbEntity
  8
Layer_1
 62
1
100
AcDbSpline
 70
8
 71
3
 72
8
 73
4
 74
0
 40
0
 40
0
 40
0
 40
0
 40
1
 40
1
 40
1
 40
1
 10
438.464565
 20
74.786682
 30
0.0
 10
438.881294
 20
74.703336
 30
0.0
 10
439.196282
 20
74.333258
 30
0.0
 10
439.604912
 20
74.216509
 30
0.0
  0
SPLINE
  5
1e0
100
AcDbEntity
  8
Layer_1
 62
1
100
AcDbSpline
 70
8
 71
3
 72
8
 73
4
 74
0
 40
0
 40
0
 40
0
 40
0
 40
1
 40
1
 40
1
 40
1
 10
439.604912
 20
74.216509
 30
0.0
 10
440.536725
 20
73.950271
 30
0.0
 10
441.523967
 20
73.912567
 30
0.0
 10
442.455780
 20
73.646332
 30
0.0
  0
SPLINE
  5
1e1
100
AcDbEntity
  8
Layer_1
 62
1
100
AcDbSpline
 70
8
 71
3
 72
8
 73
4
 74
0
 40
0
 40
0
 40
0
 40
0
 40
1
 40
1
 40
1
 40
1
 10
442.455780
 20
73.646332
 30
0.0
 10
445.061481
 20
72.901844
 30
0.0
 10
441.880865
 20
73.076949
 30
0.0
 10
445.306648
 20
72.505982
 30
0.0
  0
SPLINE
  5
1e2
100
AcDbEntity
  8
Layer_1
 62
1
100
AcDbSpline
 70
8
 71
3
 72
8
 73
4
 74
0
 40
0
 40
0
 40
0
 40
0
 40
1
 40
1
 40
1
 40
1
 10
445.306648
 20
72.505982
 30
0.0
 10
445.869060
 20
72.412245
 30
0.0
 10
446.464041
 20
72.644271
 30
0.0
 10
447.017168
 20
72.505982
 30
0.0
  0
SPLINE
  5
1e3
100
AcDbEntity
  8
Layer_1
 62
1
100
AcDbSpline
 70
8
 71
3
 72
8
 73
4
 74
0
 40
0
 40
0
 40
0
 40
0
 40
1
 40
1
 40
1
 40
1
 10
447.017168
 20
72.505982
 30
0.0
 10
447.277942
 20
72.440792
 30
0.0
 10
447.346945
 20
72.056010
 30
0.0
 10
447.587342
 20
71.935809
 30
0.0
  0
SPLINE
  5
1e4
100
AcDbEntity
  8
Layer_1
 62
1
100
AcDbSpline
 70
8
 71
3
 72
8
 73
4
 74
0
 40
0
 40
0
 40
0
 40
0
 40
1
 40
1
 40
1
 40
1
 10
447.587342
 20
71.935809
 30
0.0
 10
447.757352
 20
71.850812
 30
0.0
 10
447.973140
 20
71.981904
 30
0.0
 10
448.157544
 20
71.935809
 30
0.0
  0
SPLINE
  5
1e5
100
AcDbEntity
  8
Layer_1
 62
1
100
AcDbSpline
 70
8
 71
3
 72
8
 73
4
 74
0
 40
0
 40
0
 40
0
 40
0
 40
1
 40
1
 40
1
 40
1
 10
448.157544
 20
71.935809
 30
0.0
 10
448.740615
 20
71.790038
 30
0.0
 10
449.284993
 20
71.511400
 30
0.0
 10
449.868064
 20
71.365632
 30
0.0
  0
SPLINE
  5
1e6
100
AcDbEntity
  8
Layer_1
 62
1
100
AcDbSpline
 70
8
 71
3
 72
8
 73
4
 74
0
 40
0
 40
0
 40
0
 40
0
 40
1
 40
1
 40
1
 40
1
 10
449.868064
 20
71.365632
 30
0.0
 10
450.052440
 20
71.319537
 30
0.0
 10
450.257926
 20
71.425734
 30
0.0
 10
450.438238
 20
71.365632
 30
0.0
  0
SPLINE
  5
1e7
100
AcDbEntity
  8
Layer_1
 62
1
100
AcDbSpline
 70
8
 71
3
 72
8
 73
4
 74
0
 40
0
 40
0
 40
0
 40
0
 40
1
 40
1
 40
1
 40
1
 10
450.438238
 20
71.365632
 30
0.0
 10
450.841392
 20
71.231241
 30
0.0
 10
451.175402
 20
70.929850
 30
0.0
 10
451.578585
 20
70.795459
 30
0.0
  0
SPLINE
  5
1e8
100
AcDbEntity
  8
Layer_1
 62
1
100
AcDbSpline
 70
8
 71
3
 72
8
 73
4
 74
0
 40
0
 40
0
 40
0
 40
0
 40
1
 40
1
 40
1
 40
1
 10
451.578585
 20
70.795459
 30
0.0
 10
451.939180
 20
70.675255
 30
0.0
 10
452.358308
 20
70.915660
 30
0.0
 10
452.718932
 20
70.795459
 30
0.0
  0
SPLINE
  5
1e9
100
AcDbEntity
  8
Layer_1
 62
1
100
AcDbSpline
 70
8
 71
3
 72
8
 73
4
 74
0
 40
0
 40
0
 40
0
 40
0
 40
1
 40
1
 40
1
 40
1
 10
452.718932
 20
70.795459
 30
0.0
 10
453.122115
 20
70.661065
 30
0.0
 10
453.446981
 20
70.328356
 30
0.0
 10
453.859279
 20
70.225282
 30
0.0
  0
SPLINE
  5
1ea
100
AcDbEntity
  8
Layer_1
 62
1
100
AcDbSpline
 70
8
 71
3
 72
8
 73
4
 74
0
 40
0
 40
0
 40
0
 40
0
 40
1
 40
1
 40
1
 40
1
 10
453.859279
 20
70.225282
 30
0.0
 10
454.228059
 20
70.133092
 30
0.0
 10
454.639031
 20
70.345487
 30
0.0
 10
454.999626
 20
70.225282
 30
0.0
  0
SPLINE
  5
1eb
100
AcDbEntity
  8
Layer_1
 62
1
100
AcDbSpline
 70
8
 71
3
 72
8
 73
4
 74
0
 40
0
 40
0
 40
0
 40
0
 40
1
 40
1
 40
1
 40
1
 10
454.999626
 20
70.225282
 30
0.0
 10
455.254614
 20
70.140286
 30
0.0
 10
455.329403
 20
69.775310
 30
0.0
 10
455.569800
 20
69.655109
 30
0.0
  0
SPLINE
  5
1ec
100
AcDbEntity
  8
Layer_1
 62
1
100
AcDbSpline
 70
8
 71
3
 72
8
 73
4
 74
0
 40
0
 40
0
 40
0
 40
0
 40
1
 40
1
 40
1
 40
1
 10
455.569800
 20
69.655109
 30
0.0
 10
455.739810
 20
69.570112
 30
0.0
 10
455.969991
 20
69.740103
 30
0.0
 10
456.139973
 20
69.655109
 30
0.0
  0
SPLINE
  5
1ed
100
AcDbEntity
  8
Layer_1
 62
1
100
AcDbSpline
 70
8
 71
3
 72
8
 73
4
 74
0
 40
0
 40
0
 40
0
 40
0
 40
1
 40
1
 40
1
 40
1
 10
456.139973
 20
69.655109
 30
0.0
 10
456.380398
 20
69.534905
 30
0.0
 10
456.455159
 20
69.169929
 30
0.0
 10
456.710147
 20
69.084933
 30
0.0
  0
SPLINE
  5
1ee
100
AcDbEntity
  8
Layer_1
 62
1
100
AcDbSpline
 70
8
 71
3
 72
8
 73
4
 74
0
 40
0
 40
0
 40
0
 40
0
 40
1
 40
1
 40
1
 40
1
 10
456.710147
 20
69.084933
 30
0.0
 10
456.999142
 20
68.988604
 30
0.0
 10
460.235272
 20
69.084933
 30
0.0
 10
460.701390
 20
69.084933
 30
0.0
  0
SPLINE
  5
1ef
100
AcDbEntity
  8
Layer_1
 62
1
100
AcDbSpline
 70
8
 71
3
 72
8
 73
4
 74
0
 40
0
 40
0
 40
0
 40
0
 40
1
 40
1
 40
1
 40
1
 10
460.701390
 20
69.084933
 30
0.0
 10
461.081487
 20
69.084933
 30
0.0
 10
461.481114
 20
69.205137
 30
0.0
 10
461.841737
 20
69.084933
 30
0.0
  0
SPLINE
  5
1f0
100
AcDbEntity
  8
Layer_1
 62
1
100
AcDbSpline
 70
8
 71
3
 72
8
 73
4
 74
0
 40
0
 40
0
 40
0
 40
0
 40
1
 40
1
 40
1
 40
1
 10
461.841737
 20
69.084933
 30
0.0
 10
462.096725
 20
68.999936
 30
0.0
 10
462.171486
 20
68.634960
 30
0.0
 10
462.411911
 20
68.514759
 30
0.0
  0
SPLINE
  5
1f1
100
AcDbEntity
  8
Layer_1
 62
1
100
AcDbSpline
 70
8
 71
3
 72
8
 73
4
 74
0
 40
0
 40
0
 40
0
 40
0
 40
1
 40
1
 40
1
 40
1
 10
462.411911
 20
68.514759
 30
0.0
 10
462.618102
 20
68.411660
 30
0.0
 10
464.866200
 20
68.514759
 30
0.0
 10
465.262778
 20
68.514759
 30
0.0
  0
SPLINE
  5
1f2
100
AcDbEntity
  8
Layer_1
 62
1
100
AcDbSpline
 70
8
 71
3
 72
8
 73
4
 74
0
 40
0
 40
0
 40
0
 40
0
 40
1
 40
1
 40
1
 40
1
 10
465.262778
 20
68.514759
 30
0.0
 10
467.163376
 20
68.514759
 30
0.0
 10
469.063945
 20
68.514759
 30
0.0
 10
470.964542
 20
68.514759
 30
0.0
  0
SPLINE
  5
1f3
100
AcDbEntity
  8
Layer_1
 62
1
100
AcDbSpline
 70
8
 71
3
 72
8
 73
4
 74
0
 40
0
 40
0
 40
0
 40
0
 40
1
 40
1
 40
1
 40
1
 10
470.964542
 20
68.514759
 30
0.0
 10
472.294938
 20
68.514759
 30
0.0
 10
473.625333
 20
68.514759
 30
0.0
 10
474.955757
 20
68.514759
 30
0.0
  0
SPLINE
  5
1f4
100
AcDbEntity
  8
Layer_1
 62
1
100
AcDbSpline
 70
8
 71
3
 72
8
 73
4
 74
0
 40
0
 40
0
 40
0
 40
0
 40
1
 40
1
 40
1
 40
1
 10
474.955757
 20
68.514759
 30
0.0
 10
475.525931
 20
68.514759
 30
0.0
 10
476.113122
 20
68.376470
 30
0.0
 10
476.666278
 20
68.514759
 30
0.0
  0
SPLINE
  5
1f5
100
AcDbEntity
  8
Layer_1
 62
1
100
AcDbSpline
 70
8
 71
3
 72
8
 73
4
 74
0
 40
0
 40
0
 40
0
 40
0
 40
1
 40
1
 40
1
 40
1
 10
476.666278
 20
68.514759
 30
0.0
 10
479.626958
 20
69.254926
 30
0.0
 10
476.057581
 20
69.084933
 30
0.0
 10
478.946972
 20
69.084933
 30
0.0
  0
LWPOLYLINE
  5
1f6
100
AcDbEntity
  8
Layer_1
 62
1
100
AcDbPolyline
 90
3
 70
0
 10
304.080362
 20
67.424357
 30
0.0
 10
303.793821
 20
67.294489
 30
0.0
 10
304.473441
 20
67.944583
 30
0.0
  0
LWPOLYLINE
  5
1f7
100
AcDbEntity
  8
Layer_1
 62
7
100
AcDbPolyline
 90
5
 70
0
 10
112.350773
 20
-28.330968
 30
0.0
 10
385.499441
 20
-28.330968
 30
0.0
 10
385.499441
 20
-50.479631
 30
0.0
 10
112.350773
 20
-50.479631
 30
0.0
 10
112.350773
 20
-28.330968
 30
0.0
  0
LWPOLYLINE
  5
1f8
100
AcDbEntity
  8
Layer_1
 62
7
100
AcDbPolyline
 90
6
 70
0
 10
118.958431
 20
263.988944
 30
0.0
 10
118.958431
 20
259.984916
 30
0.0
 10
124.214819
 20
259.984916
 30
0.0
 10
124.214819
 20
263.988944
 30
0.0
 10
118.958431
 20
263.988944
 30
0.0
 10
118.958431
 20
263.988944
 30
0.0
  0
LWPOLYLINE
  5
1f9
100
AcDbEntity
  8
Layer_1
 62
7
100
AcDbPolyline
 90
6
 70
0
 10
128.210028
 20
263.988944
 30
0.0
 10
128.210028
 20
259.984916
 30
0.0
 10
132.214056
 20
259.984916
 30
0.0
 10
132.214056
 20
263.988944
 30
0.0
 10
128.210028
 20
263.988944
 30
0.0
 10
128.210028
 20
263.988944
 30
0.0
  0
LWPOLYLINE
  5
1fa
100
AcDbEntity
  8
Layer_1
 62
7
100
AcDbPolyline
 90
6
 70
0
 10
136.209264
 20
263.988944
 30
0.0
 10
136.209264
 20
259.984916
 30
0.0
 10
140.213292
 20
259.984916
 30
0.0
 10
140.213292
 20
263.988944
 30
0.0
 10
136.209264
 20
263.988944
 30
0.0
 10
136.209264
 20
263.988944
 30
0.0
  0
LWPOLYLINE
  5
1fb
100
AcDbEntity
  8
Layer_1
 62
7
100
AcDbPolyline
 90
6
 70
0
 10
144.208500
 20
263.988944
 30
0.0
 10
144.208500
 20
259.984916
 30
0.0
 10
148.212528
 20
259.984916
 30
0.0
 10
148.212528
 20
263.988944
 30
0.0
 10
144.208500
 20
263.988944
 30
0.0
 10
144.208500
 20
263.988944
 30
0.0
  0
LWPOLYLINE
  5
1fc
100
AcDbEntity
  8
Layer_1
 62
7
100
AcDbPolyline
 90
6
 70
0
 10
152.207736
 20
263.988944
 30
0.0
 10
152.207736
 20
259.984916
 30
0.0
 10
156.211764
 20
259.984916
 30
0.0
 10
156.211764
 20
263.988944
 30
0.0
 10
152.207736
 20
263.988944
 30
0.0
 10
152.207736
 20
263.988944
 30
0.0
  0
LWPOLYLINE
  5
1fd
100
AcDbEntity
  8
Layer_1
 62
7
100
AcDbPolyline
 90
6
 70
0
 10
160.206972
 20
263.988944
 30
0.0
 10
160.206972
 20
259.984916
 30
0.0
 10
164.211000
 20
259.984916
 30
0.0
 10
164.211000
 20
263.988944
 30
0.0
 10
160.206972
 20
263.988944
 30
0.0
 10
160.206972
 20
263.988944
 30
0.0
  0
LWPOLYLINE
  5
1fe
100
AcDbEntity
  8
Layer_1
 62
7
100
AcDbPolyline
 90
6
 70
0
 10
168.215028
 20
263.988944
 30
0.0
 10
168.215028
 20
259.984916
 30
0.0
 10
172.210236
 20
259.984916
 30
0.0
 10
172.210236
 20
263.988944
 30
0.0
 10
168.215028
 20
263.988944
 30
0.0
 10
168.215028
 20
263.988944
 30
0.0
  0
LWPOLYLINE
  5
1ff
100
AcDbEntity
  8
Layer_1
 62
7
100
AcDbPolyline
 90
6
 70
0
 10
176.214264
 20
263.988944
 30
0.0
 10
176.214264
 20
259.984916
 30
0.0
 10
180.209472
 20
259.984916
 30
0.0
 10
180.209472
 20
263.988944
 30
0.0
 10
176.214264
 20
263.988944
 30
0.0
 10
176.214264
 20
263.988944
 30
0.0
  0
LWPOLYLINE
  5
200
100
AcDbEntity
  8
Layer_1
 62
7
100
AcDbPolyline
 90
6
 70
0
 10
184.213500
 20
263.988944
 30
0.0
 10
184.213500
 20
259.984916
 30
0.0
 10
188.208708
 20
259.984916
 30
0.0
 10
188.208708
 20
263.988944
 30
0.0
 10
184.213500
 20
263.988944
 30
0.0
 10
184.213500
 20
263.988944
 30
0.0
  0
LWPOLYLINE
  5
201
100
AcDbEntity
  8
Layer_1
 62
7
100
AcDbPolyline
 90
6
 70
0
 10
192.212736
 20
263.988944
 30
0.0
 10
192.212736
 20
259.984916
 30
0.0
 10
196.207944
 20
259.984916
 30
0.0
 10
196.207944
 20
263.988944
 30
0.0
 10
192.212736
 20
263.988944
 30
0.0
 10
192.212736
 20
263.988944
 30
0.0
  0
LWPOLYLINE
  5
202
100
AcDbEntity
  8
Layer_1
 62
7
100
AcDbPolyline
 90
6
 70
0
 10
200.211972
 20
263.988944
 30
0.0
 10
200.211972
 20
259.984916
 30
0.0
 10
204.207181
 20
259.984916
 30
0.0
 10
204.207181
 20
263.988944
 30
0.0
 10
200.211972
 20
263.988944
 30
0.0
 10
200.211972
 20
263.988944
 30
0.0
  0
LWPOLYLINE
  5
203
100
AcDbEntity
  8
Layer_1
 62
7
100
AcDbPolyline
 90
6
 70
0
 10
208.211208
 20
263.988944
 30
0.0
 10
208.211208
 20
259.984916
 30
0.0
 10
212.215236
 20
259.984916
 30
0.0
 10
212.215236
 20
263.988944
 30
0.0
 10
208.211208
 20
263.988944
 30
0.0
 10
208.211208
 20
263.988944
 30
0.0
  0
LWPOLYLINE
  5
204
100
AcDbEntity
  8
Layer_1
 62
7
100
AcDbPolyline
 90
6
 70
0
 10
216.210444
 20
263.988944
 30
0.0
 10
216.210444
 20
259.984916
 30
0.0
 10
220.214472
 20
259.984916
 30
0.0
 10
220.214472
 20
263.988944
 30
0.0
 10
216.210444
 20
263.988944
 30
0.0
 10
216.210444
 20
263.988944
 30
0.0
  0
LWPOLYLINE
  5
205
100
AcDbEntity
  8
Layer_1
 62
7
100
AcDbPolyline
 90
6
 70
0
 10
224.209681
 20
263.988944
 30
0.0
 10
224.209681
 20
259.984916
 30
0.0
 10
228.213708
 20
259.984916
 30
0.0
 10
228.213708
 20
263.988944
 30
0.0
 10
224.209681
 20
263.988944
 30
0.0
 10
224.209681
 20
263.988944
 30
0.0
  0
LWPOLYLINE
  5
206
100
AcDbEntity
  8
Layer_1
 62
7
100
AcDbPolyline
 90
6
 70
0
 10
232.208917
 20
263.988944
 30
0.0
 10
232.208917
 20
259.984916
 30
0.0
 10
236.212944
 20
259.984916
 30
0.0
 10
236.212944
 20
263.988944
 30
0.0
 10
232.208917
 20
263.988944
 30
0.0
 10
232.208917
 20
263.988944
 30
0.0
  0
LWPOLYLINE
  5
207
100
AcDbEntity
  8
Layer_1
 62
7
100
AcDbPolyline
 90
6
 70
0
 10
240.208153
 20
263.988944
 30
0.0
 10
240.208153
 20
259.984916
 30
0.0
 10
244.212181
 20
259.984916
 30
0.0
 10
244.212181
 20
263.988944
 30
0.0
 10
240.208153
 20
263.988944
 30
0.0
 10
240.208153
 20
263.988944
 30
0.0
  0
LWPOLYLINE
  5
208
100
AcDbEntity
  8
Layer_1
 62
7
100
AcDbPolyline
 90
6
 70
0
 10
248.207389
 20
263.988944
 30
0.0
 10
248.207389
 20
259.984916
 30
0.0
 10
252.211417
 20
259.984916
 30
0.0
 10
252.211417
 20
263.988944
 30
0.0
 10
248.207389
 20
263.988944
 30
0.0
 10
248.207389
 20
263.988944
 30
0.0
  0
LWPOLYLINE
  5
209
100
AcDbEntity
  8
Layer_1
 62
7
100
AcDbPolyline
 90
6
 70
0
 10
256.206625
 20
263.988944
 30
0.0
 10
256.206625
 20
259.984916
 30
0.0
 10
260.210653
 20
259.984916
 30
0.0
 10
260.210653
 20
263.988944
 30
0.0
 10
256.206625
 20
263.988944
 30
0.0
 10
256.206625
 20
263.988944
 30
0.0
  0
LWPOLYLINE
  5
20a
100
AcDbEntity
  8
Layer_1
 62
7
100
AcDbPolyline
 90
6
 70
0
 10
264.214681
 20
263.988944
 30
0.0
 10
264.214681
 20
259.984916
 30
0.0
 10
268.209889
 20
259.984916
 30
0.0
 10
268.209889
 20
263.988944
 30
0.0
 10
264.214681
 20
263.988944
 30
0.0
 10
264.214681
 20
263.988944
 30
0.0
  0
LWPOLYLINE
  5
20b
100
AcDbEntity
  8
Layer_1
 62
7
100
AcDbPolyline
 90
6
 70
0
 10
272.213917
 20
263.988944
 30
0.0
 10
272.213917
 20
259.984916
 30
0.0
 10
276.209125
 20
259.984916
 30
0.0
 10
276.209125
 20
263.988944
 30
0.0
 10
272.213917
 20
263.988944
 30
0.0
 10
272.213917
 20
263.988944
 30
0.0
  0
LWPOLYLINE
  5
20c
100
AcDbEntity
  8
Layer_1
 62
7
100
AcDbPolyline
 90
6
 70
0
 10
280.213153
 20
263.988944
 30
0.0
 10
280.213153
 20
259.984916
 30
0.0
 10
284.208361
 20
259.984916
 30
0.0
 10
284.208361
 20
263.988944
 30
0.0
 10
280.213153
 20
263.988944
 30
0.0
 10
280.213153
 20
263.988944
 30
0.0
  0
LWPOLYLINE
  5
20d
100
AcDbEntity
  8
Layer_1
 62
7
100
AcDbPolyline
 90
6
 70
0
 10
288.212389
 20
263.988944
 30
0.0
 10
288.212389
 20
259.984916
 30
0.0
 10
292.207597
 20
259.984916
 30
0.0
 10
292.207597
 20
263.988944
 30
0.0
 10
288.212389
 20
263.988944
 30
0.0
 10
288.212389
 20
263.988944
 30
0.0
  0
LWPOLYLINE
  5
20e
100
AcDbEntity
  8
Layer_1
 62
7
100
AcDbPolyline
 90
6
 70
0
 10
296.211625
 20
263.988944
 30
0.0
 10
296.211625
 20
259.984916
 30
0.0
 10
300.206833
 20
259.984916
 30
0.0
 10
300.206833
 20
263.988944
 30
0.0
 10
296.211625
 20
263.988944
 30
0.0
 10
296.211625
 20
263.988944
 30
0.0
  0
LWPOLYLINE
  5
20f
100
AcDbEntity
  8
Layer_1
 62
7
100
AcDbPolyline
 90
6
 70
0
 10
304.210861
 20
263.988944
 30
0.0
 10
304.210861
 20
259.984916
 30
0.0
 10
308.214889
 20
259.984916
 30
0.0
 10
308.214889
 20
263.988944
 30
0.0
 10
304.210861
 20
263.988944
 30
0.0
 10
304.210861
 20
263.988944
 30
0.0
  0
LWPOLYLINE
  5
210
100
AcDbEntity
  8
Layer_1
 62
7
100
AcDbPolyline
 90
6
 70
0
 10
312.210097
 20
263.988944
 30
0.0
 10
312.210097
 20
259.984916
 30
0.0
 10
316.214125
 20
259.984916
 30
0.0
 10
316.214125
 20
263.988944
 30
0.0
 10
312.210097
 20
263.988944
 30
0.0
 10
312.210097
 20
263.988944
 30
0.0
  0
LWPOLYLINE
  5
211
100
AcDbEntity
  8
Layer_1
 62
7
100
AcDbPolyline
 90
6
 70
0
 10
320.209333
 20
263.988944
 30
0.0
 10
320.209333
 20
259.984916
 30
0.0
 10
324.213361
 20
259.984916
 30
0.0
 10
324.213361
 20
263.988944
 30
0.0
 10
320.209333
 20
263.988944
 30
0.0
 10
320.209333
 20
263.988944
 30
0.0
  0
LWPOLYLINE
  5
212
100
AcDbEntity
  8
Layer_1
 62
7
100
AcDbPolyline
 90
6
 70
0
 10
328.208569
 20
263.988944
 30
0.0
 10
328.208569
 20
259.984916
 30
0.0
 10
332.212597
 20
259.984916
 30
0.0
 10
332.212597
 20
263.988944
 30
0.0
 10
328.208569
 20
263.988944
 30
0.0
 10
328.208569
 20
263.988944
 30
0.0
  0
LWPOLYLINE
  5
213
100
AcDbEntity
  8
Layer_1
 62
7
100
AcDbPolyline
 90
6
 70
0
 10
336.207806
 20
263.988944
 30
0.0
 10
336.207806
 20
259.984916
 30
0.0
 10
340.211833
 20
259.984916
 30
0.0
 10
340.211833
 20
263.988944
 30
0.0
 10
336.207806
 20
263.988944
 30
0.0
 10
336.207806
 20
263.988944
 30
0.0
  0
LWPOLYLINE
  5
214
100
AcDbEntity
  8
Layer_1
 62
7
100
AcDbPolyline
 90
6
 70
0
 10
344.207042
 20
263.988944
 30
0.0
 10
344.207042
 20
259.984916
 30
0.0
 10
348.211069
 20
259.984916
 30
0.0
 10
348.211069
 20
263.988944
 30
0.0
 10
344.207042
 20
263.988944
 30
0.0
 10
344.207042
 20
263.988944
 30
0.0
  0
LWPOLYLINE
  5
215
100
AcDbEntity
  8
Layer_1
 62
7
100
AcDbPolyline
 90
6
 70
0
 10
352.215097
 20
263.988944
 30
0.0
 10
352.215097
 20
259.984916
 30
0.0
 10
356.210306
 20
259.984916
 30
0.0
 10
356.210306
 20
263.988944
 30
0.0
 10
352.215097
 20
263.988944
 30
0.0
 10
352.215097
 20
263.988944
 30
0.0
  0
LWPOLYLINE
  5
216
100
AcDbEntity
  8
Layer_1
 62
7
100
AcDbPolyline
 90
6
 70
0
 10
360.214333
 20
263.988944
 30
0.0
 10
360.214333
 20
259.984916
 30
0.0
 10
364.209542
 20
259.984916
 30
0.0
 10
364.209542
 20
263.988944
 30
0.0
 10
360.214333
 20
263.988944
 30
0.0
 10
360.214333
 20
263.988944
 30
0.0
  0
LWPOLYLINE
  5
217
100
AcDbEntity
  8
Layer_1
 62
7
100
AcDbPolyline
 90
6
 70
0
 10
368.213569
 20
263.988944
 30
0.0
 10
368.213569
 20
259.984916
 30
0.0
 10
372.208778
 20
259.984916
 30
0.0
 10
372.208778
 20
263.988944
 30
0.0
 10
368.213569
 20
263.988944
 30
0.0
 10
368.213569
 20
263.988944
 30
0.0
  0
LWPOLYLINE
  5
218
100
AcDbEntity
  8
Layer_1
 62
7
100
AcDbPolyline
 90
6
 70
0
 10
376.212806
 20
263.988944
 30
0.0
 10
376.212806
 20
259.984916
 30
0.0
 10
381.460375
 20
259.984916
 30
0.0
 10
381.460375
 20
263.988944
 30
0.0
 10
376.212806
 20
263.988944
 30
0.0
 10
376.212806
 20
263.988944
 30
0.0
  0
LWPOLYLINE
  5
219
100
AcDbEntity
  8
Layer_1
 62
7
100
AcDbPolyline
 90
6
 70
0
 10
113.710861
 20
258.988319
 30
0.0
 10
113.710861
 20
253.987694
 30
0.0
 10
117.714889
 20
253.987694
 30
0.0
 10
117.714889
 20
258.988319
 30
0.0
 10
113.710861
 20
258.988319
 30
0.0
 10
113.710861
 20
258.988319
 30
0.0
  0
LWPOLYLINE
  5
21a
100
AcDbEntity
  8
Layer_1
 62
7
100
AcDbPolyline
 90
6
 70
0
 10
382.712736
 20
258.988319
 30
0.0
 10
382.712736
 20
253.987694
 30
0.0
 10
386.707944
 20
253.987694
 30
0.0
 10
386.707944
 20
258.988319
 30
0.0
 10
382.712736
 20
258.988319
 30
0.0
 10
382.712736
 20
258.988319
 30
0.0
  0
LWPOLYLINE
  5
21b
100
AcDbEntity
  8
Layer_1
 62
7
100
AcDbPolyline
 90
6
 70
0
 10
113.710861
 20
249.992486
 30
0.0
 10
113.710861
 20
245.988458
 30
0.0
 10
117.714889
 20
245.988458
 30
0.0
 10
117.714889
 20
249.992486
 30
0.0
 10
113.710861
 20
249.992486
 30
0.0
 10
113.710861
 20
249.992486
 30
0.0
  0
LWPOLYLINE
  5
21c
100
AcDbEntity
  8
Layer_1
 62
7
100
AcDbPolyline
 90
6
 70
0
 10
382.712736
 20
249.992486
 30
0.0
 10
382.712736
 20
245.988458
 30
0.0
 10
386.707944
 20
245.988458
 30
0.0
 10
386.707944
 20
249.992486
 30
0.0
 10
382.712736
 20
249.992486
 30
0.0
 10
382.712736
 20
249.992486
 30
0.0
  0
LWPOLYLINE
  5
21d
100
AcDbEntity
  8
Layer_1
 62
7
100
AcDbPolyline
 90
6
 70
0
 10
113.710861
 20
241.993250
 30
0.0
 10
113.710861
 20
237.989222
 30
0.0
 10
117.714889
 20
237.989222
 30
0.0
 10
117.714889
 20
241.993250
 30
0.0
 10
113.710861
 20
241.993250
 30
0.0
 10
113.710861
 20
241.993250
 30
0.0
  0
LWPOLYLINE
  5
21e
100
AcDbEntity
  8
Layer_1
 62
7
100
AcDbPolyline
 90
6
 70
0
 10
382.712736
 20
241.993250
 30
0.0
 10
382.712736
 20
237.989222
 30
0.0
 10
386.707944
 20
237.989222
 30
0.0
 10
386.707944
 20
241.993250
 30
0.0
 10
382.712736
 20
241.993250
 30
0.0
 10
382.712736
 20
241.993250
 30
0.0
  0
LWPOLYLINE
  5
21f
100
AcDbEntity
  8
Layer_1
 62
7
100
AcDbPolyline
 90
6
 70
0
 10
113.710861
 20
233.985194
 30
0.0
 10
113.710861
 20
229.989986
 30
0.0
 10
117.714889
 20
229.989986
 30
0.0
 10
117.714889
 20
233.985194
 30
0.0
 10
113.710861
 20
233.985194
 30
0.0
 10
113.710861
 20
233.985194
 30
0.0
  0
LWPOLYLINE
  5
220
100
AcDbEntity
  8
Layer_1
 62
7
100
AcDbPolyline
 90
6
 70
0
 10
382.712736
 20
233.985194
 30
0.0
 10
382.712736
 20
229.989986
 30
0.0
 10
386.707944
 20
229.989986
 30
0.0
 10
386.707944
 20
233.985194
 30
0.0
 10
382.712736
 20
233.985194
 30
0.0
 10
382.712736
 20
233.985194
 30
0.0
  0
LWPOLYLINE
  5
221
100
AcDbEntity
  8
Layer_1
 62
7
100
AcDbPolyline
 90
6
 70
0
 10
113.710861
 20
225.985958
 30
0.0
 10
113.710861
 20
221.990750
 30
0.0
 10
117.714889
 20
221.990750
 30
0.0
 10
117.714889
 20
225.985958
 30
0.0
 10
113.710861
 20
225.985958
 30
0.0
 10
113.710861
 20
225.985958
 30
0.0
  0
LWPOLYLINE
  5
222
100
AcDbEntity
  8
Layer_1
 62
7
100
AcDbPolyline
 90
6
 70
0
 10
382.712736
 20
225.985958
 30
0.0
 10
382.712736
 20
221.990750
 30
0.0
 10
386.707944
 20
221.990750
 30
0.0
 10
386.707944
 20
225.985958
 30
0.0
 10
382.712736
 20
225.985958
 30
0.0
 10
382.712736
 20
225.985958
 30
0.0
  0
LWPOLYLINE
  5
223
100
AcDbEntity
  8
Layer_1
 62
7
100
AcDbPolyline
 90
6
 70
0
 10
113.710861
 20
217.986722
 30
0.0
 10
113.710861
 20
213.991514
 30
0.0
 10
117.714889
 20
213.991514
 30
0.0
 10
117.714889
 20
217.986722
 30
0.0
 10
113.710861
 20
217.986722
 30
0.0
 10
113.710861
 20
217.986722
 30
0.0
  0
LWPOLYLINE
  5
224
100
AcDbEntity
  8
Layer_1
 62
7
100
AcDbPolyline
 90
6
 70
0
 10
382.712736
 20
217.986722
 30
0.0
 10
382.712736
 20
213.991514
 30
0.0
 10
386.707944
 20
213.991514
 30
0.0
 10
386.707944
 20
217.986722
 30
0.0
 10
382.712736
 20
217.986722
 30
0.0
 10
382.712736
 20
217.986722
 30
0.0
  0
LWPOLYLINE
  5
225
100
AcDbEntity
  8
Layer_1
 62
7
100
AcDbPolyline
 90
6
 70
0
 10
113.710861
 20
209.987486
 30
0.0
 10
113.710861
 20
205.992278
 30
0.0
 10
117.714889
 20
205.992278
 30
0.0
 10
117.714889
 20
209.987486
 30
0.0
 10
113.710861
 20
209.987486
 30
0.0
 10
113.710861
 20
209.987486
 30
0.0
  0
LWPOLYLINE
  5
226
100
AcDbEntity
  8
Layer_1
 62
7
100
AcDbPolyline
 90
6
 70
0
 10
382.712736
 20
209.987486
 30
0.0
 10
382.712736
 20
205.992278
 30
0.0
 10
386.707944
 20
205.992278
 30
0.0
 10
386.707944
 20
209.987486
 30
0.0
 10
382.712736
 20
209.987486
 30
0.0
 10
382.712736
 20
209.987486
 30
0.0
  0
LWPOLYLINE
  5
227
100
AcDbEntity
  8
Layer_1
 62
7
100
AcDbPolyline
 90
6
 70
0
 10
113.710861
 20
201.988250
 30
0.0
 10
113.710861
 20
197.993041
 30
0.0
 10
117.714889
 20
197.993041
 30
0.0
 10
117.714889
 20
201.988250
 30
0.0
 10
113.710861
 20
201.988250
 30
0.0
 10
113.710861
 20
201.988250
 30
0.0
  0
LWPOLYLINE
  5
228
100
AcDbEntity
  8
Layer_1
 62
7
100
AcDbPolyline
 90
6
 70
0
 10
382.712736
 20
201.988250
 30
0.0
 10
382.712736
 20
197.993041
 30
0.0
 10
386.707944
 20
197.993041
 30
0.0
 10
386.707944
 20
201.988250
 30
0.0
 10
382.712736
 20
201.988250
 30
0.0
 10
382.712736
 20
201.988250
 30
0.0
  0
LWPOLYLINE
  5
229
100
AcDbEntity
  8
Layer_1
 62
7
100
AcDbPolyline
 90
6
 70
0
 10
113.710861
 20
193.989014
 30
0.0
 10
113.710861
 20
189.984986
 30
0.0
 10
117.714889
 20
189.984986
 30
0.0
 10
117.714889
 20
193.989014
 30
0.0
 10
113.710861
 20
193.989014
 30
0.0
 10
113.710861
 20
193.989014
 30
0.0
  0
LWPOLYLINE
  5
22a
100
AcDbEntity
  8
Layer_1
 62
7
100
AcDbPolyline
 90
6
 70
0
 10
382.712736
 20
193.989014
 30
0.0
 10
382.712736
 20
189.984986
 30
0.0
 10
386.707944
 20
189.984986
 30
0.0
 10
386.707944
 20
193.989014
 30
0.0
 10
382.712736
 20
193.989014
 30
0.0
 10
382.712736
 20
193.989014
 30
0.0
  0
LWPOLYLINE
  5
22b
100
AcDbEntity
  8
Layer_1
 62
7
100
AcDbPolyline
 90
6
 70
0
 10
113.710861
 20
185.989778
 30
0.0
 10
113.710861
 20
181.985750
 30
0.0
 10
117.714889
 20
181.985750
 30
0.0
 10
117.714889
 20
185.989778
 30
0.0
 10
113.710861
 20
185.989778
 30
0.0
 10
113.710861
 20
185.989778
 30
0.0
  0
LWPOLYLINE
  5
22c
100
AcDbEntity
  8
Layer_1
 62
7
100
AcDbPolyline
 90
6
 70
0
 10
382.712736
 20
185.989778
 30
0.0
 10
382.712736
 20
181.985750
 30
0.0
 10
386.707944
 20
181.985750
 30
0.0
 10
386.707944
 20
185.989778
 30
0.0
 10
382.712736
 20
185.989778
 30
0.0
 10
382.712736
 20
185.989778
 30
0.0
  0
LWPOLYLINE
  5
22d
100
AcDbEntity
  8
Layer_1
 62
7
100
AcDbPolyline
 90
6
 70
0
 10
113.710861
 20
177.990541
 30
0.0
 10
113.710861
 20
173.986514
 30
0.0
 10
117.714889
 20
173.986514
 30
0.0
 10
117.714889
 20
177.990541
 30
0.0
 10
113.710861
 20
177.990541
 30
0.0
 10
113.710861
 20
177.990541
 30
0.0
  0
LWPOLYLINE
  5
22e
100
AcDbEntity
  8
Layer_1
 62
7
100
AcDbPolyline
 90
6
 70
0
 10
382.712736
 20
177.990541
 30
0.0
 10
382.712736
 20
173.986514
 30
0.0
 10
386.707944
 20
173.986514
 30
0.0
 10
386.707944
 20
177.990541
 30
0.0
 10
382.712736
 20
177.990541
 30
0.0
 10
382.712736
 20
177.990541
 30
0.0
  0
LWPOLYLINE
  5
22f
100
AcDbEntity
  8
Layer_1
 62
7
100
AcDbPolyline
 90
6
 70
0
 10
113.710861
 20
169.991305
 30
0.0
 10
113.710861
 20
165.987278
 30
0.0
 10
117.714889
 20
165.987278
 30
0.0
 10
117.714889
 20
169.991305
 30
0.0
 10
113.710861
 20
169.991305
 30
0.0
 10
113.710861
 20
169.991305
 30
0.0
  0
LWPOLYLINE
  5
230
100
AcDbEntity
  8
Layer_1
 62
7
100
AcDbPolyline
 90
6
 70
0
 10
382.712736
 20
169.991305
 30
0.0
 10
382.712736
 20
165.987278
 30
0.0
 10
386.707944
 20
165.987278
 30
0.0
 10
386.707944
 20
169.991305
 30
0.0
 10
382.712736
 20
169.991305
 30
0.0
 10
382.712736
 20
169.991305
 30
0.0
  0
LWPOLYLINE
  5
231
100
AcDbEntity
  8
Layer_1
 62
7
100
AcDbPolyline
 90
6
 70
0
 10
113.710861
 20
161.992069
 30
0.0
 10
113.710861
 20
157.988041
 30
0.0
 10
117.714889
 20
157.988041
 30
0.0
 10
117.714889
 20
161.992069
 30
0.0
 10
113.710861
 20
161.992069
 30
0.0
 10
113.710861
 20
161.992069
 30
0.0
  0
LWPOLYLINE
  5
232
100
AcDbEntity
  8
Layer_1
 62
7
100
AcDbPolyline
 90
6
 70
0
 10
382.712736
 20
161.992069
 30
0.0
 10
382.712736
 20
157.988041
 30
0.0
 10
386.707944
 20
157.988041
 30
0.0
 10
386.707944
 20
161.992069
 30
0.0
 10
382.712736
 20
161.992069
 30
0.0
 10
382.712736
 20
161.992069
 30
0.0
  0
LWPOLYLINE
  5
233
100
AcDbEntity
  8
Layer_1
 62
7
100
AcDbPolyline
 90
6
 70
0
 10
113.710861
 20
153.992833
 30
0.0
 10
113.710861
 20
149.988805
 30
0.0
 10
117.714889
 20
149.988805
 30
0.0
 10
117.714889
 20
153.992833
 30
0.0
 10
113.710861
 20
153.992833
 30
0.0
 10
113.710861
 20
153.992833
 30
0.0
  0
LWPOLYLINE
  5
234
100
AcDbEntity
  8
Layer_1
 62
7
100
AcDbPolyline
 90
6
 70
0
 10
382.712736
 20
153.992833
 30
0.0
 10
382.712736
 20
149.988805
 30
0.0
 10
386.707944
 20
149.988805
 30
0.0
 10
386.707944
 20
153.992833
 30
0.0
 10
382.712736
 20
153.992833
 30
0.0
 10
382.712736
 20
153.992833
 30
0.0
  0
LWPOLYLINE
  5
235
100
AcDbEntity
  8
Layer_1
 62
7
100
AcDbPolyline
 90
6
 70
0
 10
113.710861
 20
145.984778
 30
0.0
 10
113.710861
 20
141.989569
 30
0.0
 10
117.714889
 20
141.989569
 30
0.0
 10
117.714889
 20
145.984778
 30
0.0
 10
113.710861
 20
145.984778
 30
0.0
 10
113.710861
 20
145.984778
 30
0.0
  0
LWPOLYLINE
  5
236
100
AcDbEntity
  8
Layer_1
 62
7
100
AcDbPolyline
 90
6
 70
0
 10
382.712736
 20
145.984778
 30
0.0
 10
382.712736
 20
141.989569
 30
0.0
 10
386.707944
 20
141.989569
 30
0.0
 10
386.707944
 20
145.984778
 30
0.0
 10
382.712736
 20
145.984778
 30
0.0
 10
382.712736
 20
145.984778
 30
0.0
  0
LWPOLYLINE
  5
237
100
AcDbEntity
  8
Layer_1
 62
7
100
AcDbPolyline
 90
6
 70
0
 10
113.710861
 20
137.985541
 30
0.0
 10
113.710861
 20
133.990333
 30
0.0
 10
117.714889
 20
133.990333
 30
0.0
 10
117.714889
 20
137.985541
 30
0.0
 10
113.710861
 20
137.985541
 30
0.0
 10
113.710861
 20
137.985541
 30
0.0
  0
LWPOLYLINE
  5
238
100
AcDbEntity
  8
Layer_1
 62
7
100
AcDbPolyline
 90
6
 70
0
 10
382.712736
 20
137.985541
 30
0.0
 10
382.712736
 20
133.990333
 30
0.0
 10
386.707944
 20
133.990333
 30
0.0
 10
386.707944
 20
137.985541
 30
0.0
 10
382.712736
 20
137.985541
 30
0.0
 10
382.712736
 20
137.985541
 30
0.0
  0
LWPOLYLINE
  5
239
100
AcDbEntity
  8
Layer_1
 62
7
100
AcDbPolyline
 90
6
 70
0
 10
113.710861
 20
129.986305
 30
0.0
 10
113.710861
 20
125.991097
 30
0.0
 10
117.714889
 20
125.991097
 30
0.0
 10
117.714889
 20
129.986305
 30
0.0
 10
113.710861
 20
129.986305
 30
0.0
 10
113.710861
 20
129.986305
 30
0.0
  0
LWPOLYLINE
  5
23a
100
AcDbEntity
  8
Layer_1
 62
7
100
AcDbPolyline
 90
6
 70
0
 10
382.712736
 20
129.986305
 30
0.0
 10
382.712736
 20
125.991097
 30
0.0
 10
386.707944
 20
125.991097
 30
0.0
 10
386.707944
 20
129.986305
 30
0.0
 10
382.712736
 20
129.986305
 30
0.0
 10
382.712736
 20
129.986305
 30
0.0
  0
LWPOLYLINE
  5
23b
100
AcDbEntity
  8
Layer_1
 62
7
100
AcDbPolyline
 90
6
 70
0
 10
113.710861
 20
121.987069
 30
0.0
 10
113.710861
 20
117.991861
 30
0.0
 10
117.714889
 20
117.991861
 30
0.0
 10
117.714889
 20
121.987069
 30
0.0
 10
113.710861
 20
121.987069
 30
0.0
 10
113.710861
 20
121.987069
 30
0.0
  0
LWPOLYLINE
  5
23c
100
AcDbEntity
  8
Layer_1
 62
7
100
AcDbPolyline
 90
6
 70
0
 10
382.712736
 20
121.987069
 30
0.0
 10
382.712736
 20
117.991861
 30
0.0
 10
386.707944
 20
117.991861
 30
0.0
 10
386.707944
 20
121.987069
 30
0.0
 10
382.712736
 20
121.987069
 30
0.0
 10
382.712736
 20
121.987069
 30
0.0
  0
LWPOLYLINE
  5
23d
100
AcDbEntity
  8
Layer_1
 62
7
100
AcDbPolyline
 90
6
 70
0
 10
113.710861
 20
113.987833
 30
0.0
 10
113.710861
 20
109.992625
 30
0.0
 10
117.714889
 20
109.992625
 30
0.0
 10
117.714889
 20
113.987833
 30
0.0
 10
113.710861
 20
113.987833
 30
0.0
 10
113.710861
 20
113.987833
 30
0.0
  0
LWPOLYLINE
  5
23e
100
AcDbEntity
  8
Layer_1
 62
7
100
AcDbPolyline
 90
6
 70
0
 10
382.712736
 20
113.987833
 30
0.0
 10
382.712736
 20
109.992625
 30
0.0
 10
386.707944
 20
109.992625
 30
0.0
 10
386.707944
 20
113.987833
 30
0.0
 10
382.712736
 20
113.987833
 30
0.0
 10
382.712736
 20
113.987833
 30
0.0
  0
LWPOLYLINE
  5
23f
100
AcDbEntity
  8
Layer_1
 62
7
100
AcDbPolyline
 90
6
 70
0
 10
113.710861
 20
105.988597
 30
0.0
 10
113.710861
 20
101.984569
 30
0.0
 10
117.714889
 20
101.984569
 30
0.0
 10
117.714889
 20
105.988597
 30
0.0
 10
113.710861
 20
105.988597
 30
0.0
 10
113.710861
 20
105.988597
 30
0.0
  0
LWPOLYLINE
  5
240
100
AcDbEntity
  8
Layer_1
 62
7
100
AcDbPolyline
 90
6
 70
0
 10
382.712736
 20
105.988597
 30
0.0
 10
382.712736
 20
101.984569
 30
0.0
 10
386.707944
 20
101.984569
 30
0.0
 10
386.707944
 20
105.988597
 30
0.0
 10
382.712736
 20
105.988597
 30
0.0
 10
382.712736
 20
105.988597
 30
0.0
  0
LWPOLYLINE
  5
241
100
AcDbEntity
  8
Layer_1
 62
7
100
AcDbPolyline
 90
6
 70
0
 10
113.710861
 20
97.989361
 30
0.0
 10
113.710861
 20
93.985333
 30
0.0
 10
117.714889
 20
93.985333
 30
0.0
 10
117.714889
 20
97.989361
 30
0.0
 10
113.710861
 20
97.989361
 30
0.0
 10
113.710861
 20
97.989361
 30
0.0
  0
LWPOLYLINE
  5
242
100
AcDbEntity
  8
Layer_1
 62
7
100
AcDbPolyline
 90
6
 70
0
 10
382.712736
 20
97.989361
 30
0.0
 10
382.712736
 20
93.985333
 30
0.0
 10
386.707944
 20
93.985333
 30
0.0
 10
386.707944
 20
97.989361
 30
0.0
 10
382.712736
 20
97.989361
 30
0.0
 10
382.712736
 20
97.989361
 30
0.0
  0
LWPOLYLINE
  5
243
100
AcDbEntity
  8
Layer_1
 62
7
100
AcDbPolyline
 90
6
 70
0
 10
113.710861
 20
89.990125
 30
0.0
 10
113.710861
 20
85.986097
 30
0.0
 10
117.714889
 20
85.986097
 30
0.0
 10
117.714889
 20
89.990125
 30
0.0
 10
113.710861
 20
89.990125
 30
0.0
 10
113.710861
 20
89.990125
 30
0.0
  0
LWPOLYLINE
  5
244
100
AcDbEntity
  8
Layer_1
 62
7
100
AcDbPolyline
 90
6
 70
0
 10
382.712736
 20
89.990125
 30
0.0
 10
382.712736
 20
85.986097
 30
0.0
 10
386.707944
 20
85.986097
 30
0.0
 10
386.707944
 20
89.990125
 30
0.0
 10
382.712736
 20
89.990125
 30
0.0
 10
382.712736
 20
89.990125
 30
0.0
  0
LWPOLYLINE
  5
245
100
AcDbEntity
  8
Layer_1
 62
7
100
AcDbPolyline
 90
6
 70
0
 10
113.710861
 20
81.990889
 30
0.0
 10
113.710861
 20
77.986861
 30
0.0
 10
117.714889
 20
77.986861
 30
0.0
 10
117.714889
 20
81.990889
 30
0.0
 10
113.710861
 20
81.990889
 30
0.0
 10
113.710861
 20
81.990889
 30
0.0
  0
LWPOLYLINE
  5
246
100
AcDbEntity
  8
Layer_1
 62
7
100
AcDbPolyline
 90
6
 70
0
 10
382.712736
 20
81.990889
 30
0.0
 10
382.712736
 20
77.986861
 30
0.0
 10
386.707944
 20
77.986861
 30
0.0
 10
386.707944
 20
81.990889
 30
0.0
 10
382.712736
 20
81.990889
 30
0.0
 10
382.712736
 20
81.990889
 30
0.0
  0
LWPOLYLINE
  5
247
100
AcDbEntity
  8
Layer_1
 62
7
100
AcDbPolyline
 90
6
 70
0
 10
113.710861
 20
73.991653
 30
0.0
 10
113.710861
 20
69.987625
 30
0.0
 10
117.714889
 20
69.987625
 30
0.0
 10
117.714889
 20
73.991653
 30
0.0
 10
113.710861
 20
73.991653
 30
0.0
 10
113.710861
 20
73.991653
 30
0.0
  0
LWPOLYLINE
  5
248
100
AcDbEntity
  8
Layer_1
 62
7
100
AcDbPolyline
 90
6
 70
0
 10
382.712736
 20
73.991653
 30
0.0
 10
382.712736
 20
69.987625
 30
0.0
 10
386.707944
 20
69.987625
 30
0.0
 10
386.707944
 20
73.991653
 30
0.0
 10
382.712736
 20
73.991653
 30
0.0
 10
382.712736
 20
73.991653
 30
0.0
  0
LWPOLYLINE
  5
249
100
AcDbEntity
  8
Layer_1
 62
7
100
AcDbPolyline
 90
6
 70
0
 10
113.710861
 20
65.992416
 30
0.0
 10
113.710861
 20
61.988389
 30
0.0
 10
117.714889
 20
61.988389
 30
0.0
 10
117.714889
 20
65.992416
 30
0.0
 10
113.710861
 20
65.992416
 30
0.0
 10
113.710861
 20
65.992416
 30
0.0
  0
LWPOLYLINE
  5
24a
100
AcDbEntity
  8
Layer_1
 62
7
100
AcDbPolyline
 90
6
 70
0
 10
382.712736
 20
65.992416
 30
0.0
 10
382.712736
 20
61.988389
 30
0.0
 10
386.707944
 20
61.988389
 30
0.0
 10
386.707944
 20
65.992416
 30
0.0
 10
382.712736
 20
65.992416
 30
0.0
 10
382.712736
 20
65.992416
 30
0.0
  0
LWPOLYLINE
  5
24b
100
AcDbEntity
  8
Layer_1
 62
7
100
AcDbPolyline
 90
6
 70
0
 10
113.710861
 20
57.993180
 30
0.0
 10
113.710861
 20
53.989153
 30
0.0
 10
117.714889
 20
53.989153
 30
0.0
 10
117.714889
 20
57.993180
 30
0.0
 10
113.710861
 20
57.993180
 30
0.0
 10
113.710861
 20
57.993180
 30
0.0
  0
LWPOLYLINE
  5
24c
100
AcDbEntity
  8
Layer_1
 62
7
100
AcDbPolyline
 90
6
 70
0
 10
382.712736
 20
57.993180
 30
0.0
 10
382.712736
 20
53.989153
 30
0.0
 10
386.707944
 20
53.989153
 30
0.0
 10
386.707944
 20
57.993180
 30
0.0
 10
382.712736
 20
57.993180
 30
0.0
 10
382.712736
 20
57.993180
 30
0.0
  0
LWPOLYLINE
  5
24d
100
AcDbEntity
  8
Layer_1
 62
7
100
AcDbPolyline
 90
6
 70
0
 10
113.710861
 20
49.985125
 30
0.0
 10
113.710861
 20
45.989916
 30
0.0
 10
117.714889
 20
45.989916
 30
0.0
 10
117.714889
 20
49.985125
 30
0.0
 10
113.710861
 20
49.985125
 30
0.0
 10
113.710861
 20
49.985125
 30
0.0
  0
LWPOLYLINE
  5
24e
100
AcDbEntity
  8
Layer_1
 62
7
100
AcDbPolyline
 90
6
 70
0
 10
382.712736
 20
49.985125
 30
0.0
 10
382.712736
 20
45.989916
 30
0.0
 10
386.707944
 20
45.989916
 30
0.0
 10
386.707944
 20
49.985125
 30
0.0
 10
382.712736
 20
49.985125
 30
0.0
 10
382.712736
 20
49.985125
 30
0.0
  0
LWPOLYLINE
  5
24f
100
AcDbEntity
  8
Layer_1
 62
7
100
AcDbPolyline
 90
6
 70
0
 10
113.710861
 20
41.985889
 30
0.0
 10
113.710861
 20
37.990680
 30
0.0
 10
117.714889
 20
37.990680
 30
0.0
 10
117.714889
 20
41.985889
 30
0.0
 10
113.710861
 20
41.985889
 30
0.0
 10
113.710861
 20
41.985889
 30
0.0
  0
LWPOLYLINE
  5
250
100
AcDbEntity
  8
Layer_1
 62
7
100
AcDbPolyline
 90
6
 70
0
 10
382.712736
 20
41.985889
 30
0.0
 10
382.712736
 20
37.990680
 30
0.0
 10
386.707944
 20
37.990680
 30
0.0
 10
386.707944
 20
41.985889
 30
0.0
 10
382.712736
 20
41.985889
 30
0.0
 10
382.712736
 20
41.985889
 30
0.0
  0
LWPOLYLINE
  5
251
100
AcDbEntity
  8
Layer_1
 62
7
100
AcDbPolyline
 90
6
 70
0
 10
113.710861
 20
33.986653
 30
0.0
 10
113.710861
 20
28.986028
 30
0.0
 10
117.714889
 20
28.986028
 30
0.0
 10
117.714889
 20
33.986653
 30
0.0
 10
113.710861
 20
33.986653
 30
0.0
 10
113.710861
 20
33.986653
 30
0.0
  0
LWPOLYLINE
  5
252
100
AcDbEntity
  8
Layer_1
 62
7
100
AcDbPolyline
 90
6
 70
0
 10
382.712736
 20
33.986653
 30
0.0
 10
382.712736
 20
28.986028
 30
0.0
 10
386.707944
 20
28.986028
 30
0.0
 10
386.707944
 20
33.986653
 30
0.0
 10
382.712736
 20
33.986653
 30
0.0
 10
382.712736
 20
33.986653
 30
0.0
  0
LWPOLYLINE
  5
253
100
AcDbEntity
  8
Layer_1
 62
7
100
AcDbPolyline
 90
6
 70
0
 10
118.958431
 20
27.989430
 30
0.0
 10
118.958431
 20
23.985403
 30
0.0
 10
124.214819
 20
23.985403
 30
0.0
 10
124.214819
 20
27.989430
 30
0.0
 10
118.958431
 20
27.989430
 30
0.0
 10
118.958431
 20
27.989430
 30
0.0
  0
LWPOLYLINE
  5
254
100
AcDbEntity
  8
Layer_1
 62
7
100
AcDbPolyline
 90
6
 70
0
 10
128.210028
 20
27.989430
 30
0.0
 10
128.210028
 20
23.985403
 30
0.0
 10
132.214056
 20
23.985403
 30
0.0
 10
132.214056
 20
27.989430
 30
0.0
 10
128.210028
 20
27.989430
 30
0.0
 10
128.210028
 20
27.989430
 30
0.0
  0
LWPOLYLINE
  5
255
100
AcDbEntity
  8
Layer_1
 62
7
100
AcDbPolyline
 90
6
 70
0
 10
136.209264
 20
27.989430
 30
0.0
 10
136.209264
 20
23.985403
 30
0.0
 10
140.213292
 20
23.985403
 30
0.0
 10
140.213292
 20
27.989430
 30
0.0
 10
136.209264
 20
27.989430
 30
0.0
 10
136.209264
 20
27.989430
 30
0.0
  0
LWPOLYLINE
  5
256
100
AcDbEntity
  8
Layer_1
 62
7
100
AcDbPolyline
 90
6
 70
0
 10
144.208500
 20
27.989430
 30
0.0
 10
144.208500
 20
23.985403
 30
0.0
 10
148.212528
 20
23.985403
 30
0.0
 10
148.212528
 20
27.989430
 30
0.0
 10
144.208500
 20
27.989430
 30
0.0
 10
144.208500
 20
27.989430
 30
0.0
  0
LWPOLYLINE
  5
257
100
AcDbEntity
  8
Layer_1
 62
7
100
AcDbPolyline
 90
6
 70
0
 10
152.207736
 20
27.989430
 30
0.0
 10
152.207736
 20
23.985403
 30
0.0
 10
156.211764
 20
23.985403
 30
0.0
 10
156.211764
 20
27.989430
 30
0.0
 10
152.207736
 20
27.989430
 30
0.0
 10
152.207736
 20
27.989430
 30
0.0
  0
LWPOLYLINE
  5
258
100
AcDbEntity
  8
Layer_1
 62
7
100
AcDbPolyline
 90
6
 70
0
 10
160.206972
 20
27.989430
 30
0.0
 10
160.206972
 20
23.985403
 30
0.0
 10
164.211000
 20
23.985403
 30
0.0
 10
164.211000
 20
27.989430
 30
0.0
 10
160.206972
 20
27.989430
 30
0.0
 10
160.206972
 20
27.989430
 30
0.0
  0
LWPOLYLINE
  5
259
100
AcDbEntity
  8
Layer_1
 62
7
100
AcDbPolyline
 90
6
 70
0
 10
168.215028
 20
27.989430
 30
0.0
 10
168.215028
 20
23.985403
 30
0.0
 10
172.210236
 20
23.985403
 30
0.0
 10
172.210236
 20
27.989430
 30
0.0
 10
168.215028
 20
27.989430
 30
0.0
 10
168.215028
 20
27.989430
 30
0.0
  0
LWPOLYLINE
  5
25a
100
AcDbEntity
  8
Layer_1
 62
7
100
AcDbPolyline
 90
6
 70
0
 10
176.214264
 20
27.989430
 30
0.0
 10
176.214264
 20
23.985403
 30
0.0
 10
180.209472
 20
23.985403
 30
0.0
 10
180.209472
 20
27.989430
 30
0.0
 10
176.214264
 20
27.989430
 30
0.0
 10
176.214264
 20
27.989430
 30
0.0
  0
LWPOLYLINE
  5
25b
100
AcDbEntity
  8
Layer_1
 62
7
100
AcDbPolyline
 90
6
 70
0
 10
184.213500
 20
27.989430
 30
0.0
 10
184.213500
 20
23.985403
 30
0.0
 10
188.208708
 20
23.985403
 30
0.0
 10
188.208708
 20
27.989430
 30
0.0
 10
184.213500
 20
27.989430
 30
0.0
 10
184.213500
 20
27.989430
 30
0.0
  0
LWPOLYLINE
  5
25c
100
AcDbEntity
  8
Layer_1
 62
7
100
AcDbPolyline
 90
6
 70
0
 10
192.212736
 20
27.989430
 30
0.0
 10
192.212736
 20
23.985403
 30
0.0
 10
196.207944
 20
23.985403
 30
0.0
 10
196.207944
 20
27.989430
 30
0.0
 10
192.212736
 20
27.989430
 30
0.0
 10
192.212736
 20
27.989430
 30
0.0
  0
LWPOLYLINE
  5
25d
100
AcDbEntity
  8
Layer_1
 62
7
100
AcDbPolyline
 90
6
 70
0
 10
200.211972
 20
27.989430
 30
0.0
 10
200.211972
 20
23.985403
 30
0.0
 10
204.207181
 20
23.985403
 30
0.0
 10
204.207181
 20
27.989430
 30
0.0
 10
200.211972
 20
27.989430
 30
0.0
 10
200.211972
 20
27.989430
 30
0.0
  0
LWPOLYLINE
  5
25e
100
AcDbEntity
  8
Layer_1
 62
7
100
AcDbPolyline
 90
6
 70
0
 10
208.211208
 20
27.989430
 30
0.0
 10
208.211208
 20
23.985403
 30
0.0
 10
212.215236
 20
23.985403
 30
0.0
 10
212.215236
 20
27.989430
 30
0.0
 10
208.211208
 20
27.989430
 30
0.0
 10
208.211208
 20
27.989430
 30
0.0
  0
LWPOLYLINE
  5
25f
100
AcDbEntity
  8
Layer_1
 62
7
100
AcDbPolyline
 90
6
 70
0
 10
216.210444
 20
27.989430
 30
0.0
 10
216.210444
 20
23.985403
 30
0.0
 10
220.214472
 20
23.985403
 30
0.0
 10
220.214472
 20
27.989430
 30
0.0
 10
216.210444
 20
27.989430
 30
0.0
 10
216.210444
 20
27.989430
 30
0.0
  0
LWPOLYLINE
  5
260
100
AcDbEntity
  8
Layer_1
 62
7
100
AcDbPolyline
 90
6
 70
0
 10
224.209681
 20
27.989430
 30
0.0
 10
224.209681
 20
23.985403
 30
0.0
 10
228.213708
 20
23.985403
 30
0.0
 10
228.213708
 20
27.989430
 30
0.0
 10
224.209681
 20
27.989430
 30
0.0
 10
224.209681
 20
27.989430
 30
0.0
  0
LWPOLYLINE
  5
261
100
AcDbEntity
  8
Layer_1
 62
7
100
AcDbPolyline
 90
6
 70
0
 10
232.208917
 20
27.989430
 30
0.0
 10
232.208917
 20
23.985403
 30
0.0
 10
236.212944
 20
23.985403
 30
0.0
 10
236.212944
 20
27.989430
 30
0.0
 10
232.208917
 20
27.989430
 30
0.0
 10
232.208917
 20
27.989430
 30
0.0
  0
LWPOLYLINE
  5
262
100
AcDbEntity
  8
Layer_1
 62
7
100
AcDbPolyline
 90
6
 70
0
 10
240.208153
 20
27.989430
 30
0.0
 10
240.208153
 20
23.985403
 30
0.0
 10
244.212181
 20
23.985403
 30
0.0
 10
244.212181
 20
27.989430
 30
0.0
 10
240.208153
 20
27.989430
 30
0.0
 10
240.208153
 20
27.989430
 30
0.0
  0
LWPOLYLINE
  5
263
100
AcDbEntity
  8
Layer_1
 62
7
100
AcDbPolyline
 90
6
 70
0
 10
248.207389
 20
27.989430
 30
0.0
 10
248.207389
 20
23.985403
 30
0.0
 10
252.211417
 20
23.985403
 30
0.0
 10
252.211417
 20
27.989430
 30
0.0
 10
248.207389
 20
27.989430
 30
0.0
 10
248.207389
 20
27.989430
 30
0.0
  0
LWPOLYLINE
  5
264
100
AcDbEntity
  8
Layer_1
 62
7
100
AcDbPolyline
 90
6
 70
0
 10
256.206625
 20
27.989430
 30
0.0
 10
256.206625
 20
23.985403
 30
0.0
 10
260.210653
 20
23.985403
 30
0.0
 10
260.210653
 20
27.989430
 30
0.0
 10
256.206625
 20
27.989430
 30
0.0
 10
256.206625
 20
27.989430
 30
0.0
  0
LWPOLYLINE
  5
265
100
AcDbEntity
  8
Layer_1
 62
7
100
AcDbPolyline
 90
6
 70
0
 10
264.214681
 20
27.989430
 30
0.0
 10
264.214681
 20
23.985403
 30
0.0
 10
268.209889
 20
23.985403
 30
0.0
 10
268.209889
 20
27.989430
 30
0.0
 10
264.214681
 20
27.989430
 30
0.0
 10
264.214681
 20
27.989430
 30
0.0
  0
LWPOLYLINE
  5
266
100
AcDbEntity
  8
Layer_1
 62
7
100
AcDbPolyline
 90
6
 70
0
 10
272.213917
 20
27.989430
 30
0.0
 10
272.213917
 20
23.985403
 30
0.0
 10
276.209125
 20
23.985403
 30
0.0
 10
276.209125
 20
27.989430
 30
0.0
 10
272.213917
 20
27.989430
 30
0.0
 10
272.213917
 20
27.989430
 30
0.0
  0
LWPOLYLINE
  5
267
100
AcDbEntity
  8
Layer_1
 62
7
100
AcDbPolyline
 90
6
 70
0
 10
280.213153
 20
27.989430
 30
0.0
 10
280.213153
 20
23.985403
 30
0.0
 10
284.208361
 20
23.985403
 30
0.0
 10
284.208361
 20
27.989430
 30
0.0
 10
280.213153
 20
27.989430
 30
0.0
 10
280.213153
 20
27.989430
 30
0.0
  0
LWPOLYLINE
  5
268
100
AcDbEntity
  8
Layer_1
 62
7
100
AcDbPolyline
 90
6
 70
0
 10
288.212389
 20
27.989430
 30
0.0
 10
288.212389
 20
23.985403
 30
0.0
 10
292.207597
 20
23.985403
 30
0.0
 10
292.207597
 20
27.989430
 30
0.0
 10
288.212389
 20
27.989430
 30
0.0
 10
288.212389
 20
27.989430
 30
0.0
  0
LWPOLYLINE
  5
269
100
AcDbEntity
  8
Layer_1
 62
7
100
AcDbPolyline
 90
6
 70
0
 10
296.211625
 20
27.989430
 30
0.0
 10
296.211625
 20
23.985403
 30
0.0
 10
300.206833
 20
23.985403
 30
0.0
 10
300.206833
 20
27.989430
 30
0.0
 10
296.211625
 20
27.989430
 30
0.0
 10
296.211625
 20
27.989430
 30
0.0
  0
LWPOLYLINE
  5
26a
100
AcDbEntity
  8
Layer_1
 62
7
100
AcDbPolyline
 90
6
 70
0
 10
304.210861
 20
27.989430
 30
0.0
 10
304.210861
 20
23.985403
 30
0.0
 10
308.214889
 20
23.985403
 30
0.0
 10
308.214889
 20
27.989430
 30
0.0
 10
304.210861
 20
27.989430
 30
0.0
 10
304.210861
 20
27.989430
 30
0.0
  0
LWPOLYLINE
  5
26b
100
AcDbEntity
  8
Layer_1
 62
7
100
AcDbPolyline
 90
6
 70
0
 10
312.210097
 20
27.989430
 30
0.0
 10
312.210097
 20
23.985403
 30
0.0
 10
316.214125
 20
23.985403
 30
0.0
 10
316.214125
 20
27.989430
 30
0.0
 10
312.210097
 20
27.989430
 30
0.0
 10
312.210097
 20
27.989430
 30
0.0
  0
LWPOLYLINE
  5
26c
100
AcDbEntity
  8
Layer_1
 62
7
100
AcDbPolyline
 90
6
 70
0
 10
320.209333
 20
27.989430
 30
0.0
 10
320.209333
 20
23.985403
 30
0.0
 10
324.213361
 20
23.985403
 30
0.0
 10
324.213361
 20
27.989430
 30
0.0
 10
320.209333
 20
27.989430
 30
0.0
 10
320.209333
 20
27.989430
 30
0.0
  0
LWPOLYLINE
  5
26d
100
AcDbEntity
  8
Layer_1
 62
7
100
AcDbPolyline
 90
6
 70
0
 10
328.208569
 20
27.989430
 30
0.0
 10
328.208569
 20
23.985403
 30
0.0
 10
332.212597
 20
23.985403
 30
0.0
 10
332.212597
 20
27.989430
 30
0.0
 10
328.208569
 20
27.989430
 30
0.0
 10
328.208569
 20
27.989430
 30
0.0
  0
LWPOLYLINE
  5
26e
100
AcDbEntity
  8
Layer_1
 62
7
100
AcDbPolyline
 90
6
 70
0
 10
336.207806
 20
27.989430
 30
0.0
 10
336.207806
 20
23.985403
 30
0.0
 10
340.211833
 20
23.985403
 30
0.0
 10
340.211833
 20
27.989430
 30
0.0
 10
336.207806
 20
27.989430
 30
0.0
 10
336.207806
 20
27.989430
 30
0.0
  0
LWPOLYLINE
  5
26f
100
AcDbEntity
  8
Layer_1
 62
7
100
AcDbPolyline
 90
6
 70
0
 10
344.207042
 20
27.989430
 30
0.0
 10
344.207042
 20
23.985403
 30
0.0
 10
348.211069
 20
23.985403
 30
0.0
 10
348.211069
 20
27.989430
 30
0.0
 10
344.207042
 20
27.989430
 30
0.0
 10
344.207042
 20
27.989430
 30
0.0
  0
LWPOLYLINE
  5
270
100
AcDbEntity
  8
Layer_1
 62
7
100
AcDbPolyline
 90
6
 70
0
 10
352.215097
 20
27.989430
 30
0.0
 10
352.215097
 20
23.985403
 30
0.0
 10
356.210306
 20
23.985403
 30
0.0
 10
356.210306
 20
27.989430
 30
0.0
 10
352.215097
 20
27.989430
 30
0.0
 10
352.215097
 20
27.989430
 30
0.0
  0
LWPOLYLINE
  5
271
100
AcDbEntity
  8
Layer_1
 62
7
100
AcDbPolyline
 90
6
 70
0
 10
360.214333
 20
27.989430
 30
0.0
 10
360.214333
 20
23.985403
 30
0.0
 10
364.209542
 20
23.985403
 30
0.0
 10
364.209542
 20
27.989430
 30
0.0
 10
360.214333
 20
27.989430
 30
0.0
 10
360.214333
 20
27.989430
 30
0.0
  0
LWPOLYLINE
  5
272
100
AcDbEntity
  8
Layer_1
 62
7
100
AcDbPolyline
 90
6
 70
0
 10
368.213569
 20
27.989430
 30
0.0
 10
368.213569
 20
23.985403
 30
0.0
 10
372.208778
 20
23.985403
 30
0.0
 10
372.208778
 20
27.989430
 30
0.0
 10
368.213569
 20
27.989430
 30
0.0
 10
368.213569
 20
27.989430
 30
0.0
  0
LWPOLYLINE
  5
273
100
AcDbEntity
  8
Layer_1
 62
7
100
AcDbPolyline
 90
6
 70
0
 10
376.212806
 20
27.989430
 30
0.0
 10
376.212806
 20
23.985403
 30
0.0
 10
381.460375
 20
23.985403
 30
0.0
 10
381.460375
 20
27.989430
 30
0.0
 10
376.212806
 20
27.989430
 30
0.0
 10
376.212806
 20
27.989430
 30
0.0
  0
ENDSEC
  0
SECTION
  2
OBJECTS
  0
DICTIONARY
  5
C
330
0
100
AcDbDictionary
  3
ACAD_GROUP
350
D
  3
ACAD_MLINESTYLE
350
17
  0
DICTIONARY
  5
D
330
C
100
AcDbDictionary
  0
DICTIONARY
  5
1A
330
C
100
AcDbDictionary
  0
DICTIONARY
  5
17
330
C
100
AcDbDictionary
  3
STANDARD
350
18
  0
DICTIONARY
  5
19
330
C
100
AcDbDictionary
  0
ENDSEC
  0
EOF
