  0
SECTION
  2
HEADER
  9
$ACADVER
  1
AC1014
  9
$HANDSEED
  5
FFFF
  9
$MEASUREMENT
 70
     1
  0
ENDSEC
  0
SECTION
  2
TABLES
  0
TABLE
  2
VPORT
  5
8
330
0
100
AcDbSymbolTable
 70
     4
  0
VPORT
  5
2E
330
8
100
AcDbSymbolTableRecord
100
AcDbViewportTableRecord
  2
*ACTIVE
 70
     0
 10
0.0
 20
0.0
 11
1.0
 21
1.0
 12
210.0
 22
148.5
 13
0.0
 23
0.0
 14
10.0
 24
10.0
 15
10.0
 25
10.0
 16
0.0
 26
0.0
 36
1.0
 17
0.0
 27
0.0
 37
0.0
 40
341.0
 41
1.24
 42
50.0
 43
0.0
 44
0.0
 50
0.0
 51
0.0
 71
     0
 72
   100
 73
     1
 74
     3
 75
     0
 76
     0
 77
     0
 78
     0
  0
ENDTAB
  0
TABLE
  2
LTYPE
  5
5
330
0
100
AcDbSymbolTable
 70
     1
  0
LTYPE
  5
14
330
5
100
AcDbSymbolTableRecord
100
AcDbLinetypeTableRecord
  2
BYBLOCK
 70
     0
  3

 72
    65
 73
     0
 40
0.0
  0
LTYPE
  5
15
330
5
100
AcDbSymbolTableRecord
100
AcDbLinetypeTableRecord
  2
BYLAYER
 70
     0
  3

 72
    65
 73
     0
 40
0.0
  0
LTYPE
  5
16
330
5
100
AcDbSymbolTableRecord
100
AcDbLinetypeTableRecord
  2
CONTINUOUS
 70
     0
  3
Solid line
 72
    65
 73
     0
 40
0.0
  0
ENDTAB
  0
TABLE
  2
LAYER
  5
2
100
AcDbSymbolTable
 70
1
  0
LAYER
  5
50
100
AcDbSymbolTableRecord
100
AcDbLayerTableRecord
  2
0
 70
0
  6
CONTINUOUS
  0
ENDTAB
  0
TABLE
  2
STYLE
  5
3
330
0
100
AcDbSymbolTable
 70
     1
  0
STYLE
  5
11
330
3
100
AcDbSymbolTableRecord
100
AcDbTextStyleTableRecord
  2
STANDARD
 70
     0
 40
0.0
 41
1.0
 50
0.0
 71
     0
 42
2.5
  3
txt
  4

  0
ENDTAB
  0
TABLE
  2
VIEW
  5
6
330
0
100
AcDbSymbolTable
 70
     0
  0
ENDTAB
  0
TABLE
  2
UCS
  5
7
330
0
100
AcDbSymbolTable
 70
     0
  0
ENDTAB
  0
TABLE
  2
APPID
  5
9
330
0
100
AcDbSymbolTable
 70
     2
  0
APPID
  5
12
330
9
100
AcDbSymbolTableRecord
100
AcDbRegAppTableRecord
  2
ACAD
 70
     0
  0
ENDTAB
  0
TABLE
  2
DIMSTYLE
  5
A
330
0
100
AcDbSymbolTable
 70
     1
  0
DIMSTYLE
105
27
330
A
100
AcDbSymbolTableRecord
100
AcDbDimStyleTableRecord
  2
ISO-25
 70
     0
  3

  4

  5

  6

  7

 40
1.0
 41
2.5
 42
0.625
 43
3.75
 44
1.25
 45
0.0
 46
0.0
 47
0.0
 48
0.0
140
2.5
141
2.5
142
0.0
143
0.03937007874016
144
1.0
145
0.0
146
1.0
147
0.625
 71
     0
 72
     0
 73
     0
 74
     0
 75
     0
 76
     0
 77
     1
 78
     8
170
     0
171
     3
172
     1
173
     0
174
     0
175
     0
176
     0
177
     0
178
     0
270
     2
271
     2
272
     2
273
     2
274
     3
340
11
275
     0
280
     0
281
     0
282
     0
283
     0
284
     8
285
     0
286
     0
287
     3
288
     0
  0
ENDTAB
  0
TABLE
  2
BLOCK_RECORD
  5
1
330
0
100
AcDbSymbolTable
 70
     1
  0
BLOCK_RECORD
  5
1F
330
1
100
AcDbSymbolTableRecord
100
AcDbBlockTableRecord
  2
*MODEL_SPACE
  0
BLOCK_RECORD
  5
1B
330
1
100
AcDbSymbolTableRecord
100
AcDbBlockTableRecord
  2
*PAPER_SPACE
  0
ENDTAB
  0
ENDSEC
  0
SECTION
  2
BLOCKS
  0
BLOCK
  5
20
330
1F
100
AcDbEntity
  8
0
100
AcDbBlockBegin
  2
*MODEL_SPACE
 70
     0
 10
0.0
 20
0.0
 30
0.0
  3
*MODEL_SPACE
  1

  0
ENDBLK
  5
21
330
1F
100
AcDbEntity
  8
0
100
AcDbBlockEnd
  0
BLOCK
  5
1C
330
1B
100
AcDbEntity
 67
     1
  8
0
100
AcDbBlockBegin
  2
*PAPER_SPACE
  1

  0
ENDBLK
  5
1D
330
1B
100
AcDbEntity
 67
     1
  8
0
100
AcDbBlockEnd
  0
ENDSEC
  0
SECTION
  2
ENTITIES
  0
SPLINE
  5
100
100
AcDbEntity
  8
0
 62
7
100
AcDbSpline
 70
8
 71
3
 72
8
 73
4
 74
0
 40
0
 40
0
 40
0
 40
0
 40
1
 40
1
 40
1
 40
1
 10
138.385954
 20
264.603061
 30
0.0
 10
126.115496
 20
264.603061
 30
0.0
 10
116.169759
 20
254.657341
 30
0.0
 10
116.169759
 20
242.386880
 30
0.0
  0
SPLINE
  5
101
100
AcDbEntity
  8
0
 62
7
100
AcDbSpline
 70
8
 71
3
 72
8
 73
4
 74
0
 40
0
 40
0
 40
0
 40
0
 40
1
 40
1
 40
1
 40
1
 10
116.169759
 20
242.386880
 30
0.0
 10
116.169759
 20
230.116420
 30
0.0
 10
126.115496
 20
220.170700
 30
0.0
 10
138.385954
 20
220.170700
 30
0.0
  0
SPLINE
  5
102
100
AcDbEntity
  8
0
 62
7
100
AcDbSpline
 70
8
 71
3
 72
8
 73
4
 74
0
 40
0
 40
0
 40
0
 40
0
 40
1
 40
1
 40
1
 40
1
 10
138.385954
 20
220.170700
 30
0.0
 10
150.656411
 20
220.170700
 30
0.0
 10
160.602160
 20
230.116420
 30
0.0
 10
160.602160
 20
242.386880
 30
0.0
  0
SPLINE
  5
103
100
AcDbEntity
  8
0
 62
7
100
AcDbSpline
 70
8
 71
3
 72
8
 73
4
 74
0
 40
0
 40
0
 40
0
 40
0
 40
1
 40
1
 40
1
 40
1
 10
160.602160
 20
242.386880
 30
0.0
 10
160.602160
 20
254.657341
 30
0.0
 10
150.656411
 20
264.603061
 30
0.0
 10
138.385954
 20
264.603061
 30
0.0
  0
LINE
  5
104
100
AcDbEntity
  8
0
 62
7
100
AcDbLine
 10
138.385954
 20
264.603061
 30
0.0
 11
138.385954
 21
264.603061
 31
0.0
  0
SPLINE
  5
105
100
AcDbEntity
  8
0
 62
7
100
AcDbSpline
 70
8
 71
3
 72
8
 73
4
 74
0
 40
0
 40
0
 40
0
 40
0
 40
1
 40
1
 40
1
 40
1
 10
138.385954
 20
257.106533
 30
0.0
 10
146.514264
 20
257.106533
 30
0.0
 10
153.105592
 20
250.515205
 30
0.0
 10
153.105592
 20
242.386880
 30
0.0
  0
SPLINE
  5
106
100
AcDbEntity
  8
0
 62
7
100
AcDbSpline
 70
8
 71
3
 72
8
 73
4
 74
0
 40
0
 40
0
 40
0
 40
0
 40
1
 40
1
 40
1
 40
1
 10
153.105592
 20
242.386880
 30
0.0
 10
153.105592
 20
234.258556
 30
0.0
 10
146.514264
 20
227.667227
 30
0.0
 10
138.385954
 20
227.667227
 30
0.0
  0
SPLINE
  5
107
100
AcDbEntity
  8
0
 62
7
100
AcDbSpline
 70
8
 71
3
 72
8
 73
4
 74
0
 40
0
 40
0
 40
0
 40
0
 40
1
 40
1
 40
1
 40
1
 10
138.385954
 20
227.667227
 30
0.0
 10
130.257615
 20
227.667227
 30
0.0
 10
123.666287
 20
234.258556
 30
0.0
 10
123.666287
 20
242.386880
 30
0.0
  0
SPLINE
  5
108
100
AcDbEntity
  8
0
 62
7
100
AcDbSpline
 70
8
 71
3
 72
8
 73
4
 74
0
 40
0
 40
0
 40
0
 40
0
 40
1
 40
1
 40
1
 40
1
 10
123.666287
 20
242.386880
 30
0.0
 10
123.666287
 20
250.515205
 30
0.0
 10
130.257615
 20
257.106533
 30
0.0
 10
138.385954
 20
257.106533
 30
0.0
  0
LINE
  5
109
100
AcDbEntity
  8
0
 62
7
100
AcDbLine
 10
138.385954
 20
257.106533
 30
0.0
 11
138.385954
 21
257.106533
 31
0.0
  0
SPLINE
  5
10a
100
AcDbEntity
  8
0
 62
1
100
AcDbSpline
 70
8
 71
3
 72
8
 73
4
 74
0
 40
0
 40
0
 40
0
 40
0
 40
1
 40
1
 40
1
 40
1
 10
72.864012
 20
159.884694
 30
0.0
 10
77.803073
 20
159.740321
 30
0.0
 10
82.580807
 20
158.929965
 30
0.0
 10
87.098595
 20
157.538722
 30
0.0
  0
SPLINE
  5
10b
100
AcDbEntity
  8
0
 62
1
100
AcDbSpline
 70
8
 71
3
 72
8
 73
4
 74
0
 40
0
 40
0
 40
0
 40
0
 40
1
 40
1
 40
1
 40
1
 10
101.871165
 20
183.176847
 30
0.0
 10
98.380965
 20
186.494428
 30
0.0
 10
95.331091
 20
190.282946
 30
0.0
 10
92.831234
 20
194.430458
 30
0.0
  0
SPLINE
  5
10c
100
AcDbEntity
  8
0
 62
1
100
AcDbSpline
 70
8
 71
3
 72
8
 73
4
 74
0
 40
0
 40
0
 40
0
 40
0
 40
1
 40
1
 40
1
 40
1
 10
190.418401
 20
158.288375
 30
0.0
 10
194.935029
 20
159.692619
 30
0.0
 10
199.712684
 20
160.521958
 30
0.0
 10
204.652956
 20
160.678444
 30
0.0
  0
SPLINE
  5
10d
100
AcDbEntity
  8
0
 62
1
100
AcDbSpline
 70
8
 71
3
 72
8
 73
4
 74
0
 40
0
 40
0
 40
0
 40
0
 40
1
 40
1
 40
1
 40
1
 10
184.870956
 20
194.430458
 30
0.0
 10
182.369339
 20
190.281298
 30
0.0
 10
179.323822
 20
186.495357
 30
0.0
 10
175.831012
 20
183.176847
 30
0.0
  0
SPLINE
  5
10e
100
AcDbEntity
  8
0
 62
1
100
AcDbSpline
 70
8
 71
3
 72
8
 73
4
 74
0
 40
0
 40
0
 40
0
 40
0
 40
1
 40
1
 40
1
 40
1
 10
159.717901
 20
80.412680
 30
0.0
 10
157.346077
 20
84.564110
 30
0.0
 10
155.520740
 20
89.058818
 30
0.0
 10
154.320401
 20
93.809416
 30
0.0
  0
SPLINE
  5
10f
100
AcDbEntity
  8
0
 62
1
100
AcDbSpline
 70
8
 71
3
 72
8
 73
4
 74
0
 40
0
 40
0
 40
0
 40
0
 40
1
 40
1
 40
1
 40
1
 10
123.514081
 20
93.774139
 30
0.0
 10
122.382695
 20
89.007261
 30
0.0
 10
120.618597
 20
84.487498
 30
0.0
 10
118.310609
 20
80.306847
 30
0.0
  0
LINE
  5
110
100
AcDbEntity
  8
0
 62
1
100
AcDbLine
 10
138.851087
 20
170.179447
 30
0.0
 11
138.851087
 21
156.098350
 31
0.0
  0
SPLINE
  5
111
100
AcDbEntity
  8
0
 62
7
100
AcDbSpline
 70
8
 71
3
 72
8
 73
4
 74
0
 40
0
 40
0
 40
0
 40
0
 40
1
 40
1
 40
1
 40
1
 10
54.658537
 20
118.545235
 30
0.0
 10
42.388079
 20
118.545235
 30
0.0
 10
32.442342
 20
108.599515
 30
0.0
 10
32.442342
 20
96.329054
 30
0.0
  0
SPLINE
  5
112
100
AcDbEntity
  8
0
 62
7
100
AcDbSpline
 70
8
 71
3
 72
8
 73
4
 74
0
 40
0
 40
0
 40
0
 40
0
 40
1
 40
1
 40
1
 40
1
 10
32.442342
 20
96.329054
 30
0.0
 10
32.442342
 20
84.058593
 30
0.0
 10
42.388079
 20
74.112874
 30
0.0
 10
54.658537
 20
74.112874
 30
0.0
  0
SPLINE
  5
113
100
AcDbEntity
  8
0
 62
7
100
AcDbSpline
 70
8
 71
3
 72
8
 73
4
 74
0
 40
0
 40
0
 40
0
 40
0
 40
1
 40
1
 40
1
 40
1
 10
54.658537
 20
74.112874
 30
0.0
 10
66.928994
 20
74.112874
 30
0.0
 10
76.874743
 20
84.058593
 30
0.0
 10
76.874743
 20
96.329054
 30
0.0
  0
SPLINE
  5
114
100
AcDbEntity
  8
0
 62
7
100
AcDbSpline
 70
8
 71
3
 72
8
 73
4
 74
0
 40
0
 40
0
 40
0
 40
0
 40
1
 40
1
 40
1
 40
1
 10
76.874743
 20
96.329054
 30
0.0
 10
76.874743
 20
108.599515
 30
0.0
 10
66.928994
 20
118.545235
 30
0.0
 10
54.658537
 20
118.545235
 30
0.0
  0
LINE
  5
115
100
AcDbEntity
  8
0
 62
7
100
AcDbLine
 10
54.658537
 20
118.545235
 30
0.0
 11
54.658537
 21
118.545235
 31
0.0
  0
SPLINE
  5
116
100
AcDbEntity
  8
0
 62
7
100
AcDbSpline
 70
8
 71
3
 72
8
 73
4
 74
0
 40
0
 40
0
 40
0
 40
0
 40
1
 40
1
 40
1
 40
1
 10
54.658537
 20
111.048707
 30
0.0
 10
62.786847
 20
111.048707
 30
0.0
 10
69.378175
 20
104.457379
 30
0.0
 10
69.378175
 20
96.329054
 30
0.0
  0
SPLINE
  5
117
100
AcDbEntity
  8
0
 62
7
100
AcDbSpline
 70
8
 71
3
 72
8
 73
4
 74
0
 40
0
 40
0
 40
0
 40
0
 40
1
 40
1
 40
1
 40
1
 10
69.378175
 20
96.329054
 30
0.0
 10
69.378175
 20
88.200730
 30
0.0
 10
62.786847
 20
81.609401
 30
0.0
 10
54.658537
 20
81.609401
 30
0.0
  0
SPLINE
  5
118
100
AcDbEntity
  8
0
 62
7
100
AcDbSpline
 70
8
 71
3
 72
8
 73
4
 74
0
 40
0
 40
0
 40
0
 40
0
 40
1
 40
1
 40
1
 40
1
 10
54.658537
 20
81.609401
 30
0.0
 10
46.530198
 20
81.609401
 30
0.0
 10
39.938870
 20
88.200730
 30
0.0
 10
39.938870
 20
96.329054
 30
0.0
  0
SPLINE
  5
119
100
AcDbEntity
  8
0
 62
7
100
AcDbSpline
 70
8
 71
3
 72
8
 73
4
 74
0
 40
0
 40
0
 40
0
 40
0
 40
1
 40
1
 40
1
 40
1
 10
39.938870
 20
96.329054
 30
0.0
 10
39.938870
 20
104.457379
 30
0.0
 10
46.530198
 20
111.048707
 30
0.0
 10
54.658537
 20
111.048707
 30
0.0
  0
LINE
  5
11a
100
AcDbEntity
  8
0
 62
7
100
AcDbLine
 10
54.658537
 20
111.048707
 30
0.0
 11
54.658537
 21
111.048707
 31
0.0
  0
SPLINE
  5
11b
100
AcDbEntity
  8
0
 62
7
100
AcDbSpline
 70
8
 71
3
 72
8
 73
4
 74
0
 40
0
 40
0
 40
0
 40
0
 40
1
 40
1
 40
1
 40
1
 10
225.369450
 20
120.405841
 30
0.0
 10
213.098992
 20
120.405841
 30
0.0
 10
203.153256
 20
110.460121
 30
0.0
 10
203.153256
 20
98.189661
 30
0.0
  0
SPLINE
  5
11c
100
AcDbEntity
  8
0
 62
7
100
AcDbSpline
 70
8
 71
3
 72
8
 73
4
 74
0
 40
0
 40
0
 40
0
 40
0
 40
1
 40
1
 40
1
 40
1
 10
203.153256
 20
98.189661
 30
0.0
 10
203.153256
 20
85.919200
 30
0.0
 10
213.098992
 20
75.973480
 30
0.0
 10
225.369450
 20
75.973480
 30
0.0
  0
SPLINE
  5
11d
100
AcDbEntity
  8
0
 62
7
100
AcDbSpline
 70
8
 71
3
 72
8
 73
4
 74
0
 40
0
 40
0
 40
0
 40
0
 40
1
 40
1
 40
1
 40
1
 10
225.369450
 20
75.973480
 30
0.0
 10
237.639908
 20
75.973480
 30
0.0
 10
247.585645
 20
85.919200
 30
0.0
 10
247.585645
 20
98.189661
 30
0.0
  0
SPLINE
  5
11e
100
AcDbEntity
  8
0
 62
7
100
AcDbSpline
 70
8
 71
3
 72
8
 73
4
 74
0
 40
0
 40
0
 40
0
 40
0
 40
1
 40
1
 40
1
 40
1
 10
247.585645
 20
98.189661
 30
0.0
 10
247.585645
 20
110.460121
 30
0.0
 10
237.639908
 20
120.405841
 30
0.0
 10
225.369450
 20
120.405841
 30
0.0
  0
LINE
  5
11f
100
AcDbEntity
  8
0
 62
7
100
AcDbLine
 10
225.369450
 20
120.405841
 30
0.0
 11
225.369450
 21
120.405841
 31
0.0
  0
SPLINE
  5
120
100
AcDbEntity
  8
0
 62
7
100
AcDbSpline
 70
8
 71
3
 72
8
 73
4
 74
0
 40
0
 40
0
 40
0
 40
0
 40
1
 40
1
 40
1
 40
1
 10
225.369450
 20
112.909313
 30
0.0
 10
233.497761
 20
112.909313
 30
0.0
 10
240.089089
 20
106.317985
 30
0.0
 10
240.089089
 20
98.189661
 30
0.0
  0
SPLINE
  5
121
100
AcDbEntity
  8
0
 62
7
100
AcDbSpline
 70
8
 71
3
 72
8
 73
4
 74
0
 40
0
 40
0
 40
0
 40
0
 40
1
 40
1
 40
1
 40
1
 10
240.089089
 20
98.189661
 30
0.0
 10
240.089089
 20
90.061336
 30
0.0
 10
233.497761
 20
83.470008
 30
0.0
 10
225.369450
 20
83.470008
 30
0.0
  0
SPLINE
  5
122
100
AcDbEntity
  8
0
 62
7
100
AcDbSpline
 70
8
 71
3
 72
8
 73
4
 74
0
 40
0
 40
0
 40
0
 40
0
 40
1
 40
1
 40
1
 40
1
 10
225.369450
 20
83.470008
 30
0.0
 10
217.241112
 20
83.470008
 30
0.0
 10
210.649783
 20
90.061336
 30
0.0
 10
210.649783
 20
98.189661
 30
0.0
  0
SPLINE
  5
123
100
AcDbEntity
  8
0
 62
7
100
AcDbSpline
 70
8
 71
3
 72
8
 73
4
 74
0
 40
0
 40
0
 40
0
 40
0
 40
1
 40
1
 40
1
 40
1
 10
210.649783
 20
98.189661
 30
0.0
 10
210.649783
 20
106.317985
 30
0.0
 10
217.241112
 20
112.909313
 30
0.0
 10
225.369450
 20
112.909313
 30
0.0
  0
LINE
  5
124
100
AcDbEntity
  8
0
 62
7
100
AcDbLine
 10
225.369450
 20
112.909313
 30
0.0
 11
225.369450
 21
112.909313
 31
0.0
  0
SPLINE
  5
125
100
AcDbEntity
  8
0
 62
7
100
AcDbSpline
 70
8
 71
3
 72
8
 73
4
 74
0
 40
0
 40
0
 40
0
 40
0
 40
1
 40
1
 40
1
 40
1
 10
23.565851
 20
154.963803
 30
0.0
 10
17.141665
 20
143.758991
 30
0.0
 10
13.463648
 20
130.776368
 30
0.0
 10
13.463649
 20
116.934615
 30
0.0
  0
SPLINE
  5
126
100
AcDbEntity
  8
0
 62
7
100
AcDbSpline
 70
8
 71
3
 72
8
 73
4
 74
0
 40
0
 40
0
 40
0
 40
0
 40
1
 40
1
 40
1
 40
1
 10
13.463649
 20
116.934615
 30
0.0
 10
13.463654
 20
105.381360
 30
0.0
 10
16.028738
 20
94.421319
 30
0.0
 10
20.610700
 20
84.599089
 30
0.0
  0
LINE
  5
127
100
AcDbEntity
  8
0
 62
7
100
AcDbLine
 10
20.610700
 20
84.599089
 30
0.0
 11
21.764762
 21
85.327970
 31
0.0
  0
SPLINE
  5
128
100
AcDbEntity
  8
0
 62
7
100
AcDbSpline
 70
8
 71
3
 72
8
 73
4
 74
0
 40
0
 40
0
 40
0
 40
0
 40
1
 40
1
 40
1
 40
1
 10
21.764762
 20
85.327970
 30
0.0
 10
19.000488
 20
91.798837
 30
0.0
 10
17.466490
 20
98.924166
 30
0.0
 10
17.466491
 20
106.405231
 30
0.0
  0
SPLINE
  5
129
100
AcDbEntity
  8
0
 62
7
100
AcDbSpline
 70
8
 71
3
 72
8
 73
4
 74
0
 40
0
 40
0
 40
0
 40
0
 40
1
 40
1
 40
1
 40
1
 10
17.466491
 20
106.405231
 30
0.0
 10
17.466491
 20
136.060742
 30
0.0
 10
41.507497
 20
160.092430
 30
0.0
 10
71.162539
 20
160.092427
 30
0.0
  0
SPLINE
  5
12a
100
AcDbEntity
  8
0
 62
7
100
AcDbSpline
 70
8
 71
3
 72
8
 73
4
 74
0
 40
0
 40
0
 40
0
 40
0
 40
1
 40
1
 40
1
 40
1
 10
71.162539
 20
160.092427
 30
0.0
 10
71.697198
 20
160.092427
 30
0.0
 10
72.226478
 20
160.083311
 30
0.0
 10
72.757377
 20
160.067817
 30
0.0
  0
SPLINE
  5
12b
100
AcDbEntity
  8
0
 62
7
100
AcDbSpline
 70
8
 71
3
 72
8
 73
4
 74
0
 40
0
 40
0
 40
0
 40
0
 40
1
 40
1
 40
1
 40
1
 10
72.757377
 20
160.067817
 30
0.0
 10
71.654797
 20
155.220427
 30
0.0
 10
71.062500
 20
150.177822
 30
0.0
 10
71.062497
 20
144.996651
 30
0.0
  0
SPLINE
  5
12c
100
AcDbEntity
  8
0
 62
7
100
AcDbSpline
 70
8
 71
3
 72
8
 73
4
 74
0
 40
0
 40
0
 40
0
 40
0
 40
1
 40
1
 40
1
 40
1
 10
71.062497
 20
144.996651
 30
0.0
 10
71.062503
 20
114.779851
 30
0.0
 10
90.865952
 20
89.185409
 30
0.0
 10
118.201429
 20
80.487836
 30
0.0
  0
SPLINE
  5
12d
100
AcDbEntity
  8
0
 62
7
100
AcDbSpline
 70
8
 71
3
 72
8
 73
4
 74
0
 40
0
 40
0
 40
0
 40
0
 40
1
 40
1
 40
1
 40
1
 10
118.201429
 20
80.487836
 30
0.0
 10
109.055879
 20
63.921750
 30
0.0
 10
91.419999
 20
52.704760
 30
0.0
 10
71.161320
 20
52.704763
 30
0.0
  0
SPLINE
  5
12e
100
AcDbEntity
  8
0
 62
7
100
AcDbSpline
 70
8
 71
3
 72
8
 73
4
 74
0
 40
0
 40
0
 40
0
 40
0
 40
1
 40
1
 40
1
 40
1
 10
71.161320
 20
52.704763
 30
0.0
 10
57.011928
 20
52.704763
 30
0.0
 10
44.141746
 20
58.186371
 30
0.0
 10
34.549433
 20
67.131520
 30
0.0
  0
LINE
  5
12f
100
AcDbEntity
  8
0
 62
7
100
AcDbLine
 10
34.549433
 20
67.131520
 30
0.0
 11
32.824956
 21
66.049638
 31
0.0
  0
SPLINE
  5
130
100
AcDbEntity
  8
0
 62
7
100
AcDbSpline
 70
8
 71
3
 72
8
 73
4
 74
0
 40
0
 40
0
 40
0
 40
0
 40
1
 40
1
 40
1
 40
1
 10
32.824956
 20
66.049638
 30
0.0
 10
46.853012
 20
50.286293
 30
0.0
 10
67.281936
 20
40.357758
 30
0.0
 10
90.042241
 20
40.357758
 30
0.0
  0
SPLINE
  5
131
100
AcDbEntity
  8
0
 62
7
100
AcDbSpline
 70
8
 71
3
 72
8
 73
4
 74
0
 40
0
 40
0
 40
0
 40
0
 40
1
 40
1
 40
1
 40
1
 10
90.042241
 20
40.357758
 30
0.0
 10
108.542653
 20
40.357755
 30
0.0
 10
125.507888
 20
46.921126
 30
0.0
 10
138.744119
 20
57.842850
 30
0.0
  0
SPLINE
  5
132
100
AcDbEntity
  8
0
 62
7
100
AcDbSpline
 70
8
 71
3
 72
8
 73
4
 74
0
 40
0
 40
0
 40
0
 40
0
 40
1
 40
1
 40
1
 40
1
 10
138.744119
 20
57.842850
 30
0.0
 10
151.981075
 20
46.918555
 30
0.0
 10
168.953843
 20
40.350629
 30
0.0
 10
187.456524
 20
40.350629
 30
0.0
  0
SPLINE
  5
133
100
AcDbEntity
  8
0
 62
7
100
AcDbSpline
 70
8
 71
3
 72
8
 73
4
 74
0
 40
0
 40
0
 40
0
 40
0
 40
1
 40
1
 40
1
 40
1
 10
187.456524
 20
40.350629
 30
0.0
 10
210.739352
 20
40.350632
 30
0.0
 10
231.594900
 20
50.751785
 30
0.0
 10
245.639378
 20
67.148783
 30
0.0
  0
LINE
  5
134
100
AcDbEntity
  8
0
 62
7
100
AcDbLine
 10
245.639378
 20
67.148783
 30
0.0
 11
243.466132
 21
68.464611
 31
0.0
  0
SPLINE
  5
135
100
AcDbEntity
  8
0
 62
7
100
AcDbSpline
 70
8
 71
3
 72
8
 73
4
 74
0
 40
0
 40
0
 40
0
 40
0
 40
1
 40
1
 40
1
 40
1
 10
243.466132
 20
68.464611
 30
0.0
 10
233.815907
 20
59.195569
 30
0.0
 10
220.715253
 20
53.496789
 30
0.0
 10
206.279217
 20
53.496789
 30
0.0
  0
SPLINE
  5
136
100
AcDbEntity
  8
0
 62
7
100
AcDbSpline
 70
8
 71
3
 72
8
 73
4
 74
0
 40
0
 40
0
 40
0
 40
0
 40
1
 40
1
 40
1
 40
1
 10
206.279217
 20
53.496789
 30
0.0
 10
186.299546
 20
53.496791
 30
0.0
 10
168.858551
 20
64.405423
 30
0.0
 10
159.609279
 20
80.594451
 30
0.0
  0
SPLINE
  5
137
100
AcDbEntity
  8
0
 62
7
100
AcDbSpline
 70
8
 71
3
 72
8
 73
4
 74
0
 40
0
 40
0
 40
0
 40
0
 40
1
 40
1
 40
1
 40
1
 10
159.609279
 20
80.594451
 30
0.0
 10
186.775400
 20
89.391538
 30
0.0
 10
206.425185
 20
114.899519
 30
0.0
 10
206.425182
 20
144.995587
 30
0.0
  0
SPLINE
  5
138
100
AcDbEntity
  8
0
 62
7
100
AcDbSpline
 70
8
 71
3
 72
8
 73
4
 74
0
 40
0
 40
0
 40
0
 40
0
 40
1
 40
1
 40
1
 40
1
 10
206.425182
 20
144.995587
 30
0.0
 10
206.425182
 20
150.460242
 30
0.0
 10
205.771437
 20
155.776320
 30
0.0
 10
204.548653
 20
160.865896
 30
0.0
  0
SPLINE
  5
139
100
AcDbEntity
  8
0
 62
7
100
AcDbSpline
 70
8
 71
3
 72
8
 73
4
 74
0
 40
0
 40
0
 40
0
 40
0
 40
1
 40
1
 40
1
 40
1
 10
204.548653
 20
160.865896
 30
0.0
 10
205.123407
 20
160.884100
 30
0.0
 10
205.693673
 20
160.888841
 30
0.0
 10
206.272788
 20
160.888841
 30
0.0
  0
SPLINE
  5
13a
100
AcDbEntity
  8
0
 62
7
100
AcDbSpline
 70
8
 71
3
 72
8
 73
4
 74
0
 40
0
 40
0
 40
0
 40
0
 40
1
 40
1
 40
1
 40
1
 10
206.272788
 20
160.888841
 30
0.0
 10
235.927796
 20
160.888835
 30
0.0
 10
259.967654
 20
136.843889
 30
0.0
 10
259.967626
 20
107.188381
 30
0.0
  0
SPLINE
  5
13b
100
AcDbEntity
  8
0
 62
7
100
AcDbSpline
 70
8
 71
3
 72
8
 73
4
 74
0
 40
0
 40
0
 40
0
 40
0
 40
1
 40
1
 40
1
 40
1
 10
259.967626
 20
107.188381
 30
0.0
 10
259.967626
 20
100.433767
 30
0.0
 10
258.723192
 20
93.973055
 30
0.0
 10
256.446240
 20
88.018750
 30
0.0
  0
LINE
  5
13c
100
AcDbEntity
  8
0
 62
7
100
AcDbLine
 10
256.446240
 20
88.018750
 30
0.0
 11
258.004361
 21
87.119164
 31
0.0
  0
SPLINE
  5
13d
100
AcDbEntity
  8
0
 62
7
100
AcDbSpline
 70
8
 71
3
 72
8
 73
4
 74
0
 40
0
 40
0
 40
0
 40
0
 40
1
 40
1
 40
1
 40
1
 10
258.004361
 20
87.119164
 30
0.0
 10
261.881025
 20
96.283035
 30
0.0
 10
264.025733
 20
106.357301
 30
0.0
 10
264.025733
 20
116.933624
 30
0.0
  0
SPLINE
  5
13e
100
AcDbEntity
  8
0
 62
7
100
AcDbSpline
 70
8
 71
3
 72
8
 73
4
 74
0
 40
0
 40
0
 40
0
 40
0
 40
1
 40
1
 40
1
 40
1
 10
264.025733
 20
116.933624
 30
0.0
 10
264.025736
 20
149.745567
 30
0.0
 10
243.392441
 20
177.736195
 30
0.0
 10
214.390772
 20
188.637378
 30
0.0
  0
SPLINE
  5
13f
100
AcDbEntity
  8
0
 62
7
100
AcDbSpline
 70
8
 71
3
 72
8
 73
4
 74
0
 40
0
 40
0
 40
0
 40
0
 40
1
 40
1
 40
1
 40
1
 10
214.390772
 20
188.637378
 30
0.0
 10
215.005087
 20
192.544282
 30
0.0
 10
215.323637
 20
196.545367
 30
0.0
 10
215.323668
 20
200.624861
 30
0.0
  0
SPLINE
  5
140
100
AcDbEntity
  8
0
 62
7
100
AcDbSpline
 70
8
 71
3
 72
8
 73
4
 74
0
 40
0
 40
0
 40
0
 40
0
 40
1
 40
1
 40
1
 40
1
 10
215.323668
 20
200.624861
 30
0.0
 10
215.323666
 20
239.145880
 30
0.0
 10
186.875953
 20
271.012634
 30
0.0
 10
149.847032
 20
276.393101
 30
0.0
  0
LINE
  5
141
100
AcDbEntity
  8
0
 62
7
100
AcDbLine
 10
149.847032
 20
276.393101
 30
0.0
 11
149.849007
 21
274.844092
 31
0.0
  0
SPLINE
  5
142
100
AcDbEntity
  8
0
 62
7
100
AcDbSpline
 70
8
 71
3
 72
8
 73
4
 74
0
 40
0
 40
0
 40
0
 40
0
 40
1
 40
1
 40
1
 40
1
 10
149.849007
 20
274.844092
 30
0.0
 10
174.176803
 20
269.728432
 30
0.0
 10
192.446693
 20
248.144405
 30
0.0
 10
192.446698
 20
222.295734
 30
0.0
  0
SPLINE
  5
143
100
AcDbEntity
  8
0
 62
7
100
AcDbSpline
 70
8
 71
3
 72
8
 73
4
 74
0
 40
0
 40
0
 40
0
 40
0
 40
1
 40
1
 40
1
 40
1
 10
192.446698
 20
222.295734
 30
0.0
 10
192.446696
 20
212.168311
 30
0.0
 10
189.637752
 20
202.696747
 30
0.0
 10
184.763289
 20
194.611992
 30
0.0
  0
SPLINE
  5
144
100
AcDbEntity
  8
0
 62
7
100
AcDbSpline
 70
8
 71
3
 72
8
 73
4
 74
0
 40
0
 40
0
 40
0
 40
0
 40
1
 40
1
 40
1
 40
1
 10
184.763289
 20
194.611992
 30
0.0
 10
172.686974
 20
205.816748
 30
0.0
 10
156.517171
 20
212.677465
 30
0.0
 10
138.744497
 20
212.677465
 30
0.0
  0
SPLINE
  5
145
100
AcDbEntity
  8
0
 62
7
100
AcDbSpline
 70
8
 71
3
 72
8
 73
4
 74
0
 40
0
 40
0
 40
0
 40
0
 40
1
 40
1
 40
1
 40
1
 10
138.744497
 20
212.677465
 30
0.0
 10
120.971829
 20
212.677465
 30
0.0
 10
104.798673
 20
205.817447
 30
0.0
 10
92.722350
 20
194.612695
 30
0.0
  0
SPLINE
  5
146
100
AcDbEntity
  8
0
 62
7
100
AcDbSpline
 70
8
 71
3
 72
8
 73
4
 74
0
 40
0
 40
0
 40
0
 40
0
 40
1
 40
1
 40
1
 40
1
 10
92.722350
 20
194.612695
 30
0.0
 10
87.849442
 20
202.697326
 30
0.0
 10
85.051400
 20
212.174159
 30
0.0
 10
85.051409
 20
222.301350
 30
0.0
  0
SPLINE
  5
147
100
AcDbEntity
  8
0
 62
7
100
AcDbSpline
 70
8
 71
3
 72
8
 73
4
 74
0
 40
0
 40
0
 40
0
 40
0
 40
1
 40
1
 40
1
 40
1
 10
85.051409
 20
222.301350
 30
0.0
 10
85.051406
 20
248.150024
 30
0.0
 10
103.312722
 20
269.729968
 30
0.0
 10
127.638988
 20
274.845635
 30
0.0
  0
LINE
  5
148
100
AcDbEntity
  8
0
 62
7
100
AcDbLine
 10
127.638988
 20
274.845635
 30
0.0
 11
127.637012
 21
276.394644
 31
0.0
  0
SPLINE
  5
149
100
AcDbEntity
  8
0
 62
7
100
AcDbSpline
 70
8
 71
3
 72
8
 73
4
 74
0
 40
0
 40
0
 40
0
 40
0
 40
1
 40
1
 40
1
 40
1
 10
127.637012
 20
276.394644
 30
0.0
 10
90.608043
 20
271.014178
 30
0.0
 10
62.168236
 20
239.144135
 30
0.0
 10
62.168230
 20
200.623133
 30
0.0
  0
SPLINE
  5
14a
100
AcDbEntity
  8
0
 62
7
100
AcDbSpline
 70
8
 71
3
 72
8
 73
4
 74
0
 40
0
 40
0
 40
0
 40
0
 40
1
 40
1
 40
1
 40
1
 10
62.168230
 20
200.623133
 30
0.0
 10
62.168230
 20
196.543724
 30
0.0
 10
62.486114
 20
192.545101
 30
0.0
 10
63.100495
 20
188.638276
 30
0.0
  0
SPLINE
  5
14b
100
AcDbEntity
  8
0
 62
7
100
AcDbSpline
 70
8
 71
3
 72
8
 73
4
 74
0
 40
0
 40
0
 40
0
 40
0
 40
1
 40
1
 40
1
 40
1
 10
63.100495
 20
188.638276
 30
0.0
 10
46.335459
 20
182.335274
 30
0.0
 10
32.369365
 20
170.318546
 30
0.0
 10
23.565851
 20
154.963803
 30
0.0
  0
LINE
  5
14c
100
AcDbEntity
  8
0
 62
7
100
AcDbLine
 10
23.565851
 20
154.963803
 30
0.0
 11
23.565851
 21
154.963803
 31
0.0
  0
SPLINE
  5
14d
100
AcDbEntity
  8
0
 62
7
100
AcDbSpline
 70
8
 71
3
 72
8
 73
4
 74
0
 40
0
 40
0
 40
0
 40
0
 40
1
 40
1
 40
1
 40
1
 10
101.767056
 20
183.361844
 30
0.0
 10
111.350052
 20
192.601108
 30
0.0
 10
124.383794
 20
198.286841
 30
0.0
 10
138.745931
 20
198.286838
 30
0.0
  0
SPLINE
  5
14e
100
AcDbEntity
  8
0
 62
7
100
AcDbSpline
 70
8
 71
3
 72
8
 73
4
 74
0
 40
0
 40
0
 40
0
 40
0
 40
1
 40
1
 40
1
 40
1
 10
138.745931
 20
198.286838
 30
0.0
 10
153.108065
 20
198.286838
 30
0.0
 10
166.140209
 20
192.603264
 30
0.0
 10
175.723177
 20
183.364003
 30
0.0
  0
SPLINE
  5
14f
100
AcDbEntity
  8
0
 62
7
100
AcDbSpline
 70
8
 71
3
 72
8
 73
4
 74
0
 40
0
 40
0
 40
0
 40
0
 40
1
 40
1
 40
1
 40
1
 10
175.723177
 20
183.364003
 30
0.0
 10
166.092801
 20
174.214118
 30
0.0
 10
153.076498
 20
168.600905
 30
0.0
 10
138.746117
 20
168.600905
 30
0.0
  0
SPLINE
  5
150
100
AcDbEntity
  8
0
 62
7
100
AcDbSpline
 70
8
 71
3
 72
8
 73
4
 74
0
 40
0
 40
0
 40
0
 40
0
 40
1
 40
1
 40
1
 40
1
 10
138.746117
 20
168.600905
 30
0.0
 10
124.413394
 20
168.600907
 30
0.0
 10
111.395804
 20
174.209323
 30
0.0
 10
101.767056
 20
183.361844
 30
0.0
  0
LINE
  5
151
100
AcDbEntity
  8
0
 62
7
100
AcDbLine
 10
101.767056
 20
183.361844
 30
0.0
 11
101.767056
 21
183.361844
 31
0.0
  0
SPLINE
  5
152
100
AcDbEntity
  8
0
 62
7
100
AcDbSpline
 70
8
 71
3
 72
8
 73
4
 74
0
 40
0
 40
0
 40
0
 40
0
 40
1
 40
1
 40
1
 40
1
 10
86.995341
 20
157.723592
 30
0.0
 10
108.927121
 20
150.969743
 30
0.0
 10
124.861766
 20
130.546396
 30
0.0
 10
124.861766
 20
106.399621
 30
0.0
  0
SPLINE
  5
153
100
AcDbEntity
  8
0
 62
7
100
AcDbSpline
 70
8
 71
3
 72
8
 73
4
 74
0
 40
0
 40
0
 40
0
 40
0
 40
1
 40
1
 40
1
 40
1
 10
124.861766
 20
106.399621
 30
0.0
 10
124.861763
 20
102.115696
 30
0.0
 10
124.359608
 20
97.951400
 30
0.0
 10
123.411604
 20
93.957171
 30
0.0
  0
SPLINE
  5
154
100
AcDbEntity
  8
0
 62
7
100
AcDbSpline
 70
8
 71
3
 72
8
 73
4
 74
0
 40
0
 40
0
 40
0
 40
0
 40
1
 40
1
 40
1
 40
1
 10
123.411604
 20
93.957171
 30
0.0
 10
101.458976
 20
100.544495
 30
0.0
 10
85.460758
 20
120.896978
 30
0.0
 10
85.460764
 20
144.993820
 30
0.0
  0
SPLINE
  5
155
100
AcDbEntity
  8
0
 62
7
100
AcDbSpline
 70
8
 71
3
 72
8
 73
4
 74
0
 40
0
 40
0
 40
0
 40
0
 40
1
 40
1
 40
1
 40
1
 10
85.460764
 20
144.993820
 30
0.0
 10
85.460758
 20
149.381066
 30
0.0
 10
85.995423
 20
153.644532
 30
0.0
 10
86.995341
 20
157.723592
 30
0.0
  0
LINE
  5
156
100
AcDbEntity
  8
0
 62
7
100
AcDbLine
 10
86.995341
 20
157.723592
 30
0.0
 11
86.995341
 21
157.723592
 31
0.0
  0
SPLINE
  5
157
100
AcDbEntity
  8
0
 62
7
100
AcDbSpline
 70
8
 71
3
 72
8
 73
4
 74
0
 40
0
 40
0
 40
0
 40
0
 40
1
 40
1
 40
1
 40
1
 10
126.762216
 20
151.424900
 30
0.0
 10
129.070187
 20
155.669807
 30
0.0
 10
133.575182
 20
158.548795
 30
0.0
 10
138.747288
 20
158.548795
 30
0.0
  0
SPLINE
  5
158
100
AcDbEntity
  8
0
 62
7
100
AcDbSpline
 70
8
 71
3
 72
8
 73
4
 74
0
 40
0
 40
0
 40
0
 40
0
 40
1
 40
1
 40
1
 40
1
 10
138.747288
 20
158.548795
 30
0.0
 10
146.270362
 20
158.548798
 30
0.0
 10
152.371687
 20
152.451960
 30
0.0
 10
152.371687
 20
144.928892
 30
0.0
  0
SPLINE
  5
159
100
AcDbEntity
  8
0
 62
7
100
AcDbSpline
 70
8
 71
3
 72
8
 73
4
 74
0
 40
0
 40
0
 40
0
 40
0
 40
1
 40
1
 40
1
 40
1
 10
152.371687
 20
144.928892
 30
0.0
 10
152.371687
 20
137.405824
 30
0.0
 10
146.267212
 20
131.308907
 30
0.0
 10
138.744144
 20
131.308907
 30
0.0
  0
SPLINE
  5
15a
100
AcDbEntity
  8
0
 62
7
100
AcDbSpline
 70
8
 71
3
 72
8
 73
4
 74
0
 40
0
 40
0
 40
0
 40
0
 40
1
 40
1
 40
1
 40
1
 10
138.744144
 20
131.308907
 30
0.0
 10
131.221076
 20
131.308907
 30
0.0
 10
125.119745
 20
137.405742
 30
0.0
 10
125.119745
 20
144.928810
 30
0.0
  0
SPLINE
  5
15b
100
AcDbEntity
  8
0
 62
7
100
AcDbSpline
 70
8
 71
3
 72
8
 73
4
 74
0
 40
0
 40
0
 40
0
 40
0
 40
1
 40
1
 40
1
 40
1
 10
125.119745
 20
144.928810
 30
0.0
 10
125.119748
 20
147.279772
 30
0.0
 10
125.713140
 20
149.495397
 30
0.0
 10
126.762216
 20
151.424900
 30
0.0
  0
LINE
  5
15c
100
AcDbEntity
  8
0
 62
7
100
AcDbLine
 10
126.762216
 20
151.424900
 30
0.0
 11
126.762216
 21
151.424900
 31
0.0
  0
SPLINE
  5
15d
100
AcDbEntity
  8
0
 62
7
100
AcDbSpline
 70
8
 71
3
 72
8
 73
4
 74
0
 40
0
 40
0
 40
0
 40
0
 40
1
 40
1
 40
1
 40
1
 10
159.771839
 20
134.057303
 30
0.0
 10
166.459733
 20
145.607715
 30
0.0
 10
177.323773
 20
154.431661
 30
0.0
 10
190.302684
 20
158.469107
 30
0.0
  0
SPLINE
  5
15e
100
AcDbEntity
  8
0
 62
7
100
AcDbSpline
 70
8
 71
3
 72
8
 73
4
 74
0
 40
0
 40
0
 40
0
 40
0
 40
1
 40
1
 40
1
 40
1
 10
190.302684
 20
158.469107
 30
0.0
 10
190.305507
 20
158.469954
 30
0.0
 10
190.312054
 20
158.471647
 30
0.0
 10
190.314707
 20
158.472324
 30
0.0
  0
SPLINE
  5
15f
100
AcDbEntity
  8
0
 62
7
100
AcDbSpline
 70
8
 71
3
 72
8
 73
4
 74
0
 40
0
 40
0
 40
0
 40
0
 40
1
 40
1
 40
1
 40
1
 10
190.314707
 20
158.472324
 30
0.0
 10
191.436594
 20
154.167772
 30
0.0
 10
192.034507
 20
149.649826
 30
0.0
 10
192.034513
 20
144.994032
 30
0.0
  0
SPLINE
  5
160
100
AcDbEntity
  8
0
 62
7
100
AcDbSpline
 70
8
 71
3
 72
8
 73
4
 74
0
 40
0
 40
0
 40
0
 40
0
 40
1
 40
1
 40
1
 40
1
 10
192.034513
 20
144.994032
 30
0.0
 10
192.034507
 20
120.944970
 30
0.0
 10
176.103336
 20
100.621567
 30
0.0
 10
154.217853
 20
93.992827
 30
0.0
  0
SPLINE
  5
161
100
AcDbEntity
  8
0
 62
7
100
AcDbSpline
 70
8
 71
3
 72
8
 73
4
 74
0
 40
0
 40
0
 40
0
 40
0
 40
1
 40
1
 40
1
 40
1
 10
154.217853
 20
93.992827
 30
0.0
 10
153.151422
 20
98.213460
 30
0.0
 10
152.575517
 20
102.629995
 30
0.0
 10
152.575520
 20
107.181975
 30
0.0
  0
SPLINE
  5
162
100
AcDbEntity
  8
0
 62
7
100
AcDbSpline
 70
8
 71
3
 72
8
 73
4
 74
0
 40
0
 40
0
 40
0
 40
0
 40
1
 40
1
 40
1
 40
1
 10
152.575520
 20
107.181975
 30
0.0
 10
152.575525
 20
116.970612
 30
0.0
 10
155.195877
 20
126.154375
 30
0.0
 10
159.771811
 20
134.057283
 30
0.0
  0
LINE
  5
163
100
AcDbEntity
  8
0
 62
7
100
AcDbLine
 10
159.771811
 20
134.057283
 30
0.0
 11
159.771839
 21
134.057303
 31
0.0
  0
LINE
  5
164
100
AcDbEntity
  8
0
 62
1
100
AcDbLine
 10
160.530822
 20
131.894684
 30
0.0
 11
148.336237
 21
138.935231
 31
0.0
  0
LINE
  5
165
100
AcDbEntity
  8
0
 62
1
100
AcDbLine
 10
116.535378
 20
132.261864
 30
0.0
 11
128.729963
 21
139.302411
 31
0.0
  0
ENDSEC
  0
SECTION
  2
OBJECTS
  0
DICTIONARY
  5
C
330
0
100
AcDbDictionary
  3
ACAD_GROUP
350
D
  3
ACAD_MLINESTYLE
350
17
  0
DICTIONARY
  5
D
330
C
100
AcDbDictionary
  0
DICTIONARY
  5
1A
330
C
100
AcDbDictionary
  0
DICTIONARY
  5
17
330
C
100
AcDbDictionary
  3
STANDARD
350
18
  0
DICTIONARY
  5
19
330
C
100
AcDbDictionary
  0
ENDSEC
  0
EOF
