<?xml version="1.0" encoding="UTF-8" standalone="no"?>
<!-- Created with Inkscape (http://www.inkscape.org/) -->

<svg
   xmlns:dc="http://purl.org/dc/elements/1.1/"
   xmlns:cc="http://creativecommons.org/ns#"
   xmlns:rdf="http://www.w3.org/1999/02/22-rdf-syntax-ns#"
   xmlns:svg="http://www.w3.org/2000/svg"
   xmlns="http://www.w3.org/2000/svg"
   xmlns:sodipodi="http://sodipodi.sourceforge.net/DTD/sodipodi-0.dtd"
   xmlns:inkscape="http://www.inkscape.org/namespaces/inkscape"
   width="744.09448819"
   height="1052.3622047"
   id="svg4032"
   version="1.1"
   inkscape:version="0.48.4 r9939"
   sodipodi:docname="biohazard_symbol_by_xro_innercircle_neopixel_diameter.svg">
  <defs
     id="defs4034" />
  <sodipodi:namedview
     id="base"
     pagecolor="#ffffff"
     bordercolor="#666666"
     borderopacity="1.0"
     inkscape:pageopacity="0.0"
     inkscape:pageshadow="2"
     inkscape:zoom="0.35"
     inkscape:cx="633.46088"
     inkscape:cy="520"
     inkscape:document-units="px"
     inkscape:current-layer="layer1"
     showgrid="false"
     inkscape:window-width="718"
     inkscape:window-height="839"
     inkscape:window-x="923"
     inkscape:window-y="25"
     inkscape:window-maximized="0" />
  <metadata
     id="metadata4037">
    <rdf:RDF>
      <cc:Work
         rdf:about="">
        <dc:format>image/svg+xml</dc:format>
        <dc:type
           rdf:resource="http://purl.org/dc/dcmitype/StillImage" />
        <dc:title />
      </cc:Work>
    </rdf:RDF>
  </metadata>
  <g
     inkscape:label="Layer 1"
     inkscape:groupmode="layer"
     id="layer1">
    <g
       id="g4150">
      <g
         style="fill:none"
         id="g3969"
         transform="translate(1667.3772,-1376.3225)">
        <path
           style="color:#000000;fill:none;stroke:#000000;stroke-width:3.54330707;stroke-linecap:butt;stroke-linejoin:miter;stroke-miterlimit:4;stroke-opacity:1;stroke-dashoffset:0;marker:none;visibility:visible;display:inline;overflow:visible;enable-background:accumulate"
           d="m -1169.75,1649.4162 c -45.0776,0 -86.59,15.2262 -119.699,40.8082 10.2357,15.2156 23.2892,28.3687 38.4234,38.7154 23.0265,-16.1044 51.0428,-25.5507 81.2756,-25.5507 30.2254,0 58.2522,9.4291 81.2756,25.5263 15.1252,-10.3439 28.1911,-23.4848 38.4234,-38.691 -33.109,-25.582 -74.6214,-40.8082 -119.699,-40.8082 z"
           id="path3965"
           inkscape:connector-curvature="0" />
        <path
           style="color:#000000;fill:none;stroke:#000000;stroke-width:3.54330707;stroke-linecap:butt;stroke-linejoin:miter;stroke-miterlimit:4;stroke-opacity:1;stroke-dashoffset:0;marker:none;visibility:visible;display:inline;overflow:visible;enable-background:accumulate"
           d="m -1406.0029,1924.1129 c -0.805,0 -1.6071,0.011 -2.4091,0.024 -0.086,2.3887 -0.1459,4.793 -0.1459,7.2028 0,87.9424 57.9247,162.3487 137.706,187.1528 5.8073,-15.6328 9.0036,-32.545 9.0036,-50.201 0,-1.2605 -0.016,-2.5191 -0.049,-3.7718 -53.4442,-19.7939 -91.73,-70.8343 -92.6639,-130.9412 -15.9791,-6.1078 -33.3153,-9.466 -51.4421,-9.466 z"
           id="path3963"
           inkscape:connector-curvature="0" />
        <path
           style="color:#000000;fill:none;stroke:#000000;stroke-width:3.54330707;stroke-linecap:butt;stroke-linejoin:miter;stroke-miterlimit:4;stroke-opacity:1;stroke-dashoffset:0;marker:none;visibility:visible;display:inline;overflow:visible;enable-background:accumulate"
           d="m -933.47261,1924.1165 c -18.13018,0 -35.48279,3.3559 -51.46641,9.4659 -0.93386,60.1081 -39.21798,111.1482 -92.66388,130.9412 -0.032,1.2527 -0.048,2.5114 -0.048,3.7719 0,17.6633 3.1655,34.587 8.9792,50.2253 79.79626,-24.7952 137.73047,-99.2243 137.73047,-187.1771 0,-2.4099 -0.0354,-4.8142 -0.12167,-7.2029 -0.80185,-0.014 -1.6041,-0.024 -2.40907,-0.024 z"
           id="path3898"
           inkscape:connector-curvature="0" />
      </g>
      <path
         id="path3950"
         d="m 399.43971,61.699259 c -104.6814,39.494001 -179.1563,140.562401 -179.1563,259.062401 0,14.7473 1.1541,29.2202 3.375,43.3438 -104.83551,39.4138 -179.437405,140.6066 -179.437405,259.2188 0,37.8246 7.638,73.8449 21.375,106.6874 -3.327,-14.4112 -5.0626,-29.4217 -5.0626,-44.8437 0,-109.668 88.894505,-198.5625 198.562605,-198.5625 59.0782,0 112.0957,25.8324 148.4687,66.7812 l 12.25,-8.2812 c -2.2015,-7.3399 -3.4063,-15.101 -3.4063,-23.1562 0,-35.8816 23.3815,-66.2659 55.75,-76.7813 l 0,-13.5937 c -97.7669,-12.3844 -173.3437,-95.8388 -173.3437,-196.9688 0,-73.0621 39.4495,-136.893101 98.2187,-171.375001 0.8,-0.515 1.5983,-1.0283 2.4063,-1.5312 z m 196.0937,0.25 c 59.9805,34.1687 100.4063,98.688001 100.4063,172.656201 0,101.274 -75.8118,184.8326 -173.7813,197.0312 l 0,13.5626 c 32.3358,10.5362 55.7188,40.8982 55.7188,76.75 0,8.0157 -1.1927,15.7548 -3.375,23.0624 l 12.0625,8.125 c 36.3677,-40.798 89.29717,-66.5312 148.25,-66.5312 109.6679,0 198.5625,88.8945 198.5625,198.5625 0,16.2617 -1.96891,32.0611 -5.65625,47.1875 14.3577,-33.465 22.34375,-70.3098 22.34375,-109.0312 10e-5,-118.6187 -74.62295,-219.8097 -179.46875,-259.2188 2.2212,-14.1239 3.375,-28.5961 3.375,-43.3438 0,-118.231 -74.13094,-219.1286 -178.43755,-258.812401 z m -49.5,524.187401 c -13.5733,10.3597 -30.5076,16.5313 -48.9062,16.5313 -18.3559,0 -35.2574,-6.153 -48.8125,-16.4687 l -12.4687,8.4062 c 13.9437,27.1532 21.8126,57.9354 21.8124,90.5625 0,109.6679 -88.8945,198.5937 -198.5624,198.5937 -10.6848,0 -21.1789,-0.844 -31.4063,-2.4687 -3.8294,-0.4304 -7.6214,-0.9931 -11.375,-1.6563 32.3174,13.223 67.6739,20.5313 104.75,20.5313 66.8822,0 128.2112,-23.7353 176.0625,-63.2187 47.8539,39.4926 109.2029,63.2187 176.09375,63.2187 37.0762,0 72.43261,-7.3083 104.75,-20.5313 -4.12131,0.7284 -8.28825,1.3341 -12.5,1.7813 -9.99803,1.5504 -20.22376,2.3437 -30.65625,2.3437 -109.6681,0 -198.5937,-88.9258 -198.5937,-198.5937 0,-32.7342 7.9369,-63.5957 21.9687,-90.8125 l -12.1563,-8.2188 z"
         style="color:#000000;fill:none;stroke:#000000;stroke-width:2.00101042;stroke-linecap:butt;stroke-linejoin:miter;stroke-miterlimit:4;stroke-opacity:1;stroke-dashoffset:0;marker:none;visibility:visible;display:inline;overflow:visible;enable-background:accumulate"
         inkscape:connector-curvature="0" />
    </g>
    <path
       style="color:#000000;fill:none;stroke:#000000;stroke-width:3.54330707;stroke-linecap:butt;stroke-linejoin:miter;stroke-miterlimit:4;stroke-opacity:1;stroke-dashoffset:0;marker:none;visibility:visible;display:inline;overflow:visible;enable-background:accumulate"
       d="m -540.01555,-424.33427 c -152.8936,0 -276.8438,123.95011 -276.8438,276.84375 0,14.74754 1.1539,29.22013 3.375,43.34375 -104.8364,39.41382 -179.4375,140.606407 -179.4375,259.21875 0,152.89355 123.9502,276.8438 276.8437,276.8438 66.8822,0 128.2113,-23.7355 176.0626,-63.2188 47.8539,39.4926 109.2028,63.2188 176.0937,63.2188 152.8936,0 276.843703,-123.95026 276.843703,-276.8438 1e-4,-118.619053 -74.622903,-219.80969 -179.468703,-259.21875 2.2212,-14.12391 3.375,-28.59589 3.375,-43.34375 0,-152.89364 -123.9503,-276.84375 -276.8437,-276.84375 z"
       id="path3905"
       inkscape:connector-curvature="0" />
    <path
       transform="matrix(1.1294593,0,0,1.1294593,121.55775,257.35678)"
       d="m -311.12699,359.84827 a 69.700523,69.700523 0 1 1 -139.40105,0 69.700523,69.700523 0 1 1 139.40105,0 z"
       sodipodi:ry="69.700523"
       sodipodi:rx="69.700523"
       sodipodi:cy="359.84827"
       sodipodi:cx="-380.82751"
       id="path3822"
       style="color:#000000;fill:none;stroke:#ff0000;stroke-width:1.77165353;stroke-linecap:butt;stroke-linejoin:miter;stroke-miterlimit:4;stroke-opacity:1;stroke-dasharray:none;stroke-dashoffset:0;marker:none;visibility:visible;display:inline;overflow:visible;enable-background:accumulate"
       sodipodi:type="arc" />
    <g
       transform="translate(-662.62723,-411.18854)"
       id="g3945">
      <path
         inkscape:connector-curvature="0"
         id="path3896"
         transform="translate(0,24.802981)"
         d="M 247.78125,1356.6562 C 143.09985,1396.1511 68.625,1497.2187 68.625,1615.7188 c 0,14.7471 1.1539,29.2201 3.375,43.3437 -104.836403,39.4138 -179.4375,140.6066 -179.4375,259.2187 0,39.3114 8.226582,76.6929 23,110.5626 -2.368087,-11.8211 -3.625,-24.0446 -3.625,-36.5626 0,-102.2518 82.90428,-185.1562 185.15625,-185.1562 102.25198,0 185.125,82.9044 185.125,185.1562 0,102.2521 -82.87302,185.125 -185.125,185.125 -11.0631,0 -21.908131,-0.9522 -32.4375,-2.8124 32.317385,13.2228 67.67382,20.5312 104.75,20.5312 66.88219,0 128.2112,-23.7353 176.0625,-63.2188 47.8539,39.4928 109.20285,63.2188 176.09375,63.2188 37.0762,0 72.43261,-7.3083 104.75,-20.5312 -10.53009,1.8604 -21.3736,2.8124 -32.4375,2.8124 -102.25197,0 -185.15625,-82.8729 -185.15625,-185.125 0,-102.2518 82.90428,-185.1562 185.15625,-185.1562 102.25198,0 185.15625,82.9044 185.15625,185.1562 0,12.5505 -1.27625,24.8069 -3.65625,36.6563 14.79813,-33.8933 23.03125,-71.3102 23.03125,-110.6563 10e-5,-118.6187 -74.62295,-219.8096 -179.46875,-259.2187 2.2212,-14.1239 3.375,-28.596 3.375,-43.3437 0,-118.4901 -74.45803,-219.5604 -179.125,-259.0626 52.48752,32.6801 87.4375,90.8999 87.4375,157.2813 0,102.252 -82.90427,185.125 -185.15625,185.125 -102.25197,0 -185.125,-82.873 -185.125,-185.125 0,-66.3867 34.94308,-124.6026 87.4375,-157.2813 z m 97.6875,379.5 c 44.59379,0 80.75,36.1565 80.75,80.75 0,44.5941 -36.15621,80.7188 -80.75,80.7188 -44.5938,0 -80.71875,-36.1249 -80.71875,-80.7188 0,-44.5934 36.12495,-80.7497 80.71875,-80.75 z"
         style="color:#000000;fill:none;stroke:#000000;stroke-width:2.00101042;stroke-linecap:butt;stroke-linejoin:miter;stroke-miterlimit:4;stroke-opacity:1;stroke-dashoffset:0;marker:none;visibility:visible;display:inline;overflow:visible;enable-background:accumulate" />
    </g>
  </g>
</svg>
