<?xml version="1.0" encoding="UTF-8" standalone="no"?>
<!-- Created with Inkscape (http://www.inkscape.org/) -->

<svg
   xmlns:dc="http://purl.org/dc/elements/1.1/"
   xmlns:cc="http://creativecommons.org/ns#"
   xmlns:rdf="http://www.w3.org/1999/02/22-rdf-syntax-ns#"
   xmlns:svg="http://www.w3.org/2000/svg"
   xmlns="http://www.w3.org/2000/svg"
   xmlns:xlink="http://www.w3.org/1999/xlink"
   xmlns:sodipodi="http://sodipodi.sourceforge.net/DTD/sodipodi-0.dtd"
   xmlns:inkscape="http://www.inkscape.org/namespaces/inkscape"
   width="1736.2205"
   height="1027.5591"
   id="svg2"
   version="1.1"
   inkscape:version="0.48.4 r9939"
   sodipodi:docname="lasercut_lowvolt_ledring_version.svg">
  <defs
     id="defs4">
    <path
       transform="matrix(10,0,0,-10,260,260)"
       style="fill:#ff0000"
       id="p"
       d="M 2.8117,-1.046 A 3,3 0 0 1 0.5,2.958 V 4.5119 A 10.5,10.5 0 0 1 2,25.3078 v 0.5583 A 15,15 0 0 0 14.7975,8.5433 15,15 0 0 0 23.4007,-11.201 l -0.4835,0.2792 A 10.5,10.5 0 0 1 4.1574,-1.8229 z m 3.4148,8.871 a 10,10 0 0 1 -12.453,0 9.5,9.5 0 0 0 -2.1756,2.7417 13.5,13.5 0 0 0 16.8042,0 A 10,10 0 0 0 6.2265,7.825 z"
       inkscape:connector-curvature="0" />
    <path
       transform="scale(10,-10) translate(26,-26)"
       style="fill:#ff0000;"
       id="p-9"
       d="M 2.8117,-1.046 A 3 3 0 0 1 .5,2.958 V 4.5119 A 10.5 10.5 0 0 1 2,25.3078 V 25.8661 A 15 15 0 0 0 14.7975,8.5433 15 15 0 0 0 23.4007,-11.201 L 22.9172,-10.9218 A 10.5 10.5 0 0 1 4.1574,-1.8229 z M 6.2265,7.825 A 10 10 0 0 1 -6.2265,7.825 9.5 9.5 0 0 0 -8.4021,10.5667 13.5 13.5 0 0 0 8.4021,10.5667 10 10 0 0 0 6.2265,7.825 z" />
  </defs>
  <sodipodi:namedview
     id="base"
     pagecolor="#ffffff"
     bordercolor="#666666"
     borderopacity="1.0"
     inkscape:pageopacity="0.0"
     inkscape:pageshadow="2"
     inkscape:zoom="0.7"
     inkscape:cx="928.52972"
     inkscape:cy="416.31878"
     inkscape:document-units="mm"
     inkscape:current-layer="layer1"
     showgrid="false"
     inkscape:window-width="1440"
     inkscape:window-height="840"
     inkscape:window-x="0"
     inkscape:window-y="25"
     inkscape:window-maximized="1"
     units="mm"
     showguides="true"
     inkscape:guide-bbox="true" />
  <metadata
     id="metadata7">
    <rdf:RDF>
      <cc:Work
         rdf:about="">
        <dc:format>image/svg+xml</dc:format>
        <dc:type
           rdf:resource="http://purl.org/dc/dcmitype/StillImage" />
        <dc:title />
      </cc:Work>
    </rdf:RDF>
  </metadata>
  <g
     inkscape:label="Layer 1"
     inkscape:groupmode="layer"
     id="layer1"
     transform="translate(0,-24.802981)">
    <rect
       style="fill:none;stroke:none"
       id="rect3032"
       width="1050.5586"
       height="1050.5586"
       x="323.24881"
       y="49.958542" />
    <rect
       style="fill:none;stroke:#ff0000;stroke-width:2.98732184999999983;stroke-linecap:round;stroke-linejoin:round;stroke-miterlimit:4;stroke-opacity:1;stroke-dasharray:none"
       id="rect3038"
       width="1052.9181"
       height="982.05206"
       x="326.10968"
       y="51.145279" />
    <path
       sodipodi:type="arc"
       style="color:#000000;fill:none;stroke:#ff0000;stroke-width:1.77165353;stroke-linecap:butt;stroke-linejoin:miter;stroke-miterlimit:4;stroke-opacity:1;stroke-dasharray:none;stroke-dashoffset:0;marker:none;visibility:visible;display:inline;overflow:visible;enable-background:accumulate"
       id="path3021"
       sodipodi:cx="-380.82751"
       sodipodi:cy="359.84827"
       sodipodi:rx="69.700523"
       sodipodi:ry="69.700523"
       d="m -311.12699,359.84827 a 69.700523,69.700523 0 1 1 -139.40105,0 69.700523,69.700523 0 1 1 139.40105,0 z"
       transform="matrix(1.1294593,0,0,1.1294593,1282.6979,169.04881)" />
    <use
       x="0"
       y="0"
       xlink:href="#path3042"
       id="use3063"
       transform="translate(430.20518,392.97268)"
       width="1736.2205"
       height="1027.5591" />
    <g
       id="g3076"
       transform="translate(1254.2054,291.28736)">
      <path
         transform="matrix(0.87692375,0,0,0.87692375,-53.460089,60.761926)"
         d="m -359.61432,254.79239 c 0,20.642 -16.73364,37.37564 -37.37564,37.37564 -20.642,0 -37.37564,-16.73364 -37.37564,-37.37564 0,-20.642 16.73364,-37.37565 37.37564,-37.37565 20.642,0 37.37564,16.73365 37.37564,37.37565 z"
         sodipodi:ry="37.375645"
         sodipodi:rx="37.375645"
         sodipodi:cy="254.79239"
         sodipodi:cx="-396.98996"
         id="path3072"
         style="color:#000000;fill:none;stroke:#ff0000;stroke-width:2.02030516;stroke-linecap:butt;stroke-linejoin:miter;stroke-miterlimit:4;stroke-opacity:1;stroke-dasharray:none;stroke-dashoffset:0;marker:none;visibility:visible;display:inline;overflow:visible;enable-background:accumulate"
         sodipodi:type="arc" />
      <path
         sodipodi:type="arc"
         style="color:#000000;fill:none;stroke:#ff0000;stroke-width:4.98341942;stroke-linecap:butt;stroke-linejoin:miter;stroke-miterlimit:4;stroke-opacity:1;stroke-dasharray:none;stroke-dashoffset:0;marker:none;visibility:visible;display:inline;overflow:visible;enable-background:accumulate"
         id="path3074"
         sodipodi:cx="-396.98996"
         sodipodi:cy="254.79239"
         sodipodi:rx="37.375645"
         sodipodi:ry="37.375645"
         d="m -359.61432,254.79239 c 0,20.642 -16.73364,37.37564 -37.37564,37.37564 -20.642,0 -37.37564,-16.73364 -37.37564,-37.37564 0,-20.642 16.73364,-37.37565 37.37564,-37.37565 20.642,0 37.37564,16.73365 37.37564,37.37565 z"
         transform="matrix(0.35550963,0,0,0.35550963,-260.45626,193.61428)" />
    </g>
    <g
       id="g3127"
       transform="translate(13.24669,-24.609003)">
      <path
         sodipodi:type="arc"
         style="fill:none;stroke:#000000;stroke-width:15.88722897;stroke-linecap:round;stroke-linejoin:round;stroke-miterlimit:4;stroke-opacity:1;stroke-dasharray:none"
         id="path3042"
         sodipodi:cx="430.32498"
         sodipodi:cy="523.04224"
         sodipodi:rx="20.203051"
         sodipodi:ry="20.203051"
         d="m 450.52803,523.04224 c 0,11.15783 -9.04521,20.20305 -20.20305,20.20305 -11.15784,0 -20.20305,-9.04522 -20.20305,-20.20305 0,-11.15784 9.04521,-20.20305 20.20305,-20.20305 11.15784,0 20.20305,9.04521 20.20305,20.20305 z"
         transform="matrix(0.12588728,0,0,0.12588728,368.2378,116.66574)" />
      <g
         id="g3080"
         transform="translate(824.00025,-101.68532)">
        <path
           transform="matrix(0.87692375,0,0,0.87692375,-53.460089,60.761926)"
           d="m -359.61432,254.79239 c 0,20.642 -16.73364,37.37564 -37.37564,37.37564 -20.642,0 -37.37564,-16.73364 -37.37564,-37.37564 0,-20.642 16.73364,-37.37565 37.37564,-37.37565 20.642,0 37.37564,16.73365 37.37564,37.37565 z"
           sodipodi:ry="37.375645"
           sodipodi:rx="37.375645"
           sodipodi:cy="254.79239"
           sodipodi:cx="-396.98996"
           id="path3082"
           style="color:#000000;fill:none;stroke:#ff0000;stroke-width:2.02030516;stroke-linecap:butt;stroke-linejoin:miter;stroke-miterlimit:4;stroke-opacity:1;stroke-dasharray:none;stroke-dashoffset:0;marker:none;visibility:visible;display:inline;overflow:visible;enable-background:accumulate"
           sodipodi:type="arc" />
        <path
           sodipodi:type="arc"
           style="color:#000000;fill:none;stroke:#ff0000;stroke-width:4.98341942;stroke-linecap:butt;stroke-linejoin:miter;stroke-miterlimit:4;stroke-opacity:1;stroke-dasharray:none;stroke-dashoffset:0;marker:none;visibility:visible;display:inline;overflow:visible;enable-background:accumulate"
           id="path3084"
           sodipodi:cx="-396.98996"
           sodipodi:cy="254.79239"
           sodipodi:rx="37.375645"
           sodipodi:ry="37.375645"
           d="m -359.61432,254.79239 c 0,20.642 -16.73364,37.37564 -37.37564,37.37564 -20.642,0 -37.37564,-16.73364 -37.37564,-37.37564 0,-20.642 16.73364,-37.37565 37.37564,-37.37565 20.642,0 37.37564,16.73365 37.37564,37.37565 z"
           transform="matrix(0.35550963,0,0,0.35550963,-260.45626,193.61428)" />
      </g>
    </g>
    <g
       id="g3121"
       transform="translate(-12.127802,-24.609003)">
      <use
         transform="translate(859.19815,0)"
         height="1027.5591"
         width="1736.2205"
         id="use3046"
         xlink:href="#path3042"
         y="0"
         x="0" />
      <g
         transform="translate(1683.1984,-101.68532)"
         id="g3086">
        <path
           sodipodi:type="arc"
           style="color:#000000;fill:none;stroke:#ff0000;stroke-width:2.02030516;stroke-linecap:butt;stroke-linejoin:miter;stroke-miterlimit:4;stroke-opacity:1;stroke-dasharray:none;stroke-dashoffset:0;marker:none;visibility:visible;display:inline;overflow:visible;enable-background:accumulate"
           id="path3088"
           sodipodi:cx="-396.98996"
           sodipodi:cy="254.79239"
           sodipodi:rx="37.375645"
           sodipodi:ry="37.375645"
           d="m -359.61432,254.79239 c 0,20.642 -16.73364,37.37564 -37.37564,37.37564 -20.642,0 -37.37564,-16.73364 -37.37564,-37.37564 0,-20.642 16.73364,-37.37565 37.37564,-37.37565 20.642,0 37.37564,16.73365 37.37564,37.37565 z"
           transform="matrix(0.87692375,0,0,0.87692375,-53.460089,60.761926)" />
        <path
           transform="matrix(0.35550963,0,0,0.35550963,-260.45626,193.61428)"
           d="m -359.61432,254.79239 c 0,20.642 -16.73364,37.37564 -37.37564,37.37564 -20.642,0 -37.37564,-16.73364 -37.37564,-37.37564 0,-20.642 16.73364,-37.37565 37.37564,-37.37565 20.642,0 37.37564,16.73365 37.37564,37.37565 z"
           sodipodi:ry="37.375645"
           sodipodi:rx="37.375645"
           sodipodi:cy="254.79239"
           sodipodi:cx="-396.98996"
           id="path3090"
           style="color:#000000;fill:none;stroke:#ff0000;stroke-width:4.98341942;stroke-linecap:butt;stroke-linejoin:miter;stroke-miterlimit:4;stroke-opacity:1;stroke-dasharray:none;stroke-dashoffset:0;marker:none;visibility:visible;display:inline;overflow:visible;enable-background:accumulate"
           sodipodi:type="arc" />
      </g>
    </g>
    <g
       id="g3115"
       transform="translate(-14.127802,-12.616983)">
      <use
         height="1027.5591"
         width="1736.2205"
         transform="translate(6,752.54844)"
         id="use3048"
         xlink:href="#use3046"
         y="0"
         x="0" />
      <g
         id="g3092"
         transform="translate(1689.1984,650.86312)">
        <path
           transform="matrix(0.87692375,0,0,0.87692375,-53.460089,60.761926)"
           d="m -359.61432,254.79239 c 0,20.642 -16.73364,37.37564 -37.37564,37.37564 -20.642,0 -37.37564,-16.73364 -37.37564,-37.37564 0,-20.642 16.73364,-37.37565 37.37564,-37.37565 20.642,0 37.37564,16.73365 37.37564,37.37565 z"
           sodipodi:ry="37.375645"
           sodipodi:rx="37.375645"
           sodipodi:cy="254.79239"
           sodipodi:cx="-396.98996"
           id="path3094"
           style="color:#000000;fill:none;stroke:#ff0000;stroke-width:2.02030516;stroke-linecap:butt;stroke-linejoin:miter;stroke-miterlimit:4;stroke-opacity:1;stroke-dasharray:none;stroke-dashoffset:0;marker:none;visibility:visible;display:inline;overflow:visible;enable-background:accumulate"
           sodipodi:type="arc" />
        <path
           sodipodi:type="arc"
           style="color:#000000;fill:none;stroke:#ff0000;stroke-width:4.98341942;stroke-linecap:butt;stroke-linejoin:miter;stroke-miterlimit:4;stroke-opacity:1;stroke-dasharray:none;stroke-dashoffset:0;marker:none;visibility:visible;display:inline;overflow:visible;enable-background:accumulate"
           id="path3096"
           sodipodi:cx="-396.98996"
           sodipodi:cy="254.79239"
           sodipodi:rx="37.375645"
           sodipodi:ry="37.375645"
           d="m -359.61432,254.79239 c 0,20.642 -16.73364,37.37564 -37.37564,37.37564 -20.642,0 -37.37564,-16.73364 -37.37564,-37.37564 0,-20.642 16.73364,-37.37565 37.37564,-37.37565 20.642,0 37.37564,16.73365 37.37564,37.37565 z"
           transform="matrix(0.35550963,0,0,0.35550963,-260.45626,193.61428)" />
      </g>
    </g>
    <g
       id="g3109"
       transform="translate(19.22643,-12.616983)">
      <use
         height="1027.5591"
         width="1736.2205"
         transform="translate(-875.17789,0)"
         id="use3050"
         xlink:href="#use3048"
         y="0"
         x="0" />
      <g
         transform="translate(814.02051,650.86312)"
         id="g3098">
        <path
           sodipodi:type="arc"
           style="color:#000000;fill:none;stroke:#ff0000;stroke-width:2.02030516;stroke-linecap:butt;stroke-linejoin:miter;stroke-miterlimit:4;stroke-opacity:1;stroke-dasharray:none;stroke-dashoffset:0;marker:none;visibility:visible;display:inline;overflow:visible;enable-background:accumulate"
           id="path3100"
           sodipodi:cx="-396.98996"
           sodipodi:cy="254.79239"
           sodipodi:rx="37.375645"
           sodipodi:ry="37.375645"
           d="m -359.61432,254.79239 c 0,20.642 -16.73364,37.37564 -37.37564,37.37564 -20.642,0 -37.37564,-16.73364 -37.37564,-37.37564 0,-20.642 16.73364,-37.37565 37.37564,-37.37565 20.642,0 37.37564,16.73365 37.37564,37.37565 z"
           transform="matrix(0.87692375,0,0,0.87692375,-53.460089,60.761926)" />
        <path
           transform="matrix(0.35550963,0,0,0.35550963,-260.45626,193.61428)"
           d="m -359.61432,254.79239 c 0,20.642 -16.73364,37.37564 -37.37564,37.37564 -20.642,0 -37.37564,-16.73364 -37.37564,-37.37564 0,-20.642 16.73364,-37.37565 37.37564,-37.37565 20.642,0 37.37564,16.73365 37.37564,37.37565 z"
           sodipodi:ry="37.375645"
           sodipodi:rx="37.375645"
           sodipodi:cy="254.79239"
           sodipodi:cx="-396.98996"
           id="path3102"
           style="color:#000000;fill:none;stroke:#ff0000;stroke-width:4.98341942;stroke-linecap:butt;stroke-linejoin:miter;stroke-miterlimit:4;stroke-opacity:1;stroke-dasharray:none;stroke-dashoffset:0;marker:none;visibility:visible;display:inline;overflow:visible;enable-background:accumulate"
           sodipodi:type="arc" />
      </g>
    </g>
    <g
       id="g4143"
       transform="translate(2022.8031,-1323.0848)">
      <g
         style="fill:none"
         id="g3969">
        <path
           style="color:#000000;fill:none;stroke:#000000;stroke-width:3.54330707;stroke-linecap:butt;stroke-linejoin:miter;stroke-miterlimit:4;stroke-opacity:1;stroke-dashoffset:0;marker:none;visibility:visible;display:inline;overflow:visible;enable-background:accumulate"
           d="m -1169.75,1649.4162 c -45.0776,0 -86.59,15.2262 -119.699,40.8082 10.2357,15.2156 23.2892,28.3687 38.4234,38.7154 23.0265,-16.1044 51.0428,-25.5507 81.2756,-25.5507 30.2254,0 58.2522,9.4291 81.2756,25.5263 15.1252,-10.3439 28.1911,-23.4848 38.4234,-38.691 -33.109,-25.582 -74.6214,-40.8082 -119.699,-40.8082 z"
           id="path3965"
           inkscape:connector-curvature="0" />
        <path
           style="color:#000000;fill:none;stroke:#000000;stroke-width:3.54330707;stroke-linecap:butt;stroke-linejoin:miter;stroke-miterlimit:4;stroke-opacity:1;stroke-dashoffset:0;marker:none;visibility:visible;display:inline;overflow:visible;enable-background:accumulate"
           d="m -1406.0029,1924.1129 c -0.805,0 -1.6071,0.011 -2.4091,0.024 -0.086,2.3887 -0.1459,4.793 -0.1459,7.2028 0,87.9424 57.9247,162.3487 137.706,187.1528 5.8073,-15.6328 9.0036,-32.545 9.0036,-50.201 0,-1.2605 -0.016,-2.5191 -0.049,-3.7718 -53.4442,-19.7939 -91.73,-70.8343 -92.6639,-130.9412 -15.9791,-6.1078 -33.3153,-9.466 -51.4421,-9.466 z"
           id="path3963"
           inkscape:connector-curvature="0" />
        <path
           style="color:#000000;fill:none;stroke:#000000;stroke-width:3.54330707;stroke-linecap:butt;stroke-linejoin:miter;stroke-miterlimit:4;stroke-opacity:1;stroke-dashoffset:0;marker:none;visibility:visible;display:inline;overflow:visible;enable-background:accumulate"
           d="m -933.47261,1924.1165 c -18.13018,0 -35.48279,3.3559 -51.46641,9.4659 -0.93386,60.1081 -39.21798,111.1482 -92.66388,130.9412 -0.032,1.2527 -0.048,2.5114 -0.048,3.7719 0,17.6633 3.1655,34.587 8.9792,50.2253 79.79626,-24.7952 137.73047,-99.2243 137.73047,-187.1771 0,-2.4099 -0.0354,-4.8142 -0.12167,-7.2029 -0.80185,-0.014 -1.6041,-0.024 -2.40907,-0.024 z"
           id="path3898"
           inkscape:connector-curvature="0" />
      </g>
      <path
         id="path3950"
         transform="translate(0,24.802981)"
         d="m -1267.9375,1413.2188 c -104.6814,39.494 -179.1563,140.5624 -179.1563,259.0624 0,14.7473 1.1541,29.2202 3.375,43.3438 -104.8355,39.4138 -179.4374,140.6066 -179.4374,259.2188 0,37.8246 7.638,73.8449 21.375,106.6874 -3.327,-14.4112 -5.0626,-29.4217 -5.0626,-44.8437 0,-109.668 88.8945,-198.5625 198.5626,-198.5625 59.0782,0 112.0957,25.8324 148.4687,66.7812 l 12.25,-8.2812 c -2.2015,-7.3399 -3.4063,-15.101 -3.4063,-23.1562 0,-35.8816 23.3815,-66.2659 55.75,-76.7813 l 0,-13.5937 c -97.7669,-12.3844 -173.3437,-95.8388 -173.3437,-196.9688 0,-73.0621 39.4495,-136.8931 98.2187,-171.375 0.8,-0.515 1.5983,-1.0283 2.4063,-1.5312 z m 196.0937,0.25 c 59.9805,34.1687 100.4063,98.688 100.4063,172.6562 0,101.274 -75.8118,184.8326 -173.7813,197.0312 l 0,13.5626 c 32.3358,10.5362 55.7188,40.8982 55.7188,76.75 0,8.0157 -1.1927,15.7548 -3.375,23.0624 l 12.0625,8.125 c 36.3677,-40.798 89.29717,-66.5312 148.25,-66.5312 109.6679,0 198.5625,88.8945 198.5625,198.5625 0,16.2617 -1.96891,32.0611 -5.65625,47.1875 14.3577,-33.465 22.34375,-70.3098 22.34375,-109.0312 10e-5,-118.6187 -74.62295,-219.8097 -179.46875,-259.2188 2.2212,-14.1239 3.375,-28.5961 3.375,-43.3438 0,-118.231 -74.13094,-219.1286 -178.43755,-258.8124 z m -49.5,524.1874 c -13.5733,10.3597 -30.5076,16.5313 -48.9062,16.5313 -18.3559,0 -35.2574,-6.153 -48.8125,-16.4687 l -12.4687,8.4062 c 13.9437,27.1532 21.8126,57.9354 21.8124,90.5625 0,109.6679 -88.8945,198.5937 -198.5624,198.5937 -10.6848,0 -21.1789,-0.844 -31.4063,-2.4687 -3.8294,-0.4304 -7.6214,-0.9931 -11.375,-1.6563 32.3174,13.223 67.6739,20.5313 104.75,20.5313 66.8822,0 128.2112,-23.7353 176.0625,-63.2187 47.8539,39.4926 109.2029,63.2187 176.09375,63.2187 37.0762,0 72.43261,-7.3083 104.75,-20.5313 -4.12131,0.7284 -8.28825,1.3341 -12.5,1.7813 -9.99803,1.5504 -20.22376,2.3437 -30.65625,2.3437 -109.6681,0 -198.5937,-88.9258 -198.5937,-198.5937 0,-32.7342 7.9369,-63.5957 21.9687,-90.8125 l -12.1563,-8.2188 z"
         style="color:#000000;fill:none;stroke:#000000;stroke-width:2.00101042;stroke-linecap:butt;stroke-linejoin:miter;stroke-miterlimit:4;stroke-opacity:1;stroke-dashoffset:0;marker:none;visibility:visible;display:inline;overflow:visible;enable-background:accumulate"
         inkscape:connector-curvature="0" />
    </g>
  </g>
</svg>
