  0
SECTION
  2
HEADER
  9
$ACADVER
  1
AC1014
  9
$HANDSEED
  5
FFFF
  9
$MEASUREMENT
 70
     1
  0
ENDSEC
  0
SECTION
  2
TABLES
  0
TABLE
  2
VPORT
  5
8
330
0
100
AcDbSymbolTable
 70
     4
  0
VPORT
  5
2E
330
8
100
AcDbSymbolTableRecord
100
AcDbViewportTableRecord
  2
*ACTIVE
 70
     0
 10
0.0
 20
0.0
 11
1.0
 21
1.0
 12
210.0
 22
148.5
 13
0.0
 23
0.0
 14
10.0
 24
10.0
 15
10.0
 25
10.0
 16
0.0
 26
0.0
 36
1.0
 17
0.0
 27
0.0
 37
0.0
 40
341.0
 41
1.24
 42
50.0
 43
0.0
 44
0.0
 50
0.0
 51
0.0
 71
     0
 72
   100
 73
     1
 74
     3
 75
     0
 76
     0
 77
     0
 78
     0
  0
ENDTAB
  0
TABLE
  2
LTYPE
  5
5
330
0
100
AcDbSymbolTable
 70
     1
  0
LTYPE
  5
14
330
5
100
AcDbSymbolTableRecord
100
AcDbLinetypeTableRecord
  2
BYBLOCK
 70
     0
  3

 72
    65
 73
     0
 40
0.0
  0
LTYPE
  5
15
330
5
100
AcDbSymbolTableRecord
100
AcDbLinetypeTableRecord
  2
BYLAYER
 70
     0
  3

 72
    65
 73
     0
 40
0.0
  0
LTYPE
  5
16
330
5
100
AcDbSymbolTableRecord
100
AcDbLinetypeTableRecord
  2
CONTINUOUS
 70
     0
  3
Solid line
 72
    65
 73
     0
 40
0.0
  0
ENDTAB
  0
TABLE
  2
LAYER
  5
2
100
AcDbSymbolTable
 70
2
  0
LAYER
  5
50
100
AcDbSymbolTableRecord
100
AcDbLayerTableRecord
  2
0
 70
0
  6
CONTINUOUS
  0
LAYER
  5
51
100
AcDbSymbolTableRecord
100
AcDbLayerTableRecord
  2
Layer_1
 70
0
  6
CONTINUOUS
  0
ENDTAB
  0
TABLE
  2
STYLE
  5
3
330
0
100
AcDbSymbolTable
 70
     1
  0
STYLE
  5
11
330
3
100
AcDbSymbolTableRecord
100
AcDbTextStyleTableRecord
  2
STANDARD
 70
     0
 40
0.0
 41
1.0
 50
0.0
 71
     0
 42
2.5
  3
txt
  4

  0
ENDTAB
  0
TABLE
  2
VIEW
  5
6
330
0
100
AcDbSymbolTable
 70
     0
  0
ENDTAB
  0
TABLE
  2
UCS
  5
7
330
0
100
AcDbSymbolTable
 70
     0
  0
ENDTAB
  0
TABLE
  2
APPID
  5
9
330
0
100
AcDbSymbolTable
 70
     2
  0
APPID
  5
12
330
9
100
AcDbSymbolTableRecord
100
AcDbRegAppTableRecord
  2
ACAD
 70
     0
  0
ENDTAB
  0
TABLE
  2
DIMSTYLE
  5
A
330
0
100
AcDbSymbolTable
 70
     1
  0
DIMSTYLE
105
27
330
A
100
AcDbSymbolTableRecord
100
AcDbDimStyleTableRecord
  2
ISO-25
 70
     0
  3

  4

  5

  6

  7

 40
1.0
 41
2.5
 42
0.625
 43
3.75
 44
1.25
 45
0.0
 46
0.0
 47
0.0
 48
0.0
140
2.5
141
2.5
142
0.0
143
0.03937007874016
144
1.0
145
0.0
146
1.0
147
0.625
 71
     0
 72
     0
 73
     0
 74
     0
 75
     0
 76
     0
 77
     1
 78
     8
170
     0
171
     3
172
     1
173
     0
174
     0
175
     0
176
     0
177
     0
178
     0
270
     2
271
     2
272
     2
273
     2
274
     3
340
11
275
     0
280
     0
281
     0
282
     0
283
     0
284
     8
285
     0
286
     0
287
     3
288
     0
  0
ENDTAB
  0
TABLE
  2
BLOCK_RECORD
  5
1
330
0
100
AcDbSymbolTable
 70
     1
  0
BLOCK_RECORD
  5
1F
330
1
100
AcDbSymbolTableRecord
100
AcDbBlockTableRecord
  2
*MODEL_SPACE
  0
BLOCK_RECORD
  5
1B
330
1
100
AcDbSymbolTableRecord
100
AcDbBlockTableRecord
  2
*PAPER_SPACE
  0
ENDTAB
  0
ENDSEC
  0
SECTION
  2
BLOCKS
  0
BLOCK
  5
20
330
1F
100
AcDbEntity
  8
0
100
AcDbBlockBegin
  2
*MODEL_SPACE
 70
     0
 10
0.0
 20
0.0
 30
0.0
  3
*MODEL_SPACE
  1

  0
ENDBLK
  5
21
330
1F
100
AcDbEntity
  8
0
100
AcDbBlockEnd
  0
BLOCK
  5
1C
330
1B
100
AcDbEntity
 67
     1
  8
0
100
AcDbBlockBegin
  2
*PAPER_SPACE
  1

  0
ENDBLK
  5
1D
330
1B
100
AcDbEntity
 67
     1
  8
0
100
AcDbBlockEnd
  0
ENDSEC
  0
SECTION
  2
ENTITIES
  0
LINE
  5
100
100
AcDbEntity
  8
Layer_1
 62
7
100
AcDbLine
 10
91.227997
 20
282.900554
 30
0.0
 11
387.718980
 21
282.900554
 31
0.0
  0
LINE
  5
101
100
AcDbEntity
  8
Layer_1
 62
7
100
AcDbLine
 10
387.718980
 20
282.900554
 30
0.0
 11
387.718980
 21
-13.590428
 31
0.0
  0
LINE
  5
102
100
AcDbEntity
  8
Layer_1
 62
7
100
AcDbLine
 10
387.718980
 20
-13.590428
 30
0.0
 11
91.227997
 21
-13.590428
 31
0.0
  0
LINE
  5
103
100
AcDbEntity
  8
Layer_1
 62
7
100
AcDbLine
 10
91.227997
 20
-13.590428
 30
0.0
 11
91.227997
 21
282.900554
 31
0.0
  0
LINE
  5
104
100
AcDbEntity
  8
Layer_1
 62
1
100
AcDbLine
 10
92.035399
 20
282.565631
 30
0.0
 11
389.192285
 21
282.565631
 31
0.0
  0
LINE
  5
105
100
AcDbEntity
  8
Layer_1
 62
1
100
AcDbLine
 10
389.192285
 20
282.565631
 30
0.0
 11
389.192285
 21
5.408716
 31
0.0
  0
LINE
  5
106
100
AcDbEntity
  8
Layer_1
 62
1
100
AcDbLine
 10
389.192285
 20
5.408716
 30
0.0
 11
92.035399
 21
5.408716
 31
0.0
  0
LINE
  5
107
100
AcDbEntity
  8
Layer_1
 62
1
100
AcDbLine
 10
92.035399
 20
5.408716
 30
0.0
 11
92.035399
 21
282.565631
 31
0.0
  0
SPLINE
  5
108
100
AcDbEntity
  8
Layer_1
 62
1
100
AcDbSpline
 70
8
 71
3
 72
8
 73
4
 74
0
 40
0
 40
0
 40
0
 40
0
 40
1
 40
1
 40
1
 40
1
 10
262.831474
 20
134.585935
 30
0.0
 10
262.831474
 20
126.648338
 30
0.0
 10
258.596817
 20
119.313696
 30
0.0
 10
251.722657
 20
115.344898
 30
0.0
  0
SPLINE
  5
109
100
AcDbEntity
  8
Layer_1
 62
1
100
AcDbSpline
 70
8
 71
3
 72
8
 73
4
 74
0
 40
0
 40
0
 40
0
 40
0
 40
1
 40
1
 40
1
 40
1
 10
251.722657
 20
115.344898
 30
0.0
 10
244.848497
 20
111.376100
 30
0.0
 10
236.379182
 20
111.376100
 30
0.0
 10
229.505022
 20
115.344898
 30
0.0
  0
SPLINE
  5
10a
100
AcDbEntity
  8
Layer_1
 62
1
100
AcDbSpline
 70
8
 71
3
 72
8
 73
4
 74
0
 40
0
 40
0
 40
0
 40
0
 40
1
 40
1
 40
1
 40
1
 10
229.505022
 20
115.344898
 30
0.0
 10
222.630861
 20
119.313696
 30
0.0
 10
218.396204
 20
126.648338
 30
0.0
 10
218.396204
 20
134.585935
 30
0.0
  0
SPLINE
  5
10b
100
AcDbEntity
  8
Layer_1
 62
1
100
AcDbSpline
 70
8
 71
3
 72
8
 73
4
 74
0
 40
0
 40
0
 40
0
 40
0
 40
1
 40
1
 40
1
 40
1
 10
218.396204
 20
134.585935
 30
0.0
 10
218.396204
 20
142.523531
 30
0.0
 10
222.630862
 20
149.858173
 30
0.0
 10
229.505022
 20
153.826971
 30
0.0
  0
SPLINE
  5
10c
100
AcDbEntity
  8
Layer_1
 62
1
100
AcDbSpline
 70
8
 71
3
 72
8
 73
4
 74
0
 40
0
 40
0
 40
0
 40
0
 40
1
 40
1
 40
1
 40
1
 10
229.505022
 20
153.826971
 30
0.0
 10
236.379182
 20
157.795769
 30
0.0
 10
244.848497
 20
157.795769
 30
0.0
 10
251.722657
 20
153.826971
 30
0.0
  0
SPLINE
  5
10d
100
AcDbEntity
  8
Layer_1
 62
1
100
AcDbSpline
 70
8
 71
3
 72
8
 73
4
 74
0
 40
0
 40
0
 40
0
 40
0
 40
1
 40
1
 40
1
 40
1
 10
251.722657
 20
153.826971
 30
0.0
 10
258.596817
 20
149.858173
 30
0.0
 10
262.831475
 20
142.523531
 30
0.0
 10
262.831475
 20
134.585935
 30
0.0
  0
LINE
  5
10e
100
AcDbEntity
  8
Layer_1
 62
1
100
AcDbLine
 10
262.831475
 20
134.585935
 30
0.0
 11
262.831475
 21
134.585935
 31
0.0
  0
SPLINE
  5
10f
100
AcDbEntity
  8
Layer_1
 62
7
100
AcDbSpline
 70
8
 71
3
 72
8
 73
4
 74
0
 40
0
 40
0
 40
0
 40
0
 40
1
 40
1
 40
1
 40
1
 10
241.344797
 20
134.585935
 30
0.0
 10
241.344797
 20
134.189517
 30
0.0
 10
241.023437
 20
133.868157
 30
0.0
 10
240.627019
 20
133.868157
 30
0.0
  0
SPLINE
  5
110
100
AcDbEntity
  8
Layer_1
 62
7
100
AcDbSpline
 70
8
 71
3
 72
8
 73
4
 74
0
 40
0
 40
0
 40
0
 40
0
 40
1
 40
1
 40
1
 40
1
 10
240.627019
 20
133.868157
 30
0.0
 10
240.230601
 20
133.868157
 30
0.0
 10
239.909241
 20
134.189517
 30
0.0
 10
239.909241
 20
134.585935
 30
0.0
  0
SPLINE
  5
111
100
AcDbEntity
  8
Layer_1
 62
7
100
AcDbSpline
 70
8
 71
3
 72
8
 73
4
 74
0
 40
0
 40
0
 40
0
 40
0
 40
1
 40
1
 40
1
 40
1
 10
239.909241
 20
134.585935
 30
0.0
 10
239.909241
 20
134.982353
 30
0.0
 10
240.230601
 20
135.303712
 30
0.0
 10
240.627019
 20
135.303712
 30
0.0
  0
SPLINE
  5
112
100
AcDbEntity
  8
Layer_1
 62
7
100
AcDbSpline
 70
8
 71
3
 72
8
 73
4
 74
0
 40
0
 40
0
 40
0
 40
0
 40
1
 40
1
 40
1
 40
1
 10
240.627019
 20
135.303712
 30
0.0
 10
241.023437
 20
135.303712
 30
0.0
 10
241.344797
 20
134.982353
 30
0.0
 10
241.344797
 20
134.585935
 30
0.0
  0
LINE
  5
113
100
AcDbEntity
  8
Layer_1
 62
7
100
AcDbLine
 10
241.344797
 20
134.585935
 30
0.0
 11
241.344797
 21
134.585935
 31
0.0
  0
SPLINE
  5
114
100
AcDbEntity
  8
Layer_1
 62
1
100
AcDbSpline
 70
8
 71
3
 72
8
 73
4
 74
0
 40
0
 40
0
 40
0
 40
0
 40
1
 40
1
 40
1
 40
1
 10
249.877008
 20
134.585935
 30
0.0
 10
249.877008
 20
129.477301
 30
0.0
 10
245.735643
 20
125.335936
 30
0.0
 10
240.627009
 20
125.335936
 30
0.0
  0
SPLINE
  5
115
100
AcDbEntity
  8
Layer_1
 62
1
100
AcDbSpline
 70
8
 71
3
 72
8
 73
4
 74
0
 40
0
 40
0
 40
0
 40
0
 40
1
 40
1
 40
1
 40
1
 10
240.627009
 20
125.335936
 30
0.0
 10
235.518375
 20
125.335936
 30
0.0
 10
231.377010
 20
129.477301
 30
0.0
 10
231.377010
 20
134.585935
 30
0.0
  0
SPLINE
  5
116
100
AcDbEntity
  8
Layer_1
 62
1
100
AcDbSpline
 70
8
 71
3
 72
8
 73
4
 74
0
 40
0
 40
0
 40
0
 40
0
 40
1
 40
1
 40
1
 40
1
 10
231.377010
 20
134.585935
 30
0.0
 10
231.377010
 20
139.694569
 30
0.0
 10
235.518375
 20
143.835936
 30
0.0
 10
240.627009
 20
143.835936
 30
0.0
  0
SPLINE
  5
117
100
AcDbEntity
  8
Layer_1
 62
1
100
AcDbSpline
 70
8
 71
3
 72
8
 73
4
 74
0
 40
0
 40
0
 40
0
 40
0
 40
1
 40
1
 40
1
 40
1
 10
240.627009
 20
143.835936
 30
0.0
 10
245.735643
 20
143.835936
 30
0.0
 10
249.877008
 20
139.694569
 30
0.0
 10
249.877008
 20
134.585935
 30
0.0
  0
LINE
  5
118
100
AcDbEntity
  8
Layer_1
 62
1
100
AcDbLine
 10
249.877008
 20
134.585935
 30
0.0
 11
249.877008
 21
134.585935
 31
0.0
  0
SPLINE
  5
119
100
AcDbEntity
  8
Layer_1
 62
1
100
AcDbSpline
 70
8
 71
3
 72
8
 73
4
 74
0
 40
0
 40
0
 40
0
 40
0
 40
1
 40
1
 40
1
 40
1
 10
244.377009
 20
134.585934
 30
0.0
 10
244.377009
 20
132.514866
 30
0.0
 10
242.698077
 20
130.835934
 30
0.0
 10
240.627009
 20
130.835934
 30
0.0
  0
SPLINE
  5
11a
100
AcDbEntity
  8
Layer_1
 62
1
100
AcDbSpline
 70
8
 71
3
 72
8
 73
4
 74
0
 40
0
 40
0
 40
0
 40
0
 40
1
 40
1
 40
1
 40
1
 10
240.627009
 20
130.835934
 30
0.0
 10
238.555941
 20
130.835934
 30
0.0
 10
236.877009
 20
132.514866
 30
0.0
 10
236.877009
 20
134.585934
 30
0.0
  0
SPLINE
  5
11b
100
AcDbEntity
  8
Layer_1
 62
1
100
AcDbSpline
 70
8
 71
3
 72
8
 73
4
 74
0
 40
0
 40
0
 40
0
 40
0
 40
1
 40
1
 40
1
 40
1
 10
236.877009
 20
134.585934
 30
0.0
 10
236.877009
 20
136.657002
 30
0.0
 10
238.555941
 20
138.335934
 30
0.0
 10
240.627009
 20
138.335934
 30
0.0
  0
SPLINE
  5
11c
100
AcDbEntity
  8
Layer_1
 62
1
100
AcDbSpline
 70
8
 71
3
 72
8
 73
4
 74
0
 40
0
 40
0
 40
0
 40
0
 40
1
 40
1
 40
1
 40
1
 10
240.627009
 20
138.335934
 30
0.0
 10
242.698077
 20
138.335934
 30
0.0
 10
244.377009
 20
136.657002
 30
0.0
 10
244.377009
 20
134.585934
 30
0.0
  0
LINE
  5
11d
100
AcDbEntity
  8
Layer_1
 62
1
100
AcDbLine
 10
244.377009
 20
134.585934
 30
0.0
 11
244.377009
 21
134.585934
 31
0.0
  0
SPLINE
  5
11e
100
AcDbEntity
  8
Layer_1
 62
7
100
AcDbSpline
 70
8
 71
3
 72
8
 73
4
 74
0
 40
0
 40
0
 40
0
 40
0
 40
1
 40
1
 40
1
 40
1
 10
123.669845
 20
252.436765
 30
0.0
 10
123.669845
 20
252.040348
 30
0.0
 10
123.348485
 20
251.718987
 30
0.0
 10
122.952067
 20
251.718987
 30
0.0
  0
SPLINE
  5
11f
100
AcDbEntity
  8
Layer_1
 62
7
100
AcDbSpline
 70
8
 71
3
 72
8
 73
4
 74
0
 40
0
 40
0
 40
0
 40
0
 40
1
 40
1
 40
1
 40
1
 10
122.952067
 20
251.718987
 30
0.0
 10
122.555649
 20
251.718987
 30
0.0
 10
122.234290
 20
252.040348
 30
0.0
 10
122.234290
 20
252.436765
 30
0.0
  0
SPLINE
  5
120
100
AcDbEntity
  8
Layer_1
 62
7
100
AcDbSpline
 70
8
 71
3
 72
8
 73
4
 74
0
 40
0
 40
0
 40
0
 40
0
 40
1
 40
1
 40
1
 40
1
 10
122.234290
 20
252.436765
 30
0.0
 10
122.234290
 20
252.833183
 30
0.0
 10
122.555649
 20
253.154543
 30
0.0
 10
122.952067
 20
253.154543
 30
0.0
  0
SPLINE
  5
121
100
AcDbEntity
  8
Layer_1
 62
7
100
AcDbSpline
 70
8
 71
3
 72
8
 73
4
 74
0
 40
0
 40
0
 40
0
 40
0
 40
1
 40
1
 40
1
 40
1
 10
122.952067
 20
253.154543
 30
0.0
 10
123.348485
 20
253.154543
 30
0.0
 10
123.669845
 20
252.833183
 30
0.0
 10
123.669845
 20
252.436765
 30
0.0
  0
LINE
  5
122
100
AcDbEntity
  8
Layer_1
 62
7
100
AcDbLine
 10
123.669845
 20
252.436765
 30
0.0
 11
123.669845
 21
252.436765
 31
0.0
  0
SPLINE
  5
123
100
AcDbEntity
  8
Layer_1
 62
1
100
AcDbSpline
 70
8
 71
3
 72
8
 73
4
 74
0
 40
0
 40
0
 40
0
 40
0
 40
1
 40
1
 40
1
 40
1
 10
132.202065
 20
252.436765
 30
0.0
 10
132.202065
 20
247.328131
 30
0.0
 10
128.060700
 20
243.186767
 30
0.0
 10
122.952066
 20
243.186767
 30
0.0
  0
SPLINE
  5
124
100
AcDbEntity
  8
Layer_1
 62
1
100
AcDbSpline
 70
8
 71
3
 72
8
 73
4
 74
0
 40
0
 40
0
 40
0
 40
0
 40
1
 40
1
 40
1
 40
1
 10
122.952066
 20
243.186767
 30
0.0
 10
117.843432
 20
243.186767
 30
0.0
 10
113.702067
 20
247.328131
 30
0.0
 10
113.702067
 20
252.436765
 30
0.0
  0
SPLINE
  5
125
100
AcDbEntity
  8
Layer_1
 62
1
100
AcDbSpline
 70
8
 71
3
 72
8
 73
4
 74
0
 40
0
 40
0
 40
0
 40
0
 40
1
 40
1
 40
1
 40
1
 10
113.702067
 20
252.436765
 30
0.0
 10
113.702067
 20
257.545400
 30
0.0
 10
117.843432
 20
261.686767
 30
0.0
 10
122.952066
 20
261.686767
 30
0.0
  0
SPLINE
  5
126
100
AcDbEntity
  8
Layer_1
 62
1
100
AcDbSpline
 70
8
 71
3
 72
8
 73
4
 74
0
 40
0
 40
0
 40
0
 40
0
 40
1
 40
1
 40
1
 40
1
 10
122.952066
 20
261.686767
 30
0.0
 10
128.060700
 20
261.686767
 30
0.0
 10
132.202065
 20
257.545400
 30
0.0
 10
132.202065
 20
252.436765
 30
0.0
  0
LINE
  5
127
100
AcDbEntity
  8
Layer_1
 62
1
100
AcDbLine
 10
132.202065
 20
252.436765
 30
0.0
 11
132.202065
 21
252.436765
 31
0.0
  0
SPLINE
  5
128
100
AcDbEntity
  8
Layer_1
 62
1
100
AcDbSpline
 70
8
 71
3
 72
8
 73
4
 74
0
 40
0
 40
0
 40
0
 40
0
 40
1
 40
1
 40
1
 40
1
 10
126.702065
 20
252.436764
 30
0.0
 10
126.702065
 20
250.365696
 30
0.0
 10
125.023134
 20
248.686765
 30
0.0
 10
122.952066
 20
248.686765
 30
0.0
  0
SPLINE
  5
129
100
AcDbEntity
  8
Layer_1
 62
1
100
AcDbSpline
 70
8
 71
3
 72
8
 73
4
 74
0
 40
0
 40
0
 40
0
 40
0
 40
1
 40
1
 40
1
 40
1
 10
122.952066
 20
248.686765
 30
0.0
 10
120.880998
 20
248.686765
 30
0.0
 10
119.202066
 20
250.365696
 30
0.0
 10
119.202066
 20
252.436764
 30
0.0
  0
SPLINE
  5
12a
100
AcDbEntity
  8
Layer_1
 62
1
100
AcDbSpline
 70
8
 71
3
 72
8
 73
4
 74
0
 40
0
 40
0
 40
0
 40
0
 40
1
 40
1
 40
1
 40
1
 10
119.202066
 20
252.436764
 30
0.0
 10
119.202066
 20
254.507832
 30
0.0
 10
120.880998
 20
256.186765
 30
0.0
 10
122.952066
 20
256.186765
 30
0.0
  0
SPLINE
  5
12b
100
AcDbEntity
  8
Layer_1
 62
1
100
AcDbSpline
 70
8
 71
3
 72
8
 73
4
 74
0
 40
0
 40
0
 40
0
 40
0
 40
1
 40
1
 40
1
 40
1
 10
122.952066
 20
256.186765
 30
0.0
 10
125.023134
 20
256.186765
 30
0.0
 10
126.702065
 20
254.507832
 30
0.0
 10
126.702065
 20
252.436764
 30
0.0
  0
LINE
  5
12c
100
AcDbEntity
  8
Layer_1
 62
1
100
AcDbLine
 10
126.702065
 20
252.436764
 30
0.0
 11
126.702065
 21
252.436764
 31
0.0
  0
SPLINE
  5
12d
100
AcDbEntity
  8
Layer_1
 62
7
100
AcDbSpline
 70
8
 71
3
 72
8
 73
4
 74
0
 40
0
 40
0
 40
0
 40
0
 40
1
 40
1
 40
1
 40
1
 10
358.993411
 20
252.436765
 30
0.0
 10
358.993411
 20
252.040348
 30
0.0
 10
358.672051
 20
251.718987
 30
0.0
 10
358.275633
 20
251.718987
 30
0.0
  0
SPLINE
  5
12e
100
AcDbEntity
  8
Layer_1
 62
7
100
AcDbSpline
 70
8
 71
3
 72
8
 73
4
 74
0
 40
0
 40
0
 40
0
 40
0
 40
1
 40
1
 40
1
 40
1
 10
358.275633
 20
251.718987
 30
0.0
 10
357.879215
 20
251.718987
 30
0.0
 10
357.557855
 20
252.040348
 30
0.0
 10
357.557855
 20
252.436765
 30
0.0
  0
SPLINE
  5
12f
100
AcDbEntity
  8
Layer_1
 62
7
100
AcDbSpline
 70
8
 71
3
 72
8
 73
4
 74
0
 40
0
 40
0
 40
0
 40
0
 40
1
 40
1
 40
1
 40
1
 10
357.557855
 20
252.436765
 30
0.0
 10
357.557855
 20
252.833183
 30
0.0
 10
357.879215
 20
253.154543
 30
0.0
 10
358.275633
 20
253.154543
 30
0.0
  0
SPLINE
  5
130
100
AcDbEntity
  8
Layer_1
 62
7
100
AcDbSpline
 70
8
 71
3
 72
8
 73
4
 74
0
 40
0
 40
0
 40
0
 40
0
 40
1
 40
1
 40
1
 40
1
 10
358.275633
 20
253.154543
 30
0.0
 10
358.672051
 20
253.154543
 30
0.0
 10
358.993411
 20
252.833183
 30
0.0
 10
358.993411
 20
252.436765
 30
0.0
  0
LINE
  5
131
100
AcDbEntity
  8
Layer_1
 62
7
100
AcDbLine
 10
358.993411
 20
252.436765
 30
0.0
 11
358.993411
 21
252.436765
 31
0.0
  0
SPLINE
  5
132
100
AcDbEntity
  8
Layer_1
 62
1
100
AcDbSpline
 70
8
 71
3
 72
8
 73
4
 74
0
 40
0
 40
0
 40
0
 40
0
 40
1
 40
1
 40
1
 40
1
 10
367.525630
 20
252.436765
 30
0.0
 10
367.525630
 20
247.328131
 30
0.0
 10
363.384266
 20
243.186767
 30
0.0
 10
358.275632
 20
243.186767
 30
0.0
  0
SPLINE
  5
133
100
AcDbEntity
  8
Layer_1
 62
1
100
AcDbSpline
 70
8
 71
3
 72
8
 73
4
 74
0
 40
0
 40
0
 40
0
 40
0
 40
1
 40
1
 40
1
 40
1
 10
358.275632
 20
243.186767
 30
0.0
 10
353.166997
 20
243.186767
 30
0.0
 10
349.025633
 20
247.328131
 30
0.0
 10
349.025633
 20
252.436765
 30
0.0
  0
SPLINE
  5
134
100
AcDbEntity
  8
Layer_1
 62
1
100
AcDbSpline
 70
8
 71
3
 72
8
 73
4
 74
0
 40
0
 40
0
 40
0
 40
0
 40
1
 40
1
 40
1
 40
1
 10
349.025633
 20
252.436765
 30
0.0
 10
349.025633
 20
257.545400
 30
0.0
 10
353.166997
 20
261.686767
 30
0.0
 10
358.275632
 20
261.686767
 30
0.0
  0
SPLINE
  5
135
100
AcDbEntity
  8
Layer_1
 62
1
100
AcDbSpline
 70
8
 71
3
 72
8
 73
4
 74
0
 40
0
 40
0
 40
0
 40
0
 40
1
 40
1
 40
1
 40
1
 10
358.275632
 20
261.686767
 30
0.0
 10
363.384266
 20
261.686767
 30
0.0
 10
367.525630
 20
257.545400
 30
0.0
 10
367.525630
 20
252.436765
 30
0.0
  0
LINE
  5
136
100
AcDbEntity
  8
Layer_1
 62
1
100
AcDbLine
 10
367.525630
 20
252.436765
 30
0.0
 11
367.525630
 21
252.436765
 31
0.0
  0
SPLINE
  5
137
100
AcDbEntity
  8
Layer_1
 62
1
100
AcDbSpline
 70
8
 71
3
 72
8
 73
4
 74
0
 40
0
 40
0
 40
0
 40
0
 40
1
 40
1
 40
1
 40
1
 10
362.025631
 20
252.436764
 30
0.0
 10
362.025631
 20
250.365696
 30
0.0
 10
360.346700
 20
248.686765
 30
0.0
 10
358.275632
 20
248.686765
 30
0.0
  0
SPLINE
  5
138
100
AcDbEntity
  8
Layer_1
 62
1
100
AcDbSpline
 70
8
 71
3
 72
8
 73
4
 74
0
 40
0
 40
0
 40
0
 40
0
 40
1
 40
1
 40
1
 40
1
 10
358.275632
 20
248.686765
 30
0.0
 10
356.204564
 20
248.686765
 30
0.0
 10
354.525632
 20
250.365696
 30
0.0
 10
354.525632
 20
252.436764
 30
0.0
  0
SPLINE
  5
139
100
AcDbEntity
  8
Layer_1
 62
1
100
AcDbSpline
 70
8
 71
3
 72
8
 73
4
 74
0
 40
0
 40
0
 40
0
 40
0
 40
1
 40
1
 40
1
 40
1
 10
354.525632
 20
252.436764
 30
0.0
 10
354.525632
 20
254.507832
 30
0.0
 10
356.204564
 20
256.186765
 30
0.0
 10
358.275632
 20
256.186765
 30
0.0
  0
SPLINE
  5
13a
100
AcDbEntity
  8
Layer_1
 62
1
100
AcDbSpline
 70
8
 71
3
 72
8
 73
4
 74
0
 40
0
 40
0
 40
0
 40
0
 40
1
 40
1
 40
1
 40
1
 10
358.275632
 20
256.186765
 30
0.0
 10
360.346700
 20
256.186765
 30
0.0
 10
362.025631
 20
254.507832
 30
0.0
 10
362.025631
 20
252.436764
 30
0.0
  0
LINE
  5
13b
100
AcDbEntity
  8
Layer_1
 62
1
100
AcDbLine
 10
362.025631
 20
252.436764
 30
0.0
 11
362.025631
 21
252.436764
 31
0.0
  0
SPLINE
  5
13c
100
AcDbEntity
  8
Layer_1
 62
7
100
AcDbSpline
 70
8
 71
3
 72
8
 73
4
 74
0
 40
0
 40
0
 40
0
 40
0
 40
1
 40
1
 40
1
 40
1
 10
360.122300
 20
36.666458
 30
0.0
 10
360.122300
 20
36.270040
 30
0.0
 10
359.800940
 20
35.948680
 30
0.0
 10
359.404522
 20
35.948680
 30
0.0
  0
SPLINE
  5
13d
100
AcDbEntity
  8
Layer_1
 62
7
100
AcDbSpline
 70
8
 71
3
 72
8
 73
4
 74
0
 40
0
 40
0
 40
0
 40
0
 40
1
 40
1
 40
1
 40
1
 10
359.404522
 20
35.948680
 30
0.0
 10
359.008104
 20
35.948680
 30
0.0
 10
358.686744
 20
36.270040
 30
0.0
 10
358.686744
 20
36.666458
 30
0.0
  0
SPLINE
  5
13e
100
AcDbEntity
  8
Layer_1
 62
7
100
AcDbSpline
 70
8
 71
3
 72
8
 73
4
 74
0
 40
0
 40
0
 40
0
 40
0
 40
1
 40
1
 40
1
 40
1
 10
358.686744
 20
36.666458
 30
0.0
 10
358.686744
 20
37.062875
 30
0.0
 10
359.008104
 20
37.384235
 30
0.0
 10
359.404522
 20
37.384235
 30
0.0
  0
SPLINE
  5
13f
100
AcDbEntity
  8
Layer_1
 62
7
100
AcDbSpline
 70
8
 71
3
 72
8
 73
4
 74
0
 40
0
 40
0
 40
0
 40
0
 40
1
 40
1
 40
1
 40
1
 10
359.404522
 20
37.384235
 30
0.0
 10
359.800940
 20
37.384235
 30
0.0
 10
360.122300
 20
37.062875
 30
0.0
 10
360.122300
 20
36.666458
 30
0.0
  0
LINE
  5
140
100
AcDbEntity
  8
Layer_1
 62
7
100
AcDbLine
 10
360.122300
 20
36.666458
 30
0.0
 11
360.122300
 21
36.666458
 31
0.0
  0
SPLINE
  5
141
100
AcDbEntity
  8
Layer_1
 62
1
100
AcDbSpline
 70
8
 71
3
 72
8
 73
4
 74
0
 40
0
 40
0
 40
0
 40
0
 40
1
 40
1
 40
1
 40
1
 10
368.654519
 20
36.666458
 30
0.0
 10
368.654519
 20
31.557824
 30
0.0
 10
364.513155
 20
27.416459
 30
0.0
 10
359.404521
 20
27.416459
 30
0.0
  0
SPLINE
  5
142
100
AcDbEntity
  8
Layer_1
 62
1
100
AcDbSpline
 70
8
 71
3
 72
8
 73
4
 74
0
 40
0
 40
0
 40
0
 40
0
 40
1
 40
1
 40
1
 40
1
 10
359.404521
 20
27.416459
 30
0.0
 10
354.295886
 20
27.416459
 30
0.0
 10
350.154522
 20
31.557824
 30
0.0
 10
350.154522
 20
36.666458
 30
0.0
  0
SPLINE
  5
143
100
AcDbEntity
  8
Layer_1
 62
1
100
AcDbSpline
 70
8
 71
3
 72
8
 73
4
 74
0
 40
0
 40
0
 40
0
 40
0
 40
1
 40
1
 40
1
 40
1
 10
350.154522
 20
36.666458
 30
0.0
 10
350.154522
 20
41.775092
 30
0.0
 10
354.295886
 20
45.916459
 30
0.0
 10
359.404521
 20
45.916459
 30
0.0
  0
SPLINE
  5
144
100
AcDbEntity
  8
Layer_1
 62
1
100
AcDbSpline
 70
8
 71
3
 72
8
 73
4
 74
0
 40
0
 40
0
 40
0
 40
0
 40
1
 40
1
 40
1
 40
1
 10
359.404521
 20
45.916459
 30
0.0
 10
364.513155
 20
45.916459
 30
0.0
 10
368.654519
 20
41.775092
 30
0.0
 10
368.654519
 20
36.666458
 30
0.0
  0
LINE
  5
145
100
AcDbEntity
  8
Layer_1
 62
1
100
AcDbLine
 10
368.654519
 20
36.666458
 30
0.0
 11
368.654519
 21
36.666458
 31
0.0
  0
SPLINE
  5
146
100
AcDbEntity
  8
Layer_1
 62
1
100
AcDbSpline
 70
8
 71
3
 72
8
 73
4
 74
0
 40
0
 40
0
 40
0
 40
0
 40
1
 40
1
 40
1
 40
1
 10
363.154520
 20
36.666457
 30
0.0
 10
363.154520
 20
34.595389
 30
0.0
 10
361.475588
 20
32.916457
 30
0.0
 10
359.404520
 20
32.916457
 30
0.0
  0
SPLINE
  5
147
100
AcDbEntity
  8
Layer_1
 62
1
100
AcDbSpline
 70
8
 71
3
 72
8
 73
4
 74
0
 40
0
 40
0
 40
0
 40
0
 40
1
 40
1
 40
1
 40
1
 10
359.404520
 20
32.916457
 30
0.0
 10
357.333452
 20
32.916457
 30
0.0
 10
355.654521
 20
34.595389
 30
0.0
 10
355.654521
 20
36.666457
 30
0.0
  0
SPLINE
  5
148
100
AcDbEntity
  8
Layer_1
 62
1
100
AcDbSpline
 70
8
 71
3
 72
8
 73
4
 74
0
 40
0
 40
0
 40
0
 40
0
 40
1
 40
1
 40
1
 40
1
 10
355.654521
 20
36.666457
 30
0.0
 10
355.654521
 20
38.737525
 30
0.0
 10
357.333452
 20
40.416457
 30
0.0
 10
359.404520
 20
40.416457
 30
0.0
  0
SPLINE
  5
149
100
AcDbEntity
  8
Layer_1
 62
1
100
AcDbSpline
 70
8
 71
3
 72
8
 73
4
 74
0
 40
0
 40
0
 40
0
 40
0
 40
1
 40
1
 40
1
 40
1
 10
359.404520
 20
40.416457
 30
0.0
 10
361.475588
 20
40.416457
 30
0.0
 10
363.154520
 20
38.737525
 30
0.0
 10
363.154520
 20
36.666457
 30
0.0
  0
LINE
  5
14a
100
AcDbEntity
  8
Layer_1
 62
1
100
AcDbLine
 10
363.154520
 20
36.666457
 30
0.0
 11
363.154520
 21
36.666457
 31
0.0
  0
SPLINE
  5
14b
100
AcDbEntity
  8
Layer_1
 62
7
100
AcDbSpline
 70
8
 71
3
 72
8
 73
4
 74
0
 40
0
 40
0
 40
0
 40
0
 40
1
 40
1
 40
1
 40
1
 10
122.540956
 20
36.666458
 30
0.0
 10
122.540956
 20
36.270040
 30
0.0
 10
122.219596
 20
35.948680
 30
0.0
 10
121.823178
 20
35.948680
 30
0.0
  0
SPLINE
  5
14c
100
AcDbEntity
  8
Layer_1
 62
7
100
AcDbSpline
 70
8
 71
3
 72
8
 73
4
 74
0
 40
0
 40
0
 40
0
 40
0
 40
1
 40
1
 40
1
 40
1
 10
121.823178
 20
35.948680
 30
0.0
 10
121.426761
 20
35.948680
 30
0.0
 10
121.105401
 20
36.270040
 30
0.0
 10
121.105401
 20
36.666458
 30
0.0
  0
SPLINE
  5
14d
100
AcDbEntity
  8
Layer_1
 62
7
100
AcDbSpline
 70
8
 71
3
 72
8
 73
4
 74
0
 40
0
 40
0
 40
0
 40
0
 40
1
 40
1
 40
1
 40
1
 10
121.105401
 20
36.666458
 30
0.0
 10
121.105401
 20
37.062875
 30
0.0
 10
121.426761
 20
37.384235
 30
0.0
 10
121.823178
 20
37.384235
 30
0.0
  0
SPLINE
  5
14e
100
AcDbEntity
  8
Layer_1
 62
7
100
AcDbSpline
 70
8
 71
3
 72
8
 73
4
 74
0
 40
0
 40
0
 40
0
 40
0
 40
1
 40
1
 40
1
 40
1
 10
121.823178
 20
37.384235
 30
0.0
 10
122.219596
 20
37.384235
 30
0.0
 10
122.540956
 20
37.062875
 30
0.0
 10
122.540956
 20
36.666458
 30
0.0
  0
LINE
  5
14f
100
AcDbEntity
  8
Layer_1
 62
7
100
AcDbLine
 10
122.540956
 20
36.666458
 30
0.0
 11
122.540956
 21
36.666458
 31
0.0
  0
SPLINE
  5
150
100
AcDbEntity
  8
Layer_1
 62
1
100
AcDbSpline
 70
8
 71
3
 72
8
 73
4
 74
0
 40
0
 40
0
 40
0
 40
0
 40
1
 40
1
 40
1
 40
1
 10
131.073176
 20
36.666458
 30
0.0
 10
131.073176
 20
31.557824
 30
0.0
 10
126.931811
 20
27.416459
 30
0.0
 10
121.823177
 20
27.416459
 30
0.0
  0
SPLINE
  5
151
100
AcDbEntity
  8
Layer_1
 62
1
100
AcDbSpline
 70
8
 71
3
 72
8
 73
4
 74
0
 40
0
 40
0
 40
0
 40
0
 40
1
 40
1
 40
1
 40
1
 10
121.823177
 20
27.416459
 30
0.0
 10
116.714543
 20
27.416459
 30
0.0
 10
112.573178
 20
31.557824
 30
0.0
 10
112.573178
 20
36.666458
 30
0.0
  0
SPLINE
  5
152
100
AcDbEntity
  8
Layer_1
 62
1
100
AcDbSpline
 70
8
 71
3
 72
8
 73
4
 74
0
 40
0
 40
0
 40
0
 40
0
 40
1
 40
1
 40
1
 40
1
 10
112.573178
 20
36.666458
 30
0.0
 10
112.573178
 20
41.775092
 30
0.0
 10
116.714543
 20
45.916459
 30
0.0
 10
121.823177
 20
45.916459
 30
0.0
  0
SPLINE
  5
153
100
AcDbEntity
  8
Layer_1
 62
1
100
AcDbSpline
 70
8
 71
3
 72
8
 73
4
 74
0
 40
0
 40
0
 40
0
 40
0
 40
1
 40
1
 40
1
 40
1
 10
121.823177
 20
45.916459
 30
0.0
 10
126.931811
 20
45.916459
 30
0.0
 10
131.073176
 20
41.775092
 30
0.0
 10
131.073176
 20
36.666458
 30
0.0
  0
LINE
  5
154
100
AcDbEntity
  8
Layer_1
 62
1
100
AcDbLine
 10
131.073176
 20
36.666458
 30
0.0
 11
131.073176
 21
36.666458
 31
0.0
  0
SPLINE
  5
155
100
AcDbEntity
  8
Layer_1
 62
1
100
AcDbSpline
 70
8
 71
3
 72
8
 73
4
 74
0
 40
0
 40
0
 40
0
 40
0
 40
1
 40
1
 40
1
 40
1
 10
125.573176
 20
36.666457
 30
0.0
 10
125.573176
 20
34.595389
 30
0.0
 10
123.894245
 20
32.916457
 30
0.0
 10
121.823177
 20
32.916457
 30
0.0
  0
SPLINE
  5
156
100
AcDbEntity
  8
Layer_1
 62
1
100
AcDbSpline
 70
8
 71
3
 72
8
 73
4
 74
0
 40
0
 40
0
 40
0
 40
0
 40
1
 40
1
 40
1
 40
1
 10
121.823177
 20
32.916457
 30
0.0
 10
119.752109
 20
32.916457
 30
0.0
 10
118.073177
 20
34.595389
 30
0.0
 10
118.073177
 20
36.666457
 30
0.0
  0
SPLINE
  5
157
100
AcDbEntity
  8
Layer_1
 62
1
100
AcDbSpline
 70
8
 71
3
 72
8
 73
4
 74
0
 40
0
 40
0
 40
0
 40
0
 40
1
 40
1
 40
1
 40
1
 10
118.073177
 20
36.666457
 30
0.0
 10
118.073177
 20
38.737525
 30
0.0
 10
119.752109
 20
40.416457
 30
0.0
 10
121.823177
 20
40.416457
 30
0.0
  0
SPLINE
  5
158
100
AcDbEntity
  8
Layer_1
 62
1
100
AcDbSpline
 70
8
 71
3
 72
8
 73
4
 74
0
 40
0
 40
0
 40
0
 40
0
 40
1
 40
1
 40
1
 40
1
 10
121.823177
 20
40.416457
 30
0.0
 10
123.894245
 20
40.416457
 30
0.0
 10
125.573176
 20
38.737525
 30
0.0
 10
125.573176
 20
36.666457
 30
0.0
  0
LINE
  5
159
100
AcDbEntity
  8
Layer_1
 62
1
100
AcDbLine
 10
125.573176
 20
36.666457
 30
0.0
 11
125.573176
 21
36.666457
 31
0.0
  0
SPLINE
  5
15a
100
AcDbEntity
  8
Layer_1
 62
7
100
AcDbSpline
 70
8
 71
3
 72
8
 73
4
 74
0
 40
0
 40
0
 40
0
 40
0
 40
1
 40
1
 40
1
 40
1
 10
240.750542
 20
204.901992
 30
0.0
 10
228.028641
 20
204.901992
 30
0.0
 10
216.312919
 20
200.604820
 30
0.0
 10
206.968824
 20
193.385011
 30
0.0
  0
SPLINE
  5
15b
100
AcDbEntity
  8
Layer_1
 62
7
100
AcDbSpline
 70
8
 71
3
 72
8
 73
4
 74
0
 40
0
 40
0
 40
0
 40
0
 40
1
 40
1
 40
1
 40
1
 10
206.968824
 20
193.385011
 30
0.0
 10
209.857566
 20
189.090831
 30
0.0
 10
213.541554
 20
185.378734
 30
0.0
 10
217.812761
 20
182.458665
 30
0.0
  0
SPLINE
  5
15c
100
AcDbEntity
  8
Layer_1
 62
7
100
AcDbSpline
 70
8
 71
3
 72
8
 73
4
 74
0
 40
0
 40
0
 40
0
 40
0
 40
1
 40
1
 40
1
 40
1
 10
217.812761
 20
182.458665
 30
0.0
 10
224.311351
 20
187.003685
 30
0.0
 10
232.218174
 20
189.669640
 30
0.0
 10
240.750542
 20
189.669640
 30
0.0
  0
SPLINE
  5
15d
100
AcDbEntity
  8
Layer_1
 62
7
100
AcDbSpline
 70
8
 71
3
 72
8
 73
4
 74
0
 40
0
 40
0
 40
0
 40
0
 40
1
 40
1
 40
1
 40
1
 10
240.750542
 20
189.669640
 30
0.0
 10
249.280821
 20
189.669640
 30
0.0
 10
257.190607
 20
187.008539
 30
0.0
 10
263.688322
 20
182.465551
 30
0.0
  0
SPLINE
  5
15e
100
AcDbEntity
  8
Layer_1
 62
7
100
AcDbSpline
 70
8
 71
3
 72
8
 73
4
 74
0
 40
0
 40
0
 40
0
 40
0
 40
1
 40
1
 40
1
 40
1
 10
263.688322
 20
182.465551
 30
0.0
 10
267.956990
 20
185.384830
 30
0.0
 10
271.644477
 20
189.093484
 30
0.0
 10
274.532259
 20
193.385011
 30
0.0
  0
SPLINE
  5
15f
100
AcDbEntity
  8
Layer_1
 62
7
100
AcDbSpline
 70
8
 71
3
 72
8
 73
4
 74
0
 40
0
 40
0
 40
0
 40
0
 40
1
 40
1
 40
1
 40
1
 10
274.532259
 20
193.385011
 30
0.0
 10
265.188164
 20
200.604820
 30
0.0
 10
253.472442
 20
204.901992
 30
0.0
 10
240.750542
 20
204.901992
 30
0.0
  0
LINE
  5
160
100
AcDbEntity
  8
Layer_1
 62
7
100
AcDbLine
 10
240.750542
 20
204.901992
 30
0.0
 11
240.750542
 21
204.901992
 31
0.0
  0
SPLINE
  5
161
100
AcDbEntity
  8
Layer_1
 62
7
100
AcDbSpline
 70
8
 71
3
 72
8
 73
4
 74
0
 40
0
 40
0
 40
0
 40
0
 40
1
 40
1
 40
1
 40
1
 10
174.074723
 20
127.376479
 30
0.0
 10
173.847534
 20
127.376479
 30
0.0
 10
173.621164
 20
127.373375
 30
0.0
 10
173.394822
 20
127.369706
 30
0.0
  0
SPLINE
  5
162
100
AcDbEntity
  8
Layer_1
 62
7
100
AcDbSpline
 70
8
 71
3
 72
8
 73
4
 74
0
 40
0
 40
0
 40
0
 40
0
 40
1
 40
1
 40
1
 40
1
 10
173.394822
 20
127.369706
 30
0.0
 10
173.370550
 20
126.695562
 30
0.0
 10
173.353645
 20
126.017015
 30
0.0
 10
173.353645
 20
125.336916
 30
0.0
  0
SPLINE
  5
163
100
AcDbEntity
  8
Layer_1
 62
7
100
AcDbSpline
 70
8
 71
3
 72
8
 73
4
 74
0
 40
0
 40
0
 40
0
 40
0
 40
1
 40
1
 40
1
 40
1
 10
173.353645
 20
125.336916
 30
0.0
 10
173.353645
 20
100.517616
 30
0.0
 10
189.701283
 20
79.518505
 30
0.0
 10
212.217339
 20
72.518236
 30
0.0
  0
SPLINE
  5
164
100
AcDbEntity
  8
Layer_1
 62
7
100
AcDbSpline
 70
8
 71
3
 72
8
 73
4
 74
0
 40
0
 40
0
 40
0
 40
0
 40
1
 40
1
 40
1
 40
1
 10
212.217339
 20
72.518236
 30
0.0
 10
213.856288
 20
76.930160
 30
0.0
 10
214.758355
 20
81.703159
 30
0.0
 10
214.758355
 20
86.686074
 30
0.0
  0
SPLINE
  5
165
100
AcDbEntity
  8
Layer_1
 62
7
100
AcDbSpline
 70
8
 71
3
 72
8
 73
4
 74
0
 40
0
 40
0
 40
0
 40
0
 40
1
 40
1
 40
1
 40
1
 10
214.758355
 20
86.686074
 30
0.0
 10
214.758355
 20
87.041815
 30
0.0
 10
214.753839
 20
87.397020
 30
0.0
 10
214.744526
 20
87.750560
 30
0.0
  0
SPLINE
  5
166
100
AcDbEntity
  8
Layer_1
 62
7
100
AcDbSpline
 70
8
 71
3
 72
8
 73
4
 74
0
 40
0
 40
0
 40
0
 40
0
 40
1
 40
1
 40
1
 40
1
 10
214.744526
 20
87.750560
 30
0.0
 10
199.661385
 20
93.336838
 30
0.0
 10
188.856281
 20
107.741574
 30
0.0
 10
188.592714
 20
124.705076
 30
0.0
  0
SPLINE
  5
167
100
AcDbEntity
  8
Layer_1
 62
7
100
AcDbSpline
 70
8
 71
3
 72
8
 73
4
 74
0
 40
0
 40
0
 40
0
 40
0
 40
1
 40
1
 40
1
 40
1
 10
188.592714
 20
124.705076
 30
0.0
 10
184.083057
 20
126.428833
 30
0.0
 10
179.190396
 20
127.376592
 30
0.0
 10
174.074610
 20
127.376592
 30
0.0
  0
LINE
  5
168
100
AcDbEntity
  8
Layer_1
 62
7
100
AcDbLine
 10
174.074610
 20
127.376592
 30
0.0
 11
174.074723
 21
127.376479
 31
0.0
  0
SPLINE
  5
169
100
AcDbEntity
  8
Layer_1
 62
7
100
AcDbSpline
 70
8
 71
3
 72
8
 73
4
 74
0
 40
0
 40
0
 40
0
 40
0
 40
1
 40
1
 40
1
 40
1
 10
307.433272
 20
127.375463
 30
0.0
 10
302.316532
 20
127.375463
 30
0.0
 10
297.419240
 20
126.428354
 30
0.0
 10
292.908307
 20
124.703976
 30
0.0
  0
SPLINE
  5
16a
100
AcDbEntity
  8
Layer_1
 62
7
100
AcDbSpline
 70
8
 71
3
 72
8
 73
4
 74
0
 40
0
 40
0
 40
0
 40
0
 40
1
 40
1
 40
1
 40
1
 10
292.908307
 20
124.703976
 30
0.0
 10
292.644751
 20
107.740134
 30
0.0
 10
281.840122
 20
93.335484
 30
0.0
 10
266.756501
 20
87.749459
 30
0.0
  0
SPLINE
  5
16b
100
AcDbEntity
  8
Layer_1
 62
7
100
AcDbSpline
 70
8
 71
3
 72
8
 73
4
 74
0
 40
0
 40
0
 40
0
 40
0
 40
1
 40
1
 40
1
 40
1
 10
266.756501
 20
87.749459
 30
0.0
 10
266.747470
 20
87.395920
 30
0.0
 10
266.742954
 20
87.040686
 30
0.0
 10
266.742954
 20
86.684945
 30
0.0
  0
SPLINE
  5
16c
100
AcDbEntity
  8
Layer_1
 62
7
100
AcDbSpline
 70
8
 71
3
 72
8
 73
4
 74
0
 40
0
 40
0
 40
0
 40
0
 40
1
 40
1
 40
1
 40
1
 10
266.742954
 20
86.684945
 30
0.0
 10
266.742954
 20
81.699970
 30
0.0
 10
267.636329
 20
76.923725
 30
0.0
 10
269.277084
 20
72.510250
 30
0.0
  0
SPLINE
  5
16d
100
AcDbEntity
  8
Layer_1
 62
7
100
AcDbSpline
 70
8
 71
3
 72
8
 73
4
 74
0
 40
0
 40
0
 40
0
 40
0
 40
1
 40
1
 40
1
 40
1
 10
269.277084
 20
72.510250
 30
0.0
 10
291.797362
 20
79.508006
 30
0.0
 10
308.147683
 20
100.513552
 30
0.0
 10
308.147683
 20
125.335787
 30
0.0
  0
SPLINE
  5
16e
100
AcDbEntity
  8
Layer_1
 62
7
100
AcDbSpline
 70
8
 71
3
 72
8
 73
4
 74
0
 40
0
 40
0
 40
0
 40
0
 40
1
 40
1
 40
1
 40
1
 10
308.147683
 20
125.335787
 30
0.0
 10
308.147683
 20
126.015914
 30
0.0
 10
308.137693
 20
126.694461
 30
0.0
 10
308.113345
 20
127.368605
 30
0.0
  0
SPLINE
  5
16f
100
AcDbEntity
  8
Layer_1
 62
7
100
AcDbSpline
 70
8
 71
3
 72
8
 73
4
 74
0
 40
0
 40
0
 40
0
 40
0
 40
1
 40
1
 40
1
 40
1
 10
308.113345
 20
127.368605
 30
0.0
 10
307.887045
 20
127.372556
 30
0.0
 10
307.660633
 20
127.375378
 30
0.0
 10
307.433452
 20
127.375378
 30
0.0
  0
LINE
  5
170
100
AcDbEntity
  8
Layer_1
 62
7
100
AcDbLine
 10
307.433452
 20
127.375378
 30
0.0
 11
307.433272
 21
127.375463
 31
0.0
  0
SPLINE
  5
171
100
AcDbEntity
  8
Layer_1
 62
7
100
AcDbSpline
 70
8
 71
3
 72
8
 73
4
 74
0
 40
0
 40
0
 40
0
 40
0
 40
1
 40
1
 40
1
 40
1
 10
213.039847
 20
264.562195
 30
0.0
 10
183.496430
 20
253.416110
 30
0.0
 10
162.477958
 20
224.892362
 30
0.0
 10
162.477958
 20
191.449029
 30
0.0
  0
SPLINE
  5
172
100
AcDbEntity
  8
Layer_1
 62
7
100
AcDbSpline
 70
8
 71
3
 72
8
 73
4
 74
0
 40
0
 40
0
 40
0
 40
0
 40
1
 40
1
 40
1
 40
1
 10
162.477958
 20
191.449029
 30
0.0
 10
162.477958
 20
187.287013
 30
0.0
 10
162.803671
 20
183.202439
 30
0.0
 10
163.430458
 20
179.216445
 30
0.0
  0
SPLINE
  5
173
100
AcDbEntity
  8
Layer_1
 62
7
100
AcDbSpline
 70
8
 71
3
 72
8
 73
4
 74
0
 40
0
 40
0
 40
0
 40
0
 40
1
 40
1
 40
1
 40
1
 10
163.430458
 20
179.216445
 30
0.0
 10
133.843550
 20
168.092995
 30
0.0
 10
112.789236
 20
139.534138
 30
0.0
 10
112.789236
 20
106.059139
 30
0.0
  0
SPLINE
  5
174
100
AcDbEntity
  8
Layer_1
 62
7
100
AcDbSpline
 70
8
 71
3
 72
8
 73
4
 74
0
 40
0
 40
0
 40
0
 40
0
 40
1
 40
1
 40
1
 40
1
 10
112.789236
 20
106.059139
 30
0.0
 10
112.789236
 20
95.384197
 30
0.0
 10
114.944850
 20
85.218468
 30
0.0
 10
118.821736
 20
75.949584
 30
0.0
  0
SPLINE
  5
175
100
AcDbEntity
  8
Layer_1
 62
7
100
AcDbSpline
 70
8
 71
3
 72
8
 73
4
 74
0
 40
0
 40
0
 40
0
 40
0
 40
1
 40
1
 40
1
 40
1
 10
118.821736
 20
75.949584
 30
0.0
 10
117.882783
 20
80.016745
 30
0.0
 10
117.392958
 20
84.253042
 30
0.0
 10
117.392958
 20
88.605473
 30
0.0
  0
SPLINE
  5
176
100
AcDbEntity
  8
Layer_1
 62
7
100
AcDbSpline
 70
8
 71
3
 72
8
 73
4
 74
0
 40
0
 40
0
 40
0
 40
0
 40
1
 40
1
 40
1
 40
1
 10
117.392958
 20
88.605473
 30
0.0
 10
117.392958
 20
119.556220
 30
0.0
 10
142.480961
 20
144.644223
 30
0.0
 10
173.431736
 20
144.644223
 30
0.0
  0
SPLINE
  5
177
100
AcDbEntity
  8
Layer_1
 62
7
100
AcDbSpline
 70
8
 71
3
 72
8
 73
4
 74
0
 40
0
 40
0
 40
0
 40
0
 40
1
 40
1
 40
1
 40
1
 10
173.431736
 20
144.644223
 30
0.0
 10
190.104917
 20
144.644223
 30
0.0
 10
205.067634
 20
137.353746
 30
0.0
 10
215.332903
 20
125.797084
 30
0.0
  0
LINE
  5
178
100
AcDbEntity
  8
Layer_1
 62
7
100
AcDbLine
 10
215.332903
 20
125.797084
 30
0.0
 11
218.790125
 21
128.134223
 31
0.0
  0
SPLINE
  5
179
100
AcDbEntity
  8
Layer_1
 62
7
100
AcDbSpline
 70
8
 71
3
 72
8
 73
4
 74
0
 40
0
 40
0
 40
0
 40
0
 40
1
 40
1
 40
1
 40
1
 10
218.790125
 20
128.134223
 30
0.0
 10
218.168813
 20
130.205706
 30
0.0
 10
217.828791
 20
132.396061
 30
0.0
 10
217.828791
 20
134.669417
 30
0.0
  0
SPLINE
  5
17a
100
AcDbEntity
  8
Layer_1
 62
7
100
AcDbSpline
 70
8
 71
3
 72
8
 73
4
 74
0
 40
0
 40
0
 40
0
 40
0
 40
1
 40
1
 40
1
 40
1
 10
217.828791
 20
134.669417
 30
0.0
 10
217.828791
 20
144.796002
 30
0.0
 10
224.427570
 20
153.371127
 30
0.0
 10
233.562680
 20
156.338806
 30
0.0
  0
LINE
  5
17b
100
AcDbEntity
  8
Layer_1
 62
7
100
AcDbLine
 10
233.562680
 20
156.338806
 30
0.0
 11
233.562680
 21
160.175250
 31
0.0
  0
SPLINE
  5
17c
100
AcDbEntity
  8
Layer_1
 62
7
100
AcDbSpline
 70
8
 71
3
 72
8
 73
4
 74
0
 40
0
 40
0
 40
0
 40
0
 40
1
 40
1
 40
1
 40
1
 10
233.562680
 20
160.175250
 30
0.0
 10
205.970688
 20
163.670403
 30
0.0
 10
184.641236
 20
187.223090
 30
0.0
 10
184.641236
 20
215.764223
 30
0.0
  0
SPLINE
  5
17d
100
AcDbEntity
  8
Layer_1
 62
7
100
AcDbSpline
 70
8
 71
3
 72
8
 73
4
 74
0
 40
0
 40
0
 40
0
 40
0
 40
1
 40
1
 40
1
 40
1
 10
184.641236
 20
215.764223
 30
0.0
 10
184.641236
 20
236.383971
 30
0.0
 10
195.774762
 20
254.398498
 30
0.0
 10
212.360736
 20
264.130056
 30
0.0
  0
SPLINE
  5
17e
100
AcDbEntity
  8
Layer_1
 62
7
100
AcDbSpline
 70
8
 71
3
 72
8
 73
4
 74
0
 40
0
 40
0
 40
0
 40
0
 40
1
 40
1
 40
1
 40
1
 10
212.360736
 20
264.130056
 30
0.0
 10
212.586514
 20
264.275401
 30
0.0
 10
212.811812
 20
264.420265
 30
0.0
 10
213.039847
 20
264.562195
 30
0.0
  0
LINE
  5
17f
100
AcDbEntity
  8
Layer_1
 62
7
100
AcDbLine
 10
213.039847
 20
264.562195
 30
0.0
 11
213.039847
 21
264.562195
 31
0.0
  0
SPLINE
  5
180
100
AcDbEntity
  8
Layer_1
 62
7
100
AcDbSpline
 70
8
 71
3
 72
8
 73
4
 74
0
 40
0
 40
0
 40
0
 40
0
 40
1
 40
1
 40
1
 40
1
 10
268.381847
 20
264.491639
 30
0.0
 10
285.309677
 20
254.848473
 30
0.0
 10
296.718736
 20
236.639693
 30
0.0
 10
296.718736
 20
215.764223
 30
0.0
  0
SPLINE
  5
181
100
AcDbEntity
  8
Layer_1
 62
7
100
AcDbSpline
 70
8
 71
3
 72
8
 73
4
 74
0
 40
0
 40
0
 40
0
 40
0
 40
1
 40
1
 40
1
 40
1
 10
296.718736
 20
215.764223
 30
0.0
 10
296.718736
 20
187.182450
 30
0.0
 10
275.322961
 20
163.600356
 30
0.0
 10
247.673791
 20
160.157640
 30
0.0
  0
LINE
  5
182
100
AcDbEntity
  8
Layer_1
 62
7
100
AcDbLine
 10
247.673791
 20
160.157640
 30
0.0
 11
247.673791
 21
156.329973
 31
0.0
  0
SPLINE
  5
183
100
AcDbEntity
  8
Layer_1
 62
7
100
AcDbSpline
 70
8
 71
3
 72
8
 73
4
 74
0
 40
0
 40
0
 40
0
 40
0
 40
1
 40
1
 40
1
 40
1
 10
247.673791
 20
156.329973
 30
0.0
 10
256.799673
 20
153.356423
 30
0.0
 10
263.398875
 20
144.787592
 30
0.0
 10
263.398875
 20
134.669417
 30
0.0
  0
SPLINE
  5
184
100
AcDbEntity
  8
Layer_1
 62
7
100
AcDbSpline
 70
8
 71
3
 72
8
 73
4
 74
0
 40
0
 40
0
 40
0
 40
0
 40
1
 40
1
 40
1
 40
1
 10
263.398875
 20
134.669417
 30
0.0
 10
263.398875
 20
132.407208
 30
0.0
 10
263.062268
 20
130.223062
 30
0.0
 10
262.446375
 20
128.160695
 30
0.0
  0
LINE
  5
185
100
AcDbEntity
  8
Layer_1
 62
7
100
AcDbLine
 10
262.446375
 20
128.160695
 30
0.0
 11
265.850680
 21
125.867640
 31
0.0
  0
SPLINE
  5
186
100
AcDbEntity
  8
Layer_1
 62
7
100
AcDbSpline
 70
8
 71
3
 72
8
 73
4
 74
0
 40
0
 40
0
 40
0
 40
0
 40
1
 40
1
 40
1
 40
1
 10
265.850680
 20
125.867640
 30
0.0
 10
276.114454
 20
137.381742
 30
0.0
 10
291.052326
 20
144.644223
 30
0.0
 10
307.690125
 20
144.644223
 30
0.0
  0
SPLINE
  5
187
100
AcDbEntity
  8
Layer_1
 62
7
100
AcDbSpline
 70
8
 71
3
 72
8
 73
4
 74
0
 40
0
 40
0
 40
0
 40
0
 40
1
 40
1
 40
1
 40
1
 10
307.690125
 20
144.644223
 30
0.0
 10
338.640843
 20
144.644223
 30
0.0
 10
363.728875
 20
119.556220
 30
0.0
 10
363.728875
 20
88.605473
 30
0.0
  0
SPLINE
  5
188
100
AcDbEntity
  8
Layer_1
 62
7
100
AcDbSpline
 70
8
 71
3
 72
8
 73
4
 74
0
 40
0
 40
0
 40
0
 40
0
 40
1
 40
1
 40
1
 40
1
 10
363.728875
 20
88.605473
 30
0.0
 10
363.728875
 20
84.016060
 30
0.0
 10
363.173205
 20
79.557118
 30
0.0
 10
362.132555
 20
75.288112
 30
0.0
  0
SPLINE
  5
189
100
AcDbEntity
  8
Layer_1
 62
7
100
AcDbSpline
 70
8
 71
3
 72
8
 73
4
 74
0
 40
0
 40
0
 40
0
 40
0
 40
1
 40
1
 40
1
 40
1
 10
362.132555
 20
75.288112
 30
0.0
 10
366.184617
 20
84.732678
 30
0.0
 10
368.438458
 20
95.131100
 30
0.0
 10
368.438458
 20
106.059139
 30
0.0
  0
SPLINE
  5
18a
100
AcDbEntity
  8
Layer_1
 62
7
100
AcDbSpline
 70
8
 71
3
 72
8
 73
4
 74
0
 40
0
 40
0
 40
0
 40
0
 40
1
 40
1
 40
1
 40
1
 10
368.438458
 20
106.059139
 30
0.0
 10
368.438486
 20
139.535972
 30
0.0
 10
347.378203
 20
168.094321
 30
0.0
 10
317.788389
 20
179.216445
 30
0.0
  0
SPLINE
  5
18b
100
AcDbEntity
  8
Layer_1
 62
7
100
AcDbSpline
 70
8
 71
3
 72
8
 73
4
 74
0
 40
0
 40
0
 40
0
 40
0
 40
1
 40
1
 40
1
 40
1
 10
317.788389
 20
179.216445
 30
0.0
 10
318.415261
 20
183.202524
 30
0.0
 10
318.740889
 20
187.286900
 30
0.0
 10
318.740889
 20
191.449029
 30
0.0
  0
SPLINE
  5
18c
100
AcDbEntity
  8
Layer_1
 62
7
100
AcDbSpline
 70
8
 71
3
 72
8
 73
4
 74
0
 40
0
 40
0
 40
0
 40
0
 40
1
 40
1
 40
1
 40
1
 10
318.740889
 20
191.449029
 30
0.0
 10
318.740889
 20
224.816444
 30
0.0
 10
297.819490
 20
253.291989
 30
0.0
 10
268.381847
 20
264.491639
 30
0.0
  0
LINE
  5
18d
100
AcDbEntity
  8
Layer_1
 62
7
100
AcDbLine
 10
268.381847
 20
264.491639
 30
0.0
 11
268.381847
 21
264.491639
 31
0.0
  0
SPLINE
  5
18e
100
AcDbEntity
  8
Layer_1
 62
7
100
AcDbSpline
 70
8
 71
3
 72
8
 73
4
 74
0
 40
0
 40
0
 40
0
 40
0
 40
1
 40
1
 40
1
 40
1
 10
254.411847
 20
116.554306
 30
0.0
 10
250.581160
 20
113.630569
 30
0.0
 10
245.801924
 20
111.888806
 30
0.0
 10
240.609430
 20
111.888806
 30
0.0
  0
SPLINE
  5
18f
100
AcDbEntity
  8
Layer_1
 62
7
100
AcDbSpline
 70
8
 71
3
 72
8
 73
4
 74
0
 40
0
 40
0
 40
0
 40
0
 40
1
 40
1
 40
1
 40
1
 10
240.609430
 20
111.888806
 30
0.0
 10
235.428988
 20
111.888806
 30
0.0
 10
230.659009
 20
113.625320
 30
0.0
 10
226.833458
 20
116.536639
 30
0.0
  0
LINE
  5
190
100
AcDbEntity
  8
Layer_1
 62
7
100
AcDbLine
 10
226.833458
 20
116.536639
 30
0.0
 11
223.314514
 21
114.164223
 31
0.0
  0
SPLINE
  5
191
100
AcDbEntity
  8
Layer_1
 62
7
100
AcDbSpline
 70
8
 71
3
 72
8
 73
4
 74
0
 40
0
 40
0
 40
0
 40
0
 40
1
 40
1
 40
1
 40
1
 10
223.314514
 20
114.164223
 30
0.0
 10
227.249736
 20
106.500986
 30
0.0
 10
229.470514
 20
97.813566
 30
0.0
 10
229.470458
 20
88.605473
 30
0.0
  0
SPLINE
  5
192
100
AcDbEntity
  8
Layer_1
 62
7
100
AcDbSpline
 70
8
 71
3
 72
8
 73
4
 74
0
 40
0
 40
0
 40
0
 40
0
 40
1
 40
1
 40
1
 40
1
 10
229.470458
 20
88.605473
 30
0.0
 10
229.470458
 20
57.654754
 30
0.0
 10
204.382455
 20
32.557918
 30
0.0
 10
173.431736
 20
32.557918
 30
0.0
  0
SPLINE
  5
193
100
AcDbEntity
  8
Layer_1
 62
7
100
AcDbSpline
 70
8
 71
3
 72
8
 73
4
 74
0
 40
0
 40
0
 40
0
 40
0
 40
1
 40
1
 40
1
 40
1
 10
173.431736
 20
32.557918
 30
0.0
 10
170.416248
 20
32.557918
 30
0.0
 10
167.454580
 20
32.796113
 30
0.0
 10
164.568180
 20
33.254640
 30
0.0
  0
SPLINE
  5
194
100
AcDbEntity
  8
Layer_1
 62
7
100
AcDbSpline
 70
8
 71
3
 72
8
 73
4
 74
0
 40
0
 40
0
 40
0
 40
0
 40
1
 40
1
 40
1
 40
1
 10
164.568180
 20
33.254640
 30
0.0
 10
163.487439
 20
33.376108
 30
0.0
 10
162.417252
 20
33.534914
 30
0.0
 10
161.357903
 20
33.722084
 30
0.0
  0
SPLINE
  5
195
100
AcDbEntity
  8
Layer_1
 62
7
100
AcDbSpline
 70
8
 71
3
 72
8
 73
4
 74
0
 40
0
 40
0
 40
0
 40
0
 40
1
 40
1
 40
1
 40
1
 10
161.357903
 20
33.722084
 30
0.0
 10
170.478591
 20
29.990260
 30
0.0
 10
180.456981
 20
27.927695
 30
0.0
 10
190.920680
 20
27.927695
 30
0.0
  0
SPLINE
  5
196
100
AcDbEntity
  8
Layer_1
 62
7
100
AcDbSpline
 70
8
 71
3
 72
8
 73
4
 74
0
 40
0
 40
0
 40
0
 40
0
 40
1
 40
1
 40
1
 40
1
 10
190.920680
 20
27.927695
 30
0.0
 10
209.796324
 20
27.927695
 30
0.0
 10
227.104730
 20
34.626324
 30
0.0
 10
240.609430
 20
45.769417
 30
0.0
  0
SPLINE
  5
197
100
AcDbEntity
  8
Layer_1
 62
7
100
AcDbSpline
 70
8
 71
3
 72
8
 73
4
 74
0
 40
0
 40
0
 40
0
 40
0
 40
1
 40
1
 40
1
 40
1
 10
240.609430
 20
45.769417
 30
0.0
 10
254.114864
 20
34.623728
 30
0.0
 10
271.428916
 20
27.927695
 30
0.0
 10
290.307000
 20
27.927695
 30
0.0
  0
SPLINE
  5
198
100
AcDbEntity
  8
Layer_1
 62
7
100
AcDbSpline
 70
8
 71
3
 72
8
 73
4
 74
0
 40
0
 40
0
 40
0
 40
0
 40
1
 40
1
 40
1
 40
1
 10
290.307000
 20
27.927695
 30
0.0
 10
300.770727
 20
27.927695
 30
0.0
 10
310.749092
 20
29.990260
 30
0.0
 10
319.869778
 20
33.722084
 30
0.0
  0
SPLINE
  5
199
100
AcDbEntity
  8
Layer_1
 62
7
100
AcDbSpline
 70
8
 71
3
 72
8
 73
4
 74
0
 40
0
 40
0
 40
0
 40
0
 40
1
 40
1
 40
1
 40
1
 10
319.869778
 20
33.722084
 30
0.0
 10
318.706652
 20
33.516514
 30
0.0
 10
317.530649
 20
33.345572
 30
0.0
 10
316.342000
 20
33.219362
 30
0.0
  0
SPLINE
  5
19a
100
AcDbEntity
  8
Layer_1
 62
7
100
AcDbSpline
 70
8
 71
3
 72
8
 73
4
 74
0
 40
0
 40
0
 40
0
 40
0
 40
1
 40
1
 40
1
 40
1
 10
316.342000
 20
33.219362
 30
0.0
 10
313.520334
 20
32.781804
 30
0.0
 10
310.634405
 20
32.557918
 30
0.0
 10
307.690125
 20
32.557918
 30
0.0
  0
SPLINE
  5
19b
100
AcDbEntity
  8
Layer_1
 62
7
100
AcDbSpline
 70
8
 71
3
 72
8
 73
4
 74
0
 40
0
 40
0
 40
0
 40
0
 40
1
 40
1
 40
1
 40
1
 10
307.690125
 20
32.557918
 30
0.0
 10
276.739350
 20
32.557918
 30
0.0
 10
251.642570
 20
57.654754
 30
0.0
 10
251.642570
 20
88.605473
 30
0.0
  0
SPLINE
  5
19c
100
AcDbEntity
  8
Layer_1
 62
7
100
AcDbSpline
 70
8
 71
3
 72
8
 73
4
 74
0
 40
0
 40
0
 40
0
 40
0
 40
1
 40
1
 40
1
 40
1
 10
251.642570
 20
88.605473
 30
0.0
 10
251.642570
 20
97.843792
 30
0.0
 10
253.882539
 20
106.553593
 30
0.0
 10
257.842625
 20
114.234778
 30
0.0
  0
LINE
  5
19d
100
AcDbEntity
  8
Layer_1
 62
7
100
AcDbLine
 10
257.842625
 20
114.234778
 30
0.0
 11
254.411847
 21
116.554306
 31
0.0
  0
LINE
  5
19e
100
AcDbEntity
  8
Layer_1
 62
7
100
AcDbLine
 10
254.411847
 20
116.554306
 30
0.0
 11
254.411847
 21
116.554306
 31
0.0
  0
ENDSEC
  0
SECTION
  2
OBJECTS
  0
DICTIONARY
  5
C
330
0
100
AcDbDictionary
  3
ACAD_GROUP
350
D
  3
ACAD_MLINESTYLE
350
17
  0
DICTIONARY
  5
D
330
C
100
AcDbDictionary
  0
DICTIONARY
  5
1A
330
C
100
AcDbDictionary
  0
DICTIONARY
  5
17
330
C
100
AcDbDictionary
  3
STANDARD
350
18
  0
DICTIONARY
  5
19
330
C
100
AcDbDictionary
  0
ENDSEC
  0
EOF
